<svg width="22" height="23" viewBox="0 0 22 23" fill="none" xmlns="http://www.w3.org/2000/svg">
<path fill-rule="evenodd" clip-rule="evenodd" d="M5.00383 1.46655C5.6227 0.847679 6.46207 0.5 7.33729 0.5L14.6627 0.5C15.5379 0.5 16.3773 0.847678 16.9961 1.46655L21.0334 5.50385C21.6523 6.12272 22 6.96209 22 7.83731V15.1627C22 16.0379 21.6523 16.8773 21.0334 17.4961L16.9961 21.5335C16.3773 22.1523 15.5379 22.5 14.6627 22.5L7.33729 22.5C6.46207 22.5 5.6227 22.1523 5.00383 21.5334L0.966543 17.4961C0.347676 16.8773 0 16.0379 0 15.1627L5.96046e-08 7.8373C5.96046e-08 6.96209 0.347677 6.12272 0.966544 5.50386L5.00383 1.46655ZM7.33729 2.5C6.99251 2.5 6.66185 2.63696 6.41805 2.88076L2.38076 6.91807C2.13696 7.16186 2 7.49252 2 7.8373V15.1627C2 15.5075 2.13696 15.8381 2.38076 16.0819L6.41805 20.1192C6.66184 20.363 6.99251 20.5 7.33729 20.5L14.6627 20.5C15.0075 20.5 15.3381 20.363 15.5819 20.1192L19.6192 16.0819C19.863 15.8381 20 15.5075 20 15.1627V7.83731C20 7.49253 19.863 7.16186 19.6192 6.91807L15.5819 2.88076C15.3381 2.63696 15.0075 2.5 14.6627 2.5H7.33729Z" fill="#1E212C"/>
<path d="M12 16C12 16.5523 11.5523 17 11 17C10.4477 17 9.99999 16.5523 9.99999 16C9.99999 15.4477 10.4477 15 11 15C11.5523 15 12 15.4477 12 16Z" fill="#1E212C"/>
<path fill-rule="evenodd" clip-rule="evenodd" d="M11 13.625C10.4477 13.625 9.99999 13.1773 9.99999 12.625V7.00001C9.99999 6.44773 10.4477 6.00001 11 6.00001C11.5523 6.00001 12 6.44773 12 7.00001V12.625C12 13.1773 11.5523 13.625 11 13.625Z" fill="#1E212C"/>
</svg>
