<svg width="24" height="22" viewBox="0 0 24 22" fill="none" xmlns="http://www.w3.org/2000/svg">
<path fill-rule="evenodd" clip-rule="evenodd" d="M12.0001 14.125C11.4478 14.125 11.0001 13.6773 11.0001 13.125V7.5C11.0001 6.94772 11.4478 6.5 12.0001 6.5C12.5524 6.5 13.0001 6.94772 13.0001 7.5V13.125C13.0001 13.6773 12.5524 14.125 12.0001 14.125Z" fill="#1E212C"/>
<path d="M13.0001 16.5C13.0001 17.0523 12.5524 17.5 12.0001 17.5C11.4478 17.5 11.0001 17.0523 11.0001 16.5C11.0001 15.9477 11.4478 15.5 12.0001 15.5C12.5524 15.5 13.0001 15.9477 13.0001 16.5Z" fill="#1E212C"/>
<path fill-rule="evenodd" clip-rule="evenodd" d="M23.0839 16.9766C24.2628 18.9764 22.821 21.5 20.4995 21.5H3.50065C1.17917 21.5 -0.262621 18.9764 0.916253 16.9766L9.93237 1.68136C10.3639 0.949314 11.1503 0.5 12.0001 0.5C12.8499 0.5 13.6363 0.949315 14.0678 1.68136L23.0839 16.9766ZM20.4995 19.5C21.2733 19.5 21.7539 18.6588 21.361 17.9922L12.3449 2.69699C12.2729 2.57492 12.1418 2.5 12.0001 2.5C11.8584 2.5 11.7273 2.57492 11.6553 2.69699L2.63919 17.9922C2.24623 18.6588 2.72683 19.5 3.50065 19.5H20.4995Z" fill="#1E212C"/>
</svg>
