<svg width="20" height="18" viewBox="0 0 20 18" fill="none" xmlns="http://www.w3.org/2000/svg">
<path fill-rule="evenodd" clip-rule="evenodd" d="M13.0429 0.292893C13.4334 -0.0976311 14.0666 -0.0976311 14.4571 0.292893L19.7071 5.54289C20.0976 5.93342 20.0976 6.56658 19.7071 6.95711L14.4571 12.2071C14.0666 12.5976 13.4334 12.5976 13.0429 12.2071C12.6524 11.8166 12.6524 11.1834 13.0429 10.7929L16.5858 7.25H6.25C3.90279 7.25 2 9.15279 2 11.5C2 13.8472 3.90279 15.75 6.25 15.75H9.25C9.80229 15.75 10.25 16.1977 10.25 16.75C10.25 17.3023 9.80229 17.75 9.25 17.75H6.25C2.79822 17.75 0 14.9518 0 11.5C0 8.04822 2.79822 5.25 6.25 5.25H16.5858L13.0429 1.70711C12.6524 1.31658 12.6524 0.683417 13.0429 0.292893Z" fill="#1E212C"/>
</svg>
