<svg width="18" height="18" viewBox="0 0 18 18" fill="none" xmlns="http://www.w3.org/2000/svg">
<path fill-rule="evenodd" clip-rule="evenodd" d="M0 1C0 0.447715 0.447715 0 1 0H6C6.55228 0 7 0.447715 7 1C7 1.55228 6.55228 2 6 2H3.41421L9 7.58579L14.5858 2H12C11.4477 2 11 1.55228 11 1C11 0.447715 11.4477 0 12 0H17C17.5523 0 18 0.447715 18 1V6C18 6.55228 17.5523 7 17 7C16.4477 7 16 6.55228 16 6V3.41421L10.4142 9L16 14.5858V12C16 11.4477 16.4477 11 17 11C17.5523 11 18 11.4477 18 12V17C18 17.5523 17.5523 18 17 18H12C11.4477 18 11 17.5523 11 17C11 16.4477 11.4477 16 12 16H14.5858L9 10.4142L3.41421 16H6C6.55228 16 7 16.4477 7 17C7 17.5523 6.55228 18 6 18H1C0.447715 18 0 17.5523 0 17V12C0 11.4477 0.447715 11 1 11C1.55228 11 2 11.4477 2 12V14.5858L7.58579 9L2 3.41421V6C2 6.55228 1.55228 7 1 7C0.447715 7 0 6.55228 0 6V1Z" fill="#1E212C"/>
</svg>
