<svg width="19" height="22" viewBox="0 0 19 22" fill="none" xmlns="http://www.w3.org/2000/svg">
<path fill-rule="evenodd" clip-rule="evenodd" d="M15.4303 3.93473C13.6241 2.12856 10.6957 2.12856 8.88954 3.93473L2.54782 10.2765C2.1573 10.667 1.52413 10.667 1.13361 10.2765C0.743085 9.88593 0.743085 9.25276 1.13361 8.86224L7.47533 2.52052C10.0626 -0.0667034 14.2573 -0.0667034 16.8445 2.52052C19.4317 5.10774 19.4317 9.30246 16.8445 11.8897L8.31372 20.4205C6.45873 22.2755 3.45119 22.2755 1.5962 20.4205C-0.258787 18.5655 -0.258786 15.5579 1.5962 13.7029L1.60003 13.6991L1.60004 13.6991L8.04036 7.3282C8.04106 7.32749 8.04177 7.32678 8.04248 7.32608C9.14065 6.2301 10.9252 6.14718 12.0715 7.29351C13.1943 8.41627 13.1943 10.2366 12.0715 11.3594L7.56372 15.8672C7.1732 16.2577 6.54003 16.2577 6.14951 15.8672C5.75898 15.4767 5.75898 14.8435 6.14951 14.453L10.6573 9.94516C10.999 9.60345 10.999 9.04943 10.6573 8.70772C10.3399 8.39033 9.82104 8.37594 9.45457 8.74241L9.45074 8.74624L9.45073 8.74623L3.01042 15.1172C3.00981 15.1178 3.00921 15.1184 3.00861 15.119C1.93647 16.1931 1.93708 17.9329 3.01042 19.0062C4.08436 20.0802 5.82556 20.0802 6.8995 19.0062L15.4303 10.4755C17.2365 8.6693 17.2365 5.74091 15.4303 3.93473Z" fill="#1E212C"/>
</svg>
