<svg width="20" height="22" viewBox="0 0 20 22" fill="none" xmlns="http://www.w3.org/2000/svg">
<path fill-rule="evenodd" clip-rule="evenodd" d="M4 2.25C2.89543 2.25 2 3.14543 2 4.25L2 17.75C2 18.8546 2.89543 19.75 4 19.75H16C17.1046 19.75 18 18.8546 18 17.75V4.25001C18 3.14545 17.1046 2.25002 16 2.25001L4 2.25ZM7.15256e-07 4.25C8.34465e-07 2.04086 1.79086 0.249995 4.00001 0.25L16 0.250014C18.2091 0.250017 20 2.04088 20 4.25001V17.75C20 19.9591 18.2091 21.75 16 21.75H4C1.79086 21.75 -1.19209e-07 19.9591 0 17.75L7.15256e-07 4.25ZM14.5 3.99998C15.0523 3.99998 15.5 4.44769 15.5 4.99998L15.5 6.49998C15.5 9.53754 13.0376 12 10 12C6.96243 12 4.5 9.53754 4.5 6.49998V4.99998C4.5 4.44769 4.94771 3.99998 5.5 3.99998C6.05228 3.99998 6.5 4.44769 6.5 4.99998V6.49998C6.5 8.43297 8.067 9.99998 10 9.99998C11.933 9.99998 13.5 8.43297 13.5 6.49998L13.5 4.99998C13.5 4.44769 13.9477 3.99998 14.5 3.99998Z" fill="#1E212C"/>
</svg>
