<svg width="24" height="16" viewBox="0 0 24 16" fill="none" xmlns="http://www.w3.org/2000/svg">
<path d="M12.3652 11.1437C12.3652 9.17243 11.486 7.71534 9.66971 7.1692C10.9949 6.49612 11.6861 5.47637 11.6861 3.8902C11.6861 0.762681 9.49368 0 6.96423 0H0V15.7027H7.15926C9.84374 15.7027 12.3652 14.3341 12.3652 11.1437ZM3.24657 2.68058H6.29311C7.46432 2.68058 8.51851 3.03045 8.51851 4.47475C8.51851 5.8081 7.69836 6.34465 6.53816 6.34465H3.24657V2.68058ZM3.24557 13.036V8.71162H6.7842C8.21345 8.71162 9.11761 9.34523 9.11761 10.9538C9.11761 12.54 8.03842 13.036 6.71719 13.036H3.24557Z" fill="#1E212C"/>
<path d="M18.7993 16C21.3537 16 23.008 14.7765 23.8041 12.1759H21.2117C20.9326 13.1466 19.7824 13.6597 18.8903 13.6597C17.169 13.6597 16.2648 12.5877 16.2648 10.7658H23.9792C24.2232 7.11983 22.3189 4.01257 18.7983 4.01257C15.5387 4.01257 13.3263 6.61742 13.3263 10.0297C13.3263 13.5711 15.4227 16 18.7993 16ZM18.7073 6.37208C20.1825 6.37208 20.9246 7.29369 21.0487 8.80092H16.2688C16.3658 7.3065 17.299 6.37208 18.7073 6.37208Z" fill="#1E212C"/>
<path d="M15.6701 0.825073H21.6591V2.37177H15.6701V0.825073Z" fill="#1E212C"/>
</svg>
