<svg width="20" height="21" viewBox="0 0 20 21" fill="none" xmlns="http://www.w3.org/2000/svg">
<path fill-rule="evenodd" clip-rule="evenodd" d="M7.0517 15.5H12.9444L13.2064 16.0996C13.3943 16.5297 13.498 17.0041 13.498 17.5C13.498 19.433 11.931 21 9.99805 21C8.06505 21 6.49805 19.433 6.49805 17.5C6.49805 17.0041 6.60179 16.5297 6.78972 16.0996L7.0517 15.5ZM8.49805 17.5C8.49805 18.3284 9.16962 19 9.99805 19C10.8265 19 11.498 18.3284 11.498 17.5H8.49805Z" fill="#1E212C"/>
<path fill-rule="evenodd" clip-rule="evenodd" d="M10.0001 2.5C7.05519 2.5 4.50013 5.36502 4.50013 8.5V11.8333C4.50013 13.1973 3.85796 14.4816 2.7668 15.3C2.74582 15.3157 2.73629 15.3278 2.73211 15.334C2.72775 15.3404 2.72512 15.3462 2.72333 15.3526C2.71935 15.3668 2.71756 15.3925 2.72806 15.424C2.73855 15.4555 2.75541 15.475 2.76711 15.484C2.77238 15.488 2.77801 15.4912 2.78534 15.4936C2.79235 15.496 2.80725 15.5 2.83347 15.5H17.1668C17.193 15.5 17.2079 15.496 17.2149 15.4936C17.2223 15.4912 17.2279 15.488 17.2332 15.484C17.2449 15.475 17.2617 15.4555 17.2722 15.424C17.2827 15.3925 17.2809 15.3668 17.2769 15.3526C17.2751 15.3462 17.2725 15.3404 17.2682 15.334C17.264 15.3278 17.2544 15.3157 17.2335 15.3C16.1423 14.4816 15.5001 13.1973 15.5001 11.8333V8.5C15.5001 5.36502 12.9451 2.5 10.0001 2.5ZM2.50013 8.5C2.50013 4.45527 5.76538 0.5 10.0001 0.5C14.2349 0.5 17.5001 4.45527 17.5001 8.5V11.8333C17.5001 12.5678 17.8459 13.2593 18.4335 13.7C20.0565 14.9173 19.1956 17.5 17.1668 17.5H2.83347C0.804658 17.5 -0.0562397 14.9173 1.5668 13.7C2.15435 13.2593 2.50013 12.5678 2.50013 11.8333V8.5Z" fill="#1E212C"/>
</svg>
