<svg width="22" height="22" viewBox="0 0 22 22" fill="none" xmlns="http://www.w3.org/2000/svg">
<path fill-rule="evenodd" clip-rule="evenodd" d="M3.54289 18.5037C3.15237 18.1132 3.15237 17.48 3.54289 17.0895L17.0429 3.58952C17.4334 3.199 18.0666 3.199 18.4571 3.58952C18.8476 3.98005 18.8476 4.61321 18.4571 5.00374L4.95711 18.5037C4.56658 18.8943 3.93342 18.8943 3.54289 18.5037Z" fill="#1E212C"/>
<path fill-rule="evenodd" clip-rule="evenodd" d="M11 2C6.02944 2 2 6.02944 2 11C2 15.9706 6.02944 20 11 20C15.9706 20 20 15.9706 20 11C20 6.02944 15.9706 2 11 2ZM0 11C0 4.92487 4.92487 0 11 0C17.0751 0 22 4.92487 22 11C22 17.0751 17.0751 22 11 22C4.92487 22 0 17.0751 0 11Z" fill="#1E212C"/>
</svg>
