<svg width="22" height="22" viewBox="0 0 22 22" fill="none" xmlns="http://www.w3.org/2000/svg">
<path fill-rule="evenodd" clip-rule="evenodd" d="M6.5 0.25C7.05228 0.25 7.5 0.697715 7.5 1.25V1.75001L14.5 1.75003V1.25C14.5 0.697716 14.9477 0.25 15.5 0.25C16.0523 0.25 16.5 0.697715 16.5 1.25V1.75003L17.75 1.75003C19.9591 1.75004 21.75 3.5409 21.75 5.75003V17.75C21.75 19.9591 19.9591 21.75 17.75 21.75L4.25 21.75C2.04086 21.75 0.25 19.9591 0.25 17.75L0.25 8.00019L0.250001 5.75001C0.250001 3.54086 2.04087 1.75 4.25001 1.75001L5.5 1.75001V1.25C5.5 0.697715 5.94771 0.25 6.5 0.25ZM5.5 3.75001L4.25 3.75001C3.14543 3.75 2.25 4.64543 2.25 5.75001V7H19.75V5.75003C19.75 4.64546 18.8546 3.75003 17.75 3.75003L16.5 3.75003V4.25C16.5 4.80228 16.0523 5.25 15.5 5.25C14.9477 5.25 14.5 4.80229 14.5 4.25V3.75003L7.5 3.75001V4.25C7.5 4.80228 7.05228 5.25 6.5 5.25C5.94771 5.25 5.5 4.80228 5.5 4.25V3.75001ZM19.75 9H2.25L2.25 17.75C2.25 18.8546 3.14543 19.75 4.25 19.75L17.75 19.75C18.8546 19.75 19.75 18.8546 19.75 17.75V9Z" fill="#1E212C"/>
</svg>
