<svg width="22" height="22" viewBox="0 0 22 22" fill="none" xmlns="http://www.w3.org/2000/svg">
<path fill-rule="evenodd" clip-rule="evenodd" d="M11 2C6.02944 2 2 6.02944 2 11C2 15.9706 6.02944 20 11 20C15.9706 20 20 15.9706 20 11C20 6.02944 15.9706 2 11 2ZM0 11C0 4.92487 4.92487 0 11 0C17.0751 0 22 4.92487 22 11C22 17.0751 17.0751 22 11 22C4.92487 22 0 17.0751 0 11Z" fill="#1E212C"/>
<path fill-rule="evenodd" clip-rule="evenodd" d="M16.1866 7.27299C16.5881 7.6522 16.6062 8.28511 16.227 8.68662L10.5603 14.6866C10.3714 14.8866 10.1085 15 9.83333 15C9.55821 15 9.29523 14.8866 9.10632 14.6866L5.77299 11.1572C5.39378 10.7557 5.41186 10.1228 5.81338 9.74358C6.21489 9.36436 6.8478 9.38245 7.22701 9.78397L9.83333 12.5436L14.773 7.31338C15.1522 6.91186 15.7851 6.89378 16.1866 7.27299Z" fill="#1E212C"/>
</svg>
