<svg width="20" height="11" viewBox="0 0 20 11" fill="none" xmlns="http://www.w3.org/2000/svg">
<path fill-rule="evenodd" clip-rule="evenodd" d="M6.21764 10.959C6.74744 11.115 7.30336 10.8119 7.45932 10.2821L8.18575 7.81425C9.38943 8.06147 10.6109 8.06148 11.8146 7.81427L12.5407 10.282C12.6966 10.8118 13.2525 11.115 13.7823 10.9591C14.3121 10.8032 14.6152 10.2473 14.4593 9.71746L13.7208 7.20742C14.7092 6.77745 15.6625 6.17646 16.5641 5.41298L18.2609 7.27477C18.6329 7.68297 19.2654 7.7123 19.6736 7.34028C20.0818 6.96826 20.1111 6.33578 19.7391 5.92758L17.9957 4.01462C18.6511 3.28249 19.2708 2.45334 19.848 1.52974C20.1407 1.0614 19.9983 0.444452 19.53 0.151742C19.0617 -0.140968 18.4447 0.00140572 18.152 0.469742C17.4567 1.58221 16.7081 2.51924 15.9278 3.28688C14.7309 4.4644 13.463 5.24036 12.1934 5.64934C10.7433 6.11644 9.25707 6.11644 7.80701 5.64934C6.53734 5.24036 5.26942 4.46439 4.07248 3.28687C3.29207 2.51913 2.54328 1.58218 1.84801 0.469742C1.5553 0.00140476 0.938349 -0.140968 0.470013 0.151742C0.00167626 0.444452 -0.140697 1.0614 0.152014 1.52974C0.729329 2.45344 1.34915 3.28254 2.00455 4.01461L0.260952 5.92754C-0.111089 6.33571 -0.0817996 6.9682 0.326372 7.34024C0.734543 7.71228 1.36703 7.68299 1.73907 7.27482L3.43615 5.41293C4.33782 6.17641 5.29112 6.77741 6.27954 7.20739L5.54071 9.71736C5.38476 10.2472 5.68783 10.8031 6.21764 10.959Z" fill="#1E212C"/>
</svg>
