<svg width="22" height="22" viewBox="0 0 22 22" fill="none" xmlns="http://www.w3.org/2000/svg">
<path fill-rule="evenodd" clip-rule="evenodd" d="M19.75 13.75L19.75 5.25002C19.75 3.59317 18.4069 2.25003 16.75 2.25002L5.25001 2.25C3.59315 2.25 2.25 3.59314 2.25 5.25L2.25 19.5568L6.17953 16.75L16.75 16.75C18.4069 16.75 19.75 15.4068 19.75 13.75ZM21.75 5.25002L21.75 13.75C21.75 16.5114 19.5114 18.75 16.75 18.75L6.82046 18.75L3.41247 21.1843C2.08873 22.1298 0.249999 21.1835 0.249999 19.5568L0.25 5.25C0.25 2.48857 2.48858 0.249994 5.25001 0.249999L16.75 0.250022C19.5114 0.250028 21.75 2.4886 21.75 5.25002Z" fill="#1E212C"/>
</svg>
