<svg width="22" height="23" viewBox="0 0 22 23" fill="none" xmlns="http://www.w3.org/2000/svg">
<path fill-rule="evenodd" clip-rule="evenodd" d="M11 2.5C6.02944 2.5 2 6.52944 2 11.5C2 16.4706 6.02944 20.5 11 20.5C15.9706 20.5 20 16.4706 20 11.5C20 6.52944 15.9706 2.5 11 2.5ZM0 11.5C0 5.42487 4.92487 0.5 11 0.5C17.0751 0.5 22 5.42487 22 11.5C22 17.5751 17.0751 22.5 11 22.5C4.92487 22.5 0 17.5751 0 11.5Z" fill="#1E212C"/>
<path d="M12 15.5C12 16.0523 11.5523 16.5 11 16.5C10.4477 16.5 10 16.0523 10 15.5C10 14.9477 10.4477 14.5 11 14.5C11.5523 14.5 12 14.9477 12 15.5Z" fill="#1E212C"/>
<path fill-rule="evenodd" clip-rule="evenodd" d="M11 13.125C10.4477 13.125 10 12.6773 10 12.125V6.5C10 5.94772 10.4477 5.5 11 5.5C11.5523 5.5 12 5.94772 12 6.5V12.125C12 12.6773 11.5523 13.125 11 13.125Z" fill="#1E212C"/>
</svg>
