<svg width="22" height="22" viewBox="0 0 22 22" fill="none" xmlns="http://www.w3.org/2000/svg">
<path fill-rule="evenodd" clip-rule="evenodd" d="M6.25 2.75C6.25 1.36929 7.36929 0.25 8.75 0.25H13.25C14.6307 0.25 15.75 1.36929 15.75 2.75V3.25H20.75C21.3023 3.25 21.75 3.69772 21.75 4.25C21.75 4.80228 21.3023 5.25 20.75 5.25H19.5V17.75C19.5 19.9591 17.7091 21.75 15.5 21.75H6.5C4.29086 21.75 2.5 19.9591 2.5 17.75V5.25H1.25C0.697715 5.25 0.25 4.80228 0.25 4.25C0.25 3.69772 0.697715 3.25 1.25 3.25H6.25V2.75ZM8.25 3.25H13.75V2.75C13.75 2.47386 13.5261 2.25 13.25 2.25H8.75C8.47386 2.25 8.25 2.47386 8.25 2.75V3.25ZM4.5 5.25V17.75C4.5 18.8546 5.39543 19.75 6.5 19.75H15.5C16.6046 19.75 17.5 18.8546 17.5 17.75V5.25H4.5ZM11 7C11.5523 7 12 7.44772 12 8L12 17C12 17.5523 11.5523 18 11 18C10.4477 18 10 17.5523 10 17L10 8C10 7.44772 10.4477 7 11 7Z" fill="#1E212C"/>
</svg>
