<svg width="22" height="22" viewBox="0 0 22 22" fill="none" xmlns="http://www.w3.org/2000/svg">
<path fill-rule="evenodd" clip-rule="evenodd" d="M8.84871 19.75C8.98824 19.75 9.11756 19.6758 9.18812 19.5549L9.19427 19.5444L13.7805 12.1092L13.7805 2.25L5.1947 2.25C5.01047 2.25 4.85114 2.37789 4.81122 2.5575L4.80775 2.5731L2.25779 12.5327C2.21106 12.7741 2.39607 13 2.64353 13L6.53052 13C7.18169 13 7.84061 13.2176 8.32033 13.6858C8.82464 14.178 9.05845 14.8829 8.9084 15.6424L8.18955 19.281C8.14156 19.5239 8.32747 19.75 8.57489 19.75L8.84871 19.75ZM15.7805 2.25L15.7805 11.3929L19.324 11.3929C19.5397 11.3929 19.7152 11.2188 19.7168 11.0029C19.7168 11.0029 19.7168 11.0029 19.7168 11.0029L19.7805 2.64578C19.7822 2.42784 19.6059 2.25 19.3877 2.25L15.7805 2.25ZM15.3386 13.3929L10.9084 20.575C10.4781 21.3027 9.69529 21.75 8.84871 21.75L8.57489 21.75C7.06718 21.75 5.93526 20.3724 6.22748 18.8933L6.94633 15.2548C6.95912 15.19 6.95083 15.1606 6.94883 15.1541C6.94661 15.1469 6.94173 15.135 6.92338 15.117C6.88155 15.0762 6.757 15 6.53052 15L2.64353 15C1.11256 15 -0.0243886 13.5821 0.307689 12.0879L0.311154 12.0723L2.86286 2.10592C3.11267 1.02032 4.07938 0.249998 5.1947 0.249999L19.3877 0.25C20.7163 0.25 21.7906 1.33243 21.7804 2.66102C21.7804 2.66104 21.7804 2.66099 21.7804 2.66102L21.7168 11.0182C21.7067 12.3324 20.6385 13.3929 19.324 13.3929L15.3386 13.3929Z" fill="#1E212C"/>
</svg>
