<svg width="22" height="23" viewBox="0 0 22 23" fill="none" xmlns="http://www.w3.org/2000/svg">
<path fill-rule="evenodd" clip-rule="evenodd" d="M19.75 17.7504V9.00042C19.75 8.44814 20.1977 8.00042 20.75 8.00042C21.3023 8.00042 21.75 8.44814 21.75 9.00042V17.7504C21.75 20.5118 19.5114 22.7504 16.75 22.7504H5.24997C2.48854 22.7504 0.24997 20.5118 0.249968 17.7504L0.249968 9.00044C0.249968 8.44816 0.697684 8.00044 1.24997 8.00044C1.80225 8.00044 2.24997 8.44816 2.24997 9.00044L2.24997 17.7504C2.24997 19.4073 3.59312 20.7504 5.24997 20.7504H16.75C18.4068 20.7504 19.75 19.4073 19.75 17.7504Z" fill="#1E212C"/>
<path fill-rule="evenodd" clip-rule="evenodd" d="M0.442577 9.21544C0.768434 9.66135 1.39408 9.75867 1.83999 9.43282L10.41 3.17015C10.7614 2.91334 11.2386 2.91334 11.59 3.17015L20.16 9.43282C20.6059 9.75867 21.2315 9.66135 21.5574 9.21544C21.8832 8.76953 21.7859 8.14389 21.34 7.81803L12.77 1.55537C11.7157 0.78493 10.2842 0.78493 9.22992 1.55537L0.659952 7.81803C0.214042 8.14389 0.11672 8.76953 0.442577 9.21544Z" fill="#1E212C"/>
<path fill-rule="evenodd" clip-rule="evenodd" d="M0.427776 8.05621C0.742142 7.60213 1.36509 7.48887 1.81918 7.80323L9.29234 12.977C10.3197 13.6882 11.6803 13.6882 12.7076 12.977L20.1808 7.80323C20.6348 7.48887 21.2578 7.60213 21.5722 8.05621C21.8865 8.5103 21.7733 9.13325 21.3192 9.44762L13.846 14.6213C12.1338 15.8067 9.86614 15.8067 8.15392 14.6213L0.680758 9.44762C0.226674 9.13325 0.11341 8.5103 0.427776 8.05621Z" fill="#1E212C"/>
</svg>
