<svg width="21" height="21" viewBox="0 0 21 21" fill="none" xmlns="http://www.w3.org/2000/svg">
<path fill-rule="evenodd" clip-rule="evenodd" d="M18.7652 16.7597V12.808C18.7652 12.27 19.2013 11.8339 19.7393 11.8339C20.2773 11.8339 20.7134 12.27 20.7134 12.808V16.7597C20.7134 19.1015 18.8151 20.9999 16.4735 20.9999L4.24036 20.9999C1.89874 20.9999 0.000488179 19.1015 0.000488281 16.7597L0.000488816 4.52565C0.000488918 2.18386 1.89875 0.285468 4.24037 0.285474L8.19178 0.285485C8.72976 0.285487 9.16587 0.721634 9.16587 1.25965C9.16587 1.79766 8.72975 2.23381 8.19178 2.23381L4.24037 2.23379C2.9747 2.23379 1.94867 3.25989 1.94867 4.52565L1.94867 16.7597C1.94867 18.0255 2.97469 19.0516 4.24036 19.0516H16.4735C17.7392 19.0516 18.7652 18.0255 18.7652 16.7597Z" fill="#1E212C"/>
<path fill-rule="evenodd" clip-rule="evenodd" d="M20.4296 0.570746C20.81 0.951179 20.81 1.56798 20.4296 1.94842L9.60379 12.775C9.22338 13.1554 8.60662 13.1554 8.22622 12.775C7.84581 12.3946 7.84581 11.7778 8.22622 11.3973L19.052 0.570745C19.4324 0.190312 20.0492 0.190312 20.4296 0.570746Z" fill="#1E212C"/>
<path fill-rule="evenodd" clip-rule="evenodd" d="M19.7424 0.29573C20.2797 0.296714 20.7147 0.732571 20.7147 1.26989L20.7147 7.03344C20.7147 7.57145 20.2786 8.0076 19.7406 8.0076C19.2027 8.0076 18.7665 7.57145 18.7665 7.03344L18.7665 2.24227L13.9651 2.23347C13.4271 2.23249 12.9918 1.79555 12.9927 1.25753C12.9937 0.71952 13.4306 0.284173 13.9686 0.285158L19.7424 0.29573Z" fill="#1E212C"/>
</svg>
