<svg width="22" height="19" viewBox="0 0 22 19" fill="none" xmlns="http://www.w3.org/2000/svg">
<path d="M1.64064 5.51786C4.34475 3.26187 7.45784 2 10.75 2C14.0422 2 17.1553 3.26187 19.8594 5.51786C20.2835 5.87166 20.9141 5.81469 21.2679 5.39061C21.6217 4.96654 21.5647 4.33594 21.1406 3.98214C18.1338 1.47356 14.5795 0 10.75 0C6.92058 0 3.36628 1.47356 0.35941 3.98214C-0.0646686 4.33594 -0.12164 4.96654 0.232162 5.39061C0.585964 5.81469 1.21656 5.87166 1.64064 5.51786Z" fill="#1E212C"/>
<path fill-rule="evenodd" clip-rule="evenodd" d="M3.10078 6.68903C4.89931 5.17064 7.46444 3.75 10.375 3.75C13.2856 3.75 15.8507 5.17064 17.6492 6.68903C18.5559 7.45445 19.2992 8.27045 19.8245 8.99929C20.0866 9.36298 20.3053 9.71988 20.4626 10.0508C20.6072 10.3547 20.75 10.7383 20.75 11.125C20.75 11.5117 20.6072 11.8953 20.4626 12.1992C20.3053 12.5301 20.0866 12.887 19.8245 13.2507C19.2992 13.9796 18.5559 14.7956 17.6492 15.561C15.8507 17.0794 13.2856 18.5 10.375 18.5C7.46444 18.5 4.89931 17.0794 3.10078 15.561C2.19415 14.7956 1.4508 13.9796 0.925489 13.2507C0.663353 12.887 0.444735 12.5301 0.287379 12.1992C0.142841 11.8953 2.18344e-09 11.5117 2.18344e-09 11.125C2.18344e-09 10.7383 0.142841 10.3547 0.287379 10.0508C0.444735 9.71988 0.663353 9.36298 0.925489 8.99929C1.4508 8.27045 2.19415 7.45445 3.10078 6.68903ZM2.00709 11.125C2.01721 11.1589 2.04055 11.2288 2.09355 11.3403C2.18597 11.5346 2.33571 11.7868 2.54798 12.0813C2.97147 12.6689 3.60106 13.3659 4.39097 14.0328C5.98553 15.379 8.10789 16.5 10.375 16.5C12.6421 16.5 14.7645 15.379 16.359 14.0328C17.1489 13.3659 17.7785 12.6689 18.202 12.0813C18.4143 11.7868 18.564 11.5346 18.6564 11.3403C18.7094 11.2289 18.7328 11.1589 18.7429 11.125C18.7328 11.0911 18.7094 11.0211 18.6564 10.9097C18.564 10.7154 18.4143 10.4632 18.202 10.1687C17.7785 9.58113 17.1489 8.88411 16.359 8.21724C16.0236 7.93408 15.6649 7.66089 15.2864 7.40599C15.4253 7.87134 15.5 8.36445 15.5 8.875C15.5 11.7055 13.2055 14 10.375 14C7.54454 14 5.25 11.7055 5.25 8.875C5.25 8.36445 5.32465 7.87135 5.46364 7.40599C5.08511 7.66089 4.72636 7.93408 4.39097 8.21724C3.60106 8.88411 2.97147 9.58113 2.54798 10.1687C2.33571 10.4632 2.18597 10.7154 2.09355 10.9097C2.04055 11.0211 2.01721 11.0911 2.00709 11.125ZM7.25 8.875C7.25 7.14911 8.64911 5.75 10.375 5.75C12.1009 5.75 13.5 7.14911 13.5 8.875C13.5 10.6009 12.1009 12 10.375 12C8.64911 12 7.25 10.6009 7.25 8.875Z" fill="#1E212C"/>
</svg>
