<svg width="16" height="22" viewBox="0 0 16 22" fill="none" xmlns="http://www.w3.org/2000/svg">
<path fill-rule="evenodd" clip-rule="evenodd" d="M0.336914 17.667C0.336914 15.2751 2.27715 13.3338 4.6691 13.3338H9.00128V17.667C9.00128 20.0589 7.06104 22.0002 4.6691 22.0002C2.27715 22.0002 0.336914 20.0589 0.336914 17.667ZM4.6691 15.3338C3.38231 15.3338 2.33691 16.379 2.33691 17.667C2.33691 18.9549 3.38231 20.0002 4.6691 20.0002C5.95588 20.0002 7.00128 18.9549 7.00128 17.667V15.3338H4.6691Z" fill="#1E212C"/>
<path fill-rule="evenodd" clip-rule="evenodd" d="M4.6691 8.66737C3.38231 8.66737 2.33691 9.71264 2.33691 11.0006C2.33691 12.2885 3.38231 13.3338 4.6691 13.3338L7.00128 13.3338V8.66737H4.6691ZM0.336914 11.0006C0.336914 8.60866 2.27715 6.66737 4.6691 6.66737H9.00128V15.3338L4.6691 15.3338C2.27715 15.3338 0.336914 13.3925 0.336914 11.0006Z" fill="#1E212C"/>
<path fill-rule="evenodd" clip-rule="evenodd" d="M4.6691 2.00098C3.3823 2.00098 2.33691 3.04625 2.33691 4.33418C2.33691 5.6221 3.3823 6.66737 4.6691 6.66737L7.00128 6.66737V2.00098H4.6691ZM0.336914 4.33418C0.336914 1.94225 2.27716 0.000976562 4.6691 0.000976562H9.00128V8.66737L4.6691 8.66737C2.27716 8.66737 0.336914 6.7261 0.336914 4.33418Z" fill="#1E212C"/>
<path fill-rule="evenodd" clip-rule="evenodd" d="M7.00222 0.000976562H11.3344C13.7264 0.000976562 15.6666 1.94225 15.6666 4.33418C15.6666 6.72611 13.7264 8.66737 11.3344 8.66737L7.00128 8.66737L7.00222 0.000976562ZM9.00222 2.00098L9.00128 6.66737L11.3344 6.66737C12.6212 6.66737 13.6666 5.6221 13.6666 4.33418C13.6666 3.04625 12.6212 2.00098 11.3344 2.00098H9.00222Z" fill="#1E212C"/>
<path fill-rule="evenodd" clip-rule="evenodd" d="M11.3344 8.66737C10.0476 8.66737 9.00222 9.71265 9.00222 11.0006C9.00222 12.2885 10.0476 13.3338 11.3344 13.3338C12.6212 13.3338 13.6666 12.2885 13.6666 11.0006C13.6666 9.71265 12.6212 8.66737 11.3344 8.66737ZM7.00222 11.0006C7.00222 8.60866 8.94248 6.66737 11.3344 6.66737C13.7264 6.66737 15.6666 8.60866 15.6666 11.0006C15.6666 13.3925 13.7264 15.3338 11.3344 15.3338C8.94248 15.3338 7.00222 13.3925 7.00222 11.0006Z" fill="#1E212C"/>
</svg>
