<svg width="18" height="22" viewBox="0 0 18 22" fill="none" xmlns="http://www.w3.org/2000/svg">
<path fill-rule="evenodd" clip-rule="evenodd" d="M5 12.5C5 11.9477 5.44772 11.5 6 11.5H12C12.5523 11.5 13 11.9477 13 12.5C13 13.0523 12.5523 13.5 12 13.5H6C5.44772 13.5 5 13.0523 5 12.5Z" fill="#1E212C"/>
<path fill-rule="evenodd" clip-rule="evenodd" d="M5 16.25C5 15.6977 5.44772 15.25 6 15.25H9C9.55229 15.25 10 15.6977 10 16.25C10 16.8023 9.55229 17.25 9 17.25H6C5.44772 17.25 5 16.8023 5 16.25Z" fill="#1E212C"/>
<path fill-rule="evenodd" clip-rule="evenodd" d="M6.04292 0.542893C6.23045 0.355357 6.48481 0.25 6.75002 0.25H13.5C15.7092 0.25 17.5 2.04086 17.5 4.25L17.5 17.75C17.5 19.9591 15.7092 21.75 13.5 21.75H4.5C2.29086 21.75 0.499994 19.9591 0.5 17.75L0.500025 6.5C0.500025 6.23478 0.605382 5.98043 0.792918 5.79289L6.04292 0.542893ZM6.49999 2.91424V6.25H3.16424L6.49999 2.91424ZM2.50002 8.25L2.5 17.75C2.5 18.8546 3.39543 19.75 4.5 19.75H13.5C14.6046 19.75 15.5 18.8546 15.5 17.75L15.5 4.25C15.5 3.14543 14.6046 2.25 13.5 2.25H8.49999V7.25C8.49999 7.80228 8.05228 8.25 7.49999 8.25H2.50002Z" fill="#1E212C"/>
</svg>
