<svg width="22" height="22" viewBox="0 0 22 22" fill="none" xmlns="http://www.w3.org/2000/svg">
<path fill-rule="evenodd" clip-rule="evenodd" d="M5.5 8.5C6.05228 8.5 6.5 8.94772 6.5 9.5L6.5 20.75C6.5 21.3023 6.05229 21.75 5.5 21.75C4.94772 21.75 4.5 21.3023 4.5 20.75L4.5 9.5C4.5 8.94772 4.94772 8.5 5.5 8.5Z" fill="#1E212C"/>
<path fill-rule="evenodd" clip-rule="evenodd" d="M5.5 0.25C6.05228 0.25 6.5 0.697715 6.5 1.25V4.25C6.5 4.80228 6.05228 5.25 5.5 5.25C4.94771 5.25 4.5 4.80228 4.5 4.25V1.25C4.5 0.697715 4.94772 0.25 5.5 0.25Z" fill="#1E212C"/>
<path fill-rule="evenodd" clip-rule="evenodd" d="M0 6.25C0 4.59315 1.34315 3.25 3 3.25H8C9.65685 3.25 11 4.59315 11 6.25V7.5C11 9.15685 9.65685 10.5 8 10.5H3C1.34315 10.5 0 9.15685 0 7.5V6.25ZM3 5.25C2.44772 5.25 2 5.69772 2 6.25V7.5C2 8.05228 2.44772 8.5 3 8.5H8C8.55228 8.5 9 8.05228 9 7.5V6.25C9 5.69772 8.55228 5.25 8 5.25H3Z" fill="#1E212C"/>
<path fill-rule="evenodd" clip-rule="evenodd" d="M16.5 16.75C17.0523 16.75 17.5 17.1977 17.5 17.75V20.75C17.5 21.3023 17.0523 21.75 16.5 21.75C15.9477 21.75 15.5 21.3023 15.5 20.75V17.75C15.5 17.1977 15.9477 16.75 16.5 16.75Z" fill="#1E212C"/>
<path fill-rule="evenodd" clip-rule="evenodd" d="M16.5 0.25C17.0523 0.25 17.5 0.697715 17.5 1.25V12.5C17.5 13.0523 17.0523 13.5 16.5 13.5C15.9477 13.5 15.5 13.0523 15.5 12.5V1.25C15.5 0.697715 15.9477 0.25 16.5 0.25Z" fill="#1E212C"/>
<path fill-rule="evenodd" clip-rule="evenodd" d="M11 14.5C11 12.8431 12.3431 11.5 14 11.5H19C20.6569 11.5 22 12.8431 22 14.5V15.75C22 17.4069 20.6569 18.75 19 18.75H14C12.3431 18.75 11 17.4069 11 15.75V14.5ZM14 13.5C13.4477 13.5 13 13.9477 13 14.5V15.75C13 16.3023 13.4477 16.75 14 16.75H19C19.5523 16.75 20 16.3023 20 15.75V14.5C20 13.9477 19.5523 13.5 19 13.5H14Z" fill="#1E212C"/>
</svg>
