<svg width="22" height="22" viewBox="0 0 22 22" fill="none" xmlns="http://www.w3.org/2000/svg">
<path fill-rule="evenodd" clip-rule="evenodd" d="M16.5 8.5C17.0523 8.5 17.5 8.94771 17.5 9.5V20.75C17.5 21.3023 17.0523 21.75 16.5 21.75C15.9477 21.75 15.5 21.3023 15.5 20.75L15.5 9.5C15.5 8.94771 15.9477 8.5 16.5 8.5Z" fill="#1E212C"/>
<path fill-rule="evenodd" clip-rule="evenodd" d="M16.5 0.25C17.0523 0.25 17.5 0.697715 17.5 1.25V4.25C17.5 4.80228 17.0523 5.25 16.5 5.25C15.9477 5.25 15.5 4.80228 15.5 4.25V1.25C15.5 0.697715 15.9477 0.25 16.5 0.25Z" fill="#1E212C"/>
<path fill-rule="evenodd" clip-rule="evenodd" d="M11 6.25C11 4.59315 12.3431 3.25 14 3.25H19C20.6569 3.25 22 4.59315 22 6.25V7.5C22 9.15685 20.6569 10.5 19 10.5H14C12.3431 10.5 11 9.15685 11 7.5V6.25ZM14 5.25C13.4477 5.25 13 5.69772 13 6.25V7.5C13 8.05228 13.4477 8.5 14 8.5H19C19.5523 8.5 20 8.05228 20 7.5V6.25C20 5.69772 19.5523 5.25 19 5.25H14Z" fill="#1E212C"/>
<path fill-rule="evenodd" clip-rule="evenodd" d="M5.5 16.75C6.05228 16.75 6.5 17.1977 6.5 17.75V20.75C6.5 21.3023 6.05229 21.75 5.5 21.75C4.94772 21.75 4.5 21.3023 4.5 20.75V17.75C4.5 17.1977 4.94772 16.75 5.5 16.75Z" fill="#1E212C"/>
<path fill-rule="evenodd" clip-rule="evenodd" d="M5.5 0.25C6.05228 0.25 6.5 0.697715 6.5 1.25V12.5C6.5 13.0523 6.05228 13.5 5.5 13.5C4.94772 13.5 4.5 13.0523 4.5 12.5V1.25C4.5 0.697715 4.94772 0.25 5.5 0.25Z" fill="#1E212C"/>
<path fill-rule="evenodd" clip-rule="evenodd" d="M0 14.5C0 12.8431 1.34315 11.5 3 11.5H8C9.65685 11.5 11 12.8431 11 14.5V15.75C11 17.4069 9.65685 18.75 8 18.75H3C1.34315 18.75 0 17.4069 0 15.75V14.5ZM3 13.5C2.44772 13.5 2 13.9477 2 14.5V15.75C2 16.3023 2.44772 16.75 3 16.75H8C8.55228 16.75 9 16.3023 9 15.75V14.5C9 13.9477 8.55228 13.5 8 13.5H3Z" fill="#1E212C"/>
</svg>
