<svg width="22" height="22" viewBox="0 0 22 22" fill="none" xmlns="http://www.w3.org/2000/svg">
<path fill-rule="evenodd" clip-rule="evenodd" d="M4.26412 0.00241643C4.68844 -0.0270451 5.08497 0.215138 5.25253 0.606095L8.32611 7.77779H13.674L16.7476 0.606095C16.9151 0.215138 17.3117 -0.0270451 17.736 0.00241643C18.1603 0.0318779 18.5196 0.326536 18.6315 0.736897L21.9648 12.9591C22.071 13.3486 21.9327 13.7637 21.614 14.0116L11.614 21.7894C11.2529 22.0702 10.7472 22.0702 10.3861 21.7894L0.386107 14.0116C0.0674448 13.7637 -0.0709369 13.3486 0.0352838 12.9591L3.36862 0.736897C3.48053 0.326536 3.83979 0.0318779 4.26412 0.00241643ZM4.54371 4.02938L2.14022 12.8422L11 19.7332L19.8599 12.8422L17.4564 4.02938L15.2525 9.17171C15.0949 9.5394 14.7334 9.77779 14.3334 9.77779H7.66671C7.26669 9.77779 6.90515 9.5394 6.74757 9.17171L4.54371 4.02938Z" fill="#1E212C"/>
</svg>
