<svg width="22" height="22" viewBox="0 0 22 22" fill="none" xmlns="http://www.w3.org/2000/svg">
<path d="M11.2111 9.50283H21.0865C21.1955 10.1112 21.25 10.6924 21.25 11.2463C21.25 13.2169 20.8368 14.9763 20.0105 16.5246C19.1841 18.0729 18.0059 19.2829 16.4757 20.1547C14.9456 21.0264 13.1908 21.4623 11.2111 21.4623C9.78544 21.4623 8.42785 21.1876 7.13837 20.6382C5.84889 20.0888 4.73649 19.3465 3.80116 18.4111C2.86584 17.4758 2.12348 16.3634 1.57409 15.0739C1.0247 13.7844 0.75 12.4269 0.75 11.0012C0.75 9.57547 1.0247 8.21789 1.57409 6.92841C2.12348 5.63893 2.86584 4.52653 3.80116 3.5912C4.73649 2.65587 5.84889 1.91352 7.13837 1.36413C8.42785 0.814734 9.78544 0.540039 11.2111 0.540039C13.9354 0.540039 16.2737 1.45266 18.2261 3.27791L15.3792 6.01579C14.2623 4.93517 12.8729 4.39486 11.2111 4.39486C10.0397 4.39486 8.95681 4.68998 7.96246 5.28024C6.96811 5.87049 6.18034 6.67188 5.59917 7.68439C5.018 8.6969 4.72741 9.8025 4.72741 11.0012C4.72741 12.1998 5.018 13.3054 5.59917 14.3179C6.18034 15.3305 6.96811 16.1318 7.96246 16.7221C8.95681 17.3124 10.0397 17.6075 11.2111 17.6075C12.0012 17.6075 12.7276 17.4985 13.3905 17.2806C14.0534 17.0626 14.5983 16.7902 15.0251 16.4633C15.4519 16.1364 15.8242 15.7641 16.142 15.3463C16.4599 14.9286 16.6937 14.5336 16.8435 14.1613C16.9934 13.789 17.0955 13.4348 17.15 13.0988H11.2111V9.50283Z" fill="#1E212C"/>
</svg>
