<svg width="24" height="18" viewBox="0 0 24 18" fill="none" xmlns="http://www.w3.org/2000/svg">
<path d="M22.8336 13.1089C22.8335 13.1089 22.8335 13.1089 22.8336 13.1089L14.1923 7.70839C14.0417 7.61423 13.8676 7.56428 13.6899 7.56428H12.9481V7.16132C14.4152 6.74709 15.4936 5.39626 15.4936 3.79834C15.4936 1.87195 13.9264 0.304688 12 0.304688C10.0736 0.304688 8.50635 1.87195 8.50635 3.79834C8.50635 4.32195 8.93082 4.74642 9.45443 4.74642C9.97804 4.74642 10.4025 4.32195 10.4025 3.79834C10.4025 2.91749 11.1191 2.20085 12 2.20085C12.8808 2.20085 13.5974 2.91749 13.5974 3.79834C13.5974 4.67919 12.8808 5.39583 12 5.39583C11.4764 5.39583 11.0519 5.8203 11.0519 6.34391V7.56428H10.3101C10.1324 7.56428 9.95832 7.61423 9.80766 7.70839L1.16641 13.1089C0.436063 13.5654 0 14.3521 0 15.2135C0 16.5819 1.11332 17.6952 2.48175 17.6952H21.5182C22.8867 17.6952 24 16.5819 24 15.2135C24 14.3521 23.5639 13.5654 22.8336 13.1089ZM21.5182 15.799H2.48175C2.15886 15.799 1.89616 15.5363 1.89616 15.2135C1.89616 15.0102 1.99904 14.8245 2.17138 14.7168L10.5819 9.46044H13.418L21.8286 14.7168C22.001 14.8245 22.1038 15.0102 22.1038 15.2135C22.1038 15.5363 21.8411 15.799 21.5182 15.799Z" fill="#1E212C"/>
</svg>
