<svg width="24" height="21" viewBox="0 0 24 21" fill="none" xmlns="http://www.w3.org/2000/svg">
<path fill-rule="evenodd" clip-rule="evenodd" d="M11.9994 17.9072C7.4003 15.2878 4.83525 12.6843 3.59488 10.4254C2.32537 8.11342 2.43614 6.16615 3.14059 4.7841C4.58857 1.94337 8.70617 1.03499 11.2149 4.20797L11.9993 5.20002L12.7837 4.20802C15.2929 1.03491 19.4108 1.94344 20.8587 4.7841C21.5632 6.16613 21.6739 8.11339 20.4043 10.4254C19.1638 12.6843 16.5986 15.2878 11.9994 17.9072ZM11.9994 2.10589C8.47019 -1.24772 3.26381 0.138319 1.35872 3.87584C0.313178 5.92706 0.298896 8.57818 1.84178 11.388C3.37099 14.173 6.41989 17.1125 11.5156 19.929L11.9993 20.1964L12.4831 19.9291C17.579 17.1126 20.6281 14.173 22.1574 11.3881C23.7004 8.57821 23.6861 5.92708 22.6406 3.87584C20.7355 0.138247 15.5289 -1.24767 11.9994 2.10589Z" fill="#1E212C"/>
</svg>
