<svg width="22" height="23" viewBox="0 0 22 23" fill="none" xmlns="http://www.w3.org/2000/svg">
<path d="M2.85786 0.5C3.41015 0.5 3.85786 0.947715 3.85786 1.5V3.63377C5.77904 1.99236 8.27439 0.999992 11 0.999992C17.0751 0.999992 22 5.92486 22 12C22 18.0751 17.0751 23 11 23C4.92487 23 0 18.0751 0 12C0 11.4477 0.447715 11 1 11C1.55228 11 2 11.4477 2 12C2 16.9706 6.02944 21 11 21C15.9706 21 20 16.9706 20 12C20 7.02943 15.9706 2.99999 11 2.99999C8.85627 2.99999 6.88879 3.74851 5.34257 4.99999H7.36006C7.91235 4.99999 8.36006 5.44771 8.36006 5.99999C8.36006 6.55228 7.91235 6.99999 7.36006 6.99999H2.85786C2.30558 6.99999 1.85786 6.55228 1.85786 5.99999V1.5C1.85786 0.947715 2.30558 0.5 2.85786 0.5Z" fill="#1E212C"/>
<path fill-rule="evenodd" clip-rule="evenodd" d="M11.0001 5.6C11.4971 5.6 11.9001 6.00294 11.9001 6.5V11.6272L14.6365 14.3636C14.9879 14.7151 14.9879 15.2849 14.6365 15.6364C14.285 15.9879 13.7151 15.9879 13.3637 15.6364L10.3637 12.6364C10.1949 12.4676 10.1001 12.2387 10.1001 12V6.5C10.1001 6.00294 10.503 5.6 11.0001 5.6Z" fill="#1E212C"/>
</svg>
