<svg width="20" height="21" viewBox="0 0 20 21" fill="none" xmlns="http://www.w3.org/2000/svg">
<path fill-rule="evenodd" clip-rule="evenodd" d="M10.784 2.17165C10.2705 2.03263 9.72936 2.03263 9.21591 2.17165C8.68137 2.31638 8.16297 2.69556 6.68467 3.84535L4.08467 5.86757C3.13323 6.60758 2.81379 6.86704 2.58799 7.17233C2.371 7.46571 2.20935 7.79622 2.11099 8.14762C2.00864 8.51329 1.99995 8.92473 1.99995 10.1301V16.7499C1.99995 17.5205 2.01081 17.6841 2.04301 17.7902C2.13996 18.1098 2.39007 18.3599 2.70967 18.4569C2.81583 18.4891 2.97942 18.4999 3.74995 18.4999H4.37495C4.50289 18.4999 4.53068 18.4996 4.54902 18.4987C5.06272 18.4735 5.47351 18.0627 5.49875 17.549C5.49965 17.5307 5.49995 17.5029 5.49995 17.3749V14.4999C5.49995 12.0147 7.51467 9.99994 9.99995 9.99994C12.4852 9.99994 14.5 12.0147 14.5 14.4999V17.3749C14.5 17.5029 14.5003 17.5307 14.5012 17.549C14.5264 18.0627 14.9372 18.4735 15.4509 18.4987C15.4692 18.4996 15.497 18.4999 15.625 18.4999H16.25C17.0205 18.4999 17.1841 18.4891 17.2902 18.4569C17.6098 18.3599 17.8599 18.1098 17.9569 17.7902C17.9891 17.6841 18 17.5205 18 16.7499V10.1301C18 8.92473 17.9913 8.51329 17.8889 8.14762C17.7906 7.79622 17.6289 7.46571 17.4119 7.17233C17.1861 6.86704 16.8667 6.60758 15.9152 5.86757L13.3152 3.84535C11.8369 2.69556 11.3185 2.31638 10.784 2.17165ZM8.69322 0.241158C9.54897 0.00945774 10.4509 0.00945774 11.3067 0.241158C12.28 0.504683 13.134 1.16957 14.3729 2.1342C14.4289 2.17774 14.4856 2.22189 14.5431 2.26664L17.1431 4.28887C17.1791 4.31682 17.2145 4.34438 17.2495 4.37158C18.0538 4.99674 18.6103 5.42922 19.0199 5.98303C19.3815 6.472 19.6509 7.02285 19.8149 7.60852C20.0006 8.27187 20.0003 8.97661 20 9.99533C20 10.0396 20 10.0845 20 10.1301V16.7499C20 16.7923 20 16.8342 20.0001 16.8758C20.0007 17.447 20.0013 17.9405 19.8708 18.3708C19.5799 19.3296 18.8296 20.0799 17.8708 20.3708C17.4405 20.5013 16.9471 20.5007 16.3758 20.5C16.3342 20.5 16.2923 20.4999 16.25 20.4999L15.604 20.4999C15.5088 20.5 15.4271 20.5 15.3527 20.4963C13.8116 20.4206 12.5793 19.1883 12.5036 17.6471C12.4999 17.5728 12.4999 17.491 12.4999 17.3959L12.5 14.4999C12.5 13.1192 11.3807 11.9999 9.99995 11.9999C8.61924 11.9999 7.49995 13.1192 7.49995 14.4999L7.49995 17.3959C7.49997 17.4911 7.49999 17.5728 7.49634 17.6471C7.42063 19.1883 6.18827 20.4206 4.64715 20.4963C4.57282 20.5 4.49106 20.5 4.3959 20.4999L3.74995 20.4999C3.70759 20.4999 3.66565 20.5 3.62412 20.5C3.05285 20.5007 2.55944 20.5013 2.1291 20.3708C1.17029 20.0799 0.41998 19.3296 0.12913 18.3708C-0.00141321 17.9404 -0.000826825 17.447 -0.000147808 16.8758C-9.84558e-05 16.8342 -4.86264e-05 16.7923 -4.86264e-05 16.7499V10.1301C-4.86264e-05 10.0845 -6.3766e-05 10.0396 -7.86671e-05 9.99532C-0.000421036 8.9766 -0.00065802 8.27187 0.18502 7.60852C0.348955 7.02285 0.618366 6.472 0.980019 5.98303C1.38964 5.42921 1.94607 4.99673 2.75041 4.37157C2.7854 4.34438 2.82085 4.31682 2.85679 4.28887L5.45679 2.26664C5.51433 2.22189 5.57104 2.17774 5.62696 2.1342C6.86594 1.16957 7.71993 0.504682 8.69322 0.241158Z" fill="#1E212C"/>
</svg>
