<svg width="20" height="20" viewBox="0 0 20 20" fill="none" xmlns="http://www.w3.org/2000/svg">
<path fill-rule="evenodd" clip-rule="evenodd" d="M0 10C0 5.80863 0 3.71294 1.05041 2.26718C1.38964 1.80026 1.80026 1.38964 2.26718 1.05041C3.71294 0 5.80863 0 10 0C14.1914 0 16.2871 0 17.7328 1.05041C18.1997 1.38964 18.6104 1.80026 18.9496 2.26718C20 3.71294 20 5.80863 20 10C20 14.1914 20 16.2871 18.9496 17.7328C18.6104 18.1997 18.1997 18.6104 17.7328 18.9496C16.2871 20 14.1914 20 10 20C5.80863 20 3.71294 20 2.26718 18.9496C1.80026 18.6104 1.38964 18.1997 1.05041 17.7328C0 16.2871 0 14.1914 0 10ZM10 4.70588C7.07632 4.70588 4.70588 7.07632 4.70588 10C4.70588 12.9237 7.07632 15.2941 10 15.2941C12.9237 15.2941 15.2941 12.9237 15.2941 10C15.2941 7.07632 12.9237 4.70588 10 4.70588ZM10 13.3088C8.17618 13.3088 6.69118 11.8238 6.69118 10C6.69118 8.17485 8.17618 6.69118 10 6.69118C11.8238 6.69118 13.3088 8.17485 13.3088 10C13.3088 11.8238 11.8238 13.3088 10 13.3088ZM16.3966 4.30883C16.3966 4.69844 16.0808 5.01427 15.6912 5.01427C15.3016 5.01427 14.9857 4.69844 14.9857 4.30883C14.9857 3.91923 15.3016 3.60339 15.6912 3.60339C16.0808 3.60339 16.3966 3.91923 16.3966 4.30883Z" fill="#1E212C"/>
</svg>
