<svg width="22" height="22" viewBox="0 0 22 22" fill="none" xmlns="http://www.w3.org/2000/svg">
<path fill-rule="evenodd" clip-rule="evenodd" d="M10.5528 0.105573C10.8343 -0.0351909 11.1657 -0.0351909 11.4472 0.105573L21.4472 5.10557C21.786 5.27497 22 5.62123 22 6C22 6.37877 21.786 6.72504 21.4472 6.89443L11.4472 11.8944C11.1657 12.0352 10.8343 12.0352 10.5528 11.8944L0.552761 6.89443C0.213977 6.72504 -2.50359e-05 6.37877 -2.50359e-05 6C-2.50359e-05 5.62123 0.213977 5.27497 0.552761 5.10557L10.5528 0.105573ZM3.23604 6L11 9.88197L18.7639 6L11 2.11803L3.23604 6Z" fill="#1E212C"/>
<path fill-rule="evenodd" clip-rule="evenodd" d="M0.105548 10.5528C0.352537 10.0588 0.95321 9.85858 1.44719 10.1056L11 14.882L20.5528 10.1056C21.0467 9.85858 21.6474 10.0588 21.8944 10.5528C22.1414 11.0468 21.9412 11.6474 21.4472 11.8944L11.4472 16.8944C11.1657 17.0352 10.8343 17.0352 10.5528 16.8944L0.552761 11.8944C0.0587828 11.6474 -0.141442 11.0468 0.105548 10.5528Z" fill="#1E212C"/>
<path fill-rule="evenodd" clip-rule="evenodd" d="M0.105548 15.5528C0.352537 15.0588 0.95321 14.8586 1.44719 15.1056L11 19.882L20.5528 15.1056C21.0467 14.8586 21.6474 15.0588 21.8944 15.5528C22.1414 16.0468 21.9412 16.6474 21.4472 16.8944L11.4472 21.8944C11.1657 22.0352 10.8343 22.0352 10.5528 21.8944L0.552761 16.8944C0.0587829 16.6474 -0.141442 16.0468 0.105548 15.5528Z" fill="#1E212C"/>
</svg>
