<svg width="18" height="10" viewBox="0 0 18 10" fill="none" xmlns="http://www.w3.org/2000/svg">
<path fill-rule="evenodd" clip-rule="evenodd" d="M5.20711 0.792893C5.59763 1.18342 5.59763 1.81658 5.20711 2.20711L3.41421 4H14.5858L12.7929 2.20711C12.4024 1.81658 12.4024 1.18342 12.7929 0.792893C13.1834 0.402369 13.8166 0.402369 14.2071 0.792893L17.7071 4.29289C18.0976 4.68342 18.0976 5.31658 17.7071 5.70711L14.2071 9.20711C13.8166 9.59763 13.1834 9.59763 12.7929 9.20711C12.4024 8.81658 12.4024 8.18342 12.7929 7.79289L14.5858 6H3.41421L5.20711 7.79289C5.59763 8.18342 5.59763 8.81658 5.20711 9.20711C4.81658 9.59763 4.18342 9.59763 3.79289 9.20711L0.292893 5.70711C-0.0976311 5.31658 -0.0976311 4.68342 0.292893 4.29289L3.79289 0.792893C4.18342 0.402369 4.81658 0.402369 5.20711 0.792893Z" fill="#1E212C"/>
</svg>
