<svg width="22" height="22" viewBox="0 0 22 22" fill="none" xmlns="http://www.w3.org/2000/svg">
<path fill-rule="evenodd" clip-rule="evenodd" d="M13.1818 2.25C13.0423 2.25 12.913 2.32416 12.8424 2.44506L12.8362 2.4556L8.25 9.89075V19.75H16.8358C17.02 19.75 17.1794 19.6221 17.2193 19.4425L17.2228 19.4269L19.7727 9.46727C19.8194 9.22587 19.6344 9 19.387 9H15.5C14.8488 9 14.1899 8.78244 13.7102 8.31423C13.2059 7.822 12.9721 7.11707 13.1221 6.35761L13.841 2.71904C13.889 2.47611 13.703 2.25 13.4556 2.25H13.1818ZM6.25 19.75V10.6071H2.70653C2.49084 10.6071 2.31535 10.7812 2.31369 10.9971C2.31369 10.9971 2.31369 10.9971 2.31369 10.9971L2.25001 19.3542C2.24834 19.5722 2.42466 19.75 2.64277 19.75H6.25ZM6.69189 8.60714L11.1221 1.42499C11.5524 0.697349 12.3352 0.25 13.1818 0.25H13.4556C14.9633 0.25 16.0953 1.62758 15.803 3.10668L15.0842 6.74524C15.0714 6.81 15.0797 6.83942 15.0817 6.84588C15.0839 6.85308 15.0888 6.86505 15.1071 6.88296C15.149 6.92378 15.2735 7 15.5 7H19.387C20.918 7 22.0549 8.41787 21.7228 9.91211L21.7194 9.92771L19.1677 19.894C18.9179 20.9796 17.9512 21.75 16.8358 21.75H2.64277C1.31423 21.75 0.239889 20.6676 0.250072 19.339C0.250072 19.339 0.250072 19.339 0.250072 19.339L0.313745 10.9818C0.323821 9.66755 1.39203 8.60714 2.70653 8.60714H6.69189Z" fill="#1E212C"/>
</svg>
