<svg width="22" height="22" viewBox="0 0 22 22" fill="none" xmlns="http://www.w3.org/2000/svg">
<path fill-rule="evenodd" clip-rule="evenodd" d="M0 2.5C0 1.11929 1.11929 0 2.5 0H19.5C20.8807 0 22 1.11929 22 2.5V7.5C22 8.88071 20.8807 10 19.5 10H2.5C1.11929 10 0 8.88071 0 7.5V2.5ZM2.5 2C2.22386 2 2 2.22386 2 2.5V7.5C2 7.77614 2.22386 8 2.5 8H19.5C19.7761 8 20 7.77614 20 7.5V2.5C20 2.22386 19.7761 2 19.5 2H2.5Z" fill="#1E212C"/>
<path fill-rule="evenodd" clip-rule="evenodd" d="M0 14.5C0 13.1193 1.11929 12 2.5 12H19.5C20.8807 12 22 13.1193 22 14.5V19.5C22 20.8807 20.8807 22 19.5 22H2.5C1.11929 22 0 20.8807 0 19.5V14.5ZM2.5 14C2.22386 14 2 14.2239 2 14.5V19.5C2 19.7761 2.22386 20 2.5 20H19.5C19.7761 20 20 19.7761 20 19.5V14.5C20 14.2239 19.7761 14 19.5 14H2.5Z" fill="#1E212C"/>
</svg>
