<svg width="18" height="20" viewBox="0 0 18 20" fill="none" xmlns="http://www.w3.org/2000/svg">
<path fill-rule="evenodd" clip-rule="evenodd" d="M2.75886 0.507522C3.29232 0.650463 3.60891 1.1988 3.46596 1.73227L2.99273 3.49839L3.50004 3.2055C7.80467 0.720217 13.309 2.19509 15.7943 6.49973C18.2795 10.8044 16.8047 16.3087 12.5 18.794C8.19541 21.2792 2.69109 19.8044 0.205811 15.4997C-0.0703321 15.0214 0.0935433 14.4098 0.571836 14.1337C1.05013 13.8576 1.66172 14.0214 1.93786 14.4997C3.87086 17.8478 8.15199 18.9949 11.5 17.0619C14.8481 15.1289 15.9952 10.8478 14.0622 7.49973C12.1292 4.15168 7.84809 3.00455 4.50004 4.93755L3.99273 5.23044L5.75886 5.70367C6.29232 5.84662 6.60891 6.39495 6.46596 6.92842C6.32302 7.46188 5.77469 7.77847 5.24122 7.63553L1.14314 6.53745C0.609678 6.39451 0.293095 5.84617 0.436037 5.3127L1.53411 1.21463C1.67705 0.681162 2.22539 0.36458 2.75886 0.507522Z" fill="#1E212C"/>
</svg>
