<svg width="22" height="20" viewBox="0 0 22 20" fill="none" xmlns="http://www.w3.org/2000/svg">
<path fill-rule="evenodd" clip-rule="evenodd" d="M1.09985 0C1.65214 0 2.09985 0.447715 2.09985 1V5.43632C3.75788 2.20928 7.11983 0 10.9998 0C15.3555 0 19.0582 2.78413 20.4306 6.66675C20.6146 7.18747 20.3417 7.75879 19.821 7.94284C19.3002 8.12689 18.7289 7.85396 18.5449 7.33325C17.4462 4.22472 14.4815 2 10.9998 2C8.03981 2 5.45351 3.60799 4.06979 6H7.09982C7.6521 6 8.09982 6.44772 8.09982 7C8.09982 7.55228 7.6521 8 7.09982 8H1.09985C0.547569 8 0.0998535 7.55228 0.0998535 7V1C0.0998535 0.447715 0.547569 0 1.09985 0Z" fill="#1E212C"/>
<path fill-rule="evenodd" clip-rule="evenodd" d="M2.17689 12.0572C2.6976 11.8731 3.26892 12.146 3.45297 12.6668C4.55168 15.7753 7.51633 18 10.998 18C13.958 18 16.5443 16.392 17.9281 14H14.898C14.3457 14 13.898 13.5523 13.898 13C13.898 12.4477 14.3457 12 14.898 12H20.898C21.4503 12 21.898 12.4477 21.898 13V19C21.898 19.5523 21.4503 20 20.898 20C20.3457 20 19.898 19.5523 19.898 19V14.5637C18.24 17.7907 14.878 20 10.998 20C6.64239 20 2.9396 17.2159 1.56729 13.3332C1.38325 12.8125 1.65617 12.2412 2.17689 12.0572Z" fill="#1E212C"/>
</svg>
