<svg width="22" height="22" viewBox="0 0 22 22" fill="none" xmlns="http://www.w3.org/2000/svg">
<path fill-rule="evenodd" clip-rule="evenodd" d="M19.75 16.75V12C19.75 10.3432 18.4069 9.00002 16.75 9.00002L5.25001 9C3.59315 9 2.25 10.3431 2.25 12L2.25 16.75C2.25 18.4069 3.59315 19.75 5.25 19.75H16.75C18.4069 19.75 19.75 18.4069 19.75 16.75ZM21.75 12V16.75C21.75 19.5114 19.5114 21.75 16.75 21.75H5.25C2.48857 21.75 0.25 19.5114 0.25 16.75L0.25 12C0.25 9.23858 2.48858 7 5.25001 7L16.75 7.00002C19.5114 7.00003 21.75 9.2386 21.75 12Z" fill="#1E212C"/>
<path fill-rule="evenodd" clip-rule="evenodd" d="M11 2.25C8.23858 2.25 6 4.48858 6 7.25H4C4 3.38401 7.13401 0.25 11 0.25C14.866 0.25 18 3.38401 18 7.25H16C16 4.48858 13.7614 2.25 11 2.25Z" fill="#1E212C"/>
<path fill-rule="evenodd" clip-rule="evenodd" d="M11 11.5C11.5523 11.5 12 11.9477 12 12.5V15.5C12 16.0523 11.5523 16.5 11 16.5C10.4477 16.5 10 16.0523 10 15.5V12.5C10 11.9477 10.4477 11.5 11 11.5Z" fill="#1E212C"/>
</svg>
