<svg width="22" height="22" viewBox="0 0 22 22" fill="none" xmlns="http://www.w3.org/2000/svg">
<path d="M6.5 19.75C5.94772 19.75 5.5 20.1977 5.5 20.75C5.5 21.3023 5.94772 21.75 6.5 21.75H16.75C19.5114 21.75 21.75 19.5114 21.75 16.75V5.25C21.75 2.48857 19.5114 0.25 16.75 0.25H6.5C5.94771 0.25 5.5 0.697714 5.5 1.25C5.5 1.80228 5.94771 2.25 6.5 2.25L16.75 2.25C18.4069 2.25 19.75 3.59314 19.75 5.25V16.75C19.75 18.4069 18.4069 19.75 16.75 19.75H6.5Z" fill="#1E212C"/>
<path d="M17.25 11C17.25 11.2652 17.1446 11.5196 16.9571 11.7071L12.4571 16.2071C12.0666 16.5976 11.4334 16.5976 11.0429 16.2071C10.6524 15.8166 10.6524 15.1834 11.0429 14.7929L13.8358 12L1.25 12C0.697715 12 0.25 11.5523 0.25 11C0.25 10.4477 0.697715 10 1.25 10L13.8358 10L11.0429 7.20711C10.6524 6.81658 10.6524 6.18342 11.0429 5.79289C11.4334 5.40237 12.0666 5.40237 12.4571 5.79289L16.9571 10.2929C17.1446 10.4804 17.25 10.7348 17.25 11Z" fill="#1E212C"/>
</svg>
