<svg width="22" height="22" viewBox="0 0 22 22" fill="none" xmlns="http://www.w3.org/2000/svg">
<path fill-rule="evenodd" clip-rule="evenodd" d="M5.5 11C5.5 7.96243 7.96243 5.5 11 5.5C14.0376 5.5 16.5 7.96243 16.5 11C16.5 14.0376 14.0376 16.5 11 16.5C7.96243 16.5 5.5 14.0376 5.5 11ZM11 7.5C9.067 7.5 7.5 9.067 7.5 11C7.5 12.933 9.067 14.5 11 14.5C12.933 14.5 14.5 12.933 14.5 11C14.5 9.067 12.933 7.5 11 7.5Z" fill="#1E212C"/>
<path fill-rule="evenodd" clip-rule="evenodd" d="M11 2.25C6.16751 2.25 2.25 6.16751 2.25 11C2.25 15.8325 6.16751 19.75 11 19.75C11.5523 19.75 12 20.1977 12 20.75C12 21.3023 11.5523 21.75 11 21.75C5.06294 21.75 0.25 16.9371 0.25 11C0.25 5.06294 5.06294 0.25 11 0.25C16.9371 0.25 21.75 5.06294 21.75 11C21.75 12.1233 21.5505 13.7484 21.0293 15.1288C20.5428 16.4173 19.5647 18 17.75 18C16.8608 18 15.9774 17.767 15.3394 17.0611C14.7212 16.3771 14.5 15.4292 14.5 14.375V7.25C14.5 6.69772 14.9477 6.25 15.5 6.25C16.0523 6.25 16.5 6.69772 16.5 7.25V14.375C16.5 15.1958 16.6789 15.5604 16.8232 15.7201C16.9479 15.858 17.1895 16 17.75 16C18.1853 16 18.7072 15.6168 19.1582 14.4224C19.5745 13.3199 19.75 11.945 19.75 11C19.75 6.16751 15.8325 2.25 11 2.25Z" fill="#1E212C"/>
</svg>
