<svg width="18" height="24" viewBox="0 0 18 24" fill="none" xmlns="http://www.w3.org/2000/svg">
<path fill-rule="evenodd" clip-rule="evenodd" d="M3.2 6.39961C3.2 3.19636 5.79675 0.599609 9 0.599609C12.2033 0.599609 14.8 3.19636 14.8 6.39961V11.1996C14.8 14.4029 12.2033 16.9996 9 16.9996C5.79675 16.9996 3.2 14.4029 3.2 11.1996V6.39961ZM9 2.59961C6.90132 2.59961 5.2 4.30093 5.2 6.39961V11.1996C5.2 13.2983 6.90132 14.9996 9 14.9996C11.0987 14.9996 12.8 13.2983 12.8 11.1996V6.39961C12.8 4.30093 11.0987 2.59961 9 2.59961Z" fill="#1E212C"/>
<path fill-rule="evenodd" clip-rule="evenodd" d="M1 8.59961C1.55228 8.59961 2 9.04732 2 9.59961V11.1996C2 15.0656 5.13401 18.1996 9 18.1996C12.866 18.1996 16 15.0656 16 11.1996V9.59961C16 9.04732 16.4477 8.59961 17 8.59961C17.5523 8.59961 18 9.04732 18 9.59961V11.1996C18 16.1702 13.9706 20.1996 9 20.1996C4.02944 20.1996 0 16.1702 0 11.1996V9.59961C0 9.04732 0.447715 8.59961 1 8.59961Z" fill="#1E212C"/>
<path fill-rule="evenodd" clip-rule="evenodd" d="M9 18.9996C9.55228 18.9996 10 19.4473 10 19.9996V21.3996H12.2C12.7523 21.3996 13.2 21.8473 13.2 22.3996C13.2 22.9519 12.7523 23.3996 12.2 23.3996H5.8C5.24772 23.3996 4.8 22.9519 4.8 22.3996C4.8 21.8473 5.24772 21.3996 5.8 21.3996H8V19.9996C8 19.4473 8.44772 18.9996 9 18.9996Z" fill="#1E212C"/>
</svg>
