<svg width="20" height="22" viewBox="0 0 20 22" fill="none" xmlns="http://www.w3.org/2000/svg">
<path fill-rule="evenodd" clip-rule="evenodd" d="M14.5861 4.6689C14.8758 4.1987 15.4918 4.05237 15.962 4.34207C18.3077 5.78726 19.875 8.38208 19.875 11.3438C19.875 14.3056 18.3077 16.9004 15.962 18.3456C15.4918 18.6353 14.8758 18.489 14.5861 18.0187C14.2964 17.5485 14.4427 16.9325 14.913 16.6428C16.6924 15.5465 17.875 13.5828 17.875 11.3438C17.875 9.10481 16.6924 7.14116 14.913 6.04483C14.4427 5.75513 14.2964 5.13911 14.5861 4.6689Z" fill="#1E212C"/>
<path fill-rule="evenodd" clip-rule="evenodd" d="M13.9921 8.97218C14.3525 8.55363 14.9839 8.50642 15.4024 8.86674C16.0803 9.45029 16.4375 10.3901 16.4375 11.3434C16.4375 12.2966 16.0803 13.2364 15.4024 13.82C14.9839 14.1803 14.3525 14.1331 13.9921 13.7145C13.6318 13.296 13.679 12.6646 14.0976 12.3042C14.2448 12.1775 14.4375 11.8435 14.4375 11.3434C14.4375 10.8432 14.2448 10.5092 14.0976 10.3825C13.679 10.0221 13.6318 9.39073 13.9921 8.97218Z" fill="#1E212C"/>
<path fill-rule="evenodd" clip-rule="evenodd" d="M3 7.8746C2.44772 7.8746 2 8.32232 2 8.8746V13.1246C2 13.6769 2.44772 14.1246 3 14.1246H4.4375C4.98978 14.1246 5.4375 14.5723 5.4375 15.1246C5.4375 15.6769 4.98978 16.1246 4.4375 16.1246H3C1.34315 16.1246 0 14.7815 0 13.1246V8.8746C0 7.21775 1.34315 5.8746 3 5.8746H4.4375C4.98978 5.8746 5.4375 6.32232 5.4375 6.8746C5.4375 7.42688 4.98978 7.8746 4.4375 7.8746H3Z" fill="#1E212C"/>
<path fill-rule="evenodd" clip-rule="evenodd" d="M11 2.93832C11 2.67787 10.6909 2.54114 10.4982 2.71633L5.11017 7.61454L3.76483 6.13466L9.15285 1.23645C10.6303 -0.106692 13 0.941593 13 2.93832V19.0609C13 21.0576 10.6303 22.1059 9.15285 20.7627L3.76483 15.8645L5.11017 14.3847L10.4982 19.2829C10.6909 19.4581 11 19.3213 11 19.0609V2.93832Z" fill="#1E212C"/>
</svg>
