<svg width="20" height="22" viewBox="0 0 20 22" fill="none" xmlns="http://www.w3.org/2000/svg">
<path fill-rule="evenodd" clip-rule="evenodd" d="M3 7.8746C2.44772 7.8746 2 8.32232 2 8.8746V13.1246C2 13.6769 2.44772 14.1246 3 14.1246H4.4375C4.98978 14.1246 5.4375 14.5723 5.4375 15.1246C5.4375 15.6769 4.98978 16.1246 4.4375 16.1246H3C1.34315 16.1246 0 14.7815 0 13.1246V8.8746C0 7.21775 1.34315 5.8746 3 5.8746H4.4375C4.98978 5.8746 5.4375 6.32232 5.4375 6.8746C5.4375 7.42688 4.98978 7.8746 4.4375 7.8746H3Z" fill="#1E212C"/>
<path fill-rule="evenodd" clip-rule="evenodd" d="M11 2.93832C11 2.67787 10.6909 2.54114 10.4982 2.71633L5.11017 7.61454L3.76483 6.13466L9.15285 1.23645C10.6303 -0.106692 13 0.941593 13 2.93832V19.0609C13 21.0576 10.6303 22.1059 9.15285 20.7627L3.76483 15.8645L5.11017 14.3847L10.4982 19.2829C10.6909 19.4581 11 19.3213 11 19.0609V2.93832Z" fill="#1E212C"/>
<path fill-rule="evenodd" clip-rule="evenodd" d="M14.0429 8.22999C14.4334 7.83947 15.0666 7.83947 15.4571 8.22999L19.5821 12.355C19.9726 12.7455 19.9726 13.3787 19.5821 13.7692C19.1916 14.1597 18.5584 14.1597 18.1679 13.7692L14.0429 9.64421C13.6524 9.25368 13.6524 8.62052 14.0429 8.22999Z" fill="#1E212C"/>
<path fill-rule="evenodd" clip-rule="evenodd" d="M19.5821 8.22999C19.1916 7.83947 18.5584 7.83947 18.1679 8.22999L14.0429 12.355C13.6524 12.7455 13.6524 13.3787 14.0429 13.7692C14.4334 14.1597 15.0666 14.1597 15.4571 13.7692L19.5821 9.64421C19.9726 9.25368 19.9726 8.62052 19.5821 8.22999Z" fill="#1E212C"/>
</svg>
