<svg width="14" height="22" viewBox="0 0 14 22" fill="none" xmlns="http://www.w3.org/2000/svg">
<path d="M0.206274 11.8075C-0.365941 12.9121 0.283752 13.4401 1.7661 14.3421C3.02628 15.1066 4.76719 15.3861 5.88548 15.498C5.42715 15.9306 7.52745 13.947 1.47859 19.6606C0.196006 20.8678 2.26083 22.8048 3.54248 21.6232L7.01218 18.3369C8.3405 19.5918 9.61375 20.7945 10.4819 21.6278C11.7645 22.8139 13.8283 20.8935 12.5598 19.6652C12.4646 19.5762 7.8579 15.2367 8.13887 15.5026C9.27116 15.3907 10.9859 15.0946 12.2312 14.3466L12.2303 14.3457C13.7126 13.4391 14.3623 12.9121 13.7985 11.8075C13.4578 11.1805 12.5392 10.6561 11.3164 11.5627C11.3164 11.5627 9.66509 12.8048 7.00191 12.8048C4.3378 12.8048 2.68743 11.5627 2.68743 11.5627C1.46552 10.6515 0.543255 11.1805 0.206274 11.8075Z" fill="#1E212C"/>
<path d="M7.00088 11.1302C10.2475 11.1302 12.8985 8.63871 12.8985 5.57153C12.8985 2.49151 10.2475 0 7.00088 0C3.75335 0 1.10231 2.49151 1.10231 5.57153C1.10231 8.63871 3.75335 11.1302 7.00088 11.1302ZM7.00088 2.82243C8.59618 2.82243 9.89743 4.05169 9.89743 5.57153C9.89743 7.07854 8.59618 8.30779 7.00088 8.30779C5.40559 8.30779 4.10434 7.07854 4.10434 5.57153C4.1034 4.05077 5.40466 2.82243 7.00088 2.82243Z" fill="#1E212C"/>
</svg>
