<svg width="16" height="16" viewBox="0 0 16 16" fill="none" xmlns="http://www.w3.org/2000/svg">
<path fill-rule="evenodd" clip-rule="evenodd" d="M9.4 13.7C10.1 14.2 11 13.8 11 12.9V8.4L7.3 12.1L9.4 13.7Z" fill="#1E212C"/>
<path fill-rule="evenodd" clip-rule="evenodd" d="M15.7 0.3C15.3 -0.1 14.7 -0.1 14.3 0.3L11 3.6V1.1C11 0.3 10 -0.2 9.4 0.3L6.6 2.6C6.2 2.8 5.8 3 5.3 3H3C1.9 3 1 3.9 1 5V9C1 10.1 1.9 11 3 11H3.6L0.3 14.3C-0.1 14.7 -0.1 15.3 0.3 15.7C0.7 16.1 1.3 16.1 1.7 15.7L15.7 1.7C16.1 1.3 16.1 0.7 15.7 0.3Z" fill="#1E212C"/>
</svg>
