<svg width="21" height="18" viewBox="0 0 21 18" fill="none" xmlns="http://www.w3.org/2000/svg">
<path d="M0 7C0 5.9 0.9 5 2 5H4.3C4.8 5 5.2 4.8 5.5 4.6L8.3 2.3C9 1.8 10 2.2 10 3.1V14.9C10 15.7 9 16.2 8.4 15.7L5.6 13.4C5.2 13.2 4.8 13 4.3 13H2C0.9 13 0 12.1 0 11V7Z" fill="#1E212C"/>
<path d="M13 14C12.7 14 12.5 13.9 12.3 13.7C11.9 13.3 11.9 12.7 12.3 12.3C12.3 12.3 13.5 11 13.5 9C13.5 7 12.3 5.8 12.3 5.7C11.9 5.3 11.9 4.7 12.3 4.3C12.7 3.9 13.3 3.9 13.7 4.3C13.8 4.4 15.5 6.1 15.5 9C15.5 11.9 13.8 13.6 13.7 13.7C13.5 13.9 13.3 14 13 14Z" fill="#1E212C"/>
<path d="M16 18C15.7 18 15.5 17.9 15.3 17.7C14.9 17.3 14.9 16.7 15.3 16.3C15.3 16.3 18.2 13.5 18.2 9C18.2 4.5 15.3 1.8 15.3 1.7C14.9 1.3 14.9 0.7 15.3 0.3C15.7 -0.1 16.3 -0.1 16.7 0.3C16.8 0.4 20.2 3.7 20.2 9C20.2 14.4 16.8 17.6 16.7 17.7C16.5 17.9 16.2 18 16 18Z" fill="#1E212C"/>
</svg>
