<svg width="20" height="22" viewBox="0 0 20 22" fill="none" xmlns="http://www.w3.org/2000/svg">
<path d="M8.58586 22H5.45455C5.25253 22 5.05051 22 4.84849 21.9C4.64647 21.8 4.44444 21.7 4.34343 21.5C4.24242 21.3 4.0404 21.1 4.0404 20.9C3.93939 20.7 3.93939 20.4 4.0404 20.2L4.14141 19.8H2.12121C1.0101 19.8 0 18.8 0 17.7V17.6L2.12121 2C2.22222 0.9 3.13131 0 4.24242 0H10.5051C13.9394 0 16.3636 2 16.9697 5C18.8889 6.3 20 8.4 20 11C20 14.4 16.4646 17 13.3333 17H11.2121L10.7071 20.2C10.6061 20.7 10.404 21.2 10 21.5C9.59596 21.8 9.09091 22 8.58586 22ZM5.9596 20H8.48485L8.58586 19.9L9.19192 15.8C9.29293 15.3 9.69697 15 10.202 15H13.1313C15.2525 15 17.7778 13.2 17.7778 11C17.7778 10.2 17.5758 8.8 16.8687 7.7C16.2626 10.6 13.3333 13.1 10.404 13.1H7.47475C7.47475 13.1 7.37374 13.2 7.37374 13.4L6.16162 19L5.9596 20ZM1.81818 17.7L1.91919 17.8H4.34343L5.55556 13C5.75758 11.9 6.56566 11.1 7.67677 11.1H10.6061C12.8283 11.1 15.2525 8.8 15.2525 6.5C15.2525 3.6 13.5354 1.9 10.6061 1.9H4.24242L4.14141 2V2.1L1.81818 17.7Z" fill="#1E212C"/>
</svg>
