<svg width="18" height="22" viewBox="0 0 18 22" fill="none" xmlns="http://www.w3.org/2000/svg">
<path d="M9.3014 0C3.22817 0.00091668 0 3.86472 0 8.07778C0 10.0312 1.09944 12.4687 2.85984 13.2414C3.36202 13.466 3.29555 13.1919 3.72758 11.5511C3.76173 11.4145 3.74419 11.2962 3.63342 11.1688C1.11698 8.27853 3.14231 2.33662 8.9423 2.33662C17.3363 2.33662 15.7679 13.8703 10.4027 13.8703C9.01985 13.8703 7.98964 12.7923 8.3155 11.4585C8.7106 9.86989 9.48418 8.16212 9.48418 7.01718C9.48418 4.13148 5.15473 4.55957 5.15473 8.38304C5.15473 9.56464 5.57567 10.3621 5.57567 10.3621C5.57567 10.3621 4.18268 15.9502 3.9242 16.9943C3.48664 18.7617 3.98328 21.6226 4.02667 21.8692C4.05344 22.0049 4.20668 22.048 4.29253 21.9361C4.43007 21.7574 6.11385 19.3722 6.58557 17.6479C6.75727 17.02 7.46161 14.4716 7.46161 14.4716C7.92595 15.304 9.26448 16.0006 10.6907 16.0006C14.9334 16.0006 18 12.2973 18 7.70194C17.9852 3.29638 14.1884 0 9.3014 0V0Z" fill="#1E212C"/>
</svg>
