<svg width="22" height="22" viewBox="0 0 22 22" fill="none" xmlns="http://www.w3.org/2000/svg">
<path fill-rule="evenodd" clip-rule="evenodd" d="M15.0678 9.41101C16.1151 10.2115 16.1151 11.7886 15.0678 12.5891L10.4879 16.0895C9.17176 17.0954 7.27336 16.157 7.27336 14.5005V7.49961C7.27336 5.84313 9.17176 4.90469 10.4879 5.91058L15.0678 9.41101ZM13.8533 11L9.27336 7.49961L9.27336 14.5005L13.8533 11Z" fill="#1E212C"/>
<path fill-rule="evenodd" clip-rule="evenodd" d="M11 2C6.02944 2 2 6.02944 2 11C2 15.9706 6.02944 20 11 20C15.9706 20 20 15.9706 20 11C20 6.02944 15.9706 2 11 2ZM0 11C0 4.92487 4.92487 0 11 0C17.0751 0 22 4.92487 22 11C22 17.0751 17.0751 22 11 22C4.92487 22 0 17.0751 0 11Z" fill="#1E212C"/>
</svg>
