<svg width="22" height="22" viewBox="0 0 22 22" fill="none" xmlns="http://www.w3.org/2000/svg">
<path fill-rule="evenodd" clip-rule="evenodd" d="M4.75 11C4.75 10.4477 5.19772 10 5.75 10L16.25 10C16.8023 10 17.25 10.4477 17.25 11C17.25 11.5523 16.8023 12 16.25 12L5.75 12C5.19772 12 4.75 11.5523 4.75 11Z" fill="#1E212C"/>
<path fill-rule="evenodd" clip-rule="evenodd" d="M11 4.75C11.5523 4.75 12 5.19772 12 5.75V16.25C12 16.8023 11.5523 17.25 11 17.25C10.4477 17.25 10 16.8023 10 16.25V5.75C10 5.19772 10.4477 4.75 11 4.75Z" fill="#1E212C"/>
<path fill-rule="evenodd" clip-rule="evenodd" d="M11 2C6.02944 2 2 6.02944 2 11C2 15.9706 6.02944 20 11 20C15.9706 20 20 15.9706 20 11C20 6.02944 15.9706 2 11 2ZM0 11C0 4.92487 4.92487 0 11 0C17.0751 0 22 4.92487 22 11C22 17.0751 17.0751 22 11 22C4.92487 22 0 17.0751 0 11Z" fill="#1E212C"/>
</svg>
