<svg width="20" height="20" viewBox="0 0 20 20" fill="none" xmlns="http://www.w3.org/2000/svg">
<path d="M2.8575 19.9998C4.43565 19.9998 5.715 18.7205 5.715 17.1424C5.715 15.5643 4.43565 14.2849 2.8575 14.2849C1.27935 14.2849 0 15.5643 0 17.1424C0 18.7205 1.27935 19.9998 2.8575 19.9998Z" fill="#1E212C"/>
<path d="M9.52417 20H13.3325C13.3325 12.6493 7.35083 6.66772 0 6.66689V10.4768C5.25167 10.4777 9.52417 14.7484 9.52417 20Z" fill="#1E212C"/>
<path d="M20 19.9997C20 8.97153 11.0283 0 0 0V3.80911C8.92833 3.80911 16.1917 11.0707 16.1917 19.9997H20Z" fill="#1E212C"/>
</svg>
