<svg width="22" height="22" viewBox="0 0 22 22" fill="none" xmlns="http://www.w3.org/2000/svg">
<path fill-rule="evenodd" clip-rule="evenodd" d="M9.875 2.25C5.66383 2.25 2.25 5.66383 2.25 9.875C2.25 14.0862 5.66383 17.5 9.875 17.5C11.9789 17.5 13.8822 16.6492 15.2628 15.2706C16.646 13.8893 17.5 11.9828 17.5 9.875C17.5 5.66383 14.0862 2.25 9.875 2.25ZM0.25 9.875C0.25 4.55926 4.55926 0.25 9.875 0.25C15.1907 0.25 19.5 4.55926 19.5 9.875C19.5 12.1742 18.6928 14.2863 17.348 15.9413L21.4565 20.0422C21.8473 20.4324 21.8479 21.0656 21.4578 21.4565C21.0676 21.8473 20.4344 21.8479 20.0435 21.4578L15.933 17.3547C14.2792 18.6955 12.1703 19.5 9.875 19.5C4.55926 19.5 0.25 15.1907 0.25 9.875Z" fill="#1E212C"/>
</svg>
