<svg width="22" height="22" viewBox="0 0 22 22" fill="none" xmlns="http://www.w3.org/2000/svg">
<path fill-rule="evenodd" clip-rule="evenodd" d="M17.375 2.25C16.0633 2.25 15 3.31332 15 4.625C15 4.88361 15.041 5.13068 15.116 5.3612C15.4261 6.31368 16.3217 7 17.375 7C18.6867 7 19.75 5.93668 19.75 4.625C19.75 3.31332 18.6867 2.25 17.375 2.25ZM13 4.625C13 2.20875 14.9588 0.25 17.375 0.25C19.7912 0.25 21.75 2.20875 21.75 4.625C21.75 7.04125 19.7912 9 17.375 9C15.8404 9 14.4919 8.21034 13.7112 7.01651L8.83967 9.45606C9.06275 10.2703 9.04672 11.1392 8.79465 11.9444L14.1247 14.4466C14.9247 13.5594 16.0841 13 17.375 13C19.7912 13 21.75 14.9588 21.75 17.375C21.75 19.7912 19.7912 21.75 17.375 21.75C14.9588 21.75 13 19.7912 13 17.375C13 16.9696 13.0554 16.5763 13.1591 16.2027L7.76558 13.6707C6.97125 14.4895 5.85796 15 4.625 15C2.20875 15 0.25 13.0412 0.25 10.625C0.25 8.20875 2.20875 6.25 4.625 6.25C5.91778 6.25 7.07871 6.811 7.87878 7.70049L13.028 5.12188C13.0095 4.95859 13 4.79278 13 4.625ZM4.625 8.25C3.31332 8.25 2.25 9.31332 2.25 10.625C2.25 11.9367 3.31332 13 4.625 13C5.46827 13 6.20976 12.5612 6.63254 11.8948C7.09256 11.1697 7.11799 10.2121 6.69747 9.46382C6.28913 8.73724 5.51331 8.25 4.625 8.25ZM17.375 15C16.4933 15 15.7224 15.48 15.3116 16.1978C15.1136 16.5439 15 16.9447 15 17.375C15 18.6867 16.0633 19.75 17.375 19.75C18.6867 19.75 19.75 18.6867 19.75 17.375C19.75 16.0633 18.6867 15 17.375 15Z" fill="#1E212C"/>
</svg>
