<svg width="18" height="22" viewBox="0 0 18 22" fill="none" xmlns="http://www.w3.org/2000/svg">
<path fill-rule="evenodd" clip-rule="evenodd" d="M0 5.12703C0 2.29545 2.23858 0 5 0H13C15.7614 0 18 2.29545 18 5.12703V11.086C18 15.4072 15.2719 18.9381 11.8268 21.1636C10.1004 22.2788 7.89963 22.2788 6.17319 21.1636C2.72808 18.9381 0 15.4072 0 11.086V5.12703ZM5 2.05081C3.34315 2.05081 2 3.42808 2 5.12703V11.086C2 14.4557 4.13724 17.4245 7.23923 19.4284C8.31422 20.1228 9.68578 20.1228 10.7608 19.4284C13.8628 17.4245 16 14.4557 16 11.086V5.12703C16 3.42808 14.6569 2.05081 13 2.05081H5Z" fill="#1E212C"/>
<path fill-rule="evenodd" clip-rule="evenodd" d="M12.6402 7.23178C13.0645 7.58534 13.1218 8.21591 12.7682 8.64018L9.01822 13.1402C8.84664 13.3461 8.59958 13.4745 8.33248 13.4966C8.06537 13.5187 7.80057 13.4327 7.59747 13.2578L5.34747 11.3202C4.92897 10.9599 4.88185 10.3284 5.24224 9.90994C5.60262 9.49144 6.23403 9.44432 6.65253 9.80471L8.1324 11.0791L11.2318 7.35982C11.5853 6.93554 12.2159 6.87821 12.6402 7.23178Z" fill="#1E212C"/>
</svg>
