<svg width="22" height="22" viewBox="0 0 22 22" fill="none" xmlns="http://www.w3.org/2000/svg">
<path d="M21.3454 13.3219C22.9369 6.17078 16.6713 -0.325667 9.31324 0.92143C5.31871 -1.5572 0 1.24373 0 5.99589C0 7.10106 0.304947 8.13573 0.835169 9.02756C-0.643776 16.1952 5.67311 22.5982 13.0248 21.266C18.2217 24.0138 23.9644 18.5337 21.3454 13.3219V13.3219ZM14.3508 17.6345C12.4204 18.4284 9.24364 18.433 7.32147 17.4267C4.58061 15.9653 4.09343 12.6755 6.45791 12.6755C8.23997 12.6755 7.67587 14.753 9.47533 15.6C10.3013 15.9818 12.077 16.0212 13.109 15.3253C14.1283 14.6432 14.0349 13.57 13.4808 13.0573C12.0129 11.7021 7.81231 12.2405 5.89197 9.86812C5.05772 8.83894 4.90021 7.02323 5.92586 5.70655C7.71341 3.40647 12.9589 3.26638 15.2144 5.00334C17.2968 6.61486 16.7345 8.75379 15.0541 8.75379C13.033 8.75379 14.0953 6.10943 10.8325 6.10943C8.46708 6.10943 7.53667 7.79145 9.20243 8.61003C11.4607 9.73169 17.2153 9.35719 17.2153 13.7403C17.2107 15.5643 16.0926 16.924 14.3508 17.6345V17.6345Z" fill="#1E212C"/>
</svg>
