<svg width="22" height="22" viewBox="0 0 22 22" fill="none" xmlns="http://www.w3.org/2000/svg">
<path fill-rule="evenodd" clip-rule="evenodd" d="M13.5 2C13.1022 2 12.7206 2.15804 12.4393 2.43934C12.158 2.72065 12 3.10218 12 3.5V10H15V3.5C15 3.10218 14.842 2.72065 14.5607 2.43934C14.2794 2.15804 13.8978 2 13.5 2ZM17 5.33772V3.5C17 2.57174 16.6313 1.6815 15.9749 1.02513C15.3185 0.368749 14.4283 4.8018e-07 13.5 4.8018e-07C12.5717 4.8018e-07 11.6815 0.368749 11.0251 1.02513C10.3688 1.6815 10 2.57174 10 3.5V11C10 11.5523 10.4477 12 11 12H18.5C19.1922 12 19.8689 11.7947 20.4445 11.4101C21.0201 11.0256 21.4687 10.4789 21.7336 9.83939C21.9985 9.19985 22.0678 8.49612 21.9327 7.81718C21.7977 7.13825 21.4644 6.51461 20.9749 6.02513C20.4854 5.53564 19.8617 5.2023 19.1828 5.06725C18.5039 4.9322 17.8001 5.00151 17.1606 5.26642C17.1064 5.28888 17.0528 5.31266 17 5.33772ZM17 10H18.5C18.7967 10 19.0867 9.91203 19.3334 9.7472C19.58 9.58238 19.7723 9.34812 19.8858 9.07403C19.9993 8.79994 20.0291 8.49834 19.9712 8.20737C19.9133 7.9164 19.7704 7.64912 19.5607 7.43934C19.3509 7.22956 19.0836 7.0867 18.7926 7.02882C18.5017 6.97094 18.2001 7.00065 17.926 7.11418C17.6519 7.22771 17.4176 7.41997 17.2528 7.66665C17.088 7.91332 17 8.20333 17 8.5V10Z" fill="#1E212C"/>
<path fill-rule="evenodd" clip-rule="evenodd" d="M10 11C10 10.4477 10.4477 10 11 10H18.5C19.4283 10 20.3185 10.3688 20.9749 11.0251C21.6313 11.6815 22 12.5717 22 13.5C22 14.4283 21.6313 15.3185 20.9749 15.9749C20.3185 16.6312 19.4283 17 18.5 17H16.6623C16.6873 17.0528 16.7111 17.1064 16.7336 17.1606C16.9985 17.8001 17.0678 18.5039 16.9327 19.1828C16.7977 19.8617 16.4644 20.4854 15.9749 20.9749C15.4854 21.4644 14.8618 21.7977 14.1828 21.9327C13.5039 22.0678 12.8002 21.9985 12.1606 21.7336C11.5211 21.4687 10.9744 21.0201 10.5899 20.4445C10.2053 19.8689 10 19.1922 10 18.5V11ZM12 12V15H18.5C18.8978 15 19.2794 14.842 19.5607 14.5607C19.842 14.2794 20 13.8978 20 13.5C20 13.1022 19.842 12.7206 19.5607 12.4393C19.2794 12.158 18.8978 12 18.5 12H12ZM13.5 17H12V18.5C12 18.7967 12.088 19.0867 12.2528 19.3334C12.4176 19.58 12.6519 19.7723 12.926 19.8858C13.2001 19.9993 13.5017 20.0291 13.7926 19.9712C14.0836 19.9133 14.3509 19.7704 14.5607 19.5607C14.7704 19.3509 14.9133 19.0836 14.9712 18.7926C15.0291 18.5017 14.9994 18.2001 14.8858 17.926C14.7723 17.6519 14.58 17.4176 14.3334 17.2528C14.0867 17.088 13.7967 17 13.5 17Z" fill="#1E212C"/>
<path fill-rule="evenodd" clip-rule="evenodd" d="M3.5 12C3.20333 12 2.91332 12.088 2.66665 12.2528C2.41997 12.4176 2.22771 12.6519 2.11418 12.926C2.00065 13.2001 1.97095 13.5017 2.02882 13.7926C2.0867 14.0836 2.22956 14.3509 2.43934 14.5607C2.64912 14.7704 2.9164 14.9133 3.20737 14.9712C3.49834 15.0291 3.79994 14.9994 4.07403 14.8858C4.34812 14.7723 4.58238 14.58 4.74721 14.3334C4.91203 14.0867 5 13.7967 5 13.5V12H3.5ZM3.5 10C2.80777 10 2.13108 10.2053 1.55551 10.5899C0.979934 10.9744 0.53133 11.5211 0.266423 12.1606C0.00151649 12.8002 -0.0677952 13.5039 0.0672531 14.1828C0.202301 14.8618 0.535644 15.4854 1.02513 15.9749C1.51461 16.4644 2.13825 16.7977 2.81719 16.9327C3.49612 17.0678 4.19985 16.9985 4.83939 16.7336C4.89361 16.7111 4.94716 16.6873 5 16.6623V18.5C5 19.4283 5.36875 20.3185 6.02513 20.9749C6.6815 21.6313 7.57174 22 8.5 22C9.42826 22 10.3185 21.6313 10.9749 20.9749C11.6313 20.3185 12 19.4283 12 18.5L12 11C12 10.4477 11.5523 10 11 10H3.5ZM10 12H7V18.5C7 18.8978 7.15804 19.2794 7.43934 19.5607C7.72065 19.842 8.10218 20 8.5 20C8.89782 20 9.27936 19.842 9.56066 19.5607C9.84196 19.2794 10 18.8978 10 18.5L10 12Z" fill="#1E212C"/>
<path fill-rule="evenodd" clip-rule="evenodd" d="M9.07403 2.11418C8.79994 2.00065 8.49834 1.97095 8.20737 2.02882C7.91639 2.0867 7.64912 2.22956 7.43934 2.43934C7.22956 2.64912 7.0867 2.9164 7.02882 3.20737C6.97094 3.49834 7.00065 3.79994 7.11418 4.07403C7.22771 4.34812 7.41997 4.58238 7.66665 4.74721C7.91332 4.91203 8.20333 5 8.5 5H10V3.5C10 3.20333 9.91203 2.91332 9.7472 2.66665C9.58238 2.41997 9.34811 2.22771 9.07403 2.11418ZM12 3.5C12 2.80777 11.7947 2.13108 11.4101 1.55551C11.0256 0.979934 10.4789 0.53133 9.83939 0.266423C9.19985 0.00151649 8.49612 -0.0677952 7.81718 0.0672531C7.13825 0.202301 6.51461 0.535644 6.02513 1.02513C5.53564 1.51461 5.2023 2.13825 5.06725 2.81719C4.9322 3.49612 5.00152 4.19985 5.26642 4.83939C5.28888 4.89361 5.31266 4.94716 5.33772 5H3.5C2.57174 5 1.6815 5.36875 1.02513 6.02513C0.368749 6.68151 4.8018e-07 7.57174 4.8018e-07 8.5C4.8018e-07 9.42826 0.368749 10.3185 1.02513 10.9749C1.6815 11.6313 2.57174 12 3.5 12H11C11.5523 12 12 11.5523 12 11L12 3.5ZM10 10V7H3.5C3.10218 7 2.72065 7.15804 2.43934 7.43934C2.15804 7.72065 2 8.10218 2 8.5C2 8.89783 2.15804 9.27936 2.43934 9.56066C2.72065 9.84196 3.10218 10 3.5 10L10 10Z" fill="#1E212C"/>
</svg>
