<svg width="23" height="23" viewBox="0 0 23 23" fill="none" xmlns="http://www.w3.org/2000/svg">
<path d="M8.106 11.5987C6.82992 11.5987 5.79494 12.6337 5.79494 13.9097V19.6906C5.79494 20.9666 6.82992 22.0016 8.106 22.0016C9.38207 22.0016 10.417 20.9666 10.417 19.6906V13.9097C10.4161 12.6337 9.38115 11.5987 8.106 11.5987Z" fill="#1E212C"/>
<path d="M0.0170908 13.9089C0.0170908 15.1859 1.05299 16.2218 2.32998 16.2218C3.60697 16.2218 4.64287 15.1859 4.64287 13.9089V11.596H2.33181C2.3309 11.596 2.3309 11.596 2.32998 11.596C1.05299 11.596 0.0170908 12.6319 0.0170908 13.9089Z" fill="#1E212C"/>
<path d="M8.10879 0C8.10787 0 8.10696 0 8.10604 0C6.82905 0 5.79315 1.0359 5.79315 2.31289C5.79315 3.58988 6.82905 4.62578 8.10604 4.62578H10.4171C10.4171 3.31395 10.4171 3.63297 10.4171 2.30831C10.4162 1.03315 9.38303 0 8.10879 0Z" fill="#1E212C"/>
<path d="M2.31387 10.4242H8.10571C9.38271 10.4242 10.4186 9.38832 10.4186 8.11133C10.4186 6.83434 9.38271 5.79844 8.10571 5.79844H2.31387C1.03687 5.79844 0.000976562 6.83434 0.000976562 8.11133C0.000976562 9.38832 1.03687 10.4242 2.31387 10.4242Z" fill="#1E212C"/>
<path d="M19.6688 5.79755C18.3936 5.79755 17.3605 6.83069 17.3605 8.10585V10.4233H19.6716C20.9485 10.4233 21.9844 9.38743 21.9844 8.11044C21.9844 6.83344 20.9485 5.79755 19.6716 5.79755C19.6706 5.79755 19.6697 5.79755 19.6688 5.79755Z" fill="#1E212C"/>
<path d="M11.5871 2.31285V8.11111C11.5871 9.38719 12.6221 10.4222 13.8982 10.4222C15.1743 10.4222 16.2092 9.38719 16.2092 8.11111V2.31285C16.2092 1.03677 15.1743 0.00179052 13.8982 0.00179052C12.6221 0.00179052 11.5871 1.03677 11.5871 2.31285Z" fill="#1E212C"/>
<path d="M16.2083 19.6885C16.2083 18.4124 15.1734 17.3774 13.8973 17.3774H11.5862V19.6903C11.5871 20.9655 12.6212 21.9995 13.8973 21.9995C15.1734 21.9995 16.2083 20.9645 16.2083 19.6885Z" fill="#1E212C"/>
<path d="M19.6901 11.596H13.8982C12.6212 11.596 11.5853 12.6319 11.5853 13.9089C11.5853 15.1859 12.6212 16.2218 13.8982 16.2218H19.6901C20.9671 16.2218 22.003 15.1859 22.003 13.9089C22.003 12.6319 20.9671 11.596 19.6901 11.596Z" fill="#1E212C"/>
</svg>
