<svg width="18" height="22" viewBox="0 0 18 22" fill="none" xmlns="http://www.w3.org/2000/svg">
<path fill-rule="evenodd" clip-rule="evenodd" d="M9.91582 21.4406C12.0647 19.4527 17.25 14.1014 17.25 8.75C17.25 4.19365 13.5563 0.5 9 0.5C4.44365 0.5 0.75 4.19365 0.75 8.75C0.75 14.1014 5.93533 19.4527 8.08418 21.4406C8.60824 21.9255 9.39176 21.9255 9.91582 21.4406ZM9 12.125C10.864 12.125 12.375 10.614 12.375 8.75C12.375 6.88604 10.864 5.375 9 5.375C7.13604 5.375 5.625 6.88604 5.625 8.75C5.625 10.614 7.13604 12.125 9 12.125Z" fill="#1E212C"/>
</svg>
