<svg width="22" height="22" viewBox="0 0 22 22" fill="none" xmlns="http://www.w3.org/2000/svg">
<path fill-rule="evenodd" clip-rule="evenodd" d="M9.16934 1.20161C9.86409 -0.400536 12.1362 -0.400538 12.8309 1.20161L14.9325 6.04812L20.1913 6.54921C21.9297 6.71487 22.6318 8.87574 21.3227 10.0316L17.3629 13.528L18.5113 18.6842C18.891 20.3887 17.0528 21.7242 15.5491 20.8364L11.0001 18.1508L6.45118 20.8364C4.9474 21.7242 3.10925 20.3887 3.48891 18.6842L4.63737 13.528L0.677508 10.0316C-0.631536 8.87574 0.0705715 6.71487 1.80899 6.54921L7.06773 6.04812L9.16934 1.20161ZM13.1017 6.84201L11.0001 1.9955L8.89851 6.84201C8.60936 7.50881 7.98054 7.96568 7.25702 8.03462L1.99829 8.53572L5.95815 12.0321C6.50297 12.5132 6.74316 13.2524 6.58515 13.9618L5.43668 19.118L9.98563 16.4324C10.6115 16.0629 11.3888 16.0629 12.0146 16.4324L16.5636 19.118L15.4151 13.9618C15.2571 13.2524 15.4973 12.5132 16.0421 12.0321L20.002 8.53572L14.7432 8.03462C14.0197 7.96568 13.3909 7.50881 13.1017 6.84201Z" fill="#1E212C"/>
</svg>
