<svg width="24" height="24" viewBox="0 0 24 24" fill="none" xmlns="http://www.w3.org/2000/svg">
<path d="M21.2868 10.5187C20.8799 10.5187 20.4342 10.8216 20.4342 11.5499H22.1007C22.1007 10.8216 21.6808 10.5187 21.2868 10.5187Z" fill="#1E212C"/>
<path d="M15.9519 13.6509C15.5708 13.6509 15.3447 13.5155 15.1897 13.348L15.1833 10.9569C15.3512 10.77 15.5837 10.6411 15.9519 10.6411C16.5397 10.6411 16.9466 11.2985 16.9466 12.1428C16.9466 13.0064 16.5462 13.6509 15.9519 13.6509Z" fill="#1E212C"/>
<path fill-rule="evenodd" clip-rule="evenodd" d="M2.8125 3C1.2592 3 0 4.2592 0 5.8125V18.1875C0 19.7408 1.2592 21 2.8125 21H21.1875C22.7408 21 24 19.7408 24 18.1875V5.8125C24 4.2592 22.7408 3 21.1875 3H2.8125ZM21.2932 9.21038C22.8241 9.21038 23.625 10.5122 23.625 12.1621C23.625 12.2512 23.6208 12.4 23.6171 12.5263C23.6144 12.6193 23.6121 12.7002 23.6121 12.7357H20.4535C20.5246 13.4962 21.0801 13.7153 21.7066 13.7153C22.3461 13.7153 22.8499 13.58 23.2892 13.3609V14.6498C22.8499 14.8947 22.2686 15.0687 21.4999 15.0687C19.9239 15.0687 18.8258 14.0891 18.8258 12.1492C18.8258 10.5122 19.7559 9.21038 21.2932 9.21038ZM16.3395 9.21038C15.7065 9.21038 15.2995 9.50684 15.0734 9.71308L14.9895 9.3135H13.5684V16.8282L15.1833 16.4866L15.1897 14.6627C15.4222 14.8303 15.7646 15.0687 16.333 15.0687C17.4892 15.0687 18.5421 14.1407 18.5421 12.0977C18.5356 10.2287 17.4698 9.21038 16.3395 9.21038ZM12.964 7.17188V8.48018L11.3427 8.8282V7.51345L12.964 7.17188ZM12.964 9.31315H11.3427V14.9524H12.964V9.31315ZM9.50201 9.32219L9.60536 9.79911C9.98646 9.10306 10.7422 9.24485 10.9489 9.32219V10.8045C10.7486 10.7336 10.1027 10.6434 9.72163 11.1396V14.9614H8.10681V9.32219H9.50201ZM6.37393 7.91862L4.79787 8.25375L4.79141 13.4161C4.79141 14.3699 5.50839 15.0724 6.46436 15.0724C6.99402 15.0724 7.38158 14.9757 7.59473 14.8597V13.5514C7.38804 13.6352 6.36747 13.9317 6.36747 12.9778V10.6899H7.59473V9.31715H6.36747L6.37393 7.91862ZM2.55823 10.6089C2.21589 10.6089 2.00919 10.7056 2.00919 10.9569C2.00919 11.2314 2.36492 11.3521 2.80624 11.5019C3.5257 11.746 4.47263 12.0674 4.47663 13.2577C4.47663 14.4114 3.55296 15.0752 2.20943 15.0752C1.65393 15.0752 1.04676 14.9656 0.446052 14.7078V13.174C0.98863 13.4704 1.67331 13.6895 2.20943 13.6895C2.57115 13.6895 2.82952 13.5929 2.82952 13.2964C2.82952 12.9924 2.4439 12.8535 1.97836 12.6857C1.26937 12.4303 0.375 12.108 0.375 11.0343C0.375 9.89353 1.247 9.21038 2.55823 9.21038C3.09435 9.21038 3.62401 9.29416 4.16013 9.50684V11.0214C3.66922 10.7571 3.04914 10.6089 2.55823 10.6089Z" fill="#1E212C"/>
</svg>
