<svg width="18" height="20" viewBox="0 0 18 20" fill="none" xmlns="http://www.w3.org/2000/svg">
<path fill-rule="evenodd" clip-rule="evenodd" d="M3.79289 0.792893C4.18342 0.402369 4.81658 0.402369 5.20711 0.792893L8.70711 4.29289C9.09763 4.68342 9.09763 5.31658 8.70711 5.70711C8.31658 6.09763 7.68342 6.09763 7.29289 5.70711L5.5 3.91421V17.5C5.5 18.0523 5.05228 18.5 4.5 18.5C3.94772 18.5 3.5 18.0523 3.5 17.5V3.91421L1.70711 5.70711C1.31658 6.09763 0.683417 6.09763 0.292893 5.70711C-0.0976311 5.31658 -0.0976311 4.68342 0.292893 4.29289L3.79289 0.792893ZM13.5 1.5C14.0523 1.5 14.5 1.94772 14.5 2.5V16.0858L16.2929 14.2929C16.6834 13.9024 17.3166 13.9024 17.7071 14.2929C18.0976 14.6834 18.0976 15.3166 17.7071 15.7071L14.2071 19.2071C13.8166 19.5976 13.1834 19.5976 12.7929 19.2071L9.29289 15.7071C8.90237 15.3166 8.90237 14.6834 9.29289 14.2929C9.68342 13.9024 10.3166 13.9024 10.7071 14.2929L12.5 16.0858V2.5C12.5 1.94772 12.9477 1.5 13.5 1.5Z" fill="#1E212C"/>
</svg>
