<svg width="20" height="22" viewBox="0 0 20 22" fill="none" xmlns="http://www.w3.org/2000/svg">
<path d="M19.7957 12.7361C20.4466 7.21624 19.483 3.7314 17.7448 2.15521L17.7457 2.15429C14.9402 -0.537418 5.46565 -0.935817 2.10928 2.27518C0.601999 3.84588 0.071088 6.1511 0.012906 9.00492C-0.045276 11.8596 -0.114367 17.2073 4.83201 18.6581H4.83656L4.83201 20.8735C4.83201 20.8735 4.79838 21.7711 5.36747 21.9515C6.01838 22.164 6.31293 21.7473 8.33748 19.3111C11.7229 19.6069 14.323 18.9292 14.6184 18.8302C15.302 18.5995 19.1702 18.0838 19.7957 12.7361ZM8.67112 17.7523C8.67112 17.7523 6.52838 20.444 5.86202 21.1428C5.64383 21.3699 5.40474 21.3489 5.40838 20.8983C5.40838 20.6024 5.42474 17.2202 5.42474 17.2202C1.23109 16.0094 1.47837 11.4558 1.52382 9.0736C1.56927 6.69054 2.002 4.73884 3.27837 3.42459C6.22293 0.643124 14.5293 1.26499 16.6457 3.26889C19.233 5.5796 18.3121 12.1078 18.3175 12.3304C17.7857 16.7943 14.6511 17.0773 14.0748 17.2705C13.8284 17.353 11.542 17.9455 8.67112 17.7523Z" fill="#1E212C"/>
<path d="M9.85664 3.94749C9.50663 3.94749 9.50663 4.497 9.85664 4.50158C12.5721 4.52265 14.8085 6.42946 14.833 9.92713C14.833 10.2962 15.3694 10.2916 15.3648 9.92255C15.3357 6.15379 12.893 3.96855 9.85664 3.94749Z" fill="#1E212C"/>
<path d="M13.4286 9.34724C13.4204 9.71175 13.9559 9.72915 13.9604 9.36006C14.005 7.28198 12.7332 5.57024 10.3431 5.38981C9.99314 5.36417 9.95678 5.91826 10.3059 5.94391C12.3786 6.10235 13.4704 7.52743 13.4286 9.34724Z" fill="#1E212C"/>
<path d="M12.856 11.7109C12.4069 11.449 11.9496 11.612 11.7605 11.8694L11.3651 12.385C11.1642 12.6469 10.7887 12.6121 10.7887 12.6121C8.04872 11.8822 7.31599 8.99358 7.31599 8.99358C7.31599 8.99358 7.28236 8.60251 7.53327 8.39278L8.02781 7.98064C8.27508 7.78282 8.43145 7.30657 8.17963 6.83857C7.5069 5.61406 7.05508 5.19185 6.82508 4.86764C6.58326 4.56266 6.21963 4.49397 5.84144 4.70004H5.83326C5.0469 5.16346 4.18598 6.03078 4.46144 6.92374C4.93144 7.86524 5.79508 10.8665 8.54781 13.1342C9.84145 14.2067 11.8887 15.3057 12.7578 15.5594L12.766 15.5722C13.6224 15.8598 14.4551 14.9586 14.8996 14.1425V14.1361C15.0969 13.7414 15.0315 13.3677 14.7433 13.1232C14.2324 12.6213 13.4615 12.0672 12.856 11.7109Z" fill="#1E212C"/>
<path d="M10.7176 7.43399C11.5913 7.48528 12.0149 7.94504 12.0604 8.88929C12.0767 9.25839 12.6085 9.23274 12.5922 8.86365C12.534 7.6309 11.8958 6.944 10.7467 6.87989C10.3967 6.85883 10.364 7.41293 10.7176 7.43399Z" fill="#1E212C"/>
</svg>
