<svg width="22" height="20" viewBox="0 0 22 20" fill="none" xmlns="http://www.w3.org/2000/svg">
<path d="M18.7886 0.00515485C15.738 -0.110081 13.6773 1.70703 12.5902 5.42791C13.1493 5.16791 13.6929 5.05172 14.2191 5.05172C15.3365 5.05172 15.8305 5.71552 15.6985 7.03454C15.6325 7.83357 15.1412 8.99545 14.2209 10.524C13.296 12.0525 12.6048 12.8182 12.1447 12.8182C10.7496 12.8182 9.91082 5.88123 9.62665 3.98698C9.23158 1.3537 8.17835 0.122295 6.46696 0.294673C4.89583 0.449908 2.15413 3.3889 0 5.38124L1.0349 6.78312C2.0203 6.05742 2.59504 5.69361 2.75912 5.69361C4.47417 5.69361 5.30465 11.7573 6.63654 16.2667C7.53028 18.7553 8.60184 20 9.8934 20C11.9687 20 14.4968 17.9581 17.4924 13.8725C20.3845 9.96115 21.8823 6.87835 21.9785 4.62983L21.9904 4.6203C22.1133 1.60608 21.0545 0.0632489 18.7886 0.00515485V0.00515485Z" fill="#1E212C"/>
</svg>
