<svg width="22" height="22" viewBox="0 0 22 22" fill="none" xmlns="http://www.w3.org/2000/svg">
<path fill-rule="evenodd" clip-rule="evenodd" d="M3.25 2.25C2.69772 2.25 2.25 2.69771 2.25 3.25L2.25 18.75C2.25 19.3023 2.69771 19.75 3.25 19.75L18.75 19.75C19.3023 19.75 19.75 19.3023 19.75 18.75V15.5793C19.4372 15.6898 19.1006 15.75 18.75 15.75L13 15.75C11.3431 15.75 10 14.4068 10 12.75V9.25C10 7.59314 11.3432 6.24999 13 6.25L18.75 6.25001C19.1006 6.25001 19.4372 6.31016 19.75 6.42071V3.25003C19.75 2.69775 19.3023 2.25004 18.75 2.25003L3.25 2.25ZM21.75 3.25003C21.75 1.59318 20.4069 0.250037 18.75 0.250034L3.25001 0.25C1.59315 0.249996 0.250001 1.59314 0.250001 3.25L0.25 18.75C0.25 20.4069 1.59314 21.75 3.25 21.75L18.75 21.75C20.4069 21.75 21.75 20.4068 21.75 18.75V3.25003ZM19.75 9.25001C19.75 8.69772 19.3023 8.25001 18.75 8.25001L13 8.25C12.4477 8.25 12 8.69771 12 9.25V12.75C12 13.3023 12.4477 13.75 13 13.75L18.75 13.75C19.3023 13.75 19.75 13.3023 19.75 12.75V9.25001ZM14.75 11.25C14.8881 11.25 15 11.1381 15 11C15 10.8619 14.8881 10.75 14.75 10.75C14.6119 10.75 14.5 10.8619 14.5 11C14.5 11.1381 14.6119 11.25 14.75 11.25ZM13 11C13 10.0335 13.7835 9.25 14.75 9.25C15.7165 9.25 16.5 10.0335 16.5 11C16.5 11.9665 15.7165 12.75 14.75 12.75C13.7835 12.75 13 11.9665 13 11Z" fill="#1E212C"/>
</svg>
