<svg width="24" height="24" viewBox="0 0 24 24" fill="none" xmlns="http://www.w3.org/2000/svg">
<path d="M9.16406 1.6875C4.472 1.6875 0.65625 4.99192 0.65625 9.05357C0.65625 11.2 1.71122 13.1918 3.57301 14.6061L2.85836 16.0911C2.72507 16.3666 2.77186 16.701 2.97605 16.925C3.11217 17.0752 3.30076 17.1562 3.49219 17.1562C3.58577 17.1562 3.68078 17.1371 3.77153 17.0973L6.2785 15.9821C7.45399 16.3519 8.70748 16.4638 9.96522 16.3887C10.3566 16.3681 10.6572 16.0204 10.6359 15.6138C10.6146 15.2057 10.2431 14.8728 9.89006 14.9184C8.71598 14.9803 7.55041 14.8728 6.46709 14.4971C6.3026 14.4411 6.12394 14.45 5.96371 14.5192L4.9924 14.9523L5.12002 14.6857C5.28308 14.3468 5.17106 13.9329 4.86053 13.7325C3.08948 12.5834 2.07422 10.8789 2.07422 9.05357C2.07422 5.80366 5.25472 3.16071 9.16406 3.16071C13.0734 3.16071 16.2539 5.80366 16.2539 9.05357C16.2539 9.27455 16.244 9.48228 16.2085 9.69C16.1391 10.0907 16.3971 10.4737 16.7814 10.5445C17.1727 10.6196 17.5343 10.35 17.6038 9.94928C17.6534 9.65611 17.6719 9.36295 17.6719 9.05357C17.6719 4.99192 13.8561 1.6875 9.16406 1.6875Z" fill="#1E212C"/>
<path d="M20.9403 19.3528C22.4561 18.2391 23.3438 16.6333 23.3438 14.9464C23.3438 11.6965 20.1632 9.05357 16.2539 9.05357C12.3446 9.05357 9.16406 11.6965 9.16406 14.9464C9.16406 18.5455 13.0209 21.4507 17.5358 20.7376L20.9375 22.2536C21.0268 22.2919 21.1232 22.3125 21.2168 22.3125C21.4082 22.3125 21.5968 22.2315 21.7329 22.0797C21.9385 21.8558 21.9853 21.5229 21.852 21.2459L20.9403 19.3528ZM19.6684 18.4497C19.3422 18.6442 19.2189 19.0685 19.3862 19.4176L19.7166 20.1071L17.9044 19.2983C17.8165 19.26 17.7201 19.2394 17.6251 19.2394C17.584 19.2394 17.5443 19.2423 17.5046 19.2497C17.0692 19.3292 16.6594 19.3661 16.2539 19.3661C13.1259 19.3661 10.582 17.3831 10.582 14.9464C10.582 12.5097 13.1259 10.5268 16.2539 10.5268C19.3819 10.5268 21.9258 12.5097 21.9258 14.9464C21.9258 16.3195 21.1034 17.5967 19.6684 18.4497Z" fill="#1E212C"/>
<path d="M6.35606 6.10714H6.34188C5.95052 6.10714 5.63999 6.43714 5.63999 6.84375C5.63999 7.25036 5.9647 7.58036 6.35606 7.58036C6.74742 7.58036 7.06504 7.25036 7.06504 6.84375C7.06504 6.43714 6.74742 6.10714 6.35606 6.10714Z" fill="#1E212C"/>
<path d="M12.0279 6.10714H12.0137C11.6224 6.10714 11.3119 6.43714 11.3119 6.84375C11.3119 7.25036 11.6366 7.58036 12.0279 7.58036C12.4193 7.58036 12.7369 7.25036 12.7369 6.84375C12.7369 6.43714 12.4193 6.10714 12.0279 6.10714Z" fill="#1E212C"/>
<path d="M14.1549 12.7366H14.1407C13.7479 12.7366 13.4388 13.0666 13.4388 13.4732C13.4388 13.8798 13.7635 14.2098 14.1549 14.2098C14.5463 14.2098 14.8639 13.8798 14.8639 13.4732C14.8639 13.0666 14.5463 12.7366 14.1549 12.7366Z" fill="#1E212C"/>
<path d="M18.4088 12.7366H18.3946C18.0033 12.7366 17.6927 13.0666 17.6927 13.4732C17.6927 13.8798 18.0189 14.2098 18.4088 14.2098C18.8002 14.2098 19.1178 13.8798 19.1178 13.4732C19.1178 13.0666 18.8002 12.7366 18.4088 12.7366Z" fill="#1E212C"/>
<path fill-rule="evenodd" clip-rule="evenodd" d="M0.556274 9.05396C0.556274 4.92405 4.43081 1.58789 9.16409 1.58789C13.8974 1.58789 17.7719 4.92405 17.7719 9.05396C17.7719 9.0655 17.7719 9.07702 17.7718 9.08853C20.999 9.66935 23.4438 12.0629 23.4438 14.9468C23.4438 16.6451 22.5632 18.2566 21.0662 19.3842L21.9422 21.2029C22.0927 21.5157 22.0406 21.8925 21.8071 22.1473C21.6519 22.32 21.4364 22.4129 21.2168 22.4129C21.1089 22.4129 20.9991 22.3892 20.8981 22.3459L20.8968 22.3453L17.522 20.8414C17.5318 20.8399 17.5416 20.8383 17.5514 20.8368L17.5358 20.738L17.4951 20.8294L17.522 20.8414C13.647 21.4404 10.2306 19.4004 9.30831 16.511C9.37849 16.5105 9.44872 16.5095 9.51898 16.5078C10.4386 19.2643 13.7321 21.2375 17.5202 20.6392L17.5494 20.6346L20.9769 22.1621L20.9375 22.254L20.9782 22.1626C21.0557 22.1957 21.1378 22.2129 21.2168 22.2129C21.38 22.2129 21.5415 22.1438 21.6585 22.0133L21.6593 22.0125C21.8366 21.8194 21.8779 21.5306 21.762 21.2896L20.8142 19.3218L20.8811 19.2726C22.3753 18.1748 23.2438 16.5972 23.2438 14.9468C23.2438 12.1956 20.9076 9.86671 17.7681 9.29057C17.7603 9.51951 17.7403 9.74264 17.7024 9.96637C17.6628 10.1949 17.5378 10.3881 17.3654 10.5115C20.0029 10.9166 22.0258 12.7352 22.0258 14.9468C22.0258 16.3632 21.1772 17.6696 19.7195 18.5361C19.7195 18.5361 19.7195 18.5361 19.7195 18.5361C19.4394 18.7032 19.3307 19.0708 19.4764 19.3748L19.9244 20.3097L17.8645 19.3904C17.7889 19.3575 17.7058 19.3398 17.6251 19.3398C17.5888 19.3398 17.5554 19.3424 17.5228 19.3484C17.0818 19.429 16.6657 19.4665 16.2539 19.4665C13.5663 19.4665 11.2735 18.0141 10.6495 16.0325M9.97076 16.4889C9.82011 16.4979 9.66947 16.5043 9.51898 16.5078C9.49703 16.442 9.47643 16.3758 9.45721 16.3091C9.62432 16.3059 9.79173 16.2993 9.95928 16.2893C10.2918 16.2717 10.5547 15.9746 10.5361 15.6194C10.5269 15.4441 10.4422 15.2826 10.3197 15.1699C10.1968 15.0568 10.044 14.9998 9.90292 15.018L9.89536 15.019C9.68494 15.0301 9.47462 15.0355 9.26489 15.0352C9.26436 15.0058 9.26409 14.9763 9.26409 14.9468C9.26409 14.9095 9.26452 14.8723 9.26537 14.8352C9.46998 14.8355 9.67539 14.8299 9.88121 14.8192C9.87989 14.8193 9.87858 14.8195 9.87726 14.8197L9.89009 14.9188L9.88482 14.819C9.88362 14.819 9.88241 14.8191 9.88121 14.8192C10.0919 14.7933 10.2998 14.8798 10.4552 15.0228C10.4648 15.0316 10.4743 15.0407 10.4835 15.0501C10.489 15.2431 10.51 15.4329 10.5453 15.6189C10.5453 15.6189 10.5453 15.6189 10.5453 15.6189C10.572 15.759 10.6069 15.897 10.6495 16.0325C10.5233 16.2894 10.2719 16.473 9.97076 16.4889ZM16.3502 10.4278C16.3181 10.4274 16.2861 10.4272 16.2539 10.4272C13.0953 10.4272 10.4821 12.4331 10.4821 14.9468C10.4821 14.9813 10.4825 15.0158 10.4835 15.0501C10.6254 15.1929 10.7244 15.3905 10.7358 15.609M16.3502 10.4278C16.4605 10.536 16.6016 10.6134 16.763 10.6431C16.7628 10.6431 16.7631 10.6432 16.763 10.6431M16.11 9.67336C16.0604 9.95964 16.1589 10.2401 16.3502 10.4278ZM16.1532 9.15455C12.373 9.19891 9.3367 11.7352 9.26537 14.8352C9.19861 14.8351 9.13193 14.8344 9.06536 14.8331C9.13775 11.5927 12.2973 8.99915 16.1529 8.95455C16.1536 8.98762 16.1539 9.02076 16.1539 9.05396C16.1539 9.08788 16.1537 9.12139 16.1532 9.15455ZM16.3532 9.15453C16.3503 9.34228 16.3384 9.52419 16.3071 9.70721C16.2465 10.0571 16.4723 10.3863 16.7995 10.4465C16.8015 10.4469 16.8043 10.4474 16.8063 10.4478C16.8446 10.4506 16.8828 10.4538 16.9209 10.4573C17.2046 10.4528 17.4518 10.2404 17.5052 9.93299C17.5429 9.71081 17.5622 9.48798 17.569 9.25658C17.1747 9.1942 16.7684 9.15933 16.3532 9.15453ZM16.353 8.95452C16.32 8.95415 16.287 8.95396 16.2539 8.95396C16.2202 8.95396 16.1865 8.95416 16.1529 8.95455C16.0887 5.82146 12.9959 3.2611 9.16409 3.2611C5.29186 3.2611 2.17424 5.8758 2.17424 9.05396C2.17424 10.8396 3.16715 12.515 4.91498 13.649C4.91505 13.649 4.91491 13.649 4.91498 13.649C5.26907 13.8776 5.39429 14.3466 5.21021 14.7293L5.19998 14.7507L4.9517 14.8614L4.99242 14.9527L5.08262 14.9959L5.19998 14.7507L5.92301 14.4283L5.92406 14.4278C6.10636 14.349 6.31063 14.3386 6.49933 14.4028C7.31598 14.686 8.18228 14.8154 9.06536 14.8331C9.06451 14.8709 9.06409 14.9088 9.06409 14.9468C9.06409 14.9756 9.06433 15.0044 9.06481 15.0331C8.16377 15.0154 7.27563 14.8837 6.43465 14.5921M6.00392 14.6112C6.00374 14.6112 6.00409 14.6111 6.00392 14.6112ZM16.353 8.95452C16.7683 8.95923 17.1757 8.99353 17.5719 9.05503C17.5719 9.05467 17.5719 9.05432 17.5719 9.05396C17.5719 5.06057 13.8149 1.78789 9.16409 1.78789C4.51325 1.78789 0.756274 5.06057 0.756274 9.05396C0.756274 11.1657 1.79371 13.1293 3.63353 14.5269L3.69856 14.5763L2.94849 16.1349C2.83269 16.3742 2.8738 16.6648 3.04996 16.858C3.16711 16.9873 3.32899 17.0566 3.49221 17.0566C3.57204 17.0566 3.65329 17.0403 3.7312 17.0062C3.73127 17.0062 3.73114 17.0062 3.7312 17.0062L6.27244 15.8757L6.30853 15.8871C7.24941 16.1831 8.24231 16.3123 9.2489 16.3112C9.13541 15.8995 9.07215 15.4718 9.06481 15.0331C9.13144 15.0344 9.19813 15.0351 9.26489 15.0352C9.27275 15.4721 9.33885 15.8986 9.45721 16.3091M16.7798 10.6462C16.8262 10.6541 16.8722 10.6578 16.9174 10.6575C19.6973 10.9136 21.8258 12.7583 21.8258 14.9468C21.8258 16.2765 21.0296 17.5247 19.6173 18.3642C19.2453 18.586 19.1071 19.067 19.296 19.4612L19.5088 19.9052L17.9452 19.2074C17.8451 19.1638 17.7343 19.1398 17.6251 19.1398C17.5792 19.1398 17.5334 19.1431 17.4866 19.1517M16.7798 10.6462C16.6068 10.6336 16.4314 10.6272 16.2539 10.6272C13.1565 10.6272 10.6821 12.5871 10.6821 14.9468C10.6821 17.3065 13.1565 19.2665 16.2539 19.2665C16.6531 19.2665 17.0571 19.2302 17.4866 19.1517M6.28472 16.0892C7.25572 16.3899 8.2772 16.5173 9.30831 16.511ZM6.28472 16.0892L6.31916 16.0739L6.27852 15.9825L6.24851 16.0779C6.26057 16.0817 6.27264 16.0854 6.28472 16.0892ZM6.28472 16.0892L3.8122 17.1891C3.70868 17.2345 3.59949 17.2566 3.49221 17.2566C3.27261 17.2566 3.05711 17.1637 2.90202 16.9925C2.66998 16.7379 2.61764 16.3597 2.76828 16.0481L3.44768 14.6364C3.46919 14.653 3.49082 14.6696 3.51255 14.6861L3.57304 14.6065L3.48293 14.5631L3.44768 14.6364C1.60417 13.2085 0.556274 11.21 0.556274 9.05396M5.54002 6.84414C5.54002 6.38728 5.89047 6.00753 6.34191 6.00753H6.35609C6.80624 6.00753 7.16507 6.38594 7.16507 6.84414C7.16507 7.30234 6.80624 7.68075 6.35609 7.68075C5.9072 7.68075 5.54002 7.30365 5.54002 6.84414ZM6.34191 6.20753C6.01063 6.20753 5.74002 6.48779 5.74002 6.84414C5.74002 7.19784 6.02225 7.48075 6.35609 7.48075C6.68865 7.48075 6.96507 7.19916 6.96507 6.84414C6.96507 6.48912 6.68865 6.20753 6.35609 6.20753H6.34191ZM11.2119 6.84414C11.2119 6.38728 11.5623 6.00753 12.0138 6.00753H12.028C12.4781 6.00753 12.8369 6.38594 12.8369 6.84414C12.8369 7.30234 12.4781 7.68075 12.028 7.68075C11.5791 7.68075 11.2119 7.30365 11.2119 6.84414ZM12.0138 6.20753C11.6825 6.20753 11.4119 6.48778 11.4119 6.84414C11.4119 7.19784 11.6941 7.48075 12.028 7.48075C12.3605 7.48075 12.6369 7.19916 12.6369 6.84414C12.6369 6.48912 12.3605 6.20753 12.028 6.20753H12.0138ZM13.3389 13.4736C13.3389 13.0169 13.6878 12.637 14.1407 12.637H14.1549C14.6051 12.637 14.9639 13.0154 14.9639 13.4736C14.9639 13.9318 14.6051 14.3102 14.1549 14.3102C13.706 14.3102 13.3389 13.9331 13.3389 13.4736ZM14.1407 12.837C13.8082 12.837 13.5389 13.1171 13.5389 13.4736C13.5389 13.8273 13.8211 14.1102 14.1549 14.1102C14.4875 14.1102 14.7639 13.8286 14.7639 13.4736C14.7639 13.1186 14.4875 12.837 14.1549 12.837H14.1407ZM17.5928 13.4736C17.5928 13.0167 17.9432 12.637 18.3947 12.637H18.4088C18.859 12.637 19.2178 13.0154 19.2178 13.4736C19.2178 13.9318 18.859 14.3102 18.4088 14.3102C17.9615 14.3102 17.5928 13.9332 17.5928 13.4736ZM18.3947 12.837C18.0634 12.837 17.7928 13.1173 17.7928 13.4736C17.7928 13.8272 18.0763 14.1102 18.4088 14.1102C18.7414 14.1102 19.0178 13.8286 19.0178 13.4736C19.0178 13.1186 18.7414 12.837 18.4088 12.837H18.3947Z" fill="#1E212C"/>
</svg>
