<svg width="20" height="20" viewBox="0 0 20 20" fill="none" xmlns="http://www.w3.org/2000/svg">
<path d="M20 9.74244C20 15.1231 15.6047 19.4849 10.1818 19.4849C8.46022 19.4849 6.84289 19.0449 5.43578 18.2727L0 20L1.77222 14.7729C0.878222 13.3049 0.363333 11.5831 0.363333 9.74244C0.363333 4.36178 4.75911 0 10.1818 0C15.6051 0 20 4.36178 20 9.74244ZM10.1818 1.55156C5.62978 1.55156 1.92711 5.226 1.92711 9.74244C1.92711 11.5347 2.51133 13.1944 3.49956 14.5447L2.46822 17.5867L5.64044 16.5784C6.94378 17.4342 8.50511 17.9333 10.182 17.9333C14.7333 17.9333 18.4367 14.2593 18.4367 9.74289C18.4367 5.22644 14.7336 1.55156 10.1818 1.55156ZM15.1398 11.9862C15.0791 11.8869 14.9189 11.8269 14.6784 11.7076C14.4376 11.5882 13.254 11.0102 13.034 10.9309C12.8133 10.8513 12.6524 10.8113 12.4922 11.0502C12.332 11.2893 11.8707 11.8269 11.73 11.9862C11.5896 12.146 11.4493 12.166 11.2084 12.0464C10.968 11.9271 10.1927 11.6747 9.27333 10.8613C8.558 10.2284 8.07489 9.44711 7.93444 9.20778C7.79422 8.96889 7.91978 8.83978 8.04 8.72089C8.14844 8.61378 8.28089 8.442 8.40111 8.30267C8.52178 8.16311 8.56178 8.06378 8.64156 7.90422C8.72222 7.74489 8.682 7.60556 8.62156 7.48578C8.56156 7.36644 8.07978 6.19133 7.87933 5.71311C7.67889 5.23533 7.47867 5.31489 7.338 5.31489C7.19778 5.31489 7.03711 5.29489 6.87667 5.29489C6.71622 5.29489 6.45533 5.35467 6.23467 5.59356C6.01422 5.83267 5.39267 6.41044 5.39267 7.58533C5.39267 8.76044 6.25467 9.89578 6.37533 10.0549C6.49556 10.214 8.03978 12.7038 10.4864 13.66C12.9333 14.6158 12.9333 14.2969 13.3747 14.2569C13.8156 14.2171 14.7982 13.6793 14.9996 13.122C15.1996 12.5638 15.1996 12.0858 15.1398 11.9862Z" fill="#1E212C"/>
</svg>
