<svg width="507" height="454" viewBox="0 0 507 454" fill="none" xmlns="http://www.w3.org/2000/svg">
<path d="M406.421 453.522H0L166.082 60.1523H240.34L406.421 453.522Z" fill="#D0F0E4"/>
<path fill-rule="evenodd" clip-rule="evenodd" d="M203.212 22.8516L210.593 30.2145L209.916 30.8903L203.212 24.2032L196.508 30.8903L195.831 30.2145L203.212 22.8516Z" fill="#FFCF2D"/>
<path fill-rule="evenodd" clip-rule="evenodd" d="M203.69 0V23.5283H202.731V0H203.69Z" fill="#FFCF2D"/>
<path d="M203.21 72.4172C209.472 72.4172 214.548 67.3535 214.548 61.107C214.548 54.8606 209.472 49.7969 203.21 49.7969C196.948 49.7969 191.872 54.8606 191.872 61.107C191.872 67.3535 196.948 72.4172 203.21 72.4172Z" fill="#FFCF2D"/>
<path fill-rule="evenodd" clip-rule="evenodd" d="M203.21 50.2741C197.213 50.2741 192.351 55.1239 192.351 61.1064C192.351 67.0889 197.213 71.9387 203.21 71.9387C209.207 71.9387 214.069 67.0889 214.069 61.1064C214.069 55.1239 209.207 50.2741 203.21 50.2741ZM191.393 61.1064C191.393 54.596 196.683 49.3184 203.21 49.3184C209.736 49.3184 215.027 54.596 215.027 61.1064C215.027 67.6168 209.736 72.8944 203.21 72.8944C196.683 72.8944 191.393 67.6168 191.393 61.1064Z" fill="white"/>
<path fill-rule="evenodd" clip-rule="evenodd" d="M203.227 30.5066C185.707 30.5066 170.755 41.1648 167.556 55.746L166.693 59.674H239.745L238.881 55.73C238.881 55.7299 238.881 55.7299 238.881 55.7298C237.281 48.4373 232.76 42.1308 226.425 37.6507L226.424 37.6503C220.104 33.1697 211.978 30.5066 203.227 30.5066ZM166.62 55.5415C169.936 40.4296 185.358 29.5508 203.227 29.5508C212.17 29.5508 220.491 32.2718 226.979 36.8709C233.483 41.4707 238.16 47.9717 239.817 55.5257L239.818 55.5259L240.935 60.6298H165.502L166.62 55.5415C166.62 55.5415 166.62 55.5415 166.62 55.5415Z" fill="#9A3B82"/>
<path d="M338.266 313.848H330.729V361.318H338.266V313.848Z" fill="#66B0F0"/>
<path d="M475.141 361.318H432.232C430.683 361.318 429.485 359.98 429.676 358.451L435.649 308.16C435.809 306.87 436.911 305.898 438.204 305.898H481.114C482.663 305.898 483.861 307.237 483.669 308.766L477.696 359.056C477.537 360.346 476.435 361.318 475.141 361.318Z" fill="#9A3B82"/>
<path d="M451.762 361.318H417.875C415.799 361.318 414.186 359.502 414.426 357.447L418.77 320.824C418.977 319.088 420.462 317.766 422.219 317.766H456.92L451.762 361.318Z" fill="white"/>
<path fill-rule="evenodd" clip-rule="evenodd" d="M419.245 320.882C419.245 320.882 419.245 320.882 419.245 320.882L414.901 357.503C414.901 357.503 414.901 357.503 414.901 357.504C414.695 359.276 416.087 360.841 417.875 360.841H451.336L456.381 318.245H422.219C420.706 318.245 419.424 319.385 419.245 320.882ZM418.294 320.769C418.53 318.793 420.218 317.289 422.219 317.289H457.459L452.188 361.797H417.875C415.511 361.797 413.677 359.73 413.95 357.393L413.95 357.392L418.294 320.769Z" fill="#FFCF2D"/>
<path d="M455.563 361.318H423.225C421.149 361.318 419.536 359.502 419.776 357.447L424.119 320.824C424.327 319.088 425.812 317.766 427.569 317.766H460.322C461.36 317.766 462.174 318.674 462.047 319.709L457.288 359.772C457.192 360.665 456.441 361.318 455.563 361.318Z" fill="white"/>
<path fill-rule="evenodd" clip-rule="evenodd" d="M424.595 320.882C424.595 320.882 424.595 320.882 424.595 320.882L420.251 357.503C420.251 357.503 420.251 357.503 420.251 357.504C420.045 359.276 421.437 360.841 423.225 360.841H455.563C456.2 360.841 456.742 360.368 456.811 359.723L456.811 359.72L461.571 319.654L461.571 319.652C461.663 318.904 461.074 318.245 460.322 318.245H427.568C426.055 318.245 424.774 319.385 424.595 320.882ZM423.643 320.769C423.879 318.793 425.568 317.289 427.568 317.289H460.322C461.645 317.289 462.685 318.446 462.522 319.768C462.522 319.768 462.522 319.768 462.522 319.769L457.764 359.825C457.764 359.826 457.764 359.826 457.763 359.827C457.64 360.965 456.681 361.797 455.563 361.797H423.225C420.861 361.797 419.027 359.73 419.299 357.393L419.299 357.392L423.643 320.769Z" fill="#FFCF2D"/>
<path fill-rule="evenodd" clip-rule="evenodd" d="M338.268 320.506H352.305V361.796H338.268V320.506ZM339.226 321.462V360.84H351.347V321.462H339.226Z" fill="#9A3B82"/>
<path fill-rule="evenodd" clip-rule="evenodd" d="M346.795 320.506H366.166V361.796H346.795V320.506ZM347.753 321.462V360.84H365.208V321.462H347.753Z" fill="#9A3B82"/>
<path fill-rule="evenodd" clip-rule="evenodd" d="M363.224 316.078H369.358L388.718 361.797H382.584L363.224 316.078ZM364.669 317.034L383.219 360.841H387.273L368.723 317.034H364.669Z" fill="#9A3B82"/>
<path fill-rule="evenodd" clip-rule="evenodd" d="M371.172 322.879H381.701L398.432 361.795H387.904L371.172 322.879ZM372.626 323.835L388.536 360.84H396.979L381.069 323.835H372.626Z" fill="#9A3B82"/>
<path fill-rule="evenodd" clip-rule="evenodd" d="M316.581 320.506H330.729V361.796H316.581V320.506ZM317.539 321.462V360.84H329.771V321.462H317.539Z" fill="#9A3B82"/>
<path fill-rule="evenodd" clip-rule="evenodd" d="M316.581 289.588H378.893V298.413H316.581V289.588ZM317.539 290.544V297.457H377.935V290.544H317.539Z" fill="#9A3B82"/>
<path d="M394.782 284.045H317.059V290.385H394.782V284.045Z" fill="#FE5244"/>
<path d="M369.519 274.9H317.059V283.885H369.519V274.9Z" fill="#FFCF2D"/>
<path fill-rule="evenodd" clip-rule="evenodd" d="M316.581 267.557H378.893V275.219H316.581V267.557ZM317.539 268.512V274.263H377.935V268.512H317.539Z" fill="#9A3B82"/>
<path d="M484.275 250.352L484.227 250.623L476.977 297.934H409.713L416.963 250.623L417.059 249.954C418.209 247.628 425.236 245.828 433.747 245.828C443.058 245.828 450.595 247.979 450.595 250.623C450.595 247.979 458.133 245.828 467.443 245.828C476.434 245.844 483.764 247.835 484.275 250.352Z" fill="white"/>
<path fill-rule="evenodd" clip-rule="evenodd" d="M417.522 250.102L417.438 250.692L410.272 297.456H476.565L483.754 250.545L483.786 250.367C483.667 249.957 483.259 249.483 482.446 248.994C481.599 248.485 480.401 248.014 478.914 247.613C475.944 246.812 471.907 246.313 467.443 246.305C462.819 246.305 458.654 246.84 455.659 247.693C454.159 248.12 452.98 248.62 452.186 249.154C451.376 249.699 451.074 250.204 451.074 250.622H450.116C450.116 250.204 449.814 249.699 449.004 249.154C448.211 248.62 447.032 248.12 445.531 247.693C442.537 246.84 438.371 246.305 433.748 246.305C429.522 246.305 425.678 246.753 422.759 247.482C421.299 247.847 420.086 248.279 419.177 248.751C418.296 249.209 417.761 249.675 417.522 250.102ZM450.595 249.315C450.327 248.963 449.962 248.645 449.54 248.361C448.629 247.748 447.342 247.215 445.794 246.774C442.692 245.89 438.434 245.35 433.748 245.35C429.462 245.35 425.537 245.802 422.526 246.555C421.022 246.931 419.732 247.385 418.734 247.904C417.75 248.415 416.985 249.023 416.63 249.742L416.596 249.81L416.489 250.555L409.156 298.412H477.388L484.7 250.7L484.762 250.345L484.744 250.257C484.576 249.426 483.874 248.737 482.941 248.176C481.989 247.603 480.697 247.104 479.164 246.69C476.093 245.862 471.97 245.358 467.444 245.35H467.443C462.756 245.35 458.498 245.89 455.396 246.774C453.849 247.215 452.562 247.748 451.651 248.361C451.229 248.645 450.864 248.963 450.595 249.315Z" fill="#FFCF2D"/>
<path fill-rule="evenodd" clip-rule="evenodd" d="M451.084 250.71L443.898 298.021L442.95 297.878L450.136 250.566L451.084 250.71Z" fill="#FFCF2D"/>
<path d="M443.425 297.949C443.425 295.305 435.887 293.154 426.577 293.154C417.267 293.154 409.729 295.305 409.729 297.949H443.425Z" fill="#FFCF2D"/>
<path d="M477.121 297.949C477.121 295.305 469.584 293.154 460.273 293.154C450.963 293.154 443.426 295.305 443.426 297.949H477.121Z" fill="#FFCF2D"/>
<path fill-rule="evenodd" clip-rule="evenodd" d="M482.177 247.793C482.439 247.835 482.617 248.079 482.575 248.34L475.296 293.989L474.743 293.776C471.807 292.645 466.146 291.834 460.369 292.04C455.745 292.206 451.599 292.886 448.636 293.843C447.151 294.322 445.99 294.862 445.217 295.423C444.427 295.996 444.143 296.511 444.159 296.929C444.168 297.193 443.961 297.415 443.697 297.424C443.433 297.434 443.211 297.227 443.201 296.964C443.168 296.06 443.781 295.283 444.653 294.65C445.542 294.006 446.81 293.428 448.341 292.933C451.41 291.943 455.648 291.253 460.335 291.085C465.851 290.888 471.328 291.601 474.534 292.685L481.629 248.19C481.671 247.929 481.916 247.752 482.177 247.793Z" fill="#FFCF2D"/>
<path d="M478.91 234.566H418.514V221.153C418.514 219.831 419.584 218.764 420.91 218.764H476.531C477.856 218.764 478.926 219.831 478.926 221.153V234.566H478.91Z" fill="white"/>
<path fill-rule="evenodd" clip-rule="evenodd" d="M420.909 219.241C419.848 219.241 418.992 220.094 418.992 221.153V234.087H478.446V221.153C478.446 220.094 477.591 219.241 476.53 219.241H420.909ZM418.034 221.153C418.034 219.566 419.319 218.285 420.909 218.285H476.53C478.12 218.285 479.405 219.566 479.405 221.153V235.043H418.034V221.153Z" fill="#9A3B82"/>
<path d="M483.732 218.126H431.688C430.874 218.126 430.235 217.473 430.235 216.677V211.34C430.235 210.528 430.89 209.891 431.688 209.891H483.732C484.547 209.891 485.186 210.544 485.186 211.34V216.677C485.186 217.473 484.531 218.126 483.732 218.126Z" fill="#FFCF2D"/>
<path d="M485.761 204.889H424.023V209.891H485.761V204.889Z" fill="#FE5244"/>
<path d="M484.642 204.889H437.516C436.893 204.889 436.398 204.38 436.398 203.774V199.744C436.398 199.123 436.909 198.629 437.516 198.629H484.642C485.265 198.629 485.76 199.139 485.76 199.744V203.774C485.76 204.38 485.265 204.889 484.642 204.889Z" fill="white"/>
<path fill-rule="evenodd" clip-rule="evenodd" d="M437.517 199.106C437.171 199.106 436.879 199.39 436.879 199.743V203.774C436.879 204.119 437.164 204.411 437.517 204.411H484.643C484.997 204.411 485.282 204.119 485.282 203.774V199.743C485.282 199.398 484.997 199.106 484.643 199.106H437.517ZM435.92 199.743C435.92 198.854 436.65 198.15 437.517 198.15H484.643C485.535 198.15 486.24 198.879 486.24 199.743V203.774C486.24 204.638 485.535 205.367 484.643 205.367H437.517C436.626 205.367 435.92 204.638 435.92 203.774V199.743Z" fill="#9A3B82"/>
<path fill-rule="evenodd" clip-rule="evenodd" d="M336.397 184.881H355.481V235.044H336.397V184.881ZM337.356 185.837V234.088H354.523V185.837H337.356Z" fill="#9A3B82"/>
<path d="M336.878 185.359H329.564V234.566H336.878V185.359Z" fill="white"/>
<path fill-rule="evenodd" clip-rule="evenodd" d="M329.085 184.881H337.357V235.044H329.085V184.881ZM330.043 185.837V234.088H336.399V185.837H330.043Z" fill="#9A3B82"/>
<path d="M329.563 185.359H317.267V234.566H329.563V185.359Z" fill="white"/>
<path fill-rule="evenodd" clip-rule="evenodd" d="M316.788 184.881H330.043V235.044H316.788V184.881ZM317.746 185.837V234.088H329.084V185.837H317.746Z" fill="#9A3B82"/>
<path fill-rule="evenodd" clip-rule="evenodd" d="M356.919 193.77H373.767V235.06H356.919V193.77ZM357.878 194.725V234.104H372.809V194.725H357.878Z" fill="#9A3B82"/>
<path d="M358.548 234.565H352.288C351.681 234.565 351.17 234.071 351.17 233.45V195.33C351.17 194.725 351.665 194.215 352.288 194.215H358.548C359.155 194.215 359.666 194.709 359.666 195.33V233.45C359.65 234.071 359.155 234.565 358.548 234.565Z" fill="white"/>
<path fill-rule="evenodd" clip-rule="evenodd" d="M352.289 194.694C351.935 194.694 351.65 194.985 351.65 195.331V233.451C351.65 233.804 351.942 234.088 352.289 234.088H358.549C358.883 234.088 359.175 233.815 359.188 233.444V195.331C359.188 194.978 358.896 194.694 358.549 194.694H352.289ZM350.692 195.331C350.692 194.466 351.397 193.738 352.289 193.738H358.549C359.416 193.738 360.146 194.442 360.146 195.331V233.457L360.146 233.463C360.123 234.332 359.427 235.044 358.549 235.044H352.289C351.422 235.044 350.692 234.341 350.692 233.451V195.331Z" fill="#9A3B82"/>
<path d="M373.288 194.248V216.359L364.681 194.248H373.288Z" fill="#9A3B82"/>
<path d="M410.081 234.566H384.658C384.099 234.566 383.588 234.216 383.396 233.706L366.884 191.301C366.532 190.409 367.187 189.453 368.145 189.453H393.569C394.128 189.453 394.639 189.804 394.83 190.313L411.343 232.718C411.694 233.61 411.039 234.566 410.081 234.566Z" fill="white"/>
<path fill-rule="evenodd" clip-rule="evenodd" d="M368.146 189.93C367.525 189.93 367.102 190.547 367.33 191.126L367.331 191.127L383.844 233.535L383.845 233.538C383.965 233.857 384.295 234.088 384.658 234.088H410.082C410.702 234.088 411.125 233.471 410.897 232.892L394.383 190.483L394.382 190.48C394.262 190.161 393.933 189.93 393.569 189.93H368.146ZM366.438 191.474C365.964 190.269 366.851 188.975 368.146 188.975H393.569C394.322 188.975 395.014 189.443 395.278 190.142C395.279 190.143 395.279 190.144 395.279 190.145L411.789 232.543C411.789 232.543 411.789 232.543 411.789 232.543C412.264 233.749 411.377 235.043 410.082 235.043H384.658C383.905 235.043 383.213 234.575 382.949 233.876C382.949 233.875 382.948 233.874 382.948 233.873L366.438 191.475C366.438 191.475 366.438 191.474 366.438 191.474Z" fill="#FFCF2D"/>
<path d="M414.233 234.566H388.809C388.251 234.566 387.74 234.216 387.548 233.706L371.036 191.301C370.684 190.409 371.339 189.453 372.297 189.453H397.72C398.279 189.453 398.79 189.804 398.982 190.313L415.494 232.718C415.846 233.61 415.191 234.566 414.233 234.566Z" fill="white"/>
<path fill-rule="evenodd" clip-rule="evenodd" d="M372.298 189.93C371.677 189.93 371.254 190.547 371.482 191.126L371.483 191.127L387.996 233.535L387.997 233.538C388.117 233.857 388.446 234.088 388.81 234.088H414.233C414.854 234.088 415.277 233.471 415.049 232.892L398.535 190.483L398.534 190.48C398.414 190.161 398.085 189.93 397.721 189.93H372.298ZM370.59 191.474C370.116 190.269 371.002 188.975 372.298 188.975H397.721C398.474 188.975 399.166 189.443 399.43 190.142C399.43 190.143 399.431 190.144 399.431 190.145L415.941 232.543C415.941 232.543 415.941 232.543 415.941 232.543C416.415 233.749 415.529 235.043 414.233 235.043H388.81C388.057 235.043 387.365 234.575 387.101 233.876C387.101 233.875 387.1 233.874 387.1 233.873L370.59 191.475C370.59 191.475 370.59 191.474 370.59 191.474Z" fill="#FFCF2D"/>
<path fill-rule="evenodd" clip-rule="evenodd" d="M444.12 107.332L459.476 160.758L459.013 160.888C456.592 161.569 454.025 161.942 451.393 161.942C436.006 161.942 423.542 149.509 423.542 134.16C423.542 121.501 432.041 110.803 443.659 107.465L444.12 107.332ZM443.465 108.52C432.483 111.891 424.501 122.105 424.501 134.16C424.501 148.982 436.535 160.986 451.393 160.986C453.767 160.986 456.087 160.672 458.288 160.094L443.465 108.52Z" fill="#FFCF2D"/>
<path fill-rule="evenodd" clip-rule="evenodd" d="M450.916 171.196V161.463H451.874V171.196H450.916Z" fill="#FFCF2D"/>
<path d="M451.393 157.289C464.199 157.289 474.58 146.934 474.58 134.159C474.58 121.385 464.199 111.029 451.393 111.029C438.587 111.029 428.205 121.385 428.205 134.159C428.205 146.934 438.587 157.289 451.393 157.289Z" fill="white"/>
<path fill-rule="evenodd" clip-rule="evenodd" d="M451.394 111.509C438.853 111.509 428.686 121.65 428.686 134.161C428.686 146.671 438.853 156.813 451.394 156.813C463.936 156.813 474.103 146.671 474.103 134.161C474.103 121.65 463.936 111.509 451.394 111.509ZM427.728 134.161C427.728 121.122 438.323 110.553 451.394 110.553C464.465 110.553 475.061 121.122 475.061 134.161C475.061 147.199 464.465 157.769 451.394 157.769C438.323 157.769 427.728 147.199 427.728 134.161Z" fill="#3FB1B5"/>
<path d="M461.086 171.133H441.779L451.361 166.338L461.086 171.133Z" fill="white"/>
<path fill-rule="evenodd" clip-rule="evenodd" d="M451.359 165.805L463.137 171.611H439.756L451.359 165.805ZM451.363 166.872L443.803 170.656H459.036L451.363 166.872Z" fill="#FFCF2D"/>
<path fill-rule="evenodd" clip-rule="evenodd" d="M316.581 170.719H486.239V453.998H476.546V432.971C476.546 428.663 473.04 425.165 468.721 425.165H334.003C329.685 425.165 326.178 428.663 326.178 432.971V453.998H316.581V170.719ZM317.539 171.675V453.042H325.22V432.971C325.22 428.135 329.155 424.209 334.003 424.209H468.721C473.569 424.209 477.504 428.135 477.504 432.971V453.042H485.281V171.675H317.539Z" fill="#9A3B82"/>
<path fill-rule="evenodd" clip-rule="evenodd" d="M328.861 369.124C327.275 369.124 326.003 370.406 326.003 371.975V413.536C326.003 415.118 327.288 416.387 328.861 416.387H473.64C475.213 416.387 476.498 415.118 476.498 413.536V371.975C476.498 370.393 475.213 369.124 473.64 369.124H328.861ZM325.044 371.975C325.044 369.881 326.743 368.168 328.861 368.168H473.64C475.739 368.168 477.457 369.862 477.457 371.975V413.536C477.457 415.649 475.739 417.343 473.64 417.343H328.861C326.762 417.343 325.044 415.649 325.044 413.536V371.975Z" fill="#3FB1B5"/>
<path d="M408.883 132.424V171.197H395.277L408.883 132.424Z" fill="#9A3B82"/>
<path d="M408.883 132.424L408.787 132.711L395.357 171.197H332.917L346.347 132.711L346.778 131.484C348.79 128.601 354.363 126.498 361.007 126.387C361.118 126.387 361.214 126.387 361.326 126.387C361.438 126.387 361.534 126.387 361.645 126.387C369.407 126.387 376.321 129.079 377.583 132.615C378.829 129.079 385.44 126.387 393.201 126.387C400.802 126.387 407.462 128.983 408.883 132.424Z" fill="white"/>
<path fill-rule="evenodd" clip-rule="evenodd" d="M361.004 125.908H361.647C365.578 125.908 369.308 126.589 372.227 127.729C374.649 128.675 376.598 129.97 377.579 131.526C378.534 129.974 380.41 128.678 382.771 127.731C385.615 126.589 389.27 125.908 393.202 125.908C397.053 125.908 400.678 126.565 403.534 127.669C406.363 128.762 408.54 130.336 409.327 132.241L409.395 132.406L409.242 132.864L395.699 171.674H332.244L345.895 132.553L346.349 131.264L346.386 131.211C347.472 129.655 349.472 128.363 351.993 127.446C354.525 126.526 357.632 125.965 361 125.908L361.004 125.908ZM361.012 126.864C357.738 126.919 354.739 127.465 352.321 128.344C349.922 129.217 348.146 130.398 347.209 131.705L346.8 132.868L333.592 170.719H395.017L408.334 132.559L408.336 132.553L408.371 132.447C407.678 130.971 405.849 129.588 403.188 128.56C400.458 127.505 396.952 126.864 393.202 126.864C389.373 126.864 385.842 127.529 383.129 128.618C380.389 129.717 378.589 131.203 378.036 132.773L377.587 134.048L377.133 132.775C376.575 131.21 374.702 129.722 371.878 128.619C369.085 127.529 365.476 126.864 361.647 126.864H361.012Z" fill="#FFCF2D"/>
<path fill-rule="evenodd" clip-rule="evenodd" d="M377.728 132.165C377.978 132.254 378.107 132.527 378.018 132.776L364.46 170.561C364.371 170.81 364.097 170.939 363.848 170.85C363.598 170.761 363.469 170.488 363.558 170.239L377.116 132.454C377.205 132.205 377.479 132.076 377.728 132.165Z" fill="#FFCF2D"/>
<path d="M363.977 170.719H332.917C334.066 167.135 340.518 164.379 348.279 164.379C356.072 164.379 362.827 167.135 363.977 170.719Z" fill="#FFCF2D"/>
<path d="M395.278 170.719H364.217C365.367 167.135 371.819 164.379 379.58 164.379C387.373 164.379 394.128 167.135 395.278 170.719Z" fill="#FFCF2D"/>
<path fill-rule="evenodd" clip-rule="evenodd" d="M393.121 379.175C392.126 379.175 391.332 379.978 391.332 380.959C391.332 381.223 391.118 381.437 390.853 381.437C390.589 381.437 390.374 381.223 390.374 380.959C390.374 379.454 391.592 378.219 393.121 378.219H410.064C411.572 378.219 412.811 379.434 412.811 380.959C412.811 381.223 412.597 381.437 412.332 381.437C412.067 381.437 411.853 381.223 411.853 380.959C411.853 379.966 411.048 379.175 410.064 379.175H393.121Z" fill="#9A3B82"/>
<path fill-rule="evenodd" clip-rule="evenodd" d="M316.581 297.951C316.581 297.687 316.795 297.473 317.06 297.473H485.76C486.025 297.473 486.239 297.687 486.239 297.951C486.239 298.215 486.025 298.428 485.76 298.428H317.06C316.795 298.428 316.581 298.215 316.581 297.951Z" fill="#9A3B82"/>
<path fill-rule="evenodd" clip-rule="evenodd" d="M316.581 234.566C316.581 234.302 316.795 234.088 317.06 234.088H485.76C486.025 234.088 486.239 234.302 486.239 234.566C486.239 234.83 486.025 235.044 485.76 235.044H317.06C316.795 235.044 316.581 234.83 316.581 234.566Z" fill="#9A3B82"/>
<path fill-rule="evenodd" clip-rule="evenodd" d="M316.581 361.32C316.581 361.056 316.795 360.842 317.06 360.842H485.76C486.025 360.842 486.239 361.056 486.239 361.32C486.239 361.584 486.025 361.798 485.76 361.798H317.06C316.795 361.798 316.581 361.584 316.581 361.32Z" fill="#9A3B82"/>
<path fill-rule="evenodd" clip-rule="evenodd" d="M337.978 111.55C338.228 111.638 338.359 111.91 338.272 112.159L317.735 170.719H485.42L506.068 111.844C506.156 111.595 506.429 111.463 506.679 111.55C506.928 111.638 507.06 111.91 506.973 112.159L486.212 171.354C486.145 171.546 485.964 171.674 485.76 171.674H317.06C316.904 171.674 316.759 171.599 316.669 171.473C316.579 171.347 316.556 171.185 316.607 171.039L337.368 111.844C337.455 111.595 337.728 111.463 337.978 111.55Z" fill="#9A3B82"/>
<path d="M145.834 432.941V450.273C145.834 452.073 147.288 453.523 149.092 453.523H192.529C192.529 453.523 192.785 445.478 186.173 443.232C174.947 439.425 169.709 432.941 169.709 432.941H145.834V432.941Z" fill="white"/>
<path fill-rule="evenodd" clip-rule="evenodd" d="M145.835 432.463H169.938L170.082 432.641L170.082 432.641L170.084 432.643C170.086 432.646 170.089 432.65 170.094 432.655C170.103 432.666 170.117 432.683 170.136 432.706C170.174 432.751 170.234 432.819 170.313 432.909C170.473 433.087 170.715 433.349 171.042 433.676C171.695 434.33 172.686 435.246 174.025 436.281C176.702 438.35 180.772 440.895 186.327 442.779L186.328 442.779C189.825 443.967 191.495 446.693 192.285 449.068C192.68 450.256 192.861 451.368 192.942 452.182C192.983 452.59 193 452.925 193.006 453.159C193.009 453.277 193.01 453.369 193.009 453.433C193.009 453.465 193.009 453.49 193.009 453.508C193.008 453.516 193.008 453.523 193.008 453.528L193.008 453.534L193.008 453.537C193.008 453.537 193.008 453.537 192.529 453.522L193.008 453.537L192.993 454H149.092C147.023 454 145.355 452.336 145.355 450.272V432.941H145.835V432.463ZM146.314 433.419V450.272C146.314 451.808 147.552 453.044 149.092 453.044H192.044C192.036 452.843 192.02 452.583 191.989 452.278C191.912 451.513 191.743 450.474 191.376 449.369C190.641 447.161 189.133 444.742 186.019 443.684C180.348 441.761 176.186 439.16 173.438 437.036C172.064 435.974 171.043 435.031 170.363 434.351C170.023 434.01 169.769 433.736 169.598 433.545C169.556 433.498 169.519 433.455 169.487 433.419H146.314Z" fill="#FE5244"/>
<path fill-rule="evenodd" clip-rule="evenodd" d="M175.041 434.707C175.485 434.764 175.949 434.922 176.308 435.28C176.65 435.621 176.846 436.014 176.89 436.442C176.933 436.862 176.824 437.272 176.638 437.649C176.271 438.39 175.554 439.104 174.765 439.725C173.181 440.97 171.085 442.007 170.125 442.275L169.868 441.354C170.681 441.128 172.665 440.158 174.171 438.974C174.927 438.38 175.508 437.773 175.779 437.226C175.911 436.958 175.956 436.731 175.937 436.539C175.918 436.355 175.835 436.16 175.63 435.956C175.47 435.796 175.233 435.695 174.919 435.655C174.604 435.615 174.247 435.64 173.897 435.7C173.549 435.76 173.229 435.85 172.993 435.927C172.876 435.965 172.782 435.999 172.717 436.023C172.685 436.035 172.661 436.044 172.645 436.051C172.637 436.054 172.631 436.056 172.628 436.057L172.624 436.059C172.624 436.059 172.624 436.059 172.44 435.618C172.256 435.177 172.256 435.177 172.256 435.177L172.257 435.176L172.259 435.175L172.266 435.172C172.272 435.17 172.281 435.166 172.291 435.162C172.312 435.154 172.342 435.142 172.38 435.128C172.456 435.099 172.565 435.061 172.697 435.018C172.961 434.932 173.328 434.828 173.734 434.759C174.136 434.689 174.597 434.65 175.041 434.707Z" fill="#FE5244"/>
<path fill-rule="evenodd" clip-rule="evenodd" d="M182.338 437.474C181.174 436.538 179.774 437.029 178.84 437.568C178.351 437.851 177.928 438.179 177.63 438.433C177.48 438.561 177.36 438.673 177.276 438.752C177.234 438.792 177.202 438.825 177.179 438.847C177.167 438.859 177.159 438.868 177.152 438.874L177.145 438.882L177.142 438.884L177.141 438.885C177.141 438.885 177.141 438.886 177.487 439.217C177.832 439.548 177.832 439.548 177.832 439.548L177.833 439.547L177.837 439.543C177.841 439.539 177.848 439.532 177.857 439.523C177.875 439.505 177.902 439.478 177.939 439.443C178.012 439.373 178.119 439.274 178.253 439.159C178.524 438.928 178.898 438.639 179.32 438.396C180.206 437.884 181.081 437.69 181.737 438.219L181.738 438.22C181.966 438.401 182.063 438.58 182.097 438.748C182.133 438.923 182.11 439.139 182.002 439.404C181.781 439.948 181.253 440.576 180.542 441.205C179.843 441.824 179.011 442.405 178.244 442.862C177.468 443.324 176.796 443.636 176.416 443.742L176.673 444.663C177.179 444.522 177.938 444.157 178.735 443.683C179.542 443.202 180.425 442.587 181.178 441.92C181.921 441.262 182.584 440.515 182.89 439.763C183.046 439.38 183.12 438.969 183.036 438.558C182.951 438.14 182.713 437.774 182.338 437.474Z" fill="#FE5244"/>
<path d="M171.05 434.343L145.834 442.165V432.941H169.725C169.725 432.941 170.156 433.483 171.05 434.343Z" fill="#FE5244"/>
<path d="M200.289 432.941V450.273C200.289 452.073 201.742 453.523 203.547 453.523H246.984C246.984 453.523 247.239 445.478 240.628 443.232C229.401 439.425 224.163 432.941 224.163 432.941H200.289V432.941Z" fill="white"/>
<path fill-rule="evenodd" clip-rule="evenodd" d="M200.29 432.463H224.393L224.537 432.641L224.537 432.641L224.539 432.643C224.541 432.646 224.544 432.65 224.549 432.655C224.558 432.666 224.572 432.683 224.591 432.706C224.63 432.751 224.689 432.819 224.768 432.909C224.928 433.087 225.17 433.349 225.497 433.676C226.151 434.33 227.141 435.246 228.48 436.281C231.157 438.35 235.227 440.895 240.783 442.779L240.783 442.779C244.28 443.967 245.95 446.693 246.74 449.068C247.135 450.256 247.316 451.368 247.397 452.182C247.438 452.59 247.455 452.925 247.461 453.159C247.464 453.277 247.465 453.369 247.464 453.433C247.464 453.465 247.464 453.49 247.464 453.508C247.464 453.516 247.463 453.523 247.463 453.528L247.463 453.534L247.463 453.537C247.463 453.537 247.463 453.537 246.984 453.522L247.463 453.537L247.448 454H203.547C201.478 454 199.811 452.336 199.811 450.272V432.941H200.29V432.463ZM200.769 433.419V450.272C200.769 451.808 202.007 453.044 203.547 453.044H246.499C246.491 452.843 246.475 452.583 246.444 452.278C246.367 451.513 246.198 450.474 245.831 449.369C245.096 447.161 243.588 444.742 240.474 443.684C234.803 441.761 230.641 439.16 227.893 437.036C226.519 435.974 225.498 435.031 224.818 434.351C224.479 434.01 224.224 433.736 224.053 433.545C224.011 433.498 223.974 433.455 223.942 433.419H200.769Z" fill="#FE5244"/>
<path fill-rule="evenodd" clip-rule="evenodd" d="M229.496 434.707C229.94 434.764 230.404 434.922 230.763 435.28C231.105 435.621 231.301 436.014 231.345 436.442C231.388 436.862 231.279 437.272 231.093 437.649C230.726 438.39 230.009 439.104 229.22 439.725C227.636 440.97 225.54 442.007 224.58 442.275L224.323 441.354C225.136 441.128 227.12 440.158 228.627 438.974C229.382 438.38 229.963 437.773 230.234 437.226C230.366 436.958 230.411 436.731 230.392 436.539C230.373 436.355 230.291 436.16 230.085 435.956C229.925 435.796 229.689 435.695 229.374 435.655C229.059 435.615 228.702 435.64 228.352 435.7C228.005 435.76 227.684 435.85 227.448 435.927C227.331 435.965 227.237 435.999 227.173 436.023C227.14 436.035 227.116 436.044 227.1 436.051C227.092 436.054 227.086 436.056 227.083 436.057L227.079 436.059C227.079 436.059 227.079 436.059 226.895 435.618C226.711 435.177 226.711 435.177 226.711 435.177L226.712 435.176L226.714 435.175L226.721 435.172C226.727 435.17 226.736 435.166 226.746 435.162C226.767 435.154 226.797 435.142 226.836 435.128C226.912 435.099 227.02 435.061 227.152 435.018C227.417 434.932 227.784 434.828 228.189 434.759C228.591 434.689 229.052 434.65 229.496 434.707Z" fill="#FE5244"/>
<path fill-rule="evenodd" clip-rule="evenodd" d="M236.793 437.474C235.629 436.538 234.229 437.029 233.295 437.568C232.806 437.851 232.383 438.179 232.085 438.433C231.935 438.561 231.815 438.673 231.731 438.752C231.689 438.792 231.657 438.825 231.634 438.847C231.622 438.859 231.614 438.868 231.607 438.874L231.6 438.882L231.597 438.884L231.596 438.885C231.596 438.885 231.596 438.886 231.942 439.217C232.287 439.548 232.287 439.548 232.287 439.548L232.288 439.547L232.292 439.543C232.296 439.539 232.303 439.532 232.312 439.523C232.33 439.505 232.357 439.478 232.394 439.443C232.467 439.373 232.574 439.274 232.708 439.159C232.979 438.928 233.353 438.639 233.775 438.396C234.661 437.884 235.536 437.69 236.192 438.219L236.193 438.22C236.421 438.401 236.518 438.58 236.552 438.748C236.588 438.923 236.565 439.139 236.457 439.404C236.236 439.948 235.708 440.576 234.997 441.205C234.298 441.824 233.466 442.405 232.699 442.862C231.923 443.324 231.251 443.636 230.871 443.742L231.128 444.663C231.634 444.522 232.393 444.157 233.19 443.683C233.997 443.202 234.88 442.587 235.633 441.92C236.376 441.262 237.039 440.515 237.345 439.763C237.501 439.38 237.575 438.969 237.491 438.558C237.406 438.14 237.168 437.774 236.793 437.474Z" fill="#FE5244"/>
<path d="M225.505 434.343L200.289 442.165V432.941H224.179C224.179 432.941 224.611 433.483 225.505 434.343Z" fill="#FE5244"/>
<path d="M157.576 260.422L141.846 424.69H174.743L191.271 345.089L198.026 362.054V424.69H232.28V354.455L214.011 260.422H157.576Z" fill="#3FB1B5"/>
<path fill-rule="evenodd" clip-rule="evenodd" d="M158.936 424.632L174.234 299.822L175.185 299.938L159.887 424.748L158.936 424.632Z" fill="#9A3B82"/>
<path fill-rule="evenodd" clip-rule="evenodd" d="M193.556 268.271L215.033 354.397V424.69H214.075V354.514L192.626 268.502L193.556 268.271Z" fill="#9A3B82"/>
<path fill-rule="evenodd" clip-rule="evenodd" d="M177.495 302.495C177.495 302.495 177.495 302.495 177.495 302.495L197.999 361.897L197.093 362.208L176.589 302.806C175.953 300.961 174.204 299.719 172.235 299.719V298.764C174.61 298.764 176.725 300.262 177.495 302.495Z" fill="white"/>
<path d="M154.973 287.582L157.576 260.422H214.012L215.625 268.769L154.973 287.582Z" fill="#9A3B82"/>
<path d="M232.344 432.941H197.898C196.605 432.941 195.551 431.89 195.551 430.599V427.031C195.551 425.741 196.605 424.689 197.898 424.689H232.344C233.638 424.689 234.692 425.741 234.692 427.031V430.599C234.676 431.89 233.638 432.941 232.344 432.941Z" fill="#9A3B82"/>
<path d="M175.333 432.941H140.887C139.593 432.941 138.539 431.89 138.539 430.599V427.031C138.539 425.741 139.593 424.689 140.887 424.689H175.333C176.626 424.689 177.68 425.741 177.68 427.031V430.599C177.664 431.89 176.626 432.941 175.333 432.941Z" fill="#9A3B82"/>
<path d="M267.266 265.234L278.062 305.52L224.245 319.873L213.433 279.555C213.098 278.296 212.284 277.309 211.246 276.703C210.208 276.098 208.93 275.891 207.668 276.225C205.161 276.894 203.66 279.475 204.331 281.976L215.142 322.294L213.96 322.613L203.165 282.327C202.303 279.125 204.155 275.843 207.317 274.887C207.381 274.871 207.445 274.855 207.509 274.84L259.761 260.901C263.035 260.041 266.388 261.984 267.266 265.234Z" fill="#66B0F0"/>
<path d="M214.631 279.284L225.426 319.57L224.245 319.889L213.433 279.571C213.098 278.312 212.284 277.325 211.246 276.719C210.208 276.114 208.93 275.907 207.668 276.241C205.161 276.911 203.66 279.491 204.331 281.992L215.142 322.31L213.96 322.629L203.165 282.343C202.303 279.141 204.155 275.859 207.317 274.903C210.527 274.155 213.769 276.082 214.631 279.284Z" fill="#9A3B82"/>
<path d="M213.434 279.555L223.575 317.404L214.472 319.826L204.331 281.977C203.661 279.476 205.146 276.895 207.669 276.226C208.931 275.891 210.208 276.098 211.246 276.704C212.284 277.309 213.099 278.297 213.434 279.555Z" fill="white"/>
<path d="M267.426 286.58L242.945 294.99L223.622 260.423H148.726C135.998 260.423 126.48 248.746 129.083 236.321L136.876 198.982C139.32 187.289 149.652 178.91 161.613 178.91H212.827C225.235 178.91 235.807 187.895 237.771 200.113L245.484 236.464L267.426 286.58Z" fill="#FFCF2D"/>
<path fill-rule="evenodd" clip-rule="evenodd" d="M137.346 199.079C137.346 199.079 137.346 199.079 137.346 199.079L129.553 236.418L129.553 236.418C127.012 248.546 136.302 259.944 148.726 259.944H223.904L243.169 294.408L266.78 286.296L245.026 236.61L237.3 200.199L237.298 200.188C235.371 188.202 225 179.387 212.827 179.387H161.613C149.879 179.387 139.743 187.608 137.346 199.079ZM136.408 198.884C138.897 186.97 149.425 178.432 161.613 178.432H212.827C225.467 178.432 236.236 187.581 238.243 200.025L245.943 236.317L268.073 286.862L242.722 295.572L223.341 260.9H148.726C135.695 260.9 125.949 248.945 128.615 236.223L136.408 198.884Z" fill="white"/>
<path d="M144.734 260.023C135.919 258.255 129.371 250.768 128.701 241.942C129.371 241.481 130.122 241.082 130.92 240.796C136.717 238.661 143.345 242.165 145.756 248.617C147.241 252.663 146.73 256.901 144.734 260.023Z" fill="white"/>
<path d="M200.498 156.512V178.925H175.698L181.415 164.015L200.498 156.512Z" fill="#E57281"/>
<path d="M206.199 147.082C206.183 147.082 206.151 147.098 206.135 147.098L198.773 149.041C196.138 149.742 194.11 151.685 193.248 154.139H190.421C188.633 154.139 187.18 155.588 187.18 157.372V157.42C187.18 159.109 188.473 160.495 190.134 160.638C190.118 160.654 190.118 160.654 190.118 160.654C190.118 160.654 188.809 166.866 181.159 164.78C181.159 164.78 181.463 148.436 181.782 143.354C182.053 139.165 204.331 131.232 206.391 134.609C208.211 137.604 206.103 139.005 204.315 139.627C207.477 138.958 213.449 138.066 214.056 140.726C214.759 143.816 208.451 146.492 206.199 147.082Z" fill="#9A3B82"/>
<path d="M207.637 158.535H206.854L207.078 162.358C207.237 165.098 205.034 167.424 202.287 167.424H198.838C195.516 167.424 192.817 164.732 192.817 161.418V160.67H190.438C188.649 160.67 187.196 159.22 187.196 157.436V157.388C187.196 155.604 188.649 154.154 190.438 154.154H193.264C194.127 151.701 196.155 149.742 198.79 149.057L206.152 147.113L208.675 157.197C208.93 157.834 208.323 158.535 207.637 158.535Z" fill="#E57281"/>
<path fill-rule="evenodd" clip-rule="evenodd" d="M193.607 161.324C193.827 161.345 193.988 161.539 193.967 161.758C193.814 163.356 194.533 164.737 195.707 165.734C196.886 166.736 198.502 167.328 200.069 167.328C200.29 167.328 200.468 167.506 200.468 167.726C200.468 167.946 200.29 168.124 200.069 168.124C198.314 168.124 196.514 167.466 195.189 166.341C193.859 165.211 192.99 163.59 193.172 161.683C193.193 161.464 193.388 161.303 193.607 161.324Z" fill="#9A3B82"/>
<path fill-rule="evenodd" clip-rule="evenodd" d="M189.625 155.73C189.625 155.51 189.803 155.332 190.024 155.332C191.49 155.332 192.675 156.514 192.675 157.976C192.675 158.196 192.496 158.375 192.275 158.375C192.055 158.375 191.876 158.196 191.876 157.976C191.876 156.954 191.049 156.129 190.024 156.129C189.803 156.129 189.625 155.95 189.625 155.73Z" fill="#9A3B82"/>
<path d="M204.923 155.699C205.249 155.699 205.514 155.15 205.514 154.473C205.514 153.795 205.249 153.246 204.923 153.246C204.597 153.246 204.332 153.795 204.332 154.473C204.332 155.15 204.597 155.699 204.923 155.699Z" fill="#9A3B82"/>
<path fill-rule="evenodd" clip-rule="evenodd" d="M202.368 151.892L202.126 151.575C201.95 151.709 201.917 151.959 202.051 152.134C202.185 152.308 202.435 152.342 202.61 152.208L202.613 152.207C202.615 152.205 202.62 152.201 202.626 152.197C202.639 152.188 202.658 152.173 202.685 152.155C202.739 152.117 202.821 152.063 202.928 151.997C203.144 151.864 203.461 151.686 203.864 151.507C204.67 151.148 205.808 150.793 207.143 150.793C207.363 150.793 207.542 150.614 207.542 150.394C207.542 150.174 207.363 149.996 207.143 149.996C205.667 149.996 204.417 150.389 203.539 150.779C203.099 150.975 202.75 151.171 202.509 151.319C202.389 151.393 202.295 151.455 202.23 151.5C202.198 151.522 202.173 151.54 202.155 151.553C202.147 151.56 202.14 151.565 202.135 151.568L202.129 151.573L202.127 151.574L202.126 151.575L202.126 151.575C202.126 151.575 202.126 151.575 202.368 151.892Z" fill="#9A3B82"/>
<path d="M194.766 270.633C194.766 270.633 214.328 271.477 221.211 255.819L217.57 249.176L206.695 253.349L194.766 270.633Z" fill="white"/>
<path fill-rule="evenodd" clip-rule="evenodd" d="M217.789 248.58L221.745 255.796L221.65 256.011C218.133 264.013 211.376 267.786 205.547 269.556C202.631 270.441 199.937 270.83 197.971 270.997C196.987 271.081 196.185 271.11 195.626 271.117C195.347 271.121 195.129 271.12 194.979 271.117C194.905 271.116 194.847 271.115 194.808 271.113C194.788 271.113 194.773 271.112 194.762 271.112L194.75 271.111L194.746 271.111C194.745 271.111 194.745 271.111 194.766 270.634L194.745 271.111L193.88 271.074L206.385 252.957L217.789 248.58ZM195.674 270.161C196.209 270.152 196.967 270.123 197.889 270.045C199.807 269.881 202.432 269.502 205.268 268.641C210.888 266.935 217.286 263.351 220.677 255.841L217.351 249.772L207.005 253.743L195.674 270.161Z" fill="#FE5244"/>
<path d="M210.433 174.816C209.49 174.896 208.628 175.31 207.989 175.947C207.287 176.648 206.84 177.62 206.84 178.703V257.189C206.84 264.676 200.755 270.746 193.25 270.746H163.083C154.971 270.746 148.711 263.721 149.573 255.74V255.724L160.432 181.22C160.975 177.54 164.121 174.816 167.858 174.816H210.433V174.816Z" fill="#FE5244"/>
<path fill-rule="evenodd" clip-rule="evenodd" d="M160.906 181.289C160.906 181.289 160.906 181.289 160.906 181.289L150.052 255.758V255.765L150.049 255.79C149.217 263.49 155.257 270.267 163.083 270.267H193.249C200.49 270.267 206.36 264.412 206.36 257.189V178.703C206.36 177.485 206.863 176.394 207.65 175.609C207.762 175.498 207.879 175.392 208.002 175.294H167.858C164.36 175.294 161.415 177.843 160.906 181.289ZM210.432 174.816V174.338H167.858C163.882 174.338 160.535 177.237 159.958 181.15L149.094 255.689V255.714C148.217 263.965 154.693 271.223 163.083 271.223H193.249C201.019 271.223 207.318 264.94 207.318 257.189V178.703C207.318 177.754 207.709 176.902 208.328 176.285C208.888 175.726 209.645 175.362 210.473 175.292L210.432 174.816Z" fill="#FE5244"/>
<path d="M207.397 174.817C206.455 174.896 205.593 175.311 204.954 175.948C204.363 176.537 203.964 177.302 203.852 178.162C203.836 178.337 203.82 178.512 203.82 178.688L203.182 184.693L195.516 257.174C195.516 264.661 189.432 270.73 181.926 270.73H163.098C154.986 270.73 148.726 263.705 149.588 255.724V255.708L154.491 222.033L160.447 181.205C160.495 180.854 160.575 180.504 160.671 180.153C161.597 177.015 164.504 174.801 167.857 174.801H207.397V174.817Z" fill="white"/>
<path fill-rule="evenodd" clip-rule="evenodd" d="M161.129 180.283C161.037 180.62 160.963 180.947 160.919 181.268L160.919 181.271L154.962 222.101L150.065 255.742V255.749L150.062 255.775C149.23 263.474 155.27 270.251 163.096 270.251H181.924C189.165 270.251 195.034 264.396 195.034 257.173V257.148L202.702 184.642L202.702 184.642L203.339 178.661C203.34 178.473 203.357 178.289 203.372 178.127L203.373 178.109L203.374 178.1C203.501 177.129 203.951 176.269 204.613 175.609C204.73 175.492 204.855 175.381 204.985 175.278H167.855C164.717 175.278 161.997 177.349 161.129 180.283ZM160.209 180.018C161.194 176.678 164.287 174.322 167.855 174.322H207.874V175.255L207.435 175.292C206.608 175.362 205.851 175.726 205.29 176.285C204.772 176.802 204.425 177.468 204.326 178.214C204.31 178.389 204.297 178.54 204.297 178.687V178.712L203.655 184.743L203.655 184.743L195.993 257.198C195.979 264.938 189.685 271.207 181.924 271.207H163.096C154.705 271.207 148.23 263.949 149.106 255.698V255.673L154.014 221.963L159.97 181.139C159.97 181.139 159.97 181.138 159.97 181.137C160.022 180.76 160.107 180.389 160.206 180.027L160.207 180.022L160.209 180.018Z" fill="#FE5244"/>
<path d="M200.675 190.444L197.817 211.837C196.874 216.218 193.457 218.56 188.507 219.356L154.651 224.263L159.586 190.428H200.675V190.444Z" fill="#FFCF2D"/>
<path d="M206.184 174.817H205.338C203.805 174.801 202.463 175.884 202.16 177.397L197.177 209.464C196.235 213.845 192.355 216.983 187.867 216.983H156.711C152.942 216.983 150.132 213.51 150.946 209.83L156.95 182.622C157.957 178.066 162.013 174.817 166.692 174.817H206.184Z" fill="#FE5244"/>
<path fill-rule="evenodd" clip-rule="evenodd" d="M205.341 174.338H206.185V175.294H205.275C204.001 175.308 202.891 176.216 202.632 177.48L197.65 209.55L197.647 209.563C196.657 214.164 192.582 217.46 187.868 217.46H156.712C152.638 217.46 149.598 213.706 150.479 209.727L156.483 182.519C157.538 177.744 161.789 174.338 166.693 174.338H205.269C205.293 174.338 205.317 174.338 205.341 174.338ZM202.832 175.294H166.693C162.238 175.294 158.377 178.388 157.419 182.724C157.419 182.724 157.419 182.724 157.419 182.724L151.415 209.933C150.666 213.313 153.248 216.504 156.712 216.504H187.868C192.124 216.504 195.807 213.531 196.707 209.376L201.689 177.313L201.691 177.303C201.851 176.504 202.263 175.81 202.832 175.294Z" fill="#FE5244"/>
<path d="M180.505 225.902L188.442 177.492C188.602 176.52 189.448 175.787 190.438 175.787C191.684 175.787 192.642 176.902 192.434 178.145L184.498 226.555C184.338 227.527 183.492 228.26 182.502 228.26C181.256 228.26 180.298 227.145 180.505 225.902Z" fill="white"/>
<path fill-rule="evenodd" clip-rule="evenodd" d="M188.916 177.57C188.916 177.57 188.916 177.57 188.916 177.57L180.979 225.981L180.979 225.982C180.82 226.932 181.552 227.783 182.503 227.783C183.253 227.783 183.904 227.225 184.026 226.479C184.026 226.479 184.026 226.479 184.026 226.479L191.963 178.069L191.963 178.067C192.122 177.117 191.39 176.266 190.44 176.266C189.689 176.266 189.039 176.825 188.916 177.57ZM187.971 177.416C188.167 176.218 189.21 175.311 190.44 175.311C191.98 175.311 193.164 176.689 192.908 178.224C192.908 178.224 192.908 178.224 192.908 178.225L184.972 226.634C184.775 227.832 183.732 228.739 182.503 228.739C180.962 228.739 179.778 227.36 180.034 225.826C180.034 225.825 180.034 225.825 180.034 225.825L187.971 177.416L187.971 177.416Z" fill="#FE5244"/>
<path d="M162.763 225.902L170.7 177.492C170.859 176.52 171.706 175.787 172.696 175.787C173.941 175.787 174.9 176.902 174.692 178.145L166.755 226.555C166.595 227.527 165.749 228.26 164.759 228.26C163.513 228.26 162.555 227.145 162.763 225.902Z" fill="white"/>
<path fill-rule="evenodd" clip-rule="evenodd" d="M171.173 177.57C171.173 177.57 171.173 177.57 171.173 177.57L163.236 225.981L163.236 225.982C163.077 226.932 163.809 227.783 164.76 227.783C165.51 227.783 166.16 227.225 166.283 226.479C166.283 226.479 166.283 226.479 166.283 226.479L174.22 178.069L174.22 178.067C174.379 177.117 173.647 176.266 172.697 176.266C171.946 176.266 171.296 176.825 171.173 177.57ZM170.228 177.416C170.424 176.218 171.467 175.311 172.697 175.311C174.237 175.311 175.421 176.689 175.165 178.224C175.165 178.224 175.165 178.224 175.165 178.225L167.229 226.634C167.032 227.832 165.989 228.739 164.76 228.739C163.219 228.739 162.035 227.36 162.291 225.826C162.291 225.825 162.291 225.825 162.291 225.825L170.228 177.416L170.228 177.416Z" fill="#FE5244"/>
<path d="M214.664 178.942L206.855 178.974V178.703C206.855 177.62 207.286 176.648 208.005 175.947C208.644 175.31 209.49 174.896 210.448 174.816H211.087C213.051 174.976 214.6 176.632 214.664 178.942Z" fill="white"/>
<path fill-rule="evenodd" clip-rule="evenodd" d="M210.428 174.338H211.106L211.126 174.339C213.363 174.521 215.073 176.405 215.143 178.928L215.156 179.418L206.376 179.453V178.703C206.376 177.49 206.859 176.397 207.668 175.607C208.384 174.894 209.334 174.429 210.408 174.34L210.428 174.338ZM210.469 175.294C209.635 175.368 208.901 175.729 208.344 176.285L208.342 176.287L208.34 176.289C207.759 176.855 207.391 177.626 207.34 178.494L214.146 178.466C213.905 176.646 212.615 175.428 211.067 175.294H210.469Z" fill="#FE5244"/>
<path d="M264.502 287.584L271.082 304.517C272.136 307.241 270.603 310.268 267.792 311.048L253.34 314.999C252.461 315.238 251.535 315.031 250.848 314.441L249.379 313.167L252.381 312.371C253.707 312.02 254.601 310.794 254.537 309.424L254.202 306.046C254.138 304.533 252.908 303.323 251.391 303.275H251.551C249.714 303.211 247.926 302.08 247.207 300.391L244.908 294.29L264.502 287.584Z" fill="#E57281"/>
<path fill-rule="evenodd" clip-rule="evenodd" d="M244.385 294.503C244.628 294.4 244.91 294.513 245.013 294.756L247.472 300.539C247.472 300.539 247.472 300.539 247.472 300.539C248.119 302.058 249.584 303.074 251.231 303.131C252.998 303.187 254.429 304.596 254.505 306.359C254.505 306.36 254.505 306.36 254.505 306.36L254.68 310.054C254.756 311.677 253.684 312.925 252.169 313.326C252.169 313.326 252.169 313.326 252.168 313.326L249.807 313.962C249.552 314.031 249.289 313.881 249.22 313.626C249.151 313.371 249.302 313.109 249.557 313.04L251.922 312.402L251.923 312.402C253.059 312.102 253.775 311.215 253.723 310.098L253.547 306.402L253.547 306.401C253.494 305.138 252.467 304.126 251.2 304.086L251.199 304.086C249.173 304.016 247.381 302.769 246.59 300.912L244.131 295.13C244.028 294.887 244.141 294.606 244.385 294.503Z" fill="white"/>
<path fill-rule="evenodd" clip-rule="evenodd" d="M259.928 304.518C260.193 304.506 260.417 304.709 260.429 304.973L260.653 309.689C260.743 311.666 259.446 313.429 257.534 313.932C257.278 314 257.016 313.847 256.949 313.592C256.881 313.337 257.034 313.075 257.289 313.008C258.763 312.62 259.765 311.261 259.696 309.733C259.696 309.733 259.696 309.733 259.696 309.732L259.472 305.018C259.46 304.754 259.664 304.531 259.928 304.518Z" fill="white"/>
<path fill-rule="evenodd" clip-rule="evenodd" d="M266.044 302.942C266.309 302.929 266.533 303.133 266.546 303.397L266.769 308.113C266.859 310.089 265.562 311.852 263.65 312.356C263.395 312.423 263.132 312.271 263.065 312.016C262.997 311.761 263.15 311.499 263.406 311.432C264.88 311.044 265.881 309.685 265.812 308.157C265.812 308.157 265.812 308.156 265.812 308.156L265.589 303.442C265.576 303.178 265.78 302.954 266.044 302.942Z" fill="white"/>
<path fill-rule="evenodd" clip-rule="evenodd" d="M212.212 237.239L208.347 217.072L209.288 216.893L213.153 237.06C213.798 240.451 214.994 243.731 216.678 246.745L216.678 246.747L243.152 294.408L267.253 286.128L267.565 287.031L242.704 295.573L215.841 247.211C215.841 247.211 215.841 247.211 215.841 247.21C214.107 244.107 212.876 240.73 212.212 237.239Z" fill="white"/>
<path d="M224.995 262.718L216.26 246.979C214.791 244.319 213.689 241.483 212.986 238.536C213.817 238.265 214.679 238.074 215.589 237.995C222.488 237.389 228.604 243.172 229.259 250.898C229.642 255.581 227.934 259.898 224.995 262.718Z" fill="white"/>
</svg>
