<svg width="503" height="562" viewBox="0 0 503 562" fill="none" xmlns="http://www.w3.org/2000/svg">
<g filter="url(#filter0_d_2282_313)">
<path d="M161.959 429.042L165.202 437.911L180.19 478.817C185.813 482.799 192.913 485.358 200.877 485.358C201.818 485.358 202.95 485.127 203.909 485.07C212.238 484.492 220.221 480.837 225.748 476.181L221.276 426.848L220.95 423.27C196.79 432.659 168.618 431.081 161.959 429.042Z" fill="#E57281"/>
<path d="M161.959 429.042L168.311 446.358C187.693 448.994 216.095 433.101 221.257 426.848L220.931 423.27C196.79 432.659 168.618 431.081 161.959 429.042Z" fill="#9A3B82"/>
<path d="M179.883 478.758L184.47 526.916C185.295 539.615 195.005 549.332 206.519 549.332C207.037 549.332 207.555 549.312 208.093 549.274C220.298 548.35 229.49 536.825 228.626 523.549L225.844 480.99L225.556 476.43C223.1 478.739 220.24 480.72 217.074 482.259C213.101 484.184 208.669 485.434 203.929 485.8C202.969 485.877 202.029 485.915 201.088 485.915C198.363 485.915 195.696 485.607 193.163 485.03C193.086 485.011 192.99 484.992 192.913 484.972C188.173 483.856 183.836 481.798 180.229 479.008C180.094 478.931 179.979 478.854 179.883 478.758Z" fill="white"/>
<path d="M206.519 549.812C207.056 549.812 207.575 549.793 208.131 549.754C220.586 548.812 229.989 537.036 229.106 523.511L226.324 480.951L225.978 475.371L225.23 476.064C222.773 478.373 219.952 480.316 216.863 481.817C212.794 483.779 208.438 484.953 203.89 485.318C202.931 485.395 202.009 485.434 201.088 485.434C198.44 485.434 195.811 485.145 193.278 484.568C193.239 484.568 193.201 484.549 193.143 484.529C193.105 484.529 193.067 484.51 193.028 484.51C188.403 483.433 184.086 481.393 180.516 478.623L180.459 478.584C180.344 478.507 180.267 478.469 180.209 478.411L179.269 477.468L183.99 526.955C184.393 533.188 186.926 538.961 191.148 543.213C195.35 547.465 200.8 549.812 206.519 549.812ZM225.134 477.468L225.364 481.028L228.147 523.587C228.991 536.594 219.972 547.907 208.054 548.792C207.517 548.831 207.018 548.85 206.519 548.85C201.069 548.85 195.849 546.618 191.819 542.539C187.77 538.441 185.333 532.881 184.949 526.878L180.459 479.777C184.028 482.413 188.288 484.376 192.798 485.434C192.836 485.434 192.875 485.453 192.932 485.472C192.971 485.472 193.009 485.492 193.048 485.492C195.677 486.088 198.363 486.396 201.088 486.396C202.048 486.396 202.988 486.357 203.967 486.28C208.63 485.915 213.121 484.722 217.285 482.702C220.144 481.297 222.793 479.546 225.134 477.468Z" fill="#FFCF2D"/>
<path d="M206.174 539.655C206.634 539.655 207.076 539.636 207.536 539.597C218.091 538.789 226.093 528.803 225.345 517.317L222.792 478.971L221.833 479.028L224.385 517.374C225.095 528.322 217.496 537.846 207.459 538.616C207.018 538.654 206.596 538.674 206.174 538.674C196.655 538.674 188.672 530.554 188 520.164L184.757 481.626L183.798 481.703L187.041 520.241C187.386 525.532 189.536 530.439 193.105 534.037C196.674 537.673 201.319 539.655 206.174 539.655Z" fill="#FFCF2D"/>
<path d="M192.952 484.55C195.485 485.069 198.344 485.165 201.069 485.165C202.01 485.165 202.95 485.127 203.909 485.069C208.649 484.742 213.102 483.588 217.055 481.817L218.321 475.584C219.127 472.928 217.112 470.254 214.33 470.35L195.907 470.889C193.566 470.947 191.781 472.986 191.992 475.314L192.952 484.55Z" fill="#FFCF2D"/>
<path d="M193.144 484.358L195.466 513.622C195.869 519.298 201.242 523.493 206.308 522.569L206.711 522.531C213.927 521.203 219.454 513.661 218.513 505.58L217.055 481.799C213.082 483.569 208.649 484.723 203.909 485.05C202.95 485.127 202.01 485.147 201.069 485.147C198.344 485.166 195.677 484.877 193.144 484.358Z" fill="#FFCF2D"/>
<path d="M195.965 516.546C196.003 516.546 196.041 516.546 196.08 516.526L217.093 511.716C218.475 511.408 219.031 510.235 218.974 509.234C218.916 508.215 218.244 507.099 216.824 506.925L196.732 504.559C195.677 504.424 195.235 503.616 195.178 502.962C195.12 502.308 195.408 501.423 196.406 501.115L215.654 494.996C217.208 494.496 218.149 493.13 218.072 491.495C217.976 489.859 216.882 488.609 215.289 488.281L200.129 485.646C200.839 485.646 201.568 485.626 202.317 485.607C209.091 485.395 214.119 484.414 217.285 482.663C217.515 482.529 217.592 482.24 217.477 482.009C217.343 481.778 217.055 481.701 216.824 481.817C209.59 485.819 193.355 484.453 193.182 484.433C192.933 484.414 192.702 484.587 192.664 484.857C192.625 485.107 192.798 485.357 193.067 485.395L215.116 489.224C216.517 489.513 217.074 490.648 217.112 491.552C217.17 492.437 216.728 493.65 215.366 494.092L196.118 500.211C194.679 500.672 194.122 501.981 194.237 503.058C194.333 504.155 195.12 505.348 196.636 505.521L216.728 507.887C217.65 508.003 217.995 508.715 218.033 509.292C218.053 509.869 217.784 510.6 216.901 510.793L195.888 515.603C195.638 515.661 195.466 515.911 195.523 516.18C195.542 516.392 195.753 516.546 195.965 516.546Z" fill="white"/>
<path d="M122.312 320.814L161.959 429.041C168.618 431.081 200.033 433.775 230.699 419.518L206.577 307.635C204.332 290.703 189.939 278.043 172.879 278.043H155.147C132.867 278.024 116.593 299.188 122.312 320.814Z" fill="#FE5244"/>
<path d="M174.606 419.652C177.523 419.652 180.708 419.556 184.105 419.325C195.446 418.555 212.449 416.016 229.029 408.3C229.317 408.165 229.452 407.819 229.317 407.531C229.183 407.242 228.838 407.107 228.55 407.242C197.98 421.461 163.936 418.882 157.526 416.939C157.219 416.843 156.893 417.016 156.816 417.324C156.72 417.632 156.893 417.959 157.2 418.036C159.599 418.786 165.893 419.652 174.606 419.652Z" fill="white"/>
<path d="M109.09 431.176L113.081 438.276L138.624 483.087C148.468 486.993 160.079 488.436 170.48 486.242L171.785 485.877C176.928 484.799 182.186 481.913 185.909 478.681L167.275 428.752C167.275 428.752 167.256 428.752 167.237 428.752C160.808 430.888 138.701 436.891 109.09 431.176Z" fill="#E57281"/>
<path d="M109.09 431.177L117.515 446.049C149.946 451.244 168.331 431.677 168.331 431.677L167.256 428.771C160.808 430.888 138.701 436.891 109.09 431.177Z" fill="#9A3B82"/>
<path d="M54.436 337.976L98.6696 429.099C136.11 438.488 160.865 430.888 167.256 428.772L120.969 304.652C117.802 297.129 112.544 290.914 106.039 286.585C99.5332 282.256 91.7803 279.812 83.6436 279.812C52.824 279.812 39.5443 310.905 54.436 337.976Z" fill="#FE5244"/>
<path d="M129.432 424.443C133.02 424.443 136.551 424.289 140.063 424C148.43 423.308 156.433 421.749 163.226 419.498C163.533 419.402 163.686 419.075 163.59 418.767C163.495 418.459 163.168 418.305 162.861 418.402C156.164 420.614 148.238 422.153 139.967 422.846C125.21 424.077 109.685 422.692 93.8337 418.709C93.5267 418.632 93.2196 418.825 93.1428 419.133C93.0661 419.441 93.258 419.748 93.5651 419.825C105.77 422.904 117.802 424.443 129.432 424.443Z" fill="white"/>
<path d="M121.513 304.418L189.539 488.279L188.459 488.681L120.434 304.819L121.513 304.418Z" fill="white"/>
<path d="M139.007 483.223L140.504 487.167L157.469 531.67C162.324 546.927 178.29 555.99 192.318 552.507L193.086 552.257C202.93 549.814 209.187 537.923 205.329 527.418L185.947 479.932L185.544 478.951C183.107 481.145 180.267 482.953 177.1 484.262C175.412 484.954 173.627 485.512 171.765 485.916L170.46 486.282C164.953 487.436 159.272 487.648 153.669 486.994C148.641 486.378 143.69 485.108 139.007 483.223Z" fill="white"/>
<path d="M186.12 553.738C188.25 553.738 190.361 553.488 192.433 552.969H192.472L193.22 552.718C197.941 551.545 202.086 548.158 204.581 543.445C207.268 538.384 207.69 532.478 205.771 527.263L186.389 479.759L185.736 478.143L185.237 478.604C182.8 480.798 179.998 482.568 176.928 483.819C175.239 484.511 173.473 485.05 171.67 485.454H171.65L170.365 485.819C164.991 486.935 159.388 487.186 153.746 486.512C148.737 485.896 143.844 484.646 139.199 482.78L138.182 482.375L140.063 487.34L157.027 531.823C159.388 539.25 164.435 545.523 171.228 549.525C175.93 552.314 181.073 553.738 186.12 553.738ZM192.184 552.045C185.467 553.7 178.194 552.526 171.689 548.697C165.106 544.83 160.213 538.711 157.91 531.515V531.496L140.946 486.993L139.833 484.069C144.247 485.743 148.871 486.897 153.611 487.474C159.369 488.148 165.068 487.897 170.556 486.762H170.595L171.881 486.397C173.742 485.993 175.546 485.435 177.273 484.723C180.228 483.491 182.953 481.837 185.352 479.778L185.506 480.144L204.888 527.629C206.711 532.593 206.289 538.192 203.737 543.021C201.357 547.504 197.442 550.717 192.971 551.814H192.932L192.184 552.045Z" fill="#FFCF2D"/>
<path d="M183.356 543.252C185.141 543.252 186.926 543.04 188.672 542.598L188.711 542.578L189.325 542.367C193.316 541.366 196.809 538.519 198.901 534.555C201.146 530.303 201.511 525.339 199.918 520.933L183.491 480.932C183.395 480.682 183.107 480.566 182.858 480.663C182.608 480.759 182.493 481.047 182.589 481.298L199.016 521.279C200.532 525.416 200.186 530.091 198.056 534.113C196.08 537.845 192.817 540.52 189.075 541.462L189.037 541.482L188.423 541.693C182.819 543.079 176.755 542.097 171.324 538.903C165.817 535.671 161.729 530.572 159.829 524.55V524.531L144.957 485.126C144.861 484.876 144.592 484.761 144.343 484.838C144.093 484.934 143.978 485.203 144.055 485.454L158.927 524.839C160.923 531.073 165.145 536.344 170.844 539.712C174.817 542.04 179.115 543.252 183.356 543.252Z" fill="#FFCF2D"/>
<path d="M150.196 481.029L153.688 486.955C159.273 487.609 164.953 487.397 170.48 486.243L171.785 485.877C173.646 485.493 175.431 484.935 177.12 484.223L175.738 474.603C175.412 472.294 173.186 470.735 170.902 471.216L152.863 475.007C150.138 475.565 148.776 478.643 150.196 481.029Z" fill="#FFCF2D"/>
<path d="M153.688 486.955L153.784 487.109L162.804 511.005C165.279 518.759 173.378 523.358 180.516 521.588L180.9 521.453C185.909 520.202 189.094 514.161 187.118 508.831L177.158 484.588L177.1 484.223C175.412 484.915 173.627 485.473 171.766 485.877L170.461 486.243C164.953 487.417 159.273 487.609 153.688 486.955Z" fill="#FFCF2D"/>
<path d="M166.68 515.835C166.795 515.835 166.91 515.835 167.025 515.816L187.751 513.565C188.02 513.546 188.211 513.295 188.173 513.026C188.135 512.757 187.904 512.564 187.636 512.603L166.91 514.854C165.778 514.969 165.145 514.219 164.934 513.526C164.722 512.853 164.838 511.872 165.836 511.333L181.975 502.694C183.356 501.963 183.663 500.539 183.376 499.462C183.088 498.384 182.09 497.307 180.516 497.384L160.136 498.307C158.908 498.365 158.236 497.518 158.025 496.768C157.814 496.018 157.967 494.94 159.061 494.363L177.35 484.589C177.58 484.473 177.676 484.185 177.561 483.954C177.446 483.723 177.158 483.627 176.928 483.742C176.908 483.762 174.548 484.858 170.537 485.724C166.833 486.532 160.942 487.302 153.822 486.417C153.554 486.378 153.323 486.571 153.285 486.84C153.247 487.109 153.439 487.34 153.707 487.379C160.98 488.283 167.006 487.494 170.787 486.667C171.228 486.571 171.631 486.474 172.034 486.378L158.639 493.536C157.142 494.324 156.816 495.883 157.123 497.057C157.449 498.23 158.524 499.385 160.213 499.288L180.593 498.365C181.687 498.326 182.301 499.077 182.474 499.731C182.646 500.385 182.512 501.347 181.552 501.867L165.413 510.506C164.012 511.256 163.705 512.718 164.051 513.815C164.339 514.854 165.279 515.835 166.68 515.835Z" fill="white"/>
<path d="M236.341 283.757C158.187 283.757 94.8315 220.236 94.8315 141.879C94.8315 63.5212 158.187 0 236.341 0C314.494 0 377.85 63.5212 377.85 141.879C377.85 220.236 314.494 283.757 236.341 283.757Z" fill="#D0F0E4"/>
<path d="M283.952 284.412C298.652 279.486 312.469 272.29 325 263.055C337.397 253.916 348.278 242.987 357.374 230.539C366.566 217.936 373.705 204.083 378.599 189.326C383.665 174.068 386.217 158.118 386.217 141.879H384.874C384.874 157.964 382.341 173.779 377.313 188.902C372.458 203.525 365.396 217.263 356.28 229.75C347.28 242.083 336.495 252.934 324.194 261.977C311.759 271.136 298.076 278.255 283.511 283.142L283.952 284.412Z" fill="#FFCF2D"/>
<path d="M236.341 234.483C238.241 234.483 240.141 234.426 242.021 234.31C242.559 234.272 242.962 233.829 242.923 233.291C242.885 232.752 242.443 232.348 241.906 232.386C240.064 232.502 238.183 232.559 236.341 232.559H236.207C235.669 232.559 235.247 232.983 235.247 233.521C235.247 234.06 235.669 234.483 236.207 234.483H236.341ZM229.49 234.233C229.989 234.233 230.411 233.848 230.449 233.348C230.488 232.81 230.085 232.348 229.567 232.309C227.686 232.175 225.767 231.963 223.906 231.713C223.387 231.636 222.888 232.001 222.831 232.54C222.754 233.06 223.119 233.56 223.656 233.618C225.575 233.887 227.513 234.079 229.452 234.233C229.452 234.233 229.471 234.233 229.49 234.233ZM248.642 233.656C248.68 233.656 248.719 233.656 248.776 233.656C250.695 233.406 252.614 233.079 254.514 232.694C255.032 232.598 255.378 232.078 255.263 231.559C255.147 231.039 254.648 230.693 254.13 230.809C252.269 231.174 250.388 231.501 248.508 231.751C247.989 231.828 247.606 232.309 247.682 232.829C247.759 233.31 248.181 233.656 248.642 233.656ZM217.151 232.463C217.592 232.463 217.995 232.155 218.091 231.694C218.206 231.174 217.88 230.655 217.362 230.558C215.519 230.154 213.658 229.693 211.835 229.192C211.317 229.058 210.799 229.346 210.645 229.866C210.511 230.385 210.799 230.905 211.317 231.059C213.178 231.578 215.078 232.059 216.959 232.463C217.016 232.463 217.093 232.463 217.151 232.463ZM260.866 231.155C260.943 231.155 261.039 231.136 261.116 231.116C262.977 230.597 264.839 230.02 266.662 229.385C267.161 229.212 267.429 228.654 267.256 228.153C267.084 227.653 266.527 227.384 266.028 227.557C264.244 228.173 262.421 228.75 260.597 229.269C260.079 229.404 259.791 229.943 259.926 230.462C260.06 230.866 260.444 231.155 260.866 231.155ZM205.157 229.019C205.54 229.019 205.924 228.769 206.059 228.384C206.231 227.884 205.982 227.326 205.483 227.153C203.698 226.499 201.933 225.787 200.206 225.036C199.726 224.825 199.15 225.056 198.939 225.537C198.728 226.018 198.958 226.595 199.438 226.807C201.203 227.576 203.026 228.307 204.83 228.961C204.946 229 205.061 229.019 205.157 229.019ZM272.63 226.98C272.764 226.98 272.879 226.96 273.014 226.903C274.779 226.133 276.564 225.287 278.291 224.421C278.771 224.171 278.943 223.593 278.713 223.132C278.464 222.651 277.888 222.477 277.427 222.708C275.739 223.574 274.011 224.401 272.265 225.152C271.785 225.363 271.555 225.921 271.766 226.422C271.901 226.768 272.265 226.98 272.63 226.98ZM193.777 223.959C194.122 223.959 194.448 223.767 194.621 223.439C194.871 222.978 194.698 222.381 194.218 222.131C192.549 221.246 190.879 220.303 189.267 219.303C188.807 219.033 188.231 219.168 187.943 219.63C187.674 220.092 187.809 220.669 188.269 220.957C189.92 221.958 191.608 222.939 193.316 223.843C193.47 223.92 193.623 223.959 193.777 223.959ZM283.722 221.227C283.894 221.227 284.067 221.188 284.221 221.092C285.871 220.092 287.521 219.014 289.095 217.898C289.536 217.59 289.632 216.994 289.325 216.551C289.018 216.109 288.423 216.013 287.982 216.32C286.428 217.398 284.816 218.456 283.204 219.437C282.743 219.707 282.609 220.303 282.877 220.765C283.088 221.054 283.396 221.227 283.722 221.227ZM183.165 217.398C183.472 217.398 183.759 217.263 183.951 216.994C184.258 216.571 184.162 215.955 183.721 215.647C182.186 214.55 180.67 213.377 179.192 212.184C178.789 211.857 178.175 211.914 177.849 212.318C177.523 212.723 177.58 213.338 177.983 213.665C179.48 214.897 181.034 216.09 182.608 217.206C182.781 217.34 182.973 217.398 183.165 217.398ZM293.912 214.012C294.123 214.012 294.334 213.935 294.507 213.8C296.004 212.588 297.481 211.299 298.901 209.971C299.285 209.606 299.323 209.009 298.959 208.605C298.594 208.22 297.999 208.182 297.596 208.547C296.195 209.836 294.756 211.087 293.279 212.28C292.876 212.607 292.799 213.223 293.144 213.627C293.355 213.896 293.643 214.012 293.912 214.012ZM173.55 209.432C173.8 209.432 174.068 209.336 174.241 209.125C174.606 208.74 174.586 208.124 174.203 207.759C172.821 206.45 171.478 205.084 170.192 203.699C169.827 203.314 169.232 203.295 168.829 203.66C168.446 204.026 168.426 204.622 168.791 205.026C170.115 206.45 171.497 207.835 172.898 209.163C173.07 209.355 173.32 209.432 173.55 209.432ZM303.046 205.488C303.296 205.488 303.565 205.392 303.737 205.18C305.061 203.776 306.347 202.294 307.575 200.794C307.921 200.389 307.863 199.774 307.441 199.447C307.038 199.1 306.424 199.158 306.098 199.581C304.889 201.044 303.622 202.487 302.336 203.872C301.972 204.257 301.991 204.872 302.375 205.238C302.567 205.411 302.816 205.488 303.046 205.488ZM165.087 200.255C165.298 200.255 165.509 200.178 165.682 200.043C166.104 199.716 166.162 199.1 165.836 198.696C164.646 197.215 163.494 195.676 162.401 194.136C162.094 193.694 161.499 193.598 161.057 193.905C160.616 194.213 160.52 194.81 160.827 195.252C161.94 196.83 163.13 198.408 164.339 199.908C164.531 200.12 164.799 200.255 165.087 200.255ZM310.934 195.81C311.241 195.81 311.529 195.676 311.72 195.406C312.833 193.828 313.927 192.193 314.944 190.538C315.232 190.096 315.079 189.499 314.637 189.211C314.196 188.922 313.601 189.076 313.313 189.519C312.315 191.135 311.26 192.732 310.166 194.271C309.859 194.714 309.955 195.31 310.396 195.618C310.55 195.753 310.742 195.81 310.934 195.81ZM157.948 189.98C158.121 189.98 158.294 189.942 158.447 189.846C158.908 189.576 159.042 188.98 158.774 188.518C157.795 186.883 156.855 185.209 155.991 183.535C155.742 183.054 155.166 182.881 154.705 183.131C154.226 183.381 154.053 183.958 154.302 184.42C155.185 186.132 156.145 187.864 157.142 189.519C157.296 189.826 157.622 189.98 157.948 189.98ZM317.439 185.151C317.785 185.151 318.111 184.959 318.284 184.632C319.185 182.919 320.03 181.149 320.797 179.379C321.009 178.898 320.797 178.321 320.318 178.109C319.838 177.897 319.262 178.109 319.051 178.59C318.284 180.322 317.458 182.053 316.576 183.727C316.326 184.189 316.518 184.785 316.979 185.016C317.132 185.113 317.286 185.151 317.439 185.151ZM152.268 178.84C152.402 178.84 152.518 178.821 152.652 178.763C153.132 178.552 153.362 177.994 153.151 177.493C152.402 175.743 151.712 173.953 151.078 172.164C150.906 171.664 150.349 171.394 149.85 171.587C149.351 171.76 149.083 172.318 149.274 172.818C149.927 174.646 150.637 176.474 151.405 178.263C151.539 178.629 151.884 178.84 152.268 178.84ZM322.429 173.703C322.832 173.703 323.196 173.453 323.331 173.068C323.983 171.24 324.578 169.374 325.115 167.508C325.269 166.988 324.962 166.469 324.463 166.315C323.945 166.161 323.427 166.469 323.273 166.969C322.755 168.797 322.16 170.625 321.527 172.414C321.354 172.914 321.603 173.472 322.102 173.645C322.218 173.684 322.313 173.703 322.429 173.703ZM148.161 167.027C148.238 167.027 148.334 167.007 148.411 166.988C148.929 166.853 149.217 166.315 149.083 165.814C148.584 163.987 148.142 162.12 147.758 160.254C147.643 159.735 147.144 159.407 146.626 159.504C146.108 159.619 145.782 160.119 145.878 160.639C146.262 162.544 146.722 164.448 147.24 166.315C147.355 166.757 147.739 167.027 148.161 167.027ZM325.806 161.678C326.248 161.678 326.65 161.37 326.746 160.908C327.149 159.023 327.476 157.079 327.764 155.155C327.84 154.636 327.476 154.136 326.958 154.059C326.439 153.982 325.94 154.347 325.864 154.867C325.595 156.752 325.269 158.638 324.885 160.485C324.77 161.004 325.115 161.524 325.633 161.62C325.691 161.678 325.749 161.678 325.806 161.678ZM145.705 154.77C145.743 154.77 145.782 154.77 145.839 154.77C146.358 154.694 146.741 154.212 146.665 153.693C146.415 151.807 146.242 149.903 146.108 147.998C146.07 147.459 145.628 147.074 145.091 147.094C144.554 147.132 144.17 147.594 144.189 148.113C144.323 150.057 144.515 152 144.765 153.924C144.822 154.424 145.225 154.77 145.705 154.77ZM327.514 149.287C328.013 149.287 328.435 148.902 328.474 148.383C328.608 146.459 328.685 144.496 328.704 142.553C328.704 142.014 328.282 141.591 327.744 141.591C327.207 141.591 326.785 142.014 326.785 142.553C326.766 144.458 326.689 146.382 326.574 148.267C326.535 148.806 326.938 149.248 327.456 149.287C327.476 149.287 327.495 149.287 327.514 149.287ZM144.937 142.303C145.456 142.303 145.897 141.879 145.897 141.341C145.916 139.436 145.974 137.512 146.108 135.626C146.146 135.088 145.743 134.645 145.225 134.607C144.707 134.568 144.247 134.972 144.208 135.492C144.074 137.416 143.997 139.378 143.997 141.321C143.978 141.86 144.4 142.283 144.937 142.303ZM327.552 136.781C327.572 136.781 327.591 136.781 327.61 136.781C328.147 136.742 328.531 136.28 328.512 135.761C328.378 133.818 328.205 131.874 327.955 129.95C327.879 129.431 327.399 129.046 326.881 129.123C326.363 129.2 325.979 129.681 326.056 130.2C326.305 132.086 326.478 133.991 326.612 135.896C326.631 136.396 327.053 136.781 327.552 136.781ZM145.859 129.816C146.338 129.816 146.741 129.469 146.799 128.988C147.068 127.103 147.394 125.217 147.778 123.351C147.893 122.831 147.547 122.312 147.029 122.216C146.511 122.1 145.993 122.447 145.897 122.966C145.513 124.852 145.168 126.795 144.899 128.719C144.822 129.238 145.187 129.739 145.705 129.816C145.763 129.816 145.801 129.816 145.859 129.816ZM325.883 124.39C325.94 124.39 326.017 124.39 326.075 124.371C326.593 124.255 326.938 123.755 326.823 123.235C326.439 121.331 325.979 119.426 325.48 117.56C325.346 117.04 324.808 116.751 324.309 116.886C323.791 117.021 323.503 117.56 323.638 118.06C324.137 119.888 324.578 121.754 324.962 123.62C325.039 124.082 325.441 124.39 325.883 124.39ZM148.449 117.598C148.871 117.598 149.255 117.329 149.37 116.905C149.889 115.078 150.483 113.25 151.117 111.46C151.289 110.96 151.04 110.402 150.541 110.229C150.042 110.056 149.486 110.306 149.313 110.806C148.66 112.634 148.065 114.5 147.528 116.367C147.375 116.886 147.682 117.406 148.181 117.56C148.277 117.579 148.373 117.598 148.449 117.598ZM322.563 112.345C322.678 112.345 322.774 112.326 322.889 112.288C323.388 112.115 323.657 111.557 323.484 111.056C322.832 109.228 322.122 107.401 321.373 105.611C321.162 105.13 320.606 104.899 320.107 105.111C319.608 105.323 319.397 105.881 319.608 106.381C320.356 108.132 321.047 109.921 321.68 111.71C321.795 112.095 322.16 112.345 322.563 112.345ZM152.69 105.842C153.055 105.842 153.42 105.631 153.573 105.265C154.341 103.533 155.166 101.802 156.029 100.128C156.279 99.6467 156.087 99.0695 155.626 98.8386C155.166 98.5885 154.571 98.7809 154.341 99.2427C153.458 100.955 152.614 102.725 151.827 104.495C151.616 104.976 151.827 105.554 152.326 105.765C152.422 105.823 152.556 105.842 152.69 105.842ZM317.612 100.859C317.765 100.859 317.919 100.82 318.053 100.743C318.533 100.493 318.706 99.9161 318.456 99.4543C317.573 97.7419 316.614 96.0103 315.616 94.3556C315.347 93.8939 314.753 93.7592 314.292 94.0285C313.831 94.2979 313.697 94.8944 313.966 95.3561C314.944 96.9916 315.866 98.6655 316.748 100.359C316.921 100.666 317.266 100.859 317.612 100.859ZM158.486 94.7982C158.812 94.7982 159.119 94.6442 159.311 94.3364C160.309 92.7202 161.364 91.1233 162.458 89.5648C162.765 89.1223 162.669 88.5258 162.228 88.218C161.787 87.9101 161.192 88.0063 160.885 88.4488C159.772 90.0265 158.697 91.662 157.68 93.3167C157.411 93.7784 157.545 94.3556 157.987 94.6442C158.14 94.7404 158.313 94.7982 158.486 94.7982ZM311.145 90.1612C311.337 90.1612 311.529 90.1035 311.701 89.9881C312.143 89.6802 312.239 89.0838 311.932 88.6412C310.818 87.0635 309.648 85.4858 308.439 83.9658C308.113 83.5425 307.499 83.4848 307.096 83.8119C306.673 84.139 306.616 84.7547 306.942 85.1587C308.132 86.6402 309.283 88.1795 310.377 89.7187C310.55 90.0073 310.838 90.1612 311.145 90.1612ZM165.74 84.62C166.008 84.62 166.296 84.5046 166.488 84.2737C167.697 82.8114 168.945 81.3684 170.249 79.9831C170.614 79.5982 170.595 78.9826 170.211 78.617C169.827 78.2514 169.213 78.2707 168.849 78.6555C167.524 80.0793 166.239 81.5415 165.01 83.0423C164.665 83.4463 164.742 84.062 165.145 84.3891C165.318 84.5623 165.529 84.62 165.74 84.62ZM303.277 80.4448C303.507 80.4448 303.737 80.3679 303.929 80.1947C304.313 79.8291 304.332 79.2327 303.987 78.8286C302.663 77.4048 301.3 76.0195 299.899 74.6919C299.515 74.3264 298.901 74.3456 298.537 74.7304C298.172 75.1152 298.191 75.7309 298.575 76.0965C299.957 77.4049 301.3 78.7709 302.586 80.1562C302.759 80.3294 303.027 80.4448 303.277 80.4448ZM174.318 75.5385C174.548 75.5385 174.778 75.4616 174.97 75.2884C176.352 73.9993 177.81 72.7487 179.269 71.5365C179.672 71.2094 179.749 70.5938 179.403 70.1897C179.077 69.7857 178.463 69.7087 178.06 70.055C176.563 71.2864 175.085 72.5755 173.665 73.8839C173.282 74.2494 173.243 74.8459 173.608 75.2499C173.8 75.4231 174.049 75.5385 174.318 75.5385ZM294.18 71.8829C294.449 71.8829 294.737 71.7674 294.929 71.5365C295.255 71.1325 295.198 70.5168 294.795 70.1897C293.298 68.9583 291.743 67.7654 290.17 66.6302C289.748 66.3224 289.133 66.4186 288.826 66.8419C288.519 67.2652 288.615 67.8808 289.037 68.1887C290.573 69.2854 292.089 70.4591 293.566 71.6712C293.758 71.8059 293.969 71.8829 294.18 71.8829ZM184.028 67.6884C184.22 67.6884 184.412 67.6307 184.585 67.5153C186.139 66.4186 187.751 65.3796 189.363 64.3791C189.824 64.1097 189.958 63.5133 189.689 63.0515C189.421 62.5897 188.826 62.4551 188.365 62.7244C186.715 63.7249 185.084 64.8024 183.491 65.9183C183.049 66.2262 182.953 66.8226 183.26 67.2652C183.433 67.5345 183.721 67.6884 184.028 67.6884ZM284.029 64.6485C284.355 64.6485 284.662 64.4945 284.854 64.1867C285.123 63.7249 284.988 63.1477 284.528 62.8591C282.877 61.8394 281.189 60.8773 279.481 59.973C279.02 59.7229 278.425 59.8961 278.176 60.3771C277.926 60.8389 278.099 61.4353 278.579 61.6854C280.248 62.5705 281.918 63.5133 283.53 64.5138C283.683 64.5907 283.856 64.6485 284.029 64.6485ZM194.717 61.2237C194.871 61.2237 195.005 61.1852 195.158 61.1082C196.847 60.2424 198.574 59.4151 200.321 58.6647C200.8 58.4531 201.031 57.8951 200.82 57.3948C200.609 56.9138 200.052 56.6829 199.553 56.8946C197.788 57.6642 196.003 58.5108 194.276 59.3958C193.796 59.646 193.623 60.2232 193.854 60.6849C194.026 61.0313 194.372 61.2237 194.717 61.2237ZM272.975 58.8571C273.34 58.8571 273.704 58.6455 273.858 58.2799C274.069 57.7989 273.858 57.2217 273.359 57.01C271.593 56.2404 269.77 55.5093 267.967 54.8359C267.468 54.6627 266.911 54.9128 266.738 55.4131C266.566 55.9133 266.815 56.4713 267.314 56.6445C269.08 57.2986 270.864 58.0105 272.591 58.7609C272.726 58.8379 272.841 58.8571 272.975 58.8571ZM206.193 56.2981C206.289 56.2981 206.404 56.2789 206.5 56.2404C208.285 55.6055 210.108 55.0475 211.931 54.528C212.449 54.3933 212.737 53.8546 212.602 53.3351C212.468 52.8156 211.931 52.527 211.413 52.6617C209.551 53.1812 207.69 53.7776 205.867 54.4126C205.368 54.5857 205.099 55.1437 205.272 55.644C205.425 56.048 205.79 56.2981 206.193 56.2981ZM261.25 54.6435C261.672 54.6435 262.056 54.3741 262.171 53.9508C262.325 53.4313 262.018 52.9118 261.499 52.7579C259.638 52.2384 257.738 51.7574 255.857 51.3534C255.339 51.2379 254.821 51.565 254.725 52.0845C254.61 52.604 254.936 53.1235 255.454 53.2197C257.297 53.6237 259.158 54.0855 260.981 54.605C261.077 54.6242 261.154 54.6435 261.25 54.6435ZM218.225 53.008C218.283 53.008 218.36 53.008 218.417 52.9888C220.279 52.6232 222.159 52.2961 224.04 52.046C224.558 51.9691 224.942 51.488 224.865 50.9685C224.788 50.4491 224.309 50.0835 223.79 50.1412C221.871 50.4106 219.952 50.7377 218.053 51.1032C217.534 51.1994 217.189 51.7189 217.304 52.2384C217.381 52.6809 217.765 53.008 218.225 53.008ZM249.045 52.0845C249.525 52.0845 249.928 51.7382 249.985 51.2571C250.062 50.7377 249.697 50.2374 249.16 50.1797C247.241 49.9103 245.303 49.6987 243.384 49.564C242.846 49.5255 242.386 49.9296 242.347 50.449C242.309 50.9878 242.712 51.4496 243.23 51.488C245.111 51.6227 247.03 51.8344 248.891 52.1037C248.949 52.0653 249.007 52.0845 249.045 52.0845ZM230.584 51.3726C230.603 51.3726 230.622 51.3726 230.641 51.3726C232.522 51.2572 234.441 51.1994 236.341 51.1994H236.61C237.147 51.1994 237.569 50.7761 237.569 50.2374C237.569 49.6987 237.147 49.2754 236.61 49.2754H236.341C234.403 49.2754 232.445 49.3331 230.526 49.4486C229.989 49.487 229.586 49.9296 229.624 50.4683C229.663 50.9878 230.085 51.3726 230.584 51.3726Z" fill="white"/>
<path d="M236.341 66.9562C237.128 66.9562 237.78 66.302 237.78 65.5132V50.2555C237.78 49.4667 237.128 48.8125 236.341 48.8125C235.554 48.8125 234.902 49.4667 234.902 50.2555V65.5132C234.902 66.302 235.554 66.9562 236.341 66.9562Z" fill="white"/>
<path d="M236.341 234.964C237.128 234.964 237.78 234.31 237.78 233.521V218.244C237.78 217.455 237.128 216.801 236.341 216.801C235.554 216.801 234.902 217.455 234.902 218.244V233.521C234.902 234.31 235.554 234.964 236.341 234.964Z" fill="white"/>
<path d="M290.208 89.333C290.573 89.333 290.937 89.1983 291.225 88.9097L301.991 78.0966C302.548 77.5387 302.548 76.6151 301.991 76.0572C301.435 75.4992 300.513 75.4992 299.957 76.0572L289.191 86.8703C288.635 87.4282 288.635 88.3518 289.191 88.9097C289.479 89.1983 289.844 89.333 290.208 89.333Z" fill="white"/>
<path d="M171.727 208.122C172.092 208.122 172.456 207.988 172.744 207.699L183.51 196.905C184.067 196.347 184.067 195.424 183.51 194.866C182.954 194.308 182.032 194.308 181.476 194.866L170.71 205.66C170.154 206.218 170.154 207.141 170.71 207.699C170.998 207.988 171.363 208.122 171.727 208.122Z" fill="white"/>
<path d="M312.507 143.322H327.744C328.531 143.322 329.184 142.667 329.184 141.879C329.184 141.09 328.531 140.436 327.744 140.436H312.507C311.72 140.436 311.068 141.09 311.068 141.879C311.068 142.667 311.72 143.322 312.507 143.322Z" fill="white"/>
<path d="M144.957 143.322H160.174C160.961 143.322 161.614 142.667 161.614 141.879C161.614 141.09 160.961 140.436 160.174 140.436H144.957C144.17 140.436 143.517 141.09 143.517 141.879C143.517 142.667 144.17 143.322 144.957 143.322Z" fill="white"/>
<path d="M300.974 208.122C301.339 208.122 301.703 207.988 301.991 207.699C302.548 207.141 302.548 206.218 301.991 205.66L291.225 194.866C290.669 194.308 289.748 194.308 289.191 194.866C288.635 195.424 288.635 196.347 289.191 196.905L299.957 207.699C300.245 207.988 300.609 208.122 300.974 208.122Z" fill="white"/>
<path d="M182.493 89.333C182.858 89.333 183.222 89.1983 183.51 88.9097C184.067 88.3518 184.067 87.4282 183.51 86.8703L172.744 76.0572C172.188 75.4992 171.267 75.4992 170.71 76.0572C170.154 76.6151 170.154 77.5387 170.71 78.0966L181.476 88.9097C181.764 89.1983 182.128 89.333 182.493 89.333Z" fill="white"/>
<path d="M236.341 239.293C249.448 239.293 262.171 236.714 274.165 231.635C285.737 226.729 296.119 219.706 305.042 210.759C313.966 201.812 320.97 191.403 325.864 179.801C330.93 167.795 333.502 155.039 333.502 141.879C333.502 114.884 323.062 90.1027 304.275 72.998L296.541 81.5407C304.544 88.8328 310.435 96.8368 315.002 107.573C319.589 118.367 322.007 130.219 322.007 141.859C322.007 153.461 319.742 164.698 315.271 175.28C310.953 185.497 304.774 194.693 296.906 202.582C289.038 210.471 279.884 216.666 269.675 220.976C259.12 225.459 247.913 227.729 236.341 227.729C224.769 227.729 213.562 225.459 203.008 220.976C192.818 216.647 183.645 210.451 175.777 202.582C167.909 194.693 161.729 185.516 157.411 175.28C152.94 164.698 150.676 153.461 150.676 141.859C150.676 130.315 153.017 119.098 157.642 108.497C162.094 98.2991 168.465 89.1022 176.563 81.1944C184.643 73.3059 194.007 67.0912 204.408 62.7429C215.136 58.2599 224.731 56.3743 236.303 56.3743V44.8301C223.196 44.8301 212.104 47.0235 199.976 52.0837C188.231 56.99 177.657 63.9935 168.523 72.921C159.35 81.8871 152.134 92.2961 147.087 103.86C141.829 115.923 139.142 128.699 139.142 141.84C139.142 154.981 141.714 167.738 146.78 179.763C151.674 191.365 158.678 201.774 167.601 210.721C176.525 219.667 186.907 226.69 198.479 231.597C210.511 236.714 223.234 239.293 236.341 239.293Z" fill="#D0F0E4"/>
<path d="M236.341 240.736C249.64 240.736 262.555 238.119 274.722 232.963C286.447 227.98 297.002 220.861 306.059 211.779C315.117 202.698 322.218 192.135 327.188 180.36C332.331 168.161 334.941 155.232 334.941 141.879C334.941 128.237 332.35 115.212 327.265 103.167C322.141 91.0842 314.734 80.579 305.253 71.94C304.966 71.6899 304.601 71.5552 304.217 71.5745C303.833 71.5937 303.469 71.7669 303.219 72.0555L295.486 80.5982C294.948 81.1947 294.987 82.099 295.582 82.6377C303.757 90.0837 309.341 97.9723 313.678 108.17C318.188 118.771 320.567 130.431 320.567 141.898C320.567 153.308 318.341 164.352 313.947 174.761C309.686 184.823 303.622 193.847 295.889 201.601C288.136 209.374 279.135 215.454 269.118 219.687C258.736 224.093 247.721 226.325 236.341 226.325C224.961 226.325 213.946 224.093 203.564 219.687C193.547 215.435 184.527 209.336 176.794 201.601C169.06 193.847 162.977 184.804 158.735 174.761C154.341 164.352 152.115 153.308 152.115 141.898C152.115 130.566 154.418 119.522 158.966 109.112C163.341 99.069 169.616 90.0452 177.58 82.2721C185.544 74.499 194.756 68.3806 204.984 64.1092C215.481 59.7224 224.846 57.8561 236.322 57.8561C237.109 57.8561 237.761 57.2019 237.761 56.413V44.8688C237.761 44.08 237.109 43.4258 236.322 43.4258C223.023 43.4258 211.643 45.6962 199.438 50.7949C187.521 55.7781 176.794 62.8778 167.525 71.94C158.217 81.0407 150.887 91.6037 145.782 103.34C140.428 115.616 137.722 128.584 137.722 141.898C137.722 155.232 140.332 168.18 145.475 180.379C150.445 192.135 157.546 202.717 166.603 211.798C175.661 220.88 186.197 227.999 197.941 232.982C210.108 238.1 223.023 240.736 236.341 240.736ZM304.371 75.0377C313.045 83.2149 319.857 93.0468 324.617 104.283C329.568 115.962 332.062 128.603 332.062 141.86C332.062 154.828 329.529 167.392 324.54 179.224C319.723 190.653 312.814 200.908 304.025 209.72C295.236 218.533 284.989 225.459 273.609 230.288C261.787 235.291 249.256 237.831 236.341 237.831C223.426 237.831 210.876 235.272 199.035 230.25C187.636 225.421 177.408 218.494 168.618 209.682C159.829 200.87 152.921 190.596 148.104 179.186C143.115 167.334 140.581 154.77 140.581 141.821C140.581 128.911 143.21 116.328 148.411 104.418C153.381 93.0275 160.482 82.7724 169.54 73.941C178.54 65.1482 188.96 58.2409 200.532 53.4115C211.931 48.6592 222.582 46.4465 234.863 46.2734V54.9315C223.637 55.0855 214.272 57.048 203.852 61.3963C193.297 65.8024 183.779 72.1132 175.565 80.1365C167.333 88.1789 160.866 97.5105 156.337 107.9C151.635 118.675 149.255 130.104 149.255 141.84C149.255 153.635 151.558 165.064 156.106 175.819C160.482 186.209 166.776 195.56 174.779 203.583C182.781 211.587 192.088 217.878 202.47 222.284C213.198 226.844 224.597 229.153 236.36 229.153C248.124 229.153 259.523 226.844 270.25 222.284C280.594 217.917 289.92 211.625 297.942 203.583C305.925 195.579 312.22 186.228 316.614 175.819C321.162 165.064 323.465 153.635 323.465 141.84C323.465 130.008 321.009 117.944 316.346 106.996C312.028 96.8371 306.52 88.9101 298.594 81.4448L304.371 75.0377Z" fill="white"/>
<path d="M223.925 155.656C224.098 155.656 224.27 155.579 224.405 155.444L284.72 93.4132C284.969 93.1438 284.969 92.7205 284.701 92.4704C284.432 92.2203 284.01 92.2203 283.76 92.4896L223.445 154.521C223.196 154.79 223.196 155.213 223.464 155.463C223.579 155.598 223.752 155.656 223.925 155.656Z" fill="#FE5244"/>
<path d="M235.688 147.304C233.049 147.304 230.91 145.159 230.91 142.514C230.91 139.868 233.049 137.723 235.688 137.723C238.327 137.723 240.467 139.868 240.467 142.514C240.467 145.159 238.327 147.304 235.688 147.304Z" fill="#D0F0E4"/>
<path d="M235.689 148.747C239.124 148.747 241.906 145.957 241.906 142.513C241.906 139.069 239.124 136.279 235.689 136.279C232.253 136.279 229.471 139.069 229.471 142.513C229.471 145.957 232.253 148.747 235.689 148.747ZM235.689 139.165C237.531 139.165 239.028 140.666 239.028 142.513C239.028 144.36 237.531 145.861 235.689 145.861C233.846 145.861 232.349 144.36 232.349 142.513C232.349 140.666 233.846 139.165 235.689 139.165Z" fill="white"/>
<path d="M196.732 46.2923C196.943 46.2923 197.174 46.2346 197.365 46.1384C198.075 45.792 198.363 44.9262 198.018 44.1951L195.101 38.3268C194.698 37.4609 194.698 36.4604 195.082 35.5946C195.466 34.7288 196.214 34.0746 197.116 33.786L203.142 31.9582C204.063 31.6696 205.042 31.8043 205.848 32.3238C206.654 32.824 207.191 33.6706 207.325 34.6134L208.189 40.7703C208.304 41.5591 209.033 42.1171 209.82 42.0017C210.607 41.8862 211.163 41.1551 211.048 40.3662L210.185 34.1901C209.916 32.4007 208.899 30.8422 207.383 29.8802C205.867 28.9182 204.024 28.6681 202.317 29.2068L196.291 31.0346C194.583 31.5541 193.182 32.7855 192.453 34.421C191.723 36.0564 191.743 37.9419 192.51 39.5581L192.53 39.5774L195.446 45.4649C195.696 46.0037 196.195 46.2923 196.732 46.2923Z" fill="white"/>
<path d="M26.8512 553.22H28.0345V305.885H357V553.22H358.183V304.73H26.8512V553.22Z" fill="#66B0F0"/>
<path d="M23.3263 313.599H362.618C370.279 313.599 376.501 309.193 376.501 303.767V266.306C376.501 260.881 370.279 256.475 362.618 256.475H23.3263C15.6651 256.475 9.44376 260.881 9.44376 266.306V303.767C9.44376 309.193 15.6651 313.599 23.3263 313.599Z" fill="white"/>
<path d="M23.3263 314.176H362.618C370.714 314.176 377.316 309.5 377.316 303.767V266.306C377.316 260.572 370.714 255.896 362.618 255.896H23.3263C15.2305 255.896 8.62878 260.572 8.62878 266.306V303.767C8.62878 309.5 15.2305 314.176 23.3263 314.176ZM362.618 257.051C369.817 257.051 375.686 261.207 375.686 266.306V303.767C375.686 308.865 369.817 313.021 362.618 313.021H23.3263C16.127 313.021 10.2588 308.865 10.2588 303.767V266.306C10.2588 261.207 16.127 257.051 23.3263 257.051H362.618Z" fill="#66B0F0"/>
<path d="M22.504 306.899H363.433C371.094 306.899 377.316 302.489 377.316 297.057V259.559C377.316 254.127 371.094 249.717 363.433 249.717H22.504C14.8427 249.717 8.62122 254.127 8.62122 259.559V297.057C8.62122 302.489 14.8427 306.899 22.504 306.899Z" fill="#66B0F0"/>
<path d="M88.7329 255.799H174.61V295.34H88.7329V255.799Z" fill="white"/>
<path d="M30.8893 260.073H119.453L119.376 249.722H172.725L188.25 204.122L204.869 234.81L157.948 274.946L180.382 305.422L235.804 269.808C245.84 263.248 251.885 252.069 251.885 240.063C251.885 234.06 250.369 228.134 247.452 222.881L221.583 175.973C210.722 156.29 190.073 144.092 167.659 144.092H84.5838C70.7668 144.092 57.8134 150.826 49.8494 162.139L9.56888 218.36C-2.9624 235.772 9.47295 260.073 30.8893 260.073Z" fill="white"/>
<path d="M180.248 306.191L236.13 270.289C246.358 263.593 252.48 252.299 252.48 240.062C252.48 233.943 250.926 227.902 247.97 222.592L222.102 175.684C211.144 155.828 190.284 143.514 167.678 143.514H84.6031C70.6134 143.514 57.468 150.344 49.3889 161.811L9.10847 218.012C6.07642 222.226 4.31091 227.132 4.04225 232.173C3.77359 236.906 4.79066 241.678 6.99754 245.988C9.18524 250.298 12.4668 253.915 16.4584 256.474C20.7186 259.206 25.7081 260.649 30.9087 260.649H120.028L119.952 250.298H173.128L173.262 249.913L188.365 205.564L204.14 234.694L157.162 274.868L180.248 306.191ZM167.659 144.668C189.862 144.668 210.338 156.77 221.085 176.261L246.953 223.169C249.813 228.306 251.309 234.155 251.309 240.062C251.309 251.914 245.399 262.843 235.497 269.327L180.536 304.652L158.735 275.041L205.598 234.944L188.135 202.697L172.322 249.143H118.8L118.877 259.495H30.8895C25.9 259.495 21.1216 258.109 17.0533 255.512C13.2344 253.068 10.0872 249.586 7.99544 245.468C5.90369 241.351 4.92499 236.791 5.17447 232.25C5.44313 227.44 7.13188 222.746 10.0296 218.705L50.3101 162.485C58.1589 151.325 70.978 144.668 84.584 144.668H167.659Z" fill="#FE5244"/>
<path d="M162.19 294.916C168.753 303.767 176.832 308.846 180.267 306.287C183.702 303.728 181.169 294.493 174.625 285.642C168.062 276.792 160.75 272.097 157.315 274.656C153.88 277.215 155.646 286.085 162.19 294.916Z" fill="#FE5244"/>
<path d="M133.903 182.109L161.633 143.59H108.322L133.903 182.109ZM159.369 144.744L133.941 180.07L110.472 144.744H159.369Z" fill="#FE5244"/>
<path d="M133.634 195.117C135.477 195.117 136.993 193.597 136.993 191.75C136.993 189.903 135.477 188.383 133.634 188.383C131.792 188.383 130.276 189.903 130.276 191.75C130.276 193.597 131.792 195.117 133.634 195.117ZM133.634 189.537C134.843 189.537 135.841 190.538 135.841 191.75C135.841 192.962 134.843 193.963 133.634 193.963C132.425 193.963 131.427 192.962 131.427 191.75C131.427 190.538 132.425 189.537 133.634 189.537Z" fill="#FE5244"/>
<path d="M133.634 212.818C135.477 212.818 136.993 211.298 136.993 209.451C136.993 207.604 135.477 206.084 133.634 206.084C131.792 206.084 130.276 207.604 130.276 209.451C130.276 211.298 131.792 212.818 133.634 212.818ZM133.634 207.238C134.843 207.238 135.841 208.239 135.841 209.451C135.841 210.663 134.843 211.664 133.634 211.664C132.425 211.664 131.427 210.663 131.427 209.451C131.427 208.239 132.425 207.238 133.634 207.238Z" fill="#FE5244"/>
<path d="M118.129 260.744H119.28V220.917H66.4107L78.5198 202.081L77.5603 201.465L64.2998 222.071H118.129V260.744Z" fill="#FE5244"/>
<path d="M51.3654 220.918H65.3552V222.072H51.3654V220.918Z" fill="#FE5244"/>
<path d="M118.704 260.744C114.423 260.744 110.952 251.811 110.952 240.792C110.952 229.773 114.423 220.84 118.704 220.84C122.986 220.84 126.457 229.773 126.457 240.792C126.457 251.811 122.986 260.744 118.704 260.744Z" fill="#FE5244"/>
<path d="M111.028 260.61V259.455C107.133 259.455 103.851 250.913 103.851 240.792C103.851 230.672 107.133 222.129 111.028 222.129V220.975C106.365 220.975 102.7 229.671 102.7 240.792C102.7 251.913 106.365 260.61 111.028 260.61Z" fill="#FE5244"/>
<path d="M186.581 302.15C190.323 299.36 187.885 289.951 181.054 280.697C177.753 276.252 174.375 272.828 171.267 270.788C167.947 268.614 165.202 268.191 163.322 269.595L164.013 270.519C167.064 268.248 173.704 272.712 180.133 281.389C186.369 289.817 188.998 298.898 185.89 301.226L186.581 302.15Z" fill="#FE5244"/>
<path d="M160.309 128.218C160.175 109.247 147.605 104.052 126.956 105.707C104.695 107.496 113.811 138.204 101.452 139.223C96.2707 139.647 90.3601 133.759 82.4921 128.91C76.0057 124.524 68.1953 121.965 59.7708 121.965C37.2989 121.965 19.0681 140.243 19.0681 162.774C19.0681 173.144 23.8849 183.168 30.2369 190.364C30.2369 190.364 54.2439 156.559 63.5512 153.384C81.8588 147.15 87.6735 163.274 100.377 165.775C102.047 166.102 103.832 166.198 105.789 165.967C123.866 163.89 120.412 134.009 120.412 134.009C125.095 132.085 126.112 127.217 126.284 124.274C126.188 122.85 126.246 121.907 126.246 121.907C126.246 121.907 126.361 122.869 126.284 124.274C126.668 129.815 130.046 143.071 148.871 138.319V144.765C148.871 183.803 148.238 191.384 156.125 201.197C157.296 202.659 165.126 214.453 151.097 220.822C133.02 229.018 145.782 250.587 145.782 250.587H184.028C184.028 250.587 206.73 246.546 208.707 225.882C211.528 196.348 174.586 188.44 169.77 187.536C179.135 186.093 188.288 176.838 188.288 165.621C188.288 155.674 180.67 147.266 172.84 144.495C172.821 144.495 172.821 144.495 172.802 144.476C172.571 144.399 172.341 144.322 172.111 144.245C165.989 142.129 161.479 137.472 160.482 131.835L160.309 128.218Z" fill="#FFCF2D"/>
<path d="M126.189 128.431C126.208 128.431 126.208 128.431 126.189 128.431C126.457 128.431 126.668 128.2 126.668 127.95L126.515 118.118C126.515 117.848 126.304 117.637 126.035 117.637C125.766 117.637 125.555 117.868 125.555 118.118L125.709 127.95C125.728 128.219 125.939 128.431 126.189 128.431Z" fill="#E57281"/>
<path d="M148.027 139.627C148.104 139.627 148.181 139.607 148.257 139.569C152.901 137.125 153.88 134.624 153.938 134.528C154.034 134.278 153.899 134.008 153.65 133.912C153.4 133.816 153.132 133.951 153.036 134.182C153.017 134.22 152.076 136.471 147.816 138.722C147.586 138.838 147.49 139.146 147.605 139.377C147.682 139.531 147.854 139.627 148.027 139.627Z" fill="#E57281"/>
<path d="M83.5667 122.908C80.3871 122.908 77.8096 120.323 77.8096 117.135C77.8096 113.948 80.3871 111.363 83.5667 111.363C86.7462 111.363 89.3237 113.948 89.3237 117.135C89.3237 120.323 86.7462 122.908 83.5667 122.908Z" fill="#FFCF2D"/>
<path d="M151.328 214.184C148.774 214.184 146.703 212.108 146.703 209.547C146.703 206.986 148.774 204.91 151.328 204.91C153.882 204.91 155.953 206.986 155.953 209.547C155.953 212.108 153.882 214.184 151.328 214.184Z" fill="#FFCF2D"/>
<path d="M122.197 279.331L122.216 282.833C122.216 283.141 122.292 283.449 122.408 283.718L130.813 302.497C132.06 305.209 134.766 306.941 137.741 306.941H155.722C160.213 306.941 164.569 305.421 168.1 302.651L168.733 302.15L179.441 293.704C178.252 291.126 176.62 288.374 174.605 285.661C170.767 280.466 166.373 276.58 162.727 274.752H136.916C134.862 279.35 141.54 283.045 141.54 283.045H129.873L125.651 278.446C124.557 277.253 122.58 277.773 122.197 279.331Z" fill="#E57281"/>
<path d="M135.765 301.708H150.906C151.174 301.708 151.385 301.496 151.385 301.227C151.385 300.957 151.174 300.746 150.906 300.746H135.765C132.982 300.746 130.43 299.11 129.278 296.59C129.163 296.34 128.875 296.244 128.645 296.359C128.396 296.474 128.3 296.763 128.415 296.994C129.72 299.861 132.617 301.708 135.765 301.708Z" fill="#9A3B82"/>
<path d="M133.116 295.763H148.257C148.526 295.763 148.737 295.551 148.737 295.282C148.737 295.012 148.526 294.801 148.257 294.801H133.116C130.334 294.801 127.781 293.165 126.63 290.645C126.515 290.394 126.227 290.298 125.997 290.414C125.747 290.529 125.651 290.818 125.766 291.049C127.071 293.915 129.969 295.763 133.116 295.763Z" fill="#9A3B82"/>
<path d="M130.257 289.143H145.398C145.667 289.143 145.878 288.932 145.878 288.662C145.878 288.393 145.667 288.181 145.398 288.181H130.257C127.474 288.181 124.922 286.546 123.771 284.025C123.656 283.775 123.368 283.679 123.137 283.795C122.888 283.91 122.792 284.199 122.907 284.429C124.212 287.296 127.11 289.143 130.257 289.143Z" fill="#9A3B82"/>
<path d="M162.382 294.531C164.089 297.321 166.603 300.226 168.734 302.15L168.753 302.131L179.461 293.684C178.271 291.106 176.64 288.355 174.625 285.642C170.787 280.447 166.392 276.56 162.746 274.732H157.2C156.701 279.1 157.43 286.45 162.382 294.531Z" fill="#9A3B82"/>
<path d="M143.978 235.175C143.978 235.175 134.652 210.22 131.044 210.72C127.455 211.201 139.085 233.328 139.085 233.328L143.978 235.175Z" fill="#FE5244"/>
<path d="M110.951 240.793C110.951 251.472 114.214 260.168 118.301 260.707C118.436 260.726 118.57 260.726 118.704 260.726H156.701C157.853 260.726 158.774 259.803 158.774 258.648V246.488C158.774 243.044 156.663 239.966 153.458 238.754L137.549 232.712C136.11 232.173 134.575 231.885 133.04 231.885H111.777C111.258 234.578 110.951 237.599 110.951 240.793Z" fill="#E57281"/>
<path d="M158.102 252.317C158.371 252.317 158.582 252.106 158.582 251.836C158.582 249.066 156.855 246.545 154.264 245.564L142.251 241.004C142.001 240.908 141.733 241.042 141.637 241.292C141.541 241.543 141.675 241.812 141.925 241.908L153.938 246.468C156.145 247.315 157.641 249.47 157.641 251.855C157.622 252.106 157.833 252.317 158.102 252.317Z" fill="#9A3B82"/>
<path d="M158.102 259.591C158.371 259.591 158.582 259.379 158.582 259.11C158.582 256.339 156.855 253.819 154.264 252.837L142.251 248.277C142.001 248.181 141.733 248.316 141.637 248.566C141.541 248.816 141.675 249.085 141.925 249.182L153.938 253.742C156.145 254.588 157.641 256.743 157.641 259.129C157.622 259.379 157.833 259.591 158.102 259.591Z" fill="#9A3B82"/>
<path d="M154.744 260.552C154.936 260.552 155.128 260.436 155.185 260.244C155.281 259.994 155.147 259.725 154.897 259.628L142.884 255.068C142.635 254.972 142.366 255.107 142.27 255.357C142.174 255.607 142.309 255.876 142.558 255.973L154.571 260.533C154.629 260.533 154.686 260.552 154.744 260.552Z" fill="#9A3B82"/>
<path d="M110.951 240.793C110.951 251.471 114.214 260.168 118.301 260.707C118.436 260.726 118.57 260.726 118.704 260.726C122.984 260.726 126.457 251.798 126.457 240.774C126.457 237.83 126.016 234.482 125.555 231.865H111.873C111.393 234.501 110.951 237.849 110.951 240.793Z" fill="#9A3B82"/>
<path d="M114.137 138.299C114.137 139.415 114.521 140.474 115.154 141.301C115.807 142.147 116.709 142.763 117.802 143.052L120.451 143.744V146.707C120.451 153.865 126.227 159.656 133.366 159.656H135.918C143.038 159.656 148.795 153.884 148.833 146.765V138.299C130.008 143.071 126.63 129.795 126.246 124.254C126.093 127.063 125.152 131.604 121.007 133.701L120.278 133.509C117.169 132.739 114.137 135.086 114.137 138.299Z" fill="#E57281"/>
<path d="M123.963 142.726C124.078 142.726 124.193 142.687 124.27 142.61C126.361 140.821 130.046 141.167 130.084 141.167C130.353 141.186 130.583 140.994 130.602 140.744C130.622 140.474 130.43 140.244 130.18 140.224C130.007 140.205 126.035 139.84 123.636 141.898C123.444 142.071 123.406 142.379 123.579 142.572C123.694 142.668 123.828 142.726 123.963 142.726Z" fill="#9A3B82"/>
<path d="M136.014 153.519C136.283 153.519 136.494 153.308 136.494 153.038C136.532 147.343 137.741 142.841 139.43 142.091C142.405 140.782 145.091 142.187 145.11 142.206C145.341 142.341 145.628 142.245 145.763 142.014C145.897 141.783 145.801 141.494 145.571 141.36C145.437 141.283 142.443 139.705 139.046 141.206C136.916 142.148 135.573 146.67 135.534 153.038C135.534 153.308 135.745 153.519 136.014 153.519Z" fill="#9A3B82"/>
<path d="M141.656 147.652C141.243 147.652 140.908 147.006 140.908 146.209C140.908 145.412 141.243 144.766 141.656 144.766C142.069 144.766 142.405 145.412 142.405 146.209C142.405 147.006 142.069 147.652 141.656 147.652Z" fill="#9A3B82"/>
<path d="M127.724 147.652C127.31 147.652 126.975 147.006 126.975 146.209C126.975 145.412 127.31 144.766 127.724 144.766C128.137 144.766 128.472 145.412 128.472 146.209C128.472 147.006 128.137 147.652 127.724 147.652Z" fill="#9A3B82"/>
<path d="M119.721 140.648C119.99 140.648 120.201 140.436 120.201 140.167C120.201 138.281 118.858 136.626 117.016 136.242C116.766 136.184 116.497 136.357 116.44 136.607C116.382 136.877 116.555 137.127 116.804 137.184C118.205 137.473 119.222 138.743 119.222 140.186C119.242 140.436 119.453 140.648 119.721 140.648Z" fill="#9A3B82"/>
<path d="M325.307 435.997C323.023 441.385 323.695 452.467 335.19 452.313C349.448 452.121 349.084 413.602 349.084 413.602C349.084 413.602 334.518 414.275 325.307 435.997Z" fill="#3FB1B5"/>
<path d="M458.104 422.972C461.673 430.553 456.876 436.652 452.846 434.555C445.803 430.88 442.771 421.433 442.771 421.433C442.771 421.433 454.899 416.2 458.104 422.972Z" fill="#3FB1B5"/>
<path d="M325.499 435.997C333.137 420.663 341.753 413.371 355.551 413.371C378.79 413.371 393.701 438.306 396.541 470.553C396.887 466.551 401.013 462.453 401.32 458.297C405.465 403.077 375.278 381.297 352.634 381.297C334.096 381.278 329.471 407.983 325.499 435.997Z" fill="white"/>
<path d="M395.966 470.611H397.117C397.271 468.764 398.307 466.879 399.401 464.859C400.552 462.761 401.742 460.568 401.895 458.336C404.429 424.531 394.066 405.656 384.931 395.766C376.084 386.204 364.302 380.701 352.634 380.701H352.615C343.979 380.701 337.589 386.319 333.079 397.902C329.087 408.138 326.957 421.722 324.942 435.902L324.443 439.423L326.036 436.248C329.989 428.302 333.981 422.953 338.587 419.374C343.327 415.719 348.873 413.929 355.57 413.929C366.432 413.929 376.008 419.548 383.242 430.168C390.132 440.346 394.526 454.315 395.966 470.611ZM352.615 381.875H352.634C363.995 381.875 375.451 387.224 384.087 396.555C393.068 406.272 403.258 424.839 400.744 458.24C400.59 460.222 399.477 462.3 398.384 464.301C397.827 465.32 397.251 466.379 396.81 467.437C395.102 452.256 390.746 439.211 384.183 429.552C376.718 418.585 366.835 412.794 355.57 412.794C348.604 412.794 342.828 414.66 337.877 418.47C333.731 421.664 330.104 426.243 326.554 432.727C328.416 419.836 330.507 407.657 334.154 398.345C336.245 392.977 338.663 389.032 341.542 386.319C344.689 383.337 348.316 381.875 352.615 381.875Z" fill="#3FB1B5"/>
<path d="M401.876 471.362C404.39 437.96 393.855 418.989 384.567 408.965C375.758 399.441 363.956 393.746 352.999 393.746C341.235 393.746 333.77 400.576 328.051 416.565L329.126 416.95C334.672 401.5 341.811 394.901 352.999 394.901C363.63 394.901 375.125 400.461 383.722 409.754C392.857 419.624 403.2 438.307 400.725 471.285L401.876 471.362Z" fill="#3FB1B5"/>
<path d="M488.252 357.997C494.45 364.154 505.658 389.398 491.783 394.4C477.908 399.422 461.654 349.993 461.654 349.993C461.654 349.993 473.418 343.24 488.252 357.997Z" fill="#FFCF2D"/>
<path d="M489.749 395.344C490.497 395.344 491.246 395.209 491.975 394.959C495.525 393.67 497.751 391.072 498.615 387.205C500.783 377.335 493.299 362.231 488.655 357.613C484.356 353.342 477.524 348.166 469.407 347.916C464.513 347.762 461.501 349.455 461.366 349.532L460.963 349.763L461.117 350.206C461.155 350.302 464.302 359.826 468.927 369.966C475.183 383.665 481.017 391.919 486.294 394.497C487.465 395.036 488.636 395.344 489.749 395.344ZM468.774 349.032C468.985 349.032 469.215 349.032 469.445 349.051C477.16 349.34 483.704 354.304 487.849 358.421C492.435 362.981 499.517 377.816 497.502 386.955C496.734 390.418 494.757 392.746 491.591 393.881C490.075 394.439 488.501 394.285 486.793 393.458C475.49 387.936 463.861 354.708 462.364 350.321C463.266 349.879 465.55 349.032 468.774 349.032Z" fill="#FFCF2D"/>
<path d="M373.858 472.691L378.81 499.608C381.304 513.115 393.049 522.927 406.751 522.927C420.452 522.927 432.197 513.115 434.692 499.608L439.643 472.691C439.643 471.344 439.336 470.055 438.798 468.9C434.826 472.902 421.911 475.827 406.616 475.827C391.533 475.827 378.79 472.979 374.607 469.093C374.127 470.189 373.858 471.421 373.858 472.691Z" fill="#D0F0E4"/>
<path d="M377.102 466.302C377.102 470.112 390.324 473.191 406.636 473.191C422.947 473.191 436.169 470.112 436.169 466.302C436.169 465.995 436.093 465.706 435.92 465.417C434.039 462.031 421.642 459.434 406.636 459.434C391.168 459.434 378.483 462.204 377.217 465.725C377.14 465.918 377.102 466.11 377.102 466.302Z" fill="#66B0F0"/>
<path d="M396.042 426.146C396.042 442.077 398.23 457.123 402.126 470.361H413.333C413.371 403.462 437.705 349.262 467.699 349.262C475.49 349.262 482.898 352.917 489.595 359.497C469.868 336.351 461.673 330.002 450.409 330.002C423.504 330.002 396.042 373.043 396.042 426.146Z" fill="white"/>
<path d="M401.704 470.939H413.909V470.361C413.947 403.905 438.069 349.84 467.699 349.84C475.164 349.84 482.399 353.226 489.192 359.902L490.037 359.113C469.925 335.525 461.788 329.406 450.409 329.406C437.033 329.406 423.274 339.777 412.642 357.844C407.346 366.848 403.162 377.18 400.207 388.551C397.06 400.615 395.486 413.256 395.486 426.128C395.486 441.578 397.597 456.932 401.588 470.496L401.704 470.939ZM412.757 469.784H402.548C398.672 456.412 396.618 441.347 396.618 426.147C396.618 413.371 398.192 400.827 401.32 388.859C404.256 377.603 408.401 367.368 413.64 358.44C418.687 349.859 424.655 342.798 430.911 338.007C437.359 333.081 443.922 330.561 450.409 330.561C460.445 330.561 467.968 335.621 484.433 354.38C479.06 350.59 473.456 348.666 467.699 348.666C460.215 348.666 452.961 351.918 446.168 358.344C439.643 364.501 433.79 373.294 428.762 384.472C418.514 407.291 412.834 437.556 412.757 469.784Z" fill="#FFCF2D"/>
<path d="M406.194 470.4L407.346 470.285C406.021 456.72 405.714 443.521 406.424 431.053C407.096 419.355 408.689 408.234 411.145 398.018C415.713 379.027 423.158 363.404 432.696 352.861C440.813 343.875 449.967 339.123 459.14 339.123C466.241 339.123 470.29 341.201 476.68 345.857L477.352 344.914C470.75 340.104 466.548 337.949 459.121 337.949C449.603 337.949 440.18 342.836 431.832 352.052C422.16 362.75 414.619 378.546 410.013 397.729C407.537 408.023 405.945 419.201 405.254 430.977C404.544 443.521 404.851 456.778 406.194 470.4Z" fill="#FFCF2D"/>
<path d="M406.693 470.342C406.693 470.342 405.042 407.522 439.182 407.311C448.221 407.253 456.684 421.626 456.684 421.626C456.684 421.626 416.71 411.159 414.734 470.342H406.693Z" fill="white"/>
<path d="M406.136 470.92H415.29L415.309 470.362C416 449.409 421.527 434.921 431.698 427.302C437.628 422.857 444.057 421.703 448.394 421.51C453.134 421.299 456.492 422.165 456.53 422.165L457.874 422.511L457.164 421.299C457.068 421.145 454.976 417.605 451.733 414.026C447.338 409.158 443.116 406.695 439.221 406.695C439.201 406.695 439.182 406.695 439.163 406.695C432.254 406.734 426.267 409.331 421.374 414.391C417.631 418.259 414.503 423.627 412.066 430.322C410.128 435.652 408.631 441.847 407.595 448.736C405.849 460.434 406.079 470.227 406.079 470.323L406.136 470.92ZM414.177 469.765H407.269C407.25 467.533 407.288 458.933 408.785 448.909C410.378 438.25 414.004 423.742 422.237 415.219C426.9 410.389 432.6 407.927 439.201 407.888C439.221 407.888 439.24 407.888 439.259 407.888C446.379 407.888 453.306 417.451 455.494 420.779C454.055 420.529 451.541 420.221 448.413 420.356C443.903 420.548 437.206 421.741 431.045 426.359C420.644 434.132 414.964 448.736 414.177 469.765Z" fill="#3FB1B5"/>
<path d="M410.301 470.553L411.452 470.515C411.356 466.667 411.375 456.565 413.851 445.733C416.365 434.766 420.567 426.377 426.344 420.817C432.37 415.006 440.103 412.37 449.315 412.986L449.391 411.832C439.835 411.197 431.813 413.948 425.557 419.989C419.627 425.723 415.309 434.285 412.738 445.483C410.224 456.45 410.205 466.667 410.301 470.553Z" fill="#3FB1B5"/>
<path d="M456.837 362.039C455.088 362.039 453.671 360.617 453.671 358.864C453.671 357.111 455.088 355.689 456.837 355.689C458.586 355.689 460.004 357.111 460.004 358.864C460.004 360.617 458.586 362.039 456.837 362.039Z" fill="white"/>
<path d="M456.837 362.615C458.91 362.615 460.579 360.941 460.579 358.863C460.579 356.785 458.91 355.111 456.837 355.111C454.765 355.111 453.095 356.785 453.095 358.863C453.095 360.941 454.765 362.615 456.837 362.615ZM456.837 356.266C458.257 356.266 459.428 357.439 459.428 358.863C459.428 360.287 458.257 361.461 456.837 361.461C455.417 361.461 454.247 360.287 454.247 358.863C454.247 357.439 455.417 356.266 456.837 356.266Z" fill="#FFCF2D"/>
<path d="M382.206 452.834C379.652 452.834 377.581 450.758 377.581 448.197C377.581 445.637 379.652 443.561 382.206 443.561C384.76 443.561 386.831 445.637 386.831 448.197C386.831 450.758 384.76 452.834 382.206 452.834Z" fill="white"/>
<path d="M382.206 453.411C385.066 453.411 387.407 451.063 387.407 448.197C387.407 445.33 385.066 442.982 382.206 442.982C379.347 442.982 377.006 445.33 377.006 448.197C377.006 451.063 379.347 453.411 382.206 453.411ZM382.206 444.137C384.432 444.137 386.255 445.965 386.255 448.197C386.255 450.428 384.432 452.256 382.206 452.256C379.98 452.256 378.157 450.428 378.157 448.197C378.157 445.965 379.98 444.137 382.206 444.137Z" fill="#FFCF2D"/>
<path d="M389.882 363.384C385.06 363.384 381.151 359.464 381.151 354.629C381.151 349.794 385.06 345.875 389.882 345.875C394.705 345.875 398.614 349.794 398.614 354.629C398.614 359.464 394.705 363.384 389.882 363.384Z" fill="#D0F0E4"/>
<path d="M367.506 553.538L375.24 514.922C375.547 513.383 376.737 512.652 377.754 512.479C378.771 512.306 380.134 512.594 380.94 513.941C383.53 518.27 387.368 521.81 392.032 524.177C396.407 526.409 401.454 527.602 406.597 527.621C411.759 527.64 416.806 526.486 421.22 524.293C425.922 521.945 429.798 518.424 432.427 514.114L432.619 513.787C433.425 512.46 434.807 512.19 435.805 512.363C436.803 512.537 437.992 513.287 438.299 514.807L446.052 553.538L447.185 553.307L439.432 514.576C439.086 512.825 437.781 511.555 436.016 511.228C434.25 510.92 432.581 511.671 431.64 513.191L431.449 513.537C428.935 517.655 425.212 521.022 420.721 523.273C416.48 525.389 411.587 526.505 406.616 526.486C401.646 526.467 396.791 525.312 392.569 523.157C388.098 520.868 384.432 517.481 381.938 513.345C381.016 511.805 379.347 511.036 377.562 511.344C375.797 511.652 374.472 512.941 374.127 514.711L366.393 553.326L367.506 553.538Z" fill="#66B0F0"/>
<path d="M406.194 527.062H407.345V553.595H406.194V527.062Z" fill="#66B0F0"/>
<path d="M206.941 552.846H464.168V554H206.941V552.846Z" fill="#66B0F0"/>
<path d="M250.697 291.538H338.572C340.932 291.538 343.042 290.105 343.918 287.92L367.965 228.386C369.109 225.538 367.017 222.422 363.96 222.422H276.085C273.725 222.422 271.615 223.855 270.739 226.04L246.692 285.574C245.53 288.422 247.621 291.538 250.697 291.538Z" fill="white"/>
<path fill-rule="evenodd" clip-rule="evenodd" d="M367.468 228.187C367.468 228.187 367.467 228.187 367.467 228.188L343.42 287.722C342.626 289.703 340.713 291.003 338.572 291.003H250.697C248.002 291.003 246.171 288.273 247.188 285.779L271.236 226.243L271.237 226.242C272.031 224.261 273.944 222.961 276.085 222.961H363.96C366.635 222.961 368.471 225.69 367.468 228.187ZM368.463 228.589C369.748 225.39 367.4 221.887 363.96 221.887H276.085C273.506 221.887 271.199 223.453 270.241 225.842L246.195 285.373C244.889 288.575 247.241 292.077 250.697 292.077H338.572C341.151 292.077 343.458 290.511 344.415 288.122L368.463 228.589Z" fill="#FE5244"/>
<path d="M254.773 291.971H338.608C340.842 291.971 342.863 290.609 343.703 288.532L366.642 231.738C367.732 229.016 365.748 226.061 362.816 226.061H278.981C276.746 226.061 274.726 227.422 273.886 229.499L250.947 286.293C249.856 289.015 251.859 291.971 254.773 291.971Z" fill="#FE5244"/>
<path d="M306.247 266.143C308.714 266.143 311.038 265.176 312.79 263.421C314.221 261.988 315.007 260.09 315.007 258.084C315.007 256.06 314.221 254.161 312.79 252.746C311.628 251.582 310.073 250.938 308.428 250.938C306.783 250.938 305.228 251.582 304.065 252.746C302.081 254.734 302.081 257.958 304.065 259.946C305.71 261.594 308.374 261.594 310.019 259.946C310.305 259.66 310.305 259.212 310.019 258.925C309.733 258.639 309.286 258.639 309 258.925C307.909 260.018 306.157 260.018 305.067 258.925C303.636 257.493 303.636 255.182 305.067 253.749C305.961 252.854 307.158 252.352 308.428 252.352C309.697 252.352 310.895 252.854 311.789 253.749C312.951 254.914 313.577 256.436 313.577 258.084C313.577 259.714 312.933 261.254 311.789 262.418C310.305 263.905 308.356 264.711 306.265 264.711C304.173 264.711 302.206 263.905 300.74 262.418C300.454 262.131 300.007 262.131 299.721 262.418C299.435 262.705 299.435 263.152 299.721 263.439C301.455 265.176 303.779 266.143 306.247 266.143Z" fill="white"/>
<path d="M219.248 297.845H338.465C339.841 297.845 340.95 296.735 340.95 295.356V294.156C340.95 292.776 339.841 291.666 338.465 291.666H219.248C217.871 291.666 216.763 292.776 216.763 294.156V295.356C216.78 296.735 217.889 297.845 219.248 297.845Z" fill="white"/>
<path fill-rule="evenodd" clip-rule="evenodd" d="M338.465 292.204C339.545 292.204 340.414 293.073 340.414 294.156V295.356C340.414 296.438 339.545 297.308 338.465 297.308H219.248C218.19 297.308 217.315 296.442 217.299 295.352V294.156C217.299 293.073 218.167 292.204 219.248 292.204H338.465ZM341.486 294.156C341.486 292.48 340.138 291.129 338.465 291.129H219.248C217.575 291.129 216.226 292.48 216.226 294.156V295.359L216.226 295.363C216.248 297.029 217.589 298.383 219.248 298.383H338.465C340.138 298.383 341.486 297.032 341.486 295.356V294.156Z" fill="#FE5244"/>
</g>
<defs>
<filter id="filter0_d_2282_313" x="0" y="0" width="503" height="562" filterUnits="userSpaceOnUse" color-interpolation-filters="sRGB">
<feFlood flood-opacity="0" result="BackgroundImageFix"/>
<feColorMatrix in="SourceAlpha" type="matrix" values="0 0 0 0 0 0 0 0 0 0 0 0 0 0 0 0 0 0 127 0" result="hardAlpha"/>
<feOffset dy="4"/>
<feGaussianBlur stdDeviation="2"/>
<feComposite in2="hardAlpha" operator="out"/>
<feColorMatrix type="matrix" values="0 0 0 0 0 0 0 0 0 0 0 0 0 0 0 0 0 0 0.25 0"/>
<feBlend mode="normal" in2="BackgroundImageFix" result="effect1_dropShadow_2282_313"/>
<feBlend mode="normal" in="SourceGraphic" in2="effect1_dropShadow_2282_313" result="shape"/>
</filter>
</defs>
</svg>
