
<svg version="1.1" id="Слой_1" xmlns="http://www.w3.org/2000/svg" xmlns:xlink="http://www.w3.org/1999/xlink" x="0px" y="0px"
	 viewBox="0 0 644 142" style="enable-background:new 0 0 644 142;" xml:space="preserve">
<style type="text/css">
	.st0{fill:none;stroke:#FFFFFF;stroke-width:3;stroke-miterlimit:10;}
</style>
<g>
	<path class="st0" d="M44.95,37.95c-0.93,1.66-2.27,6.99-4.03,16s-2.64,16.57-2.64,22.67c3.37-0.54,6.84-1,10.4-1.39l15.38-1.76
		c2.44-0.34,5.86-1.1,10.25-2.27c4.44-1.17,7.47-1.76,9.08-1.76c5.76,0,8.64,2.34,8.64,7.03c0,0.93-0.82,2.1-2.45,3.52
		c-1.64,1.42-3.81,2.42-6.52,3s-9.24,1.44-19.59,2.56c-12.7,1.46-20.23,2.58-22.6,3.33c-2.37,0.76-3.77,1.51-4.21,2.27
		c-0.44,0.76-0.9,4.3-1.39,10.62c-0.49,6.32-0.73,11.46-0.73,15.42l0.29,9.08c0,4.98-1.81,7.47-5.42,7.47
		c-2.25,0-4.32-0.85-6.23-2.56c-1.9-1.71-2.86-4-2.86-6.88c0-11.33,2.78-35.2,8.35-71.63c1.32-8.5,1.98-13.06,1.98-13.7
		c0-0.93-0.29-2.34-0.88-4.25c-0.78-2.39-1.17-4.05-1.17-4.98c0-1.32,0.73-2.75,2.2-4.28s2.86-2.31,4.17-2.31l9.67,1.1
		c2.98,0,8.52-0.49,16.63-1.46c13.77-1.66,23.22-2.49,28.34-2.49c4.49,0,7.71,0.68,9.67,2.05c1.95,1.37,2.93,2.71,2.93,4.03
		c0,2.34-0.79,4.36-2.38,6.04c-1.59,1.68-3.28,2.53-5.09,2.53c-0.83,0-1.73-0.1-2.71-0.29c-5.32-0.88-9.38-1.32-12.16-1.32
		c-5.23,0-12,0.48-20.32,1.43C51.24,35.72,46.37,36.78,44.95,37.95z"/>
	<path class="st0" d="M120.98,98.16c0.49-0.88,1.07-2.1,1.76-3.66c3.32-7.62,6.37-13.59,9.16-17.91s5.85-8.46,9.19-12.41
		c3.34-3.96,6.4-6.96,9.16-9.01c2.76-2.05,5.26-3.48,7.51-4.28c2.25-0.81,4.42-1.21,6.52-1.21c4.25,0,7.71,1.28,10.4,3.85
		c2.68,2.56,4.03,5.56,4.03,8.97c0,1.51-0.48,2.88-1.43,4.1c-0.95,1.22-2.41,1.83-4.36,1.83c-2.05,0-3.93-0.9-5.64-2.71
		c-1.76-1.81-3.59-2.71-5.49-2.71c-5.08,0-12.11,6.15-21.09,18.46c-8.98,12.3-14.45,25.85-16.41,40.65
		c-0.49,3.81-1.42,6.32-2.78,7.54c-1.37,1.22-3.3,1.83-5.79,1.83c-2.39,0-4.13-1.78-5.2-5.35c-1.07-3.56-1.61-9.57-1.61-18.02
		c0-2.29,0.12-7.35,0.37-15.16c0.29-9.23,0.88-16.67,1.76-22.34c0.15-0.93,0.39-3.1,0.73-6.52c0.34-3.76,0.77-6.37,1.28-7.84
		s1.56-2.83,3.15-4.1c1.59-1.27,3.31-1.9,5.16-1.9c1.81,0,3.16,0.57,4.06,1.72c0.9,1.15,1.35,2.38,1.35,3.7
		c0,1.9-0.49,4.59-1.46,8.06c-1.12,3.86-1.78,6.52-1.98,7.98c-0.15,1.66-0.42,3.39-0.81,5.2c-0.49,2.1-0.98,7.62-1.46,16.55
		l-0.07,2.71V98.16z"/>
	<path class="st0" d="M246,102.41c0,4.98-4.41,10.99-13.22,18.02c-8.81,7.03-17.91,10.55-27.28,10.55c-7.86,0-13.93-2.32-18.2-6.96
		s-6.41-11.11-6.41-19.41c0-13.96,4.71-27.25,14.14-39.84c9.42-12.6,19.73-18.9,30.91-18.9c3.66,0,6.65,1.2,8.97,3.59
		c2.32,2.39,3.48,5.27,3.48,8.64c0,7.52-3.69,14.72-11.06,21.61c-7.37,6.88-17.24,13.65-29.59,20.29c-2.54,1.32-3.81,3.03-3.81,5.13
		c0,4.05,1.17,7.3,3.52,9.74c2.34,2.44,5.81,3.66,10.4,3.66c10.5,0,21.21-5.81,32.15-17.43c1.61-1.61,2.83-2.42,3.66-2.42
		C245.22,98.67,246,99.92,246,102.41z M195.1,90.98c20.7-12.3,31.05-22.19,31.05-29.66c0-2.93-1.32-4.39-3.96-4.39
		c-4.49,0-9.56,3.3-15.2,9.89C201.36,73.4,197.39,81.46,195.1,90.98z"/>
	<path class="st0" d="M298.15,110.46c0-3.17-3.91-6.79-11.72-10.84c-9.91-5.08-16.61-9.14-20.11-12.19
		c-3.49-3.05-5.24-6.46-5.24-10.22c0-9.72,4.87-17.77,14.61-24.17c9.74-6.4,17.69-9.59,23.84-9.59c3.96,0,6.82,0.68,8.61,2.05
		c1.78,1.37,2.67,3.74,2.67,7.1c0,1.51-0.65,2.81-1.94,3.88c-1.29,1.07-2.31,1.61-3.04,1.61c-0.54,0-1.59-0.37-3.15-1.1
		c-1.56-0.68-2.59-1.03-3.08-1.03c-2.44,0-7.4,1.78-14.87,5.35c-7.47,3.56-11.21,7.59-11.21,12.08c0,2.74,1.32,5.21,3.96,7.43
		c2.64,2.22,7.37,4.94,14.21,8.17c5.52,2.64,9.92,5.46,13.22,8.46c3.29,3,4.94,6.53,4.94,10.58c0,7.47-5.15,13.32-15.45,17.54
		c-10.3,4.22-20.14,6.34-29.52,6.34c-7.91,0-11.87-2.69-11.87-8.06c0-1.85,0.89-3.22,2.67-4.1c1.78-0.88,3.58-1.32,5.38-1.32
		c0.73,0,2.12,0.25,4.17,0.73c2,0.49,3.32,0.73,3.96,0.73c5.42,0,11.23-0.9,17.43-2.71C292.85,115.4,296.69,113.15,298.15,110.46z"
		/>
	<path class="st0" d="M336.97,105.26c18.16-33.54,33.13-50.32,44.9-50.32c3.12,0,5.66,1.78,7.62,5.35
		c1.95,3.56,3.54,11.48,4.76,23.73c1.22,13.04,3.98,22.46,8.28,28.27c2.2,2.98,3.3,5.18,3.3,6.59c0,1.27-0.73,2.44-2.2,3.52
		c-1.46,1.07-3.03,1.61-4.69,1.61c-3.81,0-7.18-2.14-10.11-6.41c-2.93-4.27-4.81-11.78-5.64-22.52c-0.83-10.16-1.71-16.8-2.64-19.92
		c-0.93-3.12-2.47-4.69-4.61-4.69c-5.13,0-15.45,13.4-30.98,40.21c-4.64,8.01-8.06,13.25-10.25,15.71s-4.2,3.7-6.01,3.7
		c-2.15,0-3.96-0.64-5.42-1.9s-2.2-2.83-2.2-4.69c0-1.37,0.39-4,1.17-7.91c6.01-31.01,10.74-61.67,14.21-91.99
		c0.78-7.08,2.04-11.79,3.77-14.14s3.19-3.52,4.36-3.52c2.1,0,4,0.85,5.71,2.56c1.71,1.71,2.56,4.08,2.56,7.1
		c0,8.98-2.2,21.31-6.59,36.99c-2.15,7.76-4.42,17.63-6.81,29.59c-2.39,11.96-3.59,19.36-3.59,22.19c0,0.59,0.27,0.88,0.81,0.88
		H336.97z"/>
	<path class="st0" d="M447.27,132.51c-7.81,0-14.76-3.88-20.84-11.65c-6.08-7.76-9.12-15.82-9.12-24.17c0-9.86,3-21.12,9.01-33.76
		c6.01-12.65,13.84-22.96,23.51-30.94s19.73-11.98,30.18-11.98c8.01,0,14.67,0.99,20,2.97c5.32,1.98,10.11,4.82,14.36,8.53
		c4.25,3.71,7.08,7.52,8.5,11.43c1.42,3.91,2.12,9.38,2.12,16.41c0,6.64-2,14.4-6.01,23.29c-4,8.89-10.24,17.55-18.71,26
		c-8.47,8.45-16.49,14.54-24.06,18.27C468.63,130.64,458.99,132.51,447.27,132.51z M430.72,96.03c0,6.79,2.15,12.5,6.45,17.14
		c4.3,4.64,9.28,6.96,14.94,6.96c14.75,0,28.3-6.79,40.65-20.36c12.35-13.57,18.53-27.98,18.53-43.21c0-5.81-1.14-10.39-3.41-13.73
		c-2.27-3.34-5.92-6.2-10.95-8.57c-5.03-2.37-10.67-3.55-16.92-3.55c-10.94,0-21.89,7.42-32.85,22.27
		C436.2,67.81,430.72,82.17,430.72,96.03z"/>
	<path class="st0" d="M575.23,80.21c2.68,1.9,8.54,6.4,17.58,13.48c9.52,7.47,16.77,12.88,21.75,16.22
		c4.98,3.35,8.53,5.31,10.66,5.9c2.12,0.59,5.99,1.07,11.61,1.46c0.19,0.68,0.29,1.44,0.29,2.27c0,3.13-0.82,5.56-2.45,7.29
		s-3.84,2.6-6.63,2.6c-2.83,0-6.23-1.04-10.18-3.11s-11.16-7.04-21.61-14.9l-16.7-12.67c-5.71-4.54-11.06-7.88-16.04-10.03
		c-1.22-0.19-2.71,0.44-4.47,1.9c-1.51,3.08-2.59,6.96-3.22,11.65c-0.63,4.69-0.95,8.33-0.95,10.91
		c-0.68,13.43-3.47,20.14-8.35,20.14c-1.9,0-3.42-0.62-4.54-1.87c-1.12-1.25-1.68-2.82-1.68-4.72c0-1.42,0.32-3.42,0.95-6.01
		c1.46-6.05,3.49-23.63,6.08-52.73c0.88-8.94,1.98-17.92,3.3-26.95c1.32-9.03,2.32-14.38,3-16.04c0.68-1.66,1.59-2.88,2.71-3.66
		c1.12-0.78,2.2-1.17,3.22-1.17c4.54,0,6.76,2.76,6.67,8.28c-3.37,13.87-5.47,26.76-6.3,38.67c-0.29,3.76-0.68,7.5-1.17,11.21
		c0,0.2,0.01,0.38,0.04,0.55c0.02,0.17,0.28,0.15,0.77-0.07c0.49-0.22,2.04-1.29,4.65-3.22c2.61-1.93,5.44-4.17,8.5-6.74
		s5.48-4.85,7.29-6.85c1.12-1.32,2.61-2.81,4.47-4.47c6.05-5.42,10.55-9.7,13.48-12.85s5.66-6.9,8.2-11.24
		c3.56-6.25,6.13-9.38,7.69-9.38c1.71,0,3.49,0.92,5.35,2.75c1.86,1.83,2.78,3.65,2.78,5.46c0,4.69-7.42,13.53-22.27,26.51
		c-3.27,2.83-5.37,4.71-6.3,5.64C591.73,65.96,585.67,71.23,575.23,80.21z"/>
</g>
</svg>
