<svg width="600" height="468" viewBox="0 0 600 468" fill="none" xmlns="http://www.w3.org/2000/svg">
<path d="M90.1353 423.159C90.1353 423.159 71.3662 406.178 71.7354 393.987C72.1598 380.039 85.4661 386.773 86.1674 381.741C86.8871 376.728 72.1229 342.469 92.6821 342.728C113.241 342.987 103.681 375.84 109.255 378.874C114.828 381.889 124.075 378.282 121.583 391.582C119.092 404.901 98.3109 422.993 98.3109 422.993L90.1353 423.159Z" fill="#3FB1B5"/>
<path d="M33.7732 423.287C30.562 423.287 27.3323 421.789 24.7117 419.088C22.2387 416.535 20.5223 413.095 19.9871 409.635C18.8798 402.347 22.9215 396.501 30.8204 394.023C38.2209 391.692 42.7794 393.024 45.5292 395.003C46.1013 392.284 47.1164 389.472 48.7404 386.882C52.2839 381.24 59.7767 374.969 75.4083 377.171C85.1712 378.539 91.7228 382.461 94.8602 388.843C96.8165 392.802 97.2225 397.315 96.8903 401.626C97.0933 400.738 97.2963 399.85 97.4808 398.943C99.1603 390.582 99.677 382.11 98.9942 373.804C98.1452 363.426 95.4138 353.234 90.8923 343.522C90.7631 343.244 90.8739 342.911 91.1507 342.782C91.4275 342.652 91.7597 342.763 91.8889 343.059C96.4658 352.901 99.2341 363.223 100.083 373.748C100.766 382.165 100.249 390.73 98.5328 399.202C95.6169 413.631 90.1541 422.936 90.0987 423.028L89.1391 422.473C89.176 422.418 91.9812 417.386 93.9559 410.801C97.2225 399.868 95.7091 393.098 93.8452 389.343C90.8738 383.312 84.6175 379.594 75.2422 378.28C66.9373 377.115 55.7719 377.781 49.6817 387.493C48.0207 390.138 47.0241 393.061 46.5074 395.817C46.6365 395.946 46.7657 396.057 46.8949 396.187C49.7924 399.11 50.5122 403.253 49.737 405.677C49.3679 406.805 48.6851 407.527 47.7992 407.675C47.467 407.73 46.8027 407.693 46.2121 406.787C45.1232 405.14 44.5511 400.96 45.3078 396.261C42.8532 394.282 38.5347 392.802 31.171 395.114C27.2031 396.353 24.3426 398.407 22.6262 401.182C21.1498 403.568 20.6146 406.454 21.0944 409.506C21.5927 412.743 23.1983 415.962 25.5237 418.348C27.9413 420.845 30.8757 422.214 33.7917 422.214C34.1054 422.214 34.3453 422.455 34.3453 422.769C34.3453 423.084 34.087 423.287 33.7732 423.287ZM46.2859 397.149C45.7322 401.237 46.2121 404.77 47.1348 406.158C47.3194 406.435 47.5039 406.583 47.6331 406.565C48.2422 406.472 48.5559 405.751 48.6851 405.325C49.3495 403.235 48.6297 399.646 46.2859 397.149Z" fill="#FFCF2D"/>
<path d="M127.84 423.289C127.6 423.289 127.397 423.141 127.323 422.919C127.231 422.623 127.378 422.309 127.674 422.216C127.748 422.198 134.631 419.848 141.607 416.278C150.706 411.635 155.836 407.048 156.39 403.033C156.741 400.536 155.32 398.15 152.145 395.949C148.879 393.673 145.335 393.007 141.644 393.988C127.84 397.65 115.752 422.716 115.641 422.975C115.512 423.252 115.179 423.363 114.903 423.234C114.626 423.104 114.515 422.771 114.644 422.494C114.681 422.438 117.763 416.001 122.543 409.193C129.003 400 135.351 394.524 141.368 392.933C145.391 391.86 149.23 392.582 152.791 395.061C156.335 397.521 157.922 400.259 157.497 403.218C156.021 413.707 129.169 422.901 128.024 423.289C127.951 423.271 127.895 423.289 127.84 423.289Z" fill="#FFCF2D"/>
<path d="M121.99 422.938C121.879 422.938 121.75 422.901 121.657 422.827C121.417 422.642 121.362 422.29 121.547 422.05C121.602 421.994 126.271 415.742 132.38 409.36C140.629 400.739 147.458 395.967 152.644 395.19C152.939 395.153 153.234 395.356 153.271 395.652C153.308 395.948 153.105 396.244 152.81 396.281C140.962 398.057 122.635 422.438 122.451 422.697C122.34 422.864 122.174 422.938 121.99 422.938Z" fill="#FFCF2D"/>
<path d="M98.6249 423.048C98.5511 423.048 98.4773 423.029 98.4034 423.011C98.1266 422.881 97.9974 422.567 98.1082 422.289C98.2004 422.049 108.24 398.704 117.043 384.978C117.209 384.719 117.56 384.645 117.8 384.812C118.058 384.978 118.132 385.33 117.966 385.57C109.218 399.222 99.2155 422.493 99.1232 422.715C99.0494 422.918 98.8464 423.048 98.6249 423.048Z" fill="#FFCF2D"/>
<path d="M108.222 402.977L108.665 402.089C109.071 401.275 112.688 394.005 114.681 392.618C115.751 391.878 117.043 391.6 118.317 391.822C119.59 392.063 120.697 392.784 121.436 393.857C122.174 394.93 122.451 396.243 122.211 397.52C121.971 398.796 121.251 399.888 120.199 400.609C118.169 402.015 110.141 402.792 109.218 402.884L108.222 402.977ZM117.431 392.84C116.674 392.84 115.936 393.062 115.308 393.506C113.998 394.431 111.433 399.092 110.104 401.663C112.965 401.349 118.224 400.609 119.553 399.684C120.365 399.129 120.919 398.278 121.103 397.298C121.288 396.299 121.067 395.3 120.494 394.468C119.922 393.635 119.073 393.08 118.095 392.895C117.874 392.877 117.652 392.84 117.431 392.84Z" fill="#FFCF2D"/>
<path d="M115.973 387.012L116.416 386.124C116.822 385.31 120.439 378.04 122.432 376.653C123.503 375.913 124.795 375.636 126.068 375.858C127.341 376.098 128.449 376.82 129.187 377.892C129.925 378.965 130.202 380.279 129.962 381.555C129.722 382.832 129.002 383.923 127.95 384.644C125.92 386.05 117.892 386.827 116.969 386.92L115.973 387.012ZM125.182 376.894C124.425 376.894 123.687 377.116 123.06 377.559C121.749 378.484 119.184 383.146 117.855 385.717C120.716 385.403 125.976 384.663 127.304 383.738C128.116 383.183 128.67 382.332 128.855 381.352C129.039 380.353 128.818 379.354 128.246 378.521C127.674 377.689 126.825 377.134 125.846 376.949C125.625 376.912 125.404 376.894 125.182 376.894Z" fill="#FFCF2D"/>
<path d="M121.269 377.837L121.325 376.857C121.362 375.95 121.823 367.848 123.133 365.776C124.554 363.501 127.563 362.817 129.833 364.241C132.084 365.665 132.767 368.662 131.346 370.956C130.054 373.028 122.949 376.931 122.155 377.375L121.269 377.837ZM127.249 364.592C125.994 364.592 124.776 365.221 124.075 366.35C123.207 367.719 122.69 373.009 122.487 375.895C124.997 374.471 129.537 371.714 130.386 370.345C131.494 368.588 130.977 366.257 129.224 365.166C128.633 364.777 127.932 364.592 127.249 364.592Z" fill="#FFCF2D"/>
<path d="M107.889 403.014L107.41 402.144C106.967 401.349 103.091 394.227 103.109 391.767C103.128 390.472 103.645 389.251 104.567 388.344C105.472 387.456 106.671 386.957 107.945 386.957C107.963 386.957 107.982 386.957 108 386.957C109.292 386.957 110.51 387.456 111.433 388.381C112.337 389.306 112.835 390.527 112.835 391.841C112.817 394.282 108.849 401.349 108.406 402.144L107.889 403.014ZM107.945 388.067C106.967 388.067 106.044 388.437 105.343 389.14C104.623 389.843 104.235 390.786 104.217 391.785C104.198 393.413 106.542 398.186 107.889 400.738C109.273 398.204 111.673 393.45 111.691 391.859C111.71 390.86 111.322 389.898 110.621 389.195C109.919 388.455 108.96 388.067 107.945 388.067Z" fill="#FFCF2D"/>
<path d="M116.582 387.254L116.102 386.384C115.659 385.589 111.783 378.467 111.802 376.007C111.82 373.362 114.016 371.197 116.674 371.197C117.966 371.197 119.184 371.697 120.107 372.622C121.011 373.547 121.509 374.767 121.509 376.081C121.491 378.523 117.523 385.589 117.08 386.384L116.582 387.254ZM112.909 376.007C112.891 377.635 115.234 382.407 116.582 384.96C117.966 382.426 120.365 377.672 120.384 376.062C120.402 375.063 120.014 374.101 119.313 373.399C118.612 372.696 117.671 372.289 116.674 372.289C114.589 372.307 112.928 373.935 112.909 376.007Z" fill="#FFCF2D"/>
<path d="M599.704 422.143H0V423.252H599.704V422.143Z" fill="#66B0F0"/>
<path d="M248.297 52.2305H396.622C426.612 52.2305 454.627 67.0292 471.588 91.7616L539.54 192.097C545.15 200.255 540.075 211.372 530.183 211.372H454.553L424.342 171.804C420.78 166.791 412.918 168.993 412.42 175.153L406.33 249.683H244.569L230.949 173.913C230.119 167.994 222.478 166.181 219.027 171.064L191.271 206.877H100.821L171.394 94.7769C188.078 68.2686 217.108 52.2305 248.297 52.2305Z" fill="white"/>
<path d="M406.828 250.2H244.09L244.016 249.738L230.377 173.931C230.027 171.434 228.292 169.51 225.837 168.918C223.364 168.326 220.928 169.251 219.452 171.323L219.433 171.341L191.511 207.376H99.7878L170.896 94.4246C179.146 81.3462 190.625 70.4876 204.116 63.0327C217.606 55.5778 232.887 51.6191 248.279 51.6191H396.604C426.741 51.6191 454.941 66.4919 472.012 91.3908L539.965 191.726C542.807 195.87 543.176 201.124 540.906 205.434C538.783 209.466 534.76 211.871 530.146 211.871H454.277L423.881 172.063C422.091 169.528 419.341 169.214 417.385 169.75C415.41 170.305 413.214 171.989 412.955 175.115L406.828 250.2ZM245.012 249.09H405.795L411.848 175.078C412.088 172.026 414.155 169.547 417.089 168.733C420.042 167.919 422.995 168.955 424.785 171.452L454.83 210.798H530.202C534.409 210.798 538.064 208.616 539.983 204.953C542.05 201.013 541.718 196.203 539.097 192.392L471.145 92.0568C454.277 67.4538 426.428 52.766 396.641 52.766H248.316C233.109 52.766 218.012 56.6692 204.688 64.0316C191.363 71.4125 180.013 82.1231 171.856 95.035L101.818 206.266H190.975L218.548 170.675C220.282 168.215 223.161 167.123 226.096 167.845C228.993 168.548 231.06 170.823 231.466 173.764L245.012 249.09Z" fill="#3FB1B5"/>
<path d="M338.673 90.9277L362.702 170.952H303.313L329.685 90.9277H338.673Z" fill="#FE5244"/>
<g opacity="0.2">
<g opacity="0.2">
<g opacity="0.2">
<path opacity="0.2" d="M319.516 121.857V170.952H317.91V126.667L318.445 125.039L319.516 121.857Z" fill="white"/>
</g>
<g opacity="0.2">
<path opacity="0.2" d="M336.421 91.1113H334.833V170.951H336.421V91.1113Z" fill="white"/>
</g>
<g opacity="0.2">
<path opacity="0.2" d="M353.345 139.799V170.951H351.758V134.49L353.345 139.799Z" fill="white"/>
</g>
</g>
<g opacity="0.2">
<g opacity="0.2">
<path opacity="0.2" d="M359.601 160.591H306.708L307.243 158.963H359.102L359.601 160.591Z" fill="white"/>
</g>
<g opacity="0.2">
<path opacity="0.2" d="M354.488 143.63H312.318L312.853 142.002H353.99L354.488 143.63Z" fill="white"/>
</g>
<g opacity="0.2">
<path opacity="0.2" d="M349.413 126.665H317.91L318.445 125.037H348.915L349.413 126.665Z" fill="white"/>
</g>
<g opacity="0.2">
<path opacity="0.2" d="M344.302 109.702H323.521L324.056 108.074H343.822L344.302 109.702Z" fill="white"/>
</g>
<g opacity="0.2">
<path opacity="0.2" d="M339.189 92.7392H329.131L329.648 91.1113H338.746L339.189 92.7392Z" fill="white"/>
</g>
</g>
</g>
<path d="M349.413 90.0968L359.102 100.53L390.347 52.2305H362.664L349.413 90.0968Z" fill="white"/>
<path d="M359.195 101.417L348.786 90.207L362.277 51.6562H391.363L359.195 101.417ZM350.041 89.9665L359.029 99.6412L389.314 52.7847H363.052L350.041 89.9665Z" fill="#3FB1B5"/>
<path d="M320.678 90.0968L310.952 100.53L277.105 52.2305H307.39L320.678 90.0968Z" fill="white"/>
<path d="M310.897 101.399L276.053 51.6562H307.796L321.324 90.207L310.897 101.399ZM278.176 52.7847L311.008 99.6597L320.051 89.9665L307.003 52.7847H278.176Z" fill="#3FB1B5"/>
<path d="M551.425 220.545C551.425 239.45 537.99 257.357 517.08 260.428L431.411 273.062L412.605 275.837V202.823L418.4 201.454L501.984 181.569C518.114 177.739 534.926 184.232 544.302 197.921C549.192 204.988 551.425 212.85 551.425 220.545Z" fill="#A0505A"/>
<path d="M431.411 273.063L412.605 275.837V202.824L418.4 201.455L431.411 273.063Z" fill="#73325A"/>
<path d="M412.605 294.504H232.518V186.177C232.518 177.761 239.328 170.953 247.707 170.953H397.398C405.795 170.953 412.586 177.779 412.586 186.177V294.504H412.605Z" fill="#FFCF2D"/>
<path d="M333.671 241.837H311.451C308.941 241.837 306.893 239.784 306.893 237.268V227.927C306.893 225.411 308.941 223.357 311.451 223.357H333.671C336.181 223.357 338.23 225.411 338.23 227.927V237.268C338.211 239.802 336.181 241.837 333.671 241.837ZM311.451 224.319C309.458 224.319 307.815 225.947 307.815 227.964V237.305C307.815 239.303 309.439 240.949 311.451 240.949H333.671C335.665 240.949 337.307 239.322 337.307 237.305V227.964C337.307 225.966 335.683 224.319 333.671 224.319H311.451Z" fill="white"/>
<path d="M295.765 293.32L486.408 264.74C523.503 259.079 556.944 287.881 556.944 325.525C556.944 359.489 529.501 386.996 495.617 386.996H297.02L295.765 293.32Z" fill="#0096A0"/>
<path d="M270.001 403.754L155.265 425.953C140.648 429.06 125.958 416.851 125.312 401.054L123.614 359.081C122.746 337.826 143.066 325.043 162.222 334.145L270.001 403.754Z" fill="white"/>
<path d="M150.651 426.988C145.299 426.988 139.91 425.12 135.37 421.568C128.947 416.574 125.072 409.1 124.758 401.072L123.06 359.099C122.857 353.938 123.835 349.147 125.994 344.874C128.006 340.878 131.051 337.456 134.761 334.996C142.752 329.705 153.105 329.206 162.462 333.645L162.517 333.682L271.459 404.032L155.357 426.489C153.807 426.822 152.238 426.988 150.651 426.988ZM149.433 331.758C144.413 331.758 139.541 333.164 135.351 335.939C127.84 340.934 123.743 349.35 124.149 359.081L125.847 401.054C126.161 408.749 129.87 415.908 136.034 420.717C141.663 425.102 148.621 426.822 155.117 425.435L268.525 403.495L161.945 334.644C157.867 332.702 153.604 331.758 149.433 331.758Z" fill="#FE5244"/>
<path d="M158.66 425.435C153.456 425.435 148.215 423.604 143.786 420.163C137.511 415.279 133.727 408.01 133.377 400.166L131.605 359.414C131.181 349.591 135.259 341.082 142.844 336.051C150.54 330.945 160.58 330.482 169.66 334.83L169.18 335.828C160.451 331.648 150.835 332.073 143.453 336.975C136.219 341.785 132.306 349.943 132.712 359.359L134.484 400.111C134.816 407.621 138.452 414.595 144.468 419.275C149.913 423.511 156.63 425.195 162.905 423.881L163.127 424.973C161.65 425.287 160.155 425.435 158.66 425.435Z" fill="#FE5244"/>
<path d="M162.204 334.125L270.001 403.753L245.419 408.489L162.204 334.125Z" fill="#FE5244"/>
<path d="M159.768 397.301L158.753 396.857L174.994 359.435C175.086 359.231 175.289 359.102 175.51 359.102C175.732 359.102 175.935 359.231 176.009 359.435L189.592 391.64L203.249 364.374L204.245 364.873L190.053 393.213C189.961 393.398 189.758 393.527 189.536 393.527C189.315 393.527 189.13 393.379 189.038 393.194L175.492 361.062L159.768 397.301Z" fill="#FE5244"/>
<path d="M174.366 394.784H174.348C174.126 394.784 173.942 394.636 173.849 394.433L157.941 354.661L158.974 354.254L174.403 392.86L189.407 362.227C189.499 362.042 189.702 361.912 189.905 361.912C190.127 361.912 190.311 362.042 190.404 362.245L202.474 388.735L201.458 389.198L189.869 363.781L174.828 394.488C174.772 394.655 174.569 394.784 174.366 394.784Z" fill="#FE5244"/>
<path d="M359.103 351.719C352.736 346.484 334.336 358.397 317.984 378.32C301.633 398.243 293.531 418.665 299.88 423.9C298.938 423.327 179.422 348.205 105.251 296.927C86.3893 283.904 76.4419 263.038 76.4419 241.913C76.4419 227.188 81.2956 212.352 91.3169 199.94C116.453 168.862 163.016 166.772 190.846 195.463L359.103 351.719Z" fill="#3FB1B5"/>
<path d="M340.934 397.281C357.282 377.358 365.378 356.957 359.018 351.714C352.657 346.47 334.249 358.37 317.901 378.292C301.553 398.215 293.457 418.616 299.817 423.859C306.178 429.103 324.586 417.203 340.934 397.281Z" fill="#FE5244"/>
<path d="M303.754 425.64C302.038 425.64 300.599 425.196 299.491 424.29C296.206 421.589 296.335 415.226 299.86 406.383C303.293 397.726 309.568 387.626 317.504 377.951C325.439 368.277 334.132 360.156 341.938 355.106C349.929 349.945 356.13 348.594 359.397 351.295C362.682 353.996 362.553 360.359 359.028 369.201C355.595 377.859 349.32 387.959 341.385 397.634C333.449 407.308 324.756 415.429 316.95 420.479C311.672 423.901 307.15 425.64 303.754 425.64ZM355.152 351.036C351.996 351.036 347.641 352.738 342.547 356.031C334.833 361.025 326.233 369.053 318.371 378.636C310.491 388.236 304.29 398.225 300.894 406.772C297.627 415.022 297.369 421.09 300.211 423.42C303.053 425.751 308.94 424.345 316.378 419.536C324.092 414.541 332.692 406.513 340.554 396.931C348.435 387.33 354.636 377.341 358.031 368.795C361.298 360.544 361.556 354.477 358.714 352.146C357.81 351.406 356.61 351.036 355.152 351.036Z" fill="white"/>
<path d="M411.738 417.296L390.459 453.498C379.663 471.83 355.283 472.163 344.118 454.108L308.296 396.282C311.36 391.195 315.143 385.886 319.498 380.577C327.379 370.976 335.739 363.244 343.01 358.379L400.019 380.115C413.971 385.461 419.71 403.682 411.738 417.296Z" fill="white"/>
<path d="M367.076 468.001C362.61 468.001 358.18 466.854 354.25 464.671C349.968 462.303 346.388 458.844 343.638 454.386L307.65 396.264L307.834 395.968C310.935 390.825 314.718 385.516 319.092 380.188C326.714 370.884 335.111 362.966 342.715 357.879L342.955 357.713L343.213 357.805L400.222 379.541C406.736 382.038 411.885 387.532 414.358 394.58C417.034 402.257 416.259 410.618 412.199 417.537L390.92 453.738C388.244 458.27 384.738 461.841 380.475 464.319C376.47 466.65 371.948 467.908 367.353 467.964C367.279 468.001 367.187 468.001 367.076 468.001ZM308.96 396.264L344.597 453.812C347.236 458.104 350.669 461.415 354.803 463.709C358.66 465.836 362.997 466.946 367.371 466.891C371.764 466.835 376.101 465.633 379.939 463.394C384.036 461.008 387.414 457.567 389.997 453.202L411.276 417C415.152 410.378 415.909 402.35 413.343 394.987C410.981 388.235 406.072 383 399.853 380.614L343.103 358.971C335.647 364.002 327.434 371.772 319.96 380.891C315.678 386.108 311.987 391.269 308.96 396.264Z" fill="#FE5244"/>
<path d="M362.241 461.766C358.033 461.766 353.862 460.675 350.134 458.585C346.074 456.309 342.697 452.98 340.094 448.707L341.036 448.133C343.546 452.24 346.794 455.421 350.669 457.604C354.305 459.639 358.402 460.694 362.518 460.638C366.652 460.583 370.73 459.417 374.329 457.29C378.186 454.996 381.36 451.703 383.76 447.523L403.821 412.801C407.604 406.234 408.397 398.15 405.943 391.176C403.784 385.053 399.484 380.484 393.799 378.264L394.205 377.229C400.185 379.559 404.725 384.369 406.976 390.806C409.542 398.076 408.711 406.512 404.78 413.356L384.719 448.078C382.209 452.425 378.906 455.847 374.883 458.233C371.118 460.472 366.855 461.692 362.536 461.748C362.444 461.748 362.333 461.766 362.241 461.766Z" fill="#FE5244"/>
<path d="M344.339 417.166C344.228 417.166 344.117 417.129 344.007 417.055C343.822 416.925 343.748 416.685 343.804 416.481L352.219 382.629L324.296 396.799L323.798 395.8L352.791 381.075C352.976 380.983 353.216 381.001 353.382 381.131C353.548 381.26 353.622 381.482 353.567 381.704L345.188 415.408L378.703 394.801L379.275 395.745L344.597 417.073C344.542 417.147 344.45 417.166 344.339 417.166Z" fill="#FE5244"/>
<path d="M355.892 430.781L354.803 430.54L363.569 390.88L335.037 404.975C334.853 405.068 334.631 405.049 334.465 404.92C334.299 404.79 334.207 404.587 334.244 404.383L338.784 377.283L339.873 377.468L335.517 403.495L364.123 389.363C364.307 389.27 364.547 389.289 364.713 389.418C364.879 389.548 364.953 389.77 364.916 389.973L355.892 430.781Z" fill="#FE5244"/>
<path d="M377.964 58.7768C377.816 61.2 376.746 63.3644 375.085 64.9182C373.424 66.4721 371.227 67.4155 368.791 67.4155H360.431L359.896 76.2578C359.435 83.5461 352.219 90.9825 344.67 90.9825H323.502C316.009 90.9825 308.738 83.5461 308.277 76.2578L307.741 67.4155H299.271C296.853 67.4155 294.62 66.4721 292.977 64.9182C291.316 63.3644 290.246 61.2 290.098 58.7398C289.803 53.4307 294.14 49.0281 299.455 49.0281H306.616L305.822 35.5612C305.674 32.7125 307.908 30.3262 310.75 30.3262H357.46C360.302 30.3262 362.535 32.7125 362.387 35.5612L361.594 49.0281H368.828C374.07 49.0651 378.259 53.5047 377.964 58.7768Z" fill="#A0505A"/>
<path d="M361.576 49.0289H369.179C369.179 49.0289 376.451 22.5761 369.438 15.7872C362.443 8.99826 319.424 -6.63292 305.527 3.11576C295.377 10.2562 300.913 49.0289 300.913 49.0289H306.524C306.524 49.0289 329.132 32.7873 332.675 34.1931C336.237 35.599 322.451 42.4249 325.219 43.7568C335.554 48.7329 354.138 30.6969 358.42 30.6969C362.702 30.6969 361.576 49.0289 361.576 49.0289Z" fill="#73325A"/>
<path d="M351.998 55.9648C351.924 55.9648 351.832 55.9463 351.758 55.8908C351.703 55.8538 346.886 52.0431 340.814 54.5404C340.629 54.6144 340.408 54.5219 340.334 54.3369C340.26 54.152 340.353 53.93 340.537 53.856C347.033 51.1922 352.182 55.2804 352.238 55.3174C352.404 55.4468 352.422 55.6873 352.293 55.8353C352.201 55.9278 352.09 55.9648 351.998 55.9648Z" fill="#73325A"/>
<path d="M351.998 56.3363C351.832 56.3363 351.666 56.2808 351.536 56.1698C351.499 56.1328 346.812 52.4702 340.962 54.8749C340.592 55.0229 340.15 54.8565 340.002 54.468C339.854 54.098 340.02 53.6541 340.408 53.5061C347.107 50.7498 352.422 54.9674 352.478 55.0229C352.625 55.1524 352.718 55.3189 352.754 55.5224C352.773 55.7259 352.718 55.9109 352.588 56.0588C352.422 56.2438 352.219 56.3363 351.998 56.3363ZM351.961 55.5779C351.979 55.5964 351.998 55.5964 351.998 55.5964C351.998 55.5964 351.979 55.5964 351.961 55.5779Z" fill="#73325A"/>
<path d="M335.259 81.2709C333.967 81.2709 332.472 81.0119 330.737 80.3829C330.553 80.309 330.442 80.1055 330.516 79.902C330.59 79.717 330.793 79.606 330.996 79.68C334.262 80.8824 337.123 80.8084 339.264 79.4395C340.869 78.4221 341.515 77.0717 341.515 77.0532C341.608 76.8682 341.829 76.7942 342.014 76.8682C342.198 76.9607 342.272 77.1827 342.198 77.3677C342.161 77.4232 340.297 81.2709 335.259 81.2709Z" fill="#73325A"/>
<path d="M335.259 81.6408C333.82 81.6408 332.251 81.3264 330.608 80.7344C330.424 80.6604 330.276 80.5309 330.184 80.3459C330.11 80.161 330.092 79.9575 330.165 79.7725C330.239 79.5875 330.368 79.4395 330.553 79.347C330.738 79.273 330.94 79.2545 331.125 79.3285C334.281 80.4939 337.012 80.4199 339.061 79.1251C340.556 78.1816 341.183 76.9052 341.183 76.8867C341.257 76.7018 341.423 76.5723 341.608 76.4983C341.792 76.4243 341.995 76.4428 342.18 76.5168C342.549 76.6833 342.715 77.1272 342.53 77.4972C342.493 77.5897 340.537 81.6408 335.259 81.6408ZM330.867 80.0315C332.546 80.6419 334.133 80.9379 335.554 80.9009C334.115 80.9379 332.546 80.6604 330.867 80.0315Z" fill="#73325A"/>
<path d="M332.822 76.0717C332.01 76.0717 331.161 76.0532 330.423 75.9977C329.021 75.9052 328.725 72.853 328.356 67.4699C328.116 64.0292 327.839 60.1261 327.009 58.4057C324.148 52.5232 314.459 54.595 314.367 54.6135C314.164 54.6505 313.98 54.5395 313.924 54.336C313.869 54.1326 313.998 53.9476 314.201 53.8921C314.312 53.8736 316.803 53.3186 319.701 53.5406C323.613 53.8366 326.363 55.409 327.673 58.0727C328.559 59.9041 328.836 63.7148 329.094 67.3959C329.242 69.5048 329.39 71.5026 329.63 73.001C329.98 75.1098 330.405 75.2393 330.479 75.2393C332.582 75.3873 335.812 75.2393 335.849 75.2393C336.052 75.2208 336.218 75.3873 336.237 75.5908C336.255 75.7942 336.089 75.9607 335.886 75.9792C335.794 75.9977 334.391 76.0717 332.822 76.0717Z" fill="#73325A"/>
<path d="M332.822 76.4435C331.881 76.4435 331.05 76.425 330.404 76.3695C328.688 76.24 328.393 73.2433 327.987 67.4903C327.747 64.0866 327.47 60.2204 326.677 58.574C323.945 52.969 314.533 54.9669 314.441 54.9853C314.256 55.0223 314.053 54.9853 313.887 54.8929C313.721 54.7819 313.61 54.6154 313.555 54.4304C313.499 54.2454 313.555 54.0419 313.647 53.8754C313.758 53.709 313.924 53.598 314.108 53.5425C314.219 53.524 316.766 52.969 319.719 53.191C323.779 53.5055 326.64 55.1333 327.987 57.9266C328.91 59.8319 329.168 63.6796 329.445 67.3978C329.592 69.5066 329.74 71.486 329.98 72.9658C330.22 74.4272 330.478 74.8157 330.552 74.9082C332.619 75.0377 335.775 74.9082 335.812 74.9082C336.015 74.8897 336.199 74.9637 336.347 75.0932C336.495 75.2226 336.587 75.4076 336.587 75.6111C336.605 76.0181 336.292 76.3695 335.886 76.388C335.738 76.388 334.354 76.4435 332.822 76.4435ZM330.441 75.6296C331.106 75.6851 331.899 75.7036 332.822 75.7036C334.335 75.7036 335.683 75.6481 335.867 75.6296C335.72 75.6481 332.545 75.7776 330.441 75.6296ZM327.378 58.3151C328.208 60.1279 328.485 64.0126 328.725 67.4348C328.743 67.6938 328.762 67.9712 328.78 68.2302C328.762 67.9712 328.743 67.6938 328.725 67.4348C328.467 63.8461 328.208 60.1279 327.378 58.3151ZM318.242 53.8939C320.882 53.8939 324.203 54.4119 326.27 56.6687C324.831 55.0963 322.579 54.1529 319.682 53.9309C316.84 53.709 314.385 54.2454 314.293 54.2639C314.33 54.2639 316.028 53.8939 318.242 53.8939Z" fill="#73325A"/>
<path d="M345.206 65.9175C346.184 65.9175 346.978 64.5924 346.978 62.9578C346.978 61.3232 346.184 59.998 345.206 59.998C344.227 59.998 343.434 61.3232 343.434 62.9578C343.434 64.5924 344.227 65.9175 345.206 65.9175Z" fill="#73325A"/>
<path d="M322.192 65.9175C323.171 65.9175 323.964 64.5924 323.964 62.9578C323.964 61.3232 323.171 59.998 322.192 59.998C321.214 59.998 320.42 61.3232 320.42 62.9578C320.42 64.5924 321.214 65.9175 322.192 65.9175Z" fill="#73325A"/>
<path d="M304.789 60.5157C304.605 60.5157 304.439 60.3678 304.42 60.1643C304.199 56.6496 301.283 53.9118 297.776 53.9118C297.573 53.9118 297.407 53.7453 297.407 53.5418C297.407 53.3384 297.573 53.1719 297.776 53.1719C301.67 53.1719 304.918 56.2241 305.14 60.1273C305.158 60.3308 304.992 60.5157 304.789 60.5157Z" fill="#73325A"/>
<path d="M304.789 60.8865C304.402 60.8865 304.069 60.5906 304.051 60.1836C303.848 56.8724 301.098 54.2826 297.776 54.2826C297.37 54.2826 297.038 53.9496 297.038 53.5427C297.038 53.1357 297.37 52.8027 297.776 52.8027C301.873 52.8027 305.269 56.003 305.509 60.0911C305.527 60.2946 305.454 60.4796 305.324 60.6276C305.195 60.7756 305.011 60.868 304.808 60.868C304.808 60.8865 304.808 60.8865 304.789 60.8865ZM302.242 55.1705C303.7 56.3729 304.66 58.1488 304.789 60.1651V60.5351V60.1651C304.66 58.1488 303.7 56.3729 302.242 55.1705Z" fill="#73325A"/>
<path d="M362.887 60.7196H362.868C362.665 60.7011 362.518 60.5346 362.518 60.3311C362.757 56.206 366.153 52.9688 370.269 52.9688C370.472 52.9688 370.638 53.1352 370.638 53.3387C370.638 53.5422 370.472 53.7087 370.269 53.7087C366.559 53.7087 363.477 56.6314 363.256 60.3866C363.256 60.5531 363.09 60.7196 362.887 60.7196Z" fill="#73325A"/>
<path d="M362.886 61.0904C362.868 61.0904 362.849 61.0904 362.849 61.0904C362.443 61.0719 362.13 60.7204 362.148 60.3135C362.406 55.9848 365.968 52.5996 370.268 52.5996C370.674 52.5996 371.007 52.9326 371.007 53.3395C371.007 53.7465 370.674 54.0795 370.268 54.0795C366.743 54.0795 363.827 56.8543 363.624 60.4059C363.606 60.7759 363.292 61.0904 362.886 61.0904ZM362.886 60.3505V60.7204V60.3505Z" fill="#73325A"/>
<path d="M533.191 421.311C533.191 421.311 577.189 342.193 550.466 341.749C537.99 341.545 525.237 384.351 530.073 421.311H533.191Z" fill="#3FB1B5"/>
<path d="M531.29 421.439C531.253 421.439 531.216 421.439 531.16 421.42C530.865 421.346 530.68 421.051 530.736 420.755C530.754 420.644 533.338 409.119 538.745 396.059C541.92 388.382 545.463 381.686 549.228 376.136C553.971 369.181 559.12 364.038 564.546 360.857C571.633 356.695 579.255 355.825 587.209 358.23C594.665 360.487 598.891 364.279 599.814 369.514C600.589 373.972 598.928 379.485 594.868 385.904C591.657 390.972 586.932 396.633 580.842 402.737C570.488 413.096 559.6 421.236 559.489 421.328C559.249 421.513 558.899 421.457 558.714 421.217C558.529 420.977 558.585 420.625 558.825 420.44C558.935 420.366 569.769 412.264 580.067 401.96C589.497 392.526 600.386 379.263 598.725 369.718C597.895 364.926 593.908 361.43 586.895 359.303C579.236 356.991 571.91 357.842 565.118 361.819C559.84 364.926 554.802 369.958 550.151 376.765C546.423 382.241 542.916 388.882 539.76 396.485C534.39 409.452 531.843 420.884 531.806 420.995C531.769 421.254 531.529 421.439 531.29 421.439Z" fill="#FFCF2D"/>
<path d="M478.49 422.716C478.471 422.716 478.453 422.716 478.434 422.716C474.946 422.383 471.68 420.626 469.004 417.592C466.512 414.78 464.741 411.099 464.002 407.196C463.264 403.33 463.596 399.537 464.944 396.226C466.457 392.545 469.244 389.585 473.027 387.68C477.733 385.294 482.144 384.221 486.13 384.48C489.028 384.665 491.648 385.534 493.955 387.069C494.103 383.703 494.823 380.669 496.114 378.283C498.477 373.843 502.703 371.623 508.313 371.845C513.093 372.049 517.19 374.805 520.494 380.04C523.096 384.147 525.2 389.807 526.787 396.837C529.463 408.768 529.685 420.755 529.685 420.866C529.685 421.181 529.445 421.421 529.131 421.421C528.836 421.421 528.577 421.181 528.577 420.866C528.577 420.755 528.356 408.861 525.698 397.04C524.148 390.14 522.081 384.609 519.553 380.595C516.452 375.693 512.65 373.122 508.277 372.937C503.054 372.715 499.289 374.675 497.111 378.782C495.819 381.205 495.118 384.35 495.063 387.846C495.081 387.865 495.099 387.883 495.118 387.883C497.259 389.604 499.012 391.971 500.101 394.561C501.042 396.818 501.374 399.075 501.005 400.555C500.747 401.535 500.175 402.164 499.4 402.294C498.846 402.386 497.978 402.238 497.037 400.943C495.598 398.964 494.435 395.042 494.084 390.954C494.011 390.085 493.974 389.234 493.974 388.401C490.19 385.59 483.694 383.555 473.581 388.66C470 390.473 467.453 393.155 466.032 396.652C464.759 399.741 464.464 403.33 465.147 406.992C465.848 410.692 467.527 414.207 469.89 416.852C472.381 419.664 475.389 421.31 478.6 421.606C478.896 421.643 479.136 421.902 479.099 422.216C479.006 422.494 478.767 422.716 478.49 422.716ZM495.044 389.345C495.063 389.844 495.099 390.362 495.136 390.88C495.469 394.783 496.557 398.501 497.886 400.314C498.348 400.962 498.827 401.295 499.16 401.239C499.51 401.184 499.75 400.869 499.898 400.314C500.488 397.983 498.92 392.859 495.044 389.345Z" fill="#FFCF2D"/>
<path d="M547.808 421.441C547.734 421.441 547.661 421.422 547.605 421.404C547.328 421.293 547.181 420.96 547.31 420.682C547.365 420.553 552.662 407.715 560.395 393.786C564.935 385.591 569.438 378.635 573.738 373.104C579.145 366.149 584.294 361.432 589.037 359.064C589.314 358.935 589.646 359.046 589.776 359.305C589.905 359.582 589.794 359.915 589.536 360.044C583.778 362.912 574.199 371.199 561.373 394.304C553.659 408.177 548.38 420.96 548.343 421.089C548.233 421.311 548.03 421.441 547.808 421.441Z" fill="#FFCF2D"/>
<path d="M524.886 394.432C524.831 394.154 519.94 366.721 519.737 348.833L520.845 348.814C520.955 358.119 522.34 369.958 523.484 378.264C524.72 387.273 525.957 394.154 525.975 394.228L524.886 394.432Z" fill="#FFCF2D"/>
<path d="M522.487 370.57L522.358 369.589C522.229 368.59 521.158 359.767 522.155 357.288C522.672 355.974 523.687 354.957 524.979 354.42C526.271 353.866 527.71 353.866 529.002 354.402C531.696 355.493 533.007 358.583 531.936 361.283C530.94 363.781 524.056 369.33 523.262 369.959L522.487 370.57ZM527.027 355.105C526.474 355.105 525.938 355.216 525.422 355.438C524.407 355.863 523.613 356.677 523.207 357.695C522.524 359.378 523.022 365.316 523.355 368.442C525.772 366.444 530.238 362.523 530.903 360.839C531.77 358.694 530.718 356.252 528.596 355.401C528.079 355.197 527.562 355.105 527.027 355.105Z" fill="#FFCF2D"/>
<path d="M519.977 351.257L519.848 350.277C519.719 349.278 518.649 340.454 519.645 337.975C520.162 336.662 521.177 335.644 522.469 335.108C523.761 334.553 525.2 334.553 526.492 335.09C529.223 336.236 530.515 339.252 529.426 341.971C528.43 344.468 521.546 350.018 520.752 350.647L519.977 351.257ZM524.517 335.792C523.964 335.792 523.428 335.903 522.912 336.125C521.897 336.551 521.103 337.365 520.697 338.382C520.014 340.066 520.513 346.004 520.845 349.13C523.262 347.132 527.729 343.21 528.393 341.527C529.26 339.381 528.245 336.995 526.068 336.088C525.569 335.903 525.034 335.792 524.517 335.792Z" fill="#FFCF2D"/>
<path d="M522.118 370.81L521.25 370.347C520.364 369.885 512.539 365.741 511.1 363.484C509.513 361.024 510.177 357.805 512.632 356.177C515.086 354.586 518.353 355.289 519.921 357.713C521.361 359.951 521.988 368.793 522.062 369.792L522.118 370.81ZM512.023 362.874C513.001 364.391 518.131 367.387 520.881 368.886C520.623 365.759 519.977 359.84 518.999 358.323C517.762 356.399 515.178 355.863 513.241 357.102C511.303 358.397 510.768 360.931 512.023 362.874Z" fill="#FFCF2D"/>
</svg>
