<svg width="308" height="234" viewBox="0 0 308 234" fill="none" xmlns="http://www.w3.org/2000/svg">
<g clip-path="url(#clip0_2396_1626)">
<path d="M15.4873 181.654H233.023C241.205 181.654 247.819 175.068 247.819 166.922V15.42C247.819 7.27354 241.205 0.6875 233.023 0.6875H15.4873C7.3058 0.6875 0.691467 7.27354 0.691467 15.42V166.899C0.668427 175.045 7.3058 181.654 15.4873 181.654Z" fill="white"/>
<path d="M15.4874 182.344H233.023C241.574 182.344 248.511 175.436 248.511 166.923V15.421C248.511 6.90731 241.574 0 233.023 0H15.4874C6.93709 0 9.15527e-05 6.90731 9.15527e-05 15.421V166.9C-0.0229492 171.008 1.59027 174.886 4.51718 177.8C7.44409 180.737 11.339 182.344 15.4874 182.344ZM233.023 1.37687C240.79 1.37687 247.128 7.68754 247.128 15.421V166.923C247.128 174.656 240.79 180.967 233.023 180.967H15.4874C11.7077 180.967 8.15852 179.498 5.48512 176.836C2.83478 174.174 1.35985 170.64 1.38289 166.9V15.421C1.38289 7.68754 7.72067 1.37687 15.4874 1.37687H233.023Z" fill="#3FB1B5"/>
<path d="M15.3486 167.568H230.788C233.991 167.568 236.572 164.975 236.572 161.808V16.8693C236.572 13.6795 233.968 11.1094 230.788 11.1094H15.3486C12.1452 11.1094 9.56401 13.7025 9.56401 16.8693V161.785C9.54097 164.975 12.1452 167.568 15.3486 167.568Z" fill="#66B0F0"/>
<path d="M15.3487 168.255H230.788C234.36 168.255 237.264 165.364 237.264 161.807V16.8683C237.264 13.3113 234.36 10.4199 230.788 10.4199H15.3487C11.7765 10.4199 8.87267 13.3113 8.87267 16.8683V161.784C8.84962 163.505 9.51794 165.134 10.7394 166.351C11.9839 167.567 13.5972 168.255 15.3487 168.255ZM230.788 11.7968C233.599 11.7968 235.881 14.0686 235.881 16.8683V161.807C235.881 164.607 233.599 166.878 230.788 166.878H15.3487C13.989 166.878 12.6984 166.351 11.7304 165.387C10.7625 164.423 10.2555 163.161 10.2555 161.807V16.8683C10.2555 14.0686 12.537 11.7968 15.3487 11.7968H230.788Z" fill="#66B0F0"/>
<path d="M223.067 25.3354H226.478C227.976 25.3354 229.198 24.1192 229.198 22.6276V19.2313C229.198 17.7397 227.976 16.5234 226.478 16.5234H223.067C221.569 16.5234 220.348 17.7397 220.348 19.2313V22.6276C220.371 24.1421 221.569 25.3354 223.067 25.3354ZM226.478 17.9003C227.216 17.9003 227.815 18.497 227.815 19.2313V22.6276C227.815 23.3619 227.216 23.9586 226.478 23.9586H223.067C222.33 23.9586 221.753 23.3619 221.73 22.6046V19.2313C221.73 18.497 222.33 17.9003 223.067 17.9003H226.478Z" fill="white"/>
<path d="M207.557 25.3354H210.968C212.466 25.3354 213.688 24.1192 213.688 22.6276V19.2313C213.688 17.7397 212.466 16.5234 210.968 16.5234H207.557C206.059 16.5234 204.838 17.7397 204.838 19.2313V22.6276C204.838 24.1192 206.059 25.3354 207.557 25.3354ZM210.968 17.9003C211.705 17.9003 212.305 18.497 212.305 19.2313V22.6276C212.305 23.3619 211.705 23.9586 210.968 23.9586H207.557C206.82 23.9586 206.22 23.3619 206.22 22.6276V19.2313C206.22 18.497 206.82 17.9003 207.557 17.9003H210.968Z" fill="white"/>
<path d="M192.047 25.3354H195.458C196.956 25.3354 198.177 24.1192 198.177 22.6276V19.2313C198.177 17.7397 196.956 16.5234 195.458 16.5234H192.047C190.549 16.5234 189.327 17.7397 189.327 19.2313V22.6276C189.327 24.1192 190.549 25.3354 192.047 25.3354ZM195.458 17.9003C196.195 17.9003 196.794 18.497 196.794 19.2313V22.6276C196.794 23.3619 196.195 23.9586 195.458 23.9586H192.047C191.286 23.9586 190.71 23.3848 190.71 22.6276V19.2313C190.71 18.497 191.309 17.9003 192.047 17.9003H195.458Z" fill="white"/>
<path d="M53.9129 25.3354H57.3237C58.8218 25.3354 60.0432 24.1192 60.0432 22.6276V19.2313C60.0432 17.7397 58.8218 16.5234 57.3237 16.5234H53.9129C52.4148 16.5234 51.1934 17.7397 51.1934 19.2313V22.6276C51.2164 24.1421 52.4148 25.3354 53.9129 25.3354ZM57.3237 17.9003C58.0612 17.9003 58.6604 18.497 58.6604 19.2313V22.6276C58.6604 23.3619 58.0612 23.9586 57.3237 23.9586H53.9129C53.1754 23.9586 52.5992 23.3619 52.5762 22.6046V19.2313C52.5762 18.497 53.1754 17.9003 53.9129 17.9003H57.3237Z" fill="white"/>
<path d="M38.4028 25.3354H41.8137C43.3117 25.3354 44.5332 24.1192 44.5332 22.6276V19.2313C44.5332 17.7397 43.3117 16.5234 41.8137 16.5234H38.4028C36.9048 16.5234 35.6833 17.7397 35.6833 19.2313V22.6276C35.6833 24.1192 36.9048 25.3354 38.4028 25.3354ZM41.8137 17.9003C42.5512 17.9003 43.1504 18.497 43.1504 19.2313V22.6276C43.1504 23.3619 42.5512 23.9586 41.8137 23.9586H38.4028C37.6653 23.9586 37.0661 23.3619 37.0661 22.6276V19.2313C37.0661 18.497 37.6653 17.9003 38.4028 17.9003H41.8137Z" fill="white"/>
<path d="M22.8923 25.3354H26.3032C27.8012 25.3354 29.0227 24.1192 29.0227 22.6276V19.2313C29.0227 17.7397 27.8012 16.5234 26.3032 16.5234H22.8923C21.3943 16.5234 20.1729 17.7397 20.1729 19.2313V22.6276C20.1729 24.1192 21.3943 25.3354 22.8923 25.3354ZM26.3032 17.9003C27.0407 17.9003 27.6399 18.497 27.6399 19.2313V22.6276C27.6399 23.3619 27.0407 23.9586 26.3032 23.9586H22.8923C22.1318 23.9586 21.5556 23.3848 21.5556 22.6276V19.2313C21.5556 18.497 22.1548 17.9003 22.8923 17.9003H26.3032Z" fill="white"/>
<path d="M78.3349 233.312H162.777L146.207 181.656H94.9284L78.3349 233.312Z" fill="white"/>
<path d="M77.3901 233.999H163.722L146.714 180.967H94.4215L77.3901 233.999ZM161.833 232.622H79.28L95.4355 182.344H145.7L161.833 232.622Z" fill="#3FB1B5"/>
<path d="M156.14 212.636L146.207 181.656H94.9283L156.14 212.636Z" fill="#3FB1B5"/>
<path d="M28.0247 59.3208H69.0705C73.288 59.3208 76.7219 55.9016 76.7219 51.7021V25.3121C76.7219 21.1126 73.288 17.6934 69.0705 17.6934H28.0247C23.8071 17.6934 20.3732 21.1126 20.3732 25.3121V51.7021C20.3732 55.9016 23.8071 59.3208 28.0247 59.3208ZM69.0705 19.0702C72.5275 19.0702 75.3391 21.8699 75.3391 25.3121V51.7021C75.3391 55.1443 72.5275 57.9439 69.0705 57.9439H28.0247C24.5677 57.9439 21.756 55.1443 21.756 51.7021V25.3121C21.756 21.8699 24.5677 19.0702 28.0247 19.0702H69.0705Z" fill="white"/>
<path d="M32.9791 28.4765H64.2993C64.6911 28.4765 64.9907 28.1782 64.9907 27.788C64.9907 27.3979 64.6911 27.0996 64.2993 27.0996H32.9791C32.5873 27.0996 32.2877 27.3979 32.2877 27.788C32.2877 28.1782 32.5873 28.4765 32.9791 28.4765Z" fill="white"/>
<path d="M32.9791 35.5898H64.2993C64.6911 35.5898 64.9907 35.2914 64.9907 34.9013C64.9907 34.5112 64.6911 34.2129 64.2993 34.2129H32.9791C32.5873 34.2129 32.2877 34.5112 32.2877 34.9013C32.2877 35.2914 32.5873 35.5898 32.9791 35.5898Z" fill="white"/>
<path d="M32.9791 42.705H64.2993C64.6911 42.705 64.9907 42.4067 64.9907 42.0166C64.9907 41.6264 64.6911 41.3281 64.2993 41.3281H32.9791C32.5873 41.3281 32.2877 41.6264 32.2877 42.0166C32.2877 42.4067 32.5873 42.705 32.9791 42.705Z" fill="white"/>
<path d="M32.9791 49.8202H64.2993C64.6911 49.8202 64.9907 49.5219 64.9907 49.1318C64.9907 48.7417 64.6911 48.4434 64.2993 48.4434H32.9791C32.5873 48.4434 32.2877 48.7417 32.2877 49.1318C32.2877 49.5219 32.5873 49.8202 32.9791 49.8202Z" fill="white"/>
<path d="M16.5484 167.567H179.695L189.259 181.221C200.068 196.642 222.907 196.871 234.015 181.657L292.277 101.867C289.834 104.896 278.657 101.523 268.009 94.5467C257.2 87.4558 250.217 78.5291 252.407 75.2246L212.006 126.49L199.63 104.736C196.242 98.9756 190.619 94.845 184.074 93.3305L141.968 84.4496H105.669L65.6606 93.2387C58.7005 94.8221 52.8006 99.3428 49.4589 105.608L16.5484 167.567Z" fill="white"/>
<path d="M211.798 193.613C220.901 193.613 229.198 189.414 234.568 182.047L292.83 102.258L291.723 101.432C289.764 103.841 279.37 101.179 268.377 93.9735C263.261 90.6231 258.813 86.7449 255.863 83.0274C253.19 79.677 252.106 76.9003 252.982 75.5922L251.853 74.7891L212.098 125.251L200.229 104.392C196.749 98.4713 190.918 94.203 184.234 92.6655L142.036 83.7617H105.6L105.53 83.7846L65.5217 92.5737C58.3772 94.203 52.293 98.8384 48.8591 105.287L15.4185 168.256H179.348L188.705 181.611C193.983 189.138 202.303 193.521 211.544 193.613C211.614 193.613 211.706 193.613 211.798 193.613ZM290.156 103.589L233.439 181.244C228.276 188.312 220.302 192.328 211.521 192.236C202.741 192.144 194.836 187.991 189.812 180.831L180.04 166.879H17.6771L50.0575 105.929C53.307 99.8252 59.0456 95.4421 65.7982 93.9046L105.738 85.1385H141.898L183.935 93.9964C190.249 95.4651 195.758 99.5039 199.03 105.08L211.913 127.73L251.415 77.6116C251.738 79.3327 252.867 81.4898 254.803 83.8994C257.845 87.7087 262.408 91.7016 267.64 95.1209C274.945 99.894 283.726 103.657 288.958 103.657C289.373 103.657 289.787 103.635 290.156 103.589Z" fill="#3FB1B5"/>
<path d="M61.3276 167.316C61.5811 167.316 61.8116 167.178 61.9498 166.948L73.5422 144.161C73.7036 143.817 73.5883 143.404 73.2426 143.243C72.8969 143.083 72.4821 143.197 72.3208 143.542L60.7284 166.329C60.5671 166.673 60.6823 167.086 61.028 167.247C61.1202 167.293 61.2124 167.316 61.3276 167.316Z" fill="#3FB1B5"/>
<path d="M180.616 169.448C180.732 169.448 180.824 169.425 180.939 169.379C181.285 169.218 181.423 168.782 181.239 168.461L169.761 145.903C169.6 145.559 169.162 145.421 168.84 145.605C168.494 145.766 168.356 146.202 168.54 146.523L180.017 169.081C180.132 169.31 180.363 169.448 180.616 169.448Z" fill="#3FB1B5"/>
<path d="M201.428 140.764C201.635 140.764 201.843 140.672 201.981 140.488L228.277 107.007C228.507 106.709 228.461 106.273 228.162 106.044C227.862 105.814 227.424 105.86 227.194 106.158L200.898 139.639C200.667 139.938 200.713 140.374 201.013 140.603C201.128 140.718 201.289 140.764 201.428 140.764Z" fill="#3FB1B5"/>
<path d="M109.702 108.178L119.82 95.9012C120.073 95.6029 120.027 95.1669 119.728 94.9374C119.428 94.685 118.99 94.7309 118.76 95.0292L109.518 106.205L88.3844 88.3514C88.0848 88.0989 87.6469 88.1449 87.4164 88.4202C87.1629 88.7186 87.209 89.1545 87.4855 89.384L109.702 108.178Z" fill="#3FB1B5"/>
<path d="M135.975 108.613L160.335 89.4053C160.635 89.1758 160.681 88.7398 160.451 88.4415C160.22 88.1432 159.782 88.0973 159.483 88.3268L136.229 106.662L127.264 95.257C127.033 94.9587 126.595 94.9128 126.296 95.1423C125.996 95.3717 125.95 95.8078 126.181 96.1061L135.975 108.613Z" fill="#3FB1B5"/>
<path d="M281.192 114.259C283.381 114.259 284.533 113.593 285.11 112.859C285.34 112.561 285.294 112.125 284.994 111.895C284.695 111.666 284.257 111.712 284.026 112.01C283.058 113.226 279.901 113.157 275.591 111.872C271.005 110.495 265.474 107.788 260.45 104.46C255.31 101.064 250.839 97.1398 247.866 93.3764C245.17 89.9801 244.087 87.1804 244.963 85.8495C245.17 85.5282 245.078 85.1151 244.755 84.8857C244.432 84.6791 244.018 84.7709 243.787 85.0922C242.543 86.9969 243.603 90.2325 246.76 94.2254C249.825 98.0807 254.412 102.12 259.666 105.585C264.875 109.027 270.383 111.735 275.177 113.18C277.781 113.961 279.74 114.259 281.192 114.259Z" fill="#3FB1B5"/>
<path d="M251.623 91.9772C253.443 91.9772 254.918 90.5085 254.918 88.6956C254.918 86.8827 253.443 85.4141 251.623 85.4141C249.802 85.4141 248.327 86.8827 248.327 88.6956C248.327 90.5085 249.802 91.9772 251.623 91.9772ZM251.623 86.7909C252.683 86.7909 253.536 87.64 253.536 88.6956C253.536 89.7512 252.683 90.6003 251.623 90.6003C250.563 90.6003 249.71 89.7512 249.71 88.6956C249.71 87.64 250.563 86.7909 251.623 86.7909Z" fill="#3FB1B5"/>
<path d="M123.023 108.27C124.844 108.27 126.319 106.801 126.319 104.989C126.319 103.176 124.844 101.707 123.023 101.707C121.203 101.707 119.728 103.176 119.728 104.989C119.728 106.801 121.203 108.27 123.023 108.27ZM123.023 103.084C124.083 103.084 124.936 103.933 124.936 104.989C124.936 106.044 124.083 106.893 123.023 106.893C121.963 106.893 121.11 106.044 121.11 104.989C121.11 103.933 121.963 103.084 123.023 103.084Z" fill="#3FB1B5"/>
<path d="M123.023 129.153C124.844 129.153 126.319 127.684 126.319 125.871C126.319 124.059 124.844 122.59 123.023 122.59C121.203 122.59 119.728 124.059 119.728 125.871C119.728 127.684 121.203 129.153 123.023 129.153ZM123.023 123.967C124.083 123.967 124.936 124.816 124.936 125.871C124.936 126.927 124.083 127.776 123.023 127.776C121.963 127.776 121.11 126.927 121.11 125.871C121.11 124.816 121.963 123.967 123.023 123.967Z" fill="#3FB1B5"/>
<path d="M190.088 182.322L179.694 167.566V182.322H190.088Z" fill="#3FB1B5"/>
<path d="M268.262 93.8568C278.909 100.833 290.087 104.206 292.53 101.177C292.576 101.131 292.599 101.085 292.645 101.017C293.152 100.259 293.106 99.2266 292.645 97.9645C291.055 93.8109 284.487 87.3855 276.144 81.9239C269.506 77.5638 262.961 74.5347 258.421 73.5938C255.794 73.066 253.835 73.2267 252.89 74.2364L252.659 74.5117C250.493 77.8162 257.453 86.7659 268.262 93.8568Z" fill="#FE5244"/>
<path d="M268.262 93.856C274.323 97.826 280.569 100.649 285.27 101.75L306.312 72.1932C309.239 68.0626 308.271 62.3486 304.1 59.4342L285.155 46.1703L295.895 27.9727C297.462 25.3337 296.563 21.9144 293.89 20.3769C293.014 19.8721 292.069 19.6426 291.124 19.6426C289.304 19.6426 287.506 20.5376 286.446 22.1898L252.867 74.1897L252.637 74.5569C250.493 77.8155 257.453 86.7651 268.262 93.856Z" fill="#E57281"/>
<path d="M279.209 72.5394C279.509 72.5394 279.808 72.5164 280.108 72.4476C281.26 72.2181 282.251 71.5297 282.873 70.5659L293.959 54.0434C294.166 53.7221 294.074 53.3091 293.774 53.0796C293.452 52.873 293.037 52.9648 292.806 53.2632L281.721 69.7856C281.283 70.4511 280.615 70.9101 279.831 71.0707C279.048 71.2313 278.241 71.0707 277.573 70.6347L274.968 68.9366C273.586 68.0416 273.194 66.2058 274.07 64.8289L285.8 46.723C286.008 46.4017 285.915 45.9887 285.593 45.7822C285.27 45.5756 284.855 45.6674 284.648 45.9887L272.917 64.0946C271.627 66.114 272.226 68.7989 274.231 70.084L276.835 71.7821C277.527 72.287 278.356 72.5394 279.209 72.5394Z" fill="#9A3B82"/>
<path d="M287.806 78.0234C289.234 78.0234 290.64 77.3349 291.493 76.0728C291.7 75.7515 291.608 75.3385 291.286 75.109C290.963 74.9025 290.548 74.9942 290.318 75.3155C289.419 76.6694 287.575 77.0596 286.192 76.1875L283.818 74.6959C283.15 74.2599 282.666 73.5944 282.505 72.7912C282.344 71.9881 282.482 71.1849 282.92 70.5194C283.127 70.1981 283.035 69.7851 282.712 69.5556C282.39 69.3491 281.975 69.4409 281.744 69.7621C281.099 70.7489 280.869 71.9192 281.122 73.0896C281.376 74.237 282.067 75.2237 283.058 75.8663L285.432 77.3579C286.169 77.7939 286.999 78.0234 287.806 78.0234Z" fill="#9A3B82"/>
<path d="M296.241 83.1634C297.623 83.1634 298.983 82.5208 299.836 81.3046L306.128 72.4697C306.358 72.1484 306.266 71.7353 305.966 71.5058C305.667 71.2763 305.229 71.3682 304.998 71.6665L298.707 80.5014C297.762 81.8094 295.987 82.1537 294.65 81.3046L294.604 81.2816L292.415 80.0654C291.724 79.6294 291.263 78.9639 291.078 78.1837C290.894 77.3805 291.055 76.5773 291.493 75.8889L302.348 59.8253C302.555 59.5041 302.486 59.091 302.164 58.8616C301.841 58.655 301.426 58.7239 301.196 59.0451L290.341 75.1087C289.672 76.1184 289.465 77.3117 289.718 78.459C289.972 79.6064 290.663 80.5932 291.677 81.2128L291.701 81.2357L293.89 82.452C294.65 82.9568 295.457 83.1634 296.241 83.1634Z" fill="#9A3B82"/>
<path d="M260.703 62.0741L266.211 53.5604C268.031 50.7378 271.834 49.9576 274.623 51.8393L288.289 61.0644C288.289 61.0644 284.325 68.1553 274.692 62.533L271.465 67.6504C278.057 71.804 279.946 80.5471 275.66 87.0414L260.703 62.0741Z" fill="#E57281"/>
<path d="M275.66 87.7293C275.891 87.7293 276.098 87.6145 276.236 87.408C278.403 84.1035 279.163 80.1564 278.31 76.3012C277.527 72.6754 275.43 69.5545 272.411 67.4433L274.923 63.4504C278.241 65.2633 281.26 65.7911 283.934 65.0797C287.322 64.1618 288.843 61.4998 288.912 61.408L289.211 60.8573L275.752 51.4946C274.231 50.4849 272.434 50.1177 270.659 50.4849C268.884 50.852 267.363 51.8847 266.372 53.4222L260.864 61.9358C260.657 62.2571 260.749 62.6702 261.072 62.8767C261.394 63.0832 261.809 62.9914 262.017 62.6702L267.525 54.1565C268.308 52.9403 269.507 52.1142 270.936 51.8388C272.341 51.5405 273.793 51.8388 274.969 52.642L287.345 61.2474C286.792 61.9588 285.547 63.2439 283.565 63.7717C281.122 64.4372 278.264 63.8176 275.061 61.9588L274.485 61.6146L270.544 67.8794L271.12 68.2465C274.139 70.1512 276.236 73.1344 276.997 76.6225C277.757 80.1106 277.089 83.6904 275.107 86.6736C274.9 86.9949 274.992 87.408 275.314 87.6375C275.407 87.6833 275.522 87.7293 275.66 87.7293Z" fill="#9A3B82"/>
<path d="M268.262 93.8573C274.323 97.8273 280.569 100.65 285.27 101.751L290.502 94.408C287.575 90.5987 282.344 86.0091 276.144 81.9473C269.507 77.5872 262.961 74.5581 258.421 73.6173C255.794 73.0895 253.835 73.2501 252.89 74.2598L252.66 74.5352C252.637 74.5811 252.613 74.604 252.59 74.6499C252.567 74.6729 252.567 74.6958 252.544 74.7417C252.521 74.7876 252.498 74.8105 252.475 74.8564C250.908 78.3675 257.799 86.9729 268.262 93.8573Z" fill="#9A3B82"/>
<path d="M105.693 64.252V84.4231C105.693 90.2748 113.851 95.0021 123.877 95.0021C133.925 95.0021 142.06 90.2748 142.06 84.4231V64.252H105.693Z" fill="#E57281"/>
<path d="M136.736 91.9041C140.031 89.9995 142.083 87.3375 142.083 84.4231V64.252H105.692V69.8512C105.692 75.657 109.241 80.8662 114.634 83.0463L136.736 91.9041Z" fill="#9A3B82"/>
<path d="M95.5517 63.0612V63.4055C95.5517 66.8935 98.3864 69.7161 101.89 69.7161H106.061C107.467 75.3613 112.583 79.5607 118.713 79.5607H129.038C135.146 79.5607 140.285 75.3842 141.668 69.7161H145.839C149.342 69.7161 152.177 66.8935 152.177 63.4055V63.0612C152.177 59.5732 149.342 56.7506 145.839 56.7506H142.06V51.7709C142.06 46.447 138.119 42.041 132.979 41.3066C131.85 43.1884 128.439 47.6862 121.479 47.4337C118.206 47.319 115.164 46.6994 112.652 45.9651C109.633 45.093 106.614 46.9289 105.853 49.7974C105.738 50.4399 105.669 51.0824 105.669 51.7479V56.7276H101.89C98.4095 56.7276 95.5517 59.5732 95.5517 63.0612Z" fill="#E57281"/>
<path d="M102.788 56.7277H105.692V51.1973C105.692 50.7154 105.761 50.2335 105.877 49.7975C106.637 46.929 109.656 45.0931 112.675 45.9652C115.187 46.6995 118.207 47.3191 121.502 47.4338C128.462 47.6863 131.873 43.1885 133.002 41.3067C138.142 42.0411 142.083 46.4471 142.083 51.771V56.7507H145.701C145.701 56.7507 149.849 41.8116 146.738 37.5892C143.673 33.4356 139.986 35.2485 139.986 35.2485C139.986 35.2485 142.198 22.8108 129.845 23.0402C117.515 23.2697 101.475 37.5204 100.299 40.1364C98.4557 44.1523 102.788 56.7277 102.788 56.7277Z" fill="#9A3B82"/>
<path d="M104.287 64.8048C104.609 64.8048 104.863 64.5524 104.863 64.2312C104.863 61.4774 102.604 59.2285 99.8387 59.2285C99.516 59.2285 99.2625 59.4809 99.2625 59.8022C99.2625 60.1235 99.516 60.3759 99.8387 60.3759C101.982 60.3759 103.71 62.097 103.71 64.2312C103.71 64.5524 103.964 64.8048 104.287 64.8048Z" fill="#9A3B82"/>
<path d="M143.419 64.8049C143.742 64.8049 143.996 64.5524 143.996 64.2312C143.996 62.097 145.724 60.3759 147.867 60.3759C148.19 60.3759 148.444 60.1235 148.444 59.8022C148.444 59.4809 148.19 59.2285 147.867 59.2285C145.102 59.2285 142.843 61.4774 142.843 64.2312C142.843 64.5524 143.097 64.8049 143.419 64.8049Z" fill="#9A3B82"/>
<path d="M111.5 52.3439C111.615 52.3439 111.73 52.298 111.845 52.2291C111.961 52.1373 114.934 50.0491 118.736 51.6325C119.036 51.7472 119.359 51.6095 119.497 51.3112C119.612 51.0129 119.474 50.6916 119.174 50.5539C114.749 48.741 111.315 51.1735 111.177 51.2883C110.924 51.4718 110.854 51.839 111.062 52.0914C111.154 52.2521 111.315 52.3439 111.5 52.3439Z" fill="#9A3B82"/>
<path d="M136.482 52.3424C136.666 52.3424 136.828 52.2506 136.943 52.1129C137.127 51.8605 137.081 51.4933 136.828 51.3097C136.69 51.195 133.233 48.7625 128.831 50.5754C128.531 50.6902 128.393 51.0344 128.508 51.3327C128.623 51.631 128.969 51.7687 129.269 51.654C133.094 50.0705 136.113 52.2277 136.159 52.2506C136.252 52.2965 136.367 52.3424 136.482 52.3424Z" fill="#9A3B82"/>
<path d="M122.424 71.6652C123.323 71.6652 124.36 71.4816 125.535 71.0456C125.835 70.9308 125.996 70.6096 125.881 70.3112C125.766 70.0129 125.443 69.8523 125.143 69.967C120.304 71.7569 118.713 68.5901 118.644 68.4525C118.506 68.1771 118.16 68.0394 117.884 68.1771C117.607 68.3147 117.469 68.659 117.607 68.9344C117.63 68.9802 118.944 71.6652 122.424 71.6652Z" fill="#9A3B82"/>
<path d="M124.06 67.3511C124.59 67.3511 125.166 67.3511 125.65 67.3052C125.973 67.2823 126.204 67.0069 126.181 66.6856C126.157 66.3643 125.881 66.1349 125.558 66.1578C124.198 66.2496 122.101 66.1578 122.078 66.1578C121.756 66.1349 121.502 66.3873 121.479 66.7086C121.456 67.0298 121.709 67.2823 122.032 67.3052C122.078 67.3052 123.023 67.3511 124.06 67.3511Z" fill="#9A3B82"/>
<path d="M115.21 61.3396C114.574 61.3396 114.058 60.4766 114.058 59.412C114.058 58.3474 114.574 57.4844 115.21 57.4844C115.847 57.4844 116.363 58.3474 116.363 59.412C116.363 60.4766 115.847 61.3396 115.21 61.3396Z" fill="#9A3B82"/>
<path d="M131.734 61.3396C131.098 61.3396 130.582 60.4766 130.582 59.412C130.582 58.3474 131.098 57.4844 131.734 57.4844C132.371 57.4844 132.887 58.3474 132.887 59.412C132.887 60.4766 132.371 61.3396 131.734 61.3396Z" fill="#9A3B82"/>
<path d="M128.993 66.4792H136.252C137.958 66.4792 139.364 65.0794 139.364 63.3812V56.1527C139.364 54.4545 137.958 53.0547 136.252 53.0547H128.993C127.287 53.0547 125.881 54.4545 125.881 56.1527V63.3812C125.858 64.1844 126.181 64.9646 126.757 65.5383C127.356 66.1579 128.14 66.4792 128.993 66.4792ZM136.252 54.2021C137.335 54.2021 138.211 55.0741 138.211 56.1527V63.3812C138.211 64.4598 137.335 65.3318 136.252 65.3318H128.993C128.463 65.3318 127.955 65.1253 127.587 64.7351C127.218 64.368 127.034 63.8861 127.034 63.3812V56.1527C127.034 55.0741 127.909 54.2021 128.993 54.2021H136.252Z" fill="white"/>
<path d="M111.224 66.4792H118.483C120.189 66.4792 121.595 65.0794 121.595 63.3812V56.1527C121.595 54.4545 120.189 53.0547 118.483 53.0547H111.224C109.518 53.0547 108.113 54.4545 108.113 56.1527V63.3812C108.113 65.0794 109.518 66.4792 111.224 66.4792ZM118.483 54.2021C119.567 54.2021 120.442 55.0741 120.442 56.1527V63.3812C120.442 64.4598 119.567 65.3318 118.483 65.3318H111.224C110.141 65.3318 109.265 64.4598 109.265 63.3812V56.1527C109.265 55.0741 110.141 54.2021 111.224 54.2021H118.483Z" fill="white"/>
<path d="M121.018 57.8281H126.434V58.9755H121.018V57.8281Z" fill="white"/>
<path d="M134.501 159.352H109.311C106.638 159.352 104.471 157.195 104.471 154.533V141.2C104.471 138.538 106.638 136.381 109.311 136.381H134.501C137.174 136.381 139.341 138.538 139.341 141.2V154.533C139.341 157.195 137.174 159.352 134.501 159.352ZM109.311 137.758C107.398 137.758 105.854 139.295 105.854 141.2V154.533C105.854 156.437 107.398 157.975 109.311 157.975H134.501C136.414 157.975 137.958 156.437 137.958 154.533V141.2C137.958 139.295 136.414 137.758 134.501 137.758H109.311Z" fill="#66B0F0"/>
<path d="M122.54 153.292H114.012C112.653 153.292 111.546 152.19 111.546 150.836V144.893C111.546 143.539 112.653 142.438 114.012 142.438H122.54C123.899 142.438 125.005 143.539 125.005 144.893V150.836C125.005 152.19 123.899 153.292 122.54 153.292Z" fill="#66B0F0"/>
<path d="M130.836 153.134L128.209 151.39C127.495 150.908 127.057 150.082 127.057 149.187V146.571C127.057 145.676 127.495 144.85 128.209 144.368L130.836 142.624C131.459 142.211 132.265 142.67 132.265 143.45V152.331C132.288 153.088 131.459 153.547 130.836 153.134Z" fill="#66B0F0"/>
</g>
<defs>
<clipPath id="clip0_2396_1626">
<rect width="308" height="234" fill="white"/>
</clipPath>
</defs>
</svg>
