		<svg version="1.1" id="Слой_1" xmlns="http://www.w3.org/2000/svg" xmlns:xlink="http://www.w3.org/1999/xlink" x="0px" y="0px" viewBox="0 0 742 128" style="enable-background:new 0 0 742 128;"
			xml:space="preserve">
			<style type="text/css">
				.st0 {
					fill: #fff;
					stroke: #FFFFFF;
					stroke-width: 3;
					stroke-miterlimit: 10;
				}
			</style>
			<g>
				<path class="st0" d="M29.93,79.05c-0.98,9.06-1.46,16.33-1.46,21.8c0,2.15-0.64,4.06-1.93,5.74s-3.05,2.52-5.27,2.52
				c-4.8,0-7.21-2.79-7.21-8.38c0-3.08,1.13-13.51,3.4-31.29c1.84-14.37,2.75-22.95,2.75-25.72c0-3.16-0.14-4.96-0.41-5.39
				c-2.54-1.29-3.81-3.61-3.81-6.97c0-3.28,5.29-6.14,15.88-8.58c10.59-2.44,19.65-3.66,27.19-3.66c8.83,0,15.86,1.82,21.09,5.45
				C85.38,28.19,88,33.1,88,39.27c0,8.91-4.8,16.73-14.41,23.47S52.3,74.25,38.55,77.06C33.51,78.11,30.64,78.78,29.93,79.05z
				M35.15,35.05l-3.46,30.82c11.25-1.88,21.13-5.2,29.65-9.99c8.52-4.78,12.77-9.91,12.77-15.38c0-6.52-5.16-9.79-15.47-9.79
				C51.5,30.71,43.66,32.16,35.15,35.05z" />
				<path class="st0" d="M105.4,76.53l1-1.88c4.73-9.49,9.81-17.2,15.26-23.12s10.77-8.88,15.97-8.88c3.98,0,7.24,1.09,9.76,3.28
				c2.52,2.19,3.78,4.79,3.78,7.79c0,1.88-0.43,3.49-1.29,4.83c-0.86,1.35-2.05,2.02-3.57,2.02c-2.42,0-4.63-1-6.62-2.99
				c-1.41-1.29-2.52-1.93-3.34-1.93c-2.93,0-7.83,4.55-14.71,13.65c-6.88,9.1-11.02,19.34-12.42,30.7c-0.43,3.28-1.39,5.58-2.87,6.88
				c-1.48,1.31-3.5,1.96-6.04,1.96c-2.7,0-4.61-1.53-5.74-4.6c-1.13-3.07-1.7-8.08-1.7-15.03c0-2.85,0.08-6.7,0.23-11.54
				c0.16-4.57,0.6-10.16,1.35-16.76c0.19-1.72,0.33-3.07,0.41-4.04c0.35-3.83,0.75-6.45,1.2-7.88c0.45-1.42,1.49-2.76,3.13-4.01
				c1.64-1.25,3.46-1.88,5.45-1.88c2.11,0,3.71,0.61,4.8,1.82c1.09,1.21,1.64,2.54,1.64,3.98c0,1.84-0.88,5.65-2.64,11.43
				c-0.63,1.99-1.15,4.38-1.58,7.15L105.4,76.53z" />
				<path class="st0" d="M156.97,66.69v0.06c1.25-7.11,1.88-11.17,1.88-12.19c0-2.89,0.63-5.31,1.9-7.27c1.27-1.95,3.04-2.93,5.3-2.93
				c2.66,0,4.73,0.63,6.21,1.88c1.48,1.25,2.23,2.66,2.23,4.22c0,1.56-0.72,4.79-2.17,9.67l-0.35,1.29
				c-2.15,7.54-3.44,13.69-3.87,18.46c-0.43,4.77-0.64,8.61-0.64,11.54c0,2.38,0.41,5.57,1.23,9.55c0.12,0.7,0.18,1.29,0.18,1.76
				c0,0.9-0.85,2.11-2.55,3.63s-3.53,2.29-5.48,2.29c-5.16,0-7.73-3.91-7.73-11.72c0-6.64,0.94-14.73,2.81-24.26
				C156.3,70.56,156.65,68.56,156.97,66.69z M185.27,18.52c0,2.77-1.25,5.21-3.75,7.29c-2.5,2.09-4.67,3.13-6.5,3.13
				c-2.34,0-4.42-0.98-6.24-2.93c-1.82-1.95-2.72-3.91-2.72-5.86c0-2.81,0.9-5.09,2.7-6.83c1.8-1.74,4.37-2.61,7.73-2.61
				c2.62,0,4.74,0.77,6.36,2.31C184.46,14.59,185.27,16.42,185.27,18.52z" />
				<path class="st0" d="M214.86,90.71c-0.16-2.11-3.52-4.69-10.08-7.73c-8.05-3.87-13.18-7.2-15.41-9.99
				c-2.23-2.79-3.34-5.83-3.34-9.11c0-6.91,3.88-12.96,11.63-18.13c7.75-5.17,14.99-7.76,21.71-7.76c6.6,0,9.9,2.87,9.9,8.61
				c0,1.52-0.75,2.89-2.26,4.1c-1.5,1.21-2.78,1.82-3.84,1.82c-0.43,0-1.19-0.27-2.29-0.82c-1.09-0.55-1.93-0.82-2.52-0.82
				c-3.48,0-7.3,1.17-11.48,3.52c-4.18,2.34-6.27,5.08-6.27,8.2c0,1.52,0.74,3,2.23,4.42c1.48,1.43,4.51,3.21,9.08,5.36
				c6.76,3.2,11.21,6.09,13.36,8.67c2.15,2.58,3.22,5.43,3.22,8.55c0,5.7-3.86,10.46-11.57,14.27c-7.71,3.81-16.38,5.71-25.99,5.71
				c-7.07,0-10.61-2.56-10.61-7.68c0-1.88,0.74-3.48,2.23-4.8c1.48-1.33,3.14-1.99,4.98-1.99c0.74,0,1.89,0.27,3.46,0.82
				c1.56,0.59,3.01,0.88,4.34,0.88c3.67,0,7.52-0.59,11.54-1.76C210.91,93.88,213.57,92.43,214.86,90.71z" />
				<path class="st0" d="M293.31,75.89c-2.62,9.14-7.59,16.85-14.91,23.12s-14.64,9.4-21.94,9.4c-5.78,0-10.55-2.12-14.3-6.36
				s-5.62-9.44-5.62-15.62c0-10.08,3.44-20,10.31-29.77c6.88-9.76,15.21-14.65,25.02-14.65c6.68,0,12.09,2.47,16.23,7.41
				c4.14,4.94,6.21,10.83,6.21,17.67c0,2.97-0.33,5.88-1,8.73V75.89z M262.84,57.37c-2.73,2.42-5.41,6.29-8.03,11.6
				c-2.62,5.31-3.93,10.65-3.93,16c0,3.24,0.59,5.92,1.79,8.03c1.19,2.11,2.76,3.16,4.72,3.16c4.84,0,9.88-2.87,15.12-8.61
				c5.23-5.74,7.85-12.19,7.85-19.34c0-4.02-0.85-7.33-2.55-9.93c-1.7-2.6-4.07-3.9-7.12-3.9c-2.89,0-5.49,1-7.79,2.99H262.84z" />
				<path class="st0" d="M354.78,97.04c-1.88-3.52-3.24-10.08-4.1-19.69c-0.86-10-2.77-15-5.74-15c-2.81,0-7.68,5.21-14.59,15.62
				c-6.91,10.41-11.17,18.1-12.77,23.06c-0.35,1.49-1.01,2.72-1.96,3.69c-0.96,0.98-1.9,1.46-2.84,1.46c-5.94,0-8.91-2.71-8.91-8.14
				c0-1.83,0.59-6.01,1.76-12.54c1.52-8.44,2.29-18.75,2.29-30.94c0-1.83,0.8-3.8,2.4-5.89c1.6-2.09,3.3-3.13,5.1-3.13
				c2.26,0,4,0.57,5.21,1.7c1.21,1.13,1.82,4.14,1.82,9.02c0,3.71-1.11,10.9-3.34,21.56c8.48-19.84,17.93-29.77,28.36-29.77
				c9.06,0,14.38,7.13,15.94,21.39c1.56,14.53,3.36,21.8,5.39,21.8c0.9,0,1.93-0.19,3.11-0.59c1.41-0.47,2.52-0.7,3.34-0.7
				c1.88,0,2.81,1.09,2.81,3.28c0,1.99-1.29,4.11-3.87,6.36c-2.58,2.25-5.82,3.37-9.73,3.37c-4.53,0-7.77-1.97-9.73-5.92H354.78z" />
				<path class="st0" d="M442.67,57.96c7.3,2.58,12.04,5.67,14.21,9.26c2.17,3.59,3.25,7.13,3.25,10.61c0,7.46-4.79,15.13-14.36,23
				c-9.57,7.87-19.61,11.81-30.12,11.81c-5.86,0-8.79-1.78-8.79-5.33c0-5.86,4.08-8.79,12.25-8.79h2.87c3.83,0,8.65-2.22,14.47-6.65
				c5.82-4.43,8.73-8.94,8.73-13.51c0-2.77-1.19-5.24-3.57-7.41c-2.38-2.17-5.57-3.25-9.55-3.25c-0.31,0-1.86,0.61-4.63,1.82
				c-2.81,1.21-4.88,1.82-6.21,1.82c-3.67,0-6.06-0.45-7.18-1.35c-1.11-0.9-1.67-2.71-1.67-5.45c0-1.91,3.98-4.49,11.95-7.73
				c4.53-1.8,9.06-4.87,13.59-9.23c4.53-4.35,6.8-8.04,6.8-11.04c0-3.87-2.81-5.8-8.44-5.8c-5.27,0-10.45,0.59-15.53,1.76
				c-5.08,1.17-7.89,2.62-8.44,4.34c-0.55,1.72-1.99,10.66-4.34,26.84s-3.52,25.51-3.52,28.01l-0.59,7.91
				c-0.31,3.98-1.23,6.55-2.75,7.71c-1.52,1.15-3.26,1.73-5.21,1.73c-5.24,0-7.85-3.38-7.85-10.14c0-1.05,0.33-2.95,1-5.68
				c1.72-7.07,3.39-16.91,5.01-29.53c1.62-12.62,2.43-19.41,2.43-20.39c0-1.95-0.39-2.93-1.17-2.93l-1.58,0.12
				c-1.17,0.12-2.21-0.24-3.11-1.08c-0.9-0.84-1.49-1.63-1.76-2.37c-0.27-0.74-0.41-1.43-0.41-2.05c0-3.87,5.43-7.54,16.29-11.02
				c10.86-3.48,22.27-5.21,34.22-5.21c6.37,0,11.53,1.69,15.5,5.07c3.96,3.38,5.95,7.29,5.95,11.75c0,3.2-1.27,6.46-3.81,9.76
				C454.07,48.57,449.43,52.8,442.67,57.96z" />
				<path class="st0" d="M487.43,76.53l1-1.88c4.73-9.49,9.81-17.2,15.26-23.12s10.77-8.88,15.97-8.88c3.98,0,7.24,1.09,9.76,3.28
				c2.52,2.19,3.78,4.79,3.78,7.79c0,1.88-0.43,3.49-1.29,4.83c-0.86,1.35-2.05,2.02-3.57,2.02c-2.42,0-4.63-1-6.62-2.99
				c-1.41-1.29-2.52-1.93-3.34-1.93c-2.93,0-7.83,4.55-14.71,13.65c-6.88,9.1-11.02,19.34-12.42,30.7c-0.43,3.28-1.39,5.58-2.87,6.88
				c-1.49,1.31-3.5,1.96-6.04,1.96c-2.7,0-4.61-1.53-5.74-4.6c-1.13-3.07-1.7-8.08-1.7-15.03c0-2.85,0.08-6.7,0.23-11.54
				c0.16-4.57,0.61-10.16,1.35-16.76c0.2-1.72,0.33-3.07,0.41-4.04c0.35-3.83,0.75-6.45,1.2-7.88c0.45-1.42,1.49-2.76,3.13-4.01
				c1.64-1.25,3.46-1.88,5.45-1.88c2.11,0,3.71,0.61,4.8,1.82c1.09,1.21,1.64,2.54,1.64,3.98c0,1.84-0.88,5.65-2.64,11.43
				c-0.62,1.99-1.15,4.38-1.58,7.15L487.43,76.53z" />
				<path class="st0" d="M586.69,85.44c0,4.06-3.42,8.92-10.25,14.56c-6.84,5.64-14.55,8.47-23.14,8.47c-6.6,0-11.8-2.08-15.59-6.24
				c-3.79-4.16-5.68-9.95-5.68-17.37c0-10.94,3.87-21.19,11.6-30.76c7.73-9.57,16-14.36,24.79-14.36c4.37,0,7.89,1.39,10.55,4.16
				c2.66,2.77,3.98,6.08,3.98,9.9c0,6.8-3.26,13.27-9.79,19.42c-6.52,6.15-14.88,10.4-25.08,12.74c-1.17,0.27-1.76,0.98-1.76,2.11
				c0,1.88,0.83,3.66,2.49,5.36c1.66,1.7,3.88,2.55,6.65,2.55c7.85,0,15.64-4.04,23.38-12.13c1.48-1.56,2.93-2.34,4.34-2.34
				C585.52,81.51,586.69,82.82,586.69,85.44z M547.38,75.07c6.17-1.25,11.61-3.89,16.32-7.91c4.71-4.02,7.06-7.68,7.06-10.96
				c0-1.29-0.36-2.37-1.08-3.25c-0.72-0.88-1.65-1.32-2.78-1.32c-3.4,0-7.17,2.5-11.31,7.5C551.44,64.13,548.7,69.44,547.38,75.07z" />
				<path class="st0" d="M636.56,85.97c-10.27,13.56-20.2,20.33-29.77,20.33c-3.52,0-6.54-1.39-9.08-4.16
				c-2.54-2.77-3.81-6.31-3.81-10.61c0-10.35,4.61-21.38,13.83-33.08c9.22-11.7,18.52-17.55,27.89-17.55c4.77,0,7.89,2.4,9.38,7.21
				c4.49,0,6.74,1.72,6.74,5.16c0,1.64-0.43,4.61-1.29,8.91c-1.56,8.05-2.34,14.47-2.34,19.28c0,5,0.34,8.52,1.03,10.55
				c0.68,2.03,1.18,3.36,1.49,3.98c0.31,0.63,1.25,1.29,2.81,1.99c1.56,0.74,2.34,1.78,2.34,3.11c0,1.99-1.01,3.65-3.02,4.98
				c-2.01,1.33-4.11,1.99-6.3,1.99C639.11,108.06,635.81,100.69,636.56,85.97z M633.04,53.45c-3.95,0-9.07,4.37-15.38,13.1
				c-6.31,8.73-9.46,16.14-9.46,22.24c0,3.2,0.66,4.8,1.99,4.8c4.61,0,10.28-4.09,17.02-12.28c6.74-8.18,10.11-15.34,10.11-21.47
				c0-1.95-0.44-3.5-1.32-4.66C635.12,54.02,634.13,53.45,633.04,53.45z" />
				<path class="st0" d="M720.99,56.67h0.06l-0.12,0.12c-2.27,1.25-4.1,2.34-5.51,3.28c-2.62,1.76-5.25,3.65-7.91,5.68
				c-3.05,2.34-5.33,4.32-6.86,5.92c-1.29,1.33-1.93,2.31-1.93,2.93c0,0.7,2.29,3.45,6.86,8.23c4.57,4.79,8.19,8.21,10.87,10.28
				c2.67,2.07,5.32,3.11,7.94,3.11l2.58-0.06c0.94,0,1.69,0.28,2.26,0.85c0.57,0.57,0.85,1.42,0.85,2.55c0,1.6-1,3.46-2.99,5.57
				s-5.41,3.16-10.25,3.16c-2.85,0-5.74-1.05-8.67-3.13s-7.42-6.81-13.48-14.15c-4.84-5.9-7.48-8.85-7.91-8.85
				c-0.27,0-1.09,0.7-2.46,2.11c-1.37,1.41-2.27,2.48-2.7,3.22v0.06c-0.67,3.24-1,7.48-1,12.71c0,2.62-0.77,4.75-2.31,6.39
				c-1.54,1.64-3.43,2.46-5.65,2.46c-2.31,0-4.1-0.66-5.39-1.96c-1.29-1.31-1.93-2.63-1.93-3.96c0-1.41,0.49-4.49,1.46-9.26
				c1.88-9.26,3.46-21.54,4.75-36.86c1.25-12.23,2.34-21.77,3.28-28.62s1.78-11.35,2.52-13.48c0.74-2.13,1.89-3.83,3.46-5.1
				c1.56-1.27,3.24-1.9,5.04-1.9c1.72,0,3.1,0.71,4.13,2.14c1.03,1.43,1.55,3.15,1.55,5.19c0,2.54-1.64,12.46-4.92,29.77l-1.41,7.68
				h0.06c-1.72,11.29-2.6,17.81-2.64,19.57l17.99-16.29c9.18-8.87,15.92-13.3,20.21-13.3c4.14,0,6.21,1.66,6.21,4.98
				C727.02,51.85,725.01,54.83,720.99,56.67z" />
			</g>
		</svg>