<svg width="550" height="502" viewBox="0 0 550 502" fill="none" xmlns="http://www.w3.org/2000/svg">
<path d="M204.376 14.502L166.089 51.3415L127.609 259.013H488.556L204.376 14.502Z" fill="#FFCF2D"/>
<path d="M165.76 51.0536L204.163 14.0983L197.74 7.44404C188.279 -2.35413 171.235 -1.23544 161.407 8.17698C151.579 17.6087 149.857 34.6012 159.318 44.3993L165.76 51.0536Z" fill="white"/>
<path d="M165.741 51.8627L204.975 14.1166L198.146 7.03799C193.542 2.25464 186.983 -0.233481 179.67 0.0172591C172.667 0.268 165.857 3.08401 160.982 7.75164C156.106 12.4193 153.03 19.1121 152.527 26.0943C152.005 33.3658 154.268 40.0007 158.873 44.7841L165.741 51.8627ZM203.35 14.078L165.779 50.2232L159.743 43.9933C155.352 39.4607 153.224 33.1343 153.707 26.1907C154.191 19.4786 157.132 13.0751 161.813 8.6003C166.495 4.12555 173.015 1.42527 179.728 1.19381C186.693 0.943072 192.942 3.31546 197.314 7.84808L203.35 14.078Z" fill="#FFCF2D"/>
<path d="M159.337 44.9766C159.492 44.9766 159.627 44.9188 159.743 44.8223L198.165 7.86703C198.398 7.63557 198.398 7.28839 198.185 7.05694C197.953 6.82549 197.585 6.82549 197.372 7.03765L158.95 43.993C158.718 44.2244 158.718 44.5716 158.931 44.8031C159.028 44.9188 159.182 44.9766 159.337 44.9766Z" fill="#FFCF2D"/>
<path d="M85.1244 258.01C85.2018 258.01 85.2792 257.991 85.3566 257.952C85.6468 257.817 85.7822 257.47 85.6468 257.181L31.767 137.365L137.108 9.52604V9.50675C139.101 6.80647 142.022 5.07057 145.35 4.58838C148.677 4.10619 151.986 4.97414 154.655 7.01864L158.95 10.2976C159.202 10.4904 159.569 10.4519 159.763 10.1818C159.956 9.93109 159.918 9.56462 159.647 9.37174L155.352 6.09282C152.431 3.87473 148.813 2.92964 145.176 3.45041C141.539 3.97117 138.346 5.86137 136.18 8.81239L30.4127 137.192L30.5675 137.52L84.602 257.663C84.6988 257.875 84.9116 258.01 85.1244 258.01Z" fill="#3FB1B5"/>
<path d="M32.8114 143.826C29.5419 143.826 26.8914 141.183 26.8914 137.924C26.8914 134.664 29.5419 132.021 32.8114 132.021C36.081 132.021 38.7314 134.664 38.7314 137.924C38.7314 141.183 36.081 143.826 32.8114 143.826Z" fill="white"/>
<path d="M32.8113 144.405C36.3904 144.405 39.3118 141.492 39.3118 137.924C39.3118 134.356 36.3904 131.443 32.8113 131.443C29.2322 131.443 26.3109 134.356 26.3109 137.924C26.3109 141.492 29.2322 144.405 32.8113 144.405ZM32.8113 132.601C35.752 132.601 38.151 134.992 38.151 137.924C38.151 140.856 35.752 143.247 32.8113 143.247C29.8707 143.247 27.4717 140.856 27.4717 137.924C27.4717 134.992 29.8707 132.601 32.8113 132.601Z" fill="#FFCF2D"/>
<path d="M100.137 244.006H71.2914C62.9918 244.006 56.2786 250.718 56.2786 258.973V259.397H115.169V258.973C115.15 250.718 108.437 244.006 100.137 244.006Z" fill="white"/>
<path d="M55.6982 259.977H115.75V258.974C115.73 250.41 108.727 243.428 100.137 243.428H71.2914C62.7016 243.428 55.6982 250.41 55.6982 258.974V259.977ZM114.589 258.819H56.859C56.9364 250.95 63.3787 244.585 71.2914 244.585H100.137C108.03 244.585 114.492 250.95 114.589 258.819Z" fill="#FFCF2D"/>
<path d="M239.876 215.595H422.488C429.356 215.595 434.908 210.06 434.908 203.213V75.8749C434.908 69.0278 429.356 63.4922 422.488 63.4922H239.876C233.008 63.4922 227.456 69.0278 227.456 75.8749V203.193C227.437 210.04 233.008 215.595 239.876 215.595Z" fill="white"/>
<path d="M239.876 216.174H422.487C429.665 216.174 435.488 210.369 435.488 203.213V75.8754C435.488 68.7197 429.665 62.9141 422.487 62.9141H239.876C232.699 62.9141 226.876 68.7197 226.876 75.8754V203.194C226.856 206.646 228.21 209.906 230.667 212.355C233.124 214.824 236.394 216.174 239.876 216.174ZM422.487 64.0713C429.007 64.0713 434.327 69.3755 434.327 75.8754V203.213C434.327 209.713 429.007 215.017 422.487 215.017H239.876C236.704 215.017 233.724 213.783 231.48 211.545C229.255 209.308 228.017 206.338 228.036 203.194V75.8754C228.036 69.3755 233.357 64.0713 239.876 64.0713H422.487Z" fill="#3FB1B5"/>
<path d="M239.76 203.752H420.611C423.3 203.752 425.467 201.572 425.467 198.911V77.0893C425.467 74.4083 423.281 72.248 420.611 72.248H239.76C237.071 72.248 234.904 74.4276 234.904 77.0893V198.891C234.885 201.572 237.071 203.752 239.76 203.752Z" fill="#66B0F0"/>
<path d="M239.76 204.331H420.611C423.609 204.331 426.047 201.901 426.047 198.911V77.0898C426.047 74.1002 423.609 71.6699 420.611 71.6699H239.76C236.762 71.6699 234.324 74.1002 234.324 77.0898V198.892C234.305 200.338 234.866 201.708 235.891 202.73C236.936 203.752 238.29 204.331 239.76 204.331ZM420.611 72.8272C422.971 72.8272 424.886 74.7367 424.886 77.0898V198.911C424.886 201.264 422.971 203.174 420.611 203.174H239.76C238.619 203.174 237.535 202.73 236.723 201.92C235.91 201.11 235.485 200.049 235.485 198.911V77.0898C235.485 74.7367 237.4 72.8272 239.76 72.8272H420.611Z" fill="#66B0F0"/>
<path d="M414.13 84.2073H416.993C418.251 84.2073 419.276 83.185 419.276 81.9313V79.0767C419.276 77.823 418.251 76.8008 416.993 76.8008H414.13C412.872 76.8008 411.847 77.823 411.847 79.0767V81.9313C411.866 83.2043 412.872 84.2073 414.13 84.2073ZM416.993 77.958C417.612 77.958 418.115 78.4595 418.115 79.0767V81.9313C418.115 82.5485 417.612 83.05 416.993 83.05H414.13C413.511 83.05 413.027 82.5485 413.008 81.912V79.0767C413.008 78.4595 413.511 77.958 414.13 77.958H416.993Z" fill="white"/>
<path d="M401.11 84.2073H403.973C405.23 84.2073 406.256 83.185 406.256 81.9313V79.0767C406.256 77.823 405.23 76.8008 403.973 76.8008H401.11C399.852 76.8008 398.827 77.823 398.827 79.0767V81.9313C398.827 83.185 399.852 84.2073 401.11 84.2073ZM403.973 77.958C404.592 77.958 405.095 78.4595 405.095 79.0767V81.9313C405.095 82.5485 404.592 83.05 403.973 83.05H401.11C400.491 83.05 399.988 82.5485 399.988 81.9313V79.0767C399.988 78.4595 400.491 77.958 401.11 77.958H403.973Z" fill="white"/>
<path d="M388.089 84.2073H390.953C392.21 84.2073 393.236 83.185 393.236 81.9313V79.0767C393.236 77.823 392.21 76.8008 390.953 76.8008H388.089C386.832 76.8008 385.807 77.823 385.807 79.0767V81.9313C385.807 83.185 386.832 84.2073 388.089 84.2073ZM390.953 77.958C391.572 77.958 392.075 78.4595 392.075 79.0767V81.9313C392.075 82.5485 391.572 83.05 390.953 83.05H388.089C387.451 83.05 386.967 82.5678 386.967 81.9313V79.0767C386.967 78.4595 387.47 77.958 388.089 77.958H390.953Z" fill="white"/>
<path d="M292.634 259.012H363.52L349.609 215.596H306.564L292.634 259.012Z" fill="white"/>
<path d="M291.841 259.592H364.313L350.035 215.018H306.138L291.841 259.592ZM362.727 258.434H293.428L306.989 216.175H349.184L362.727 258.434Z" fill="#3FB1B5"/>
<path d="M357.948 241.634L349.61 215.596H306.564L357.948 241.634Z" fill="#3FB1B5"/>
<path d="M250.285 112.773H284.741C288.281 112.773 291.164 109.899 291.164 106.37V84.1887C291.164 80.659 288.281 77.7852 284.741 77.7852H250.285C246.744 77.7852 243.862 80.659 243.862 84.1887V106.37C243.862 109.899 246.744 112.773 250.285 112.773ZM284.741 78.9424C287.643 78.9424 290.003 81.2955 290.003 84.1887V106.37C290.003 109.263 287.643 111.616 284.741 111.616H250.285C247.383 111.616 245.023 109.263 245.023 106.37V84.1887C245.023 81.2955 247.383 78.9424 250.285 78.9424H284.741Z" fill="white"/>
<path d="M254.445 86.8506H280.736C281.065 86.8506 281.317 86.5999 281.317 86.272C281.317 85.9441 281.065 85.6934 280.736 85.6934H254.445C254.116 85.6934 253.864 85.9441 253.864 86.272C253.864 86.5999 254.116 86.8506 254.445 86.8506Z" fill="white"/>
<path d="M254.445 92.8291H280.736C281.065 92.8291 281.317 92.5784 281.317 92.2505C281.317 91.9226 281.065 91.6719 280.736 91.6719H254.445C254.116 91.6719 253.864 91.9226 253.864 92.2505C253.864 92.5784 254.116 92.8291 254.445 92.8291Z" fill="white"/>
<path d="M254.445 98.8096H280.736C281.065 98.8096 281.317 98.5589 281.317 98.231C281.317 97.9031 281.065 97.6523 280.736 97.6523H254.445C254.116 97.6523 253.864 97.9031 253.864 98.231C253.864 98.5589 254.116 98.8096 254.445 98.8096Z" fill="white"/>
<path d="M254.445 104.788H280.736C281.065 104.788 281.317 104.537 281.317 104.209C281.317 103.882 281.065 103.631 280.736 103.631H254.445C254.116 103.631 253.864 103.882 253.864 104.209C253.864 104.537 254.116 104.788 254.445 104.788Z" fill="white"/>
<path d="M240.767 203.753H377.72L385.749 215.229C394.823 228.19 413.995 228.383 423.32 215.595L472.228 148.532C470.177 151.078 460.794 148.242 451.856 142.379C442.782 136.419 436.921 128.916 438.758 126.139L404.844 169.227L394.455 150.943C391.611 146.101 386.891 142.63 381.396 141.357L346.05 133.892H315.58L281.994 141.28C276.152 142.61 271.199 146.41 268.394 151.676L240.767 203.753Z" fill="white"/>
<path d="M404.67 225.643C412.311 225.643 419.276 222.114 423.784 215.922L472.692 148.859L471.763 148.165C470.119 150.19 461.393 147.952 452.165 141.896C447.87 139.08 444.136 135.82 441.66 132.696C439.416 129.88 438.507 127.546 439.242 126.447L438.294 125.771L404.921 168.185L394.958 150.653C392.036 145.676 387.142 142.089 381.531 140.797L346.108 133.313H315.521L315.463 133.332L281.878 140.719C275.88 142.089 270.773 145.985 267.89 151.405L239.819 204.33H377.43L385.284 215.556C389.715 221.882 396.699 225.566 404.457 225.643C404.515 225.643 404.592 225.643 404.67 225.643ZM470.447 149.978L422.836 215.247C418.502 221.188 411.808 224.563 404.437 224.486C397.066 224.409 390.431 220.918 386.213 214.9L378.01 203.173H241.715L268.896 151.945C271.624 146.814 276.441 143.13 282.11 141.838L315.637 134.47H345.992L381.28 141.915C386.581 143.15 391.204 146.544 393.952 151.231L404.766 170.268L437.926 128.144C438.197 129.59 439.145 131.403 440.77 133.429C443.324 136.63 447.154 139.987 451.546 142.86C457.679 146.872 465.05 150.035 469.441 150.035C469.79 150.035 470.138 150.016 470.447 149.978Z" fill="#3FB1B5"/>
<path d="M278.357 203.539C278.569 203.539 278.763 203.423 278.879 203.23L288.61 184.078C288.746 183.788 288.649 183.441 288.359 183.306C288.068 183.171 287.72 183.268 287.585 183.557L277.854 202.71C277.718 202.999 277.815 203.346 278.105 203.481C278.182 203.52 278.26 203.539 278.357 203.539Z" fill="#3FB1B5"/>
<path d="M378.494 205.333C378.591 205.333 378.668 205.314 378.765 205.275C379.055 205.14 379.171 204.774 379.016 204.504L369.382 185.544C369.246 185.255 368.879 185.139 368.608 185.293C368.318 185.428 368.202 185.795 368.356 186.065L377.991 205.025C378.088 205.217 378.281 205.333 378.494 205.333Z" fill="#3FB1B5"/>
<path d="M395.964 181.224C396.138 181.224 396.312 181.147 396.428 180.993L418.502 152.852C418.696 152.601 418.657 152.235 418.406 152.042C418.154 151.849 417.787 151.888 417.593 152.138L395.519 180.279C395.325 180.53 395.364 180.896 395.616 181.089C395.712 181.186 395.848 181.224 395.964 181.224Z" fill="#3FB1B5"/>
<path d="M318.965 153.835L327.458 143.516C327.671 143.266 327.632 142.899 327.38 142.706C327.129 142.494 326.761 142.533 326.568 142.783L318.81 152.177L301.069 137.171C300.818 136.958 300.45 136.997 300.257 137.229C300.044 137.479 300.083 137.846 300.315 138.039L318.965 153.835Z" fill="#3FB1B5"/>
<path d="M341.02 154.202L361.469 138.058C361.721 137.865 361.759 137.498 361.566 137.248C361.372 136.997 361.005 136.958 360.753 137.151L341.233 152.562L333.707 142.976C333.514 142.725 333.146 142.687 332.894 142.88C332.643 143.073 332.604 143.439 332.798 143.69L341.02 154.202Z" fill="#3FB1B5"/>
<path d="M462.922 158.947C464.76 158.947 465.727 158.388 466.211 157.77C466.404 157.52 466.365 157.153 466.114 156.96C465.862 156.768 465.495 156.806 465.301 157.057C464.489 158.079 461.838 158.021 458.221 156.941C454.371 155.784 449.727 153.508 445.51 150.711C441.196 147.857 437.443 144.558 434.947 141.395C432.683 138.541 431.774 136.187 432.509 135.069C432.683 134.799 432.606 134.452 432.335 134.259C432.064 134.085 431.716 134.162 431.523 134.432C430.478 136.033 431.368 138.753 434.018 142.109C436.591 145.349 440.441 148.744 444.852 151.656C449.225 154.549 453.848 156.825 457.872 158.04C460.058 158.696 461.703 158.947 462.922 158.947Z" fill="#3FB1B5"/>
<path d="M438.1 140.218C439.629 140.218 440.867 138.983 440.867 137.459C440.867 135.936 439.629 134.701 438.1 134.701C436.572 134.701 435.334 135.936 435.334 137.459C435.334 138.983 436.572 140.218 438.1 140.218ZM438.1 135.858C438.99 135.858 439.706 136.572 439.706 137.459C439.706 138.347 438.99 139.06 438.1 139.06C437.21 139.06 436.494 138.347 436.494 137.459C436.494 136.572 437.21 135.858 438.1 135.858Z" fill="#3FB1B5"/>
<path d="M330.147 153.913C331.676 153.913 332.914 152.678 332.914 151.155C332.914 149.631 331.676 148.396 330.147 148.396C328.619 148.396 327.381 149.631 327.381 151.155C327.381 152.678 328.619 153.913 330.147 153.913ZM330.147 149.554C331.037 149.554 331.753 150.267 331.753 151.155C331.753 152.042 331.037 152.756 330.147 152.756C329.257 152.756 328.542 152.042 328.542 151.155C328.542 150.267 329.257 149.554 330.147 149.554Z" fill="#3FB1B5"/>
<path d="M330.147 171.464C331.676 171.464 332.914 170.229 332.914 168.705C332.914 167.182 331.676 165.947 330.147 165.947C328.619 165.947 327.381 167.182 327.381 168.705C327.381 170.229 328.619 171.464 330.147 171.464ZM330.147 167.105C331.037 167.105 331.753 167.818 331.753 168.705C331.753 169.593 331.037 170.306 330.147 170.306C329.257 170.306 328.542 169.593 328.542 168.705C328.542 167.818 329.257 167.105 330.147 167.105Z" fill="#3FB1B5"/>
<path d="M386.445 216.154L377.72 203.752V216.154H386.445Z" fill="#3FB1B5"/>
<path d="M452.068 141.801C461.006 147.664 470.389 150.499 472.44 147.953C472.479 147.915 472.498 147.876 472.537 147.818C472.963 147.182 472.924 146.314 472.537 145.253C471.202 141.762 465.688 136.361 458.685 131.771C453.113 128.106 447.619 125.56 443.807 124.769C441.602 124.326 439.958 124.461 439.164 125.309L438.971 125.541C437.152 128.318 442.995 135.841 452.068 141.801Z" fill="#FE5244"/>
<path d="M452.068 141.8C457.156 145.137 462.399 147.51 466.346 148.435L484.009 123.593C486.466 120.121 485.654 115.318 482.152 112.869L466.249 101.72L475.265 86.4253C476.58 84.2072 475.826 81.3333 473.582 80.041C472.846 79.6167 472.053 79.4238 471.26 79.4238C469.732 79.4238 468.223 80.1761 467.333 81.5648L439.145 125.271L438.951 125.579C437.152 128.318 442.995 135.84 452.068 141.8Z" fill="#E57281"/>
<path d="M461.258 123.881C461.51 123.881 461.761 123.862 462.013 123.804C462.98 123.611 463.812 123.032 464.334 122.222L473.64 108.335C473.814 108.065 473.736 107.718 473.485 107.525C473.214 107.351 472.866 107.429 472.672 107.679L463.367 121.566C462.999 122.126 462.438 122.512 461.78 122.647C461.123 122.782 460.445 122.647 459.884 122.28L457.698 120.853C456.537 120.101 456.209 118.558 456.944 117.4L466.791 102.182C466.965 101.912 466.888 101.565 466.617 101.392C466.346 101.218 465.998 101.295 465.824 101.565L455.976 116.783C454.893 118.48 455.396 120.737 457.079 121.817L459.265 123.245C459.846 123.669 460.542 123.881 461.258 123.881Z" fill="#9A3B82"/>
<path d="M468.474 128.491C469.673 128.491 470.854 127.912 471.569 126.852C471.744 126.582 471.666 126.234 471.395 126.042C471.124 125.868 470.776 125.945 470.583 126.215C469.828 127.353 468.28 127.681 467.12 126.948L465.127 125.694C464.566 125.328 464.16 124.769 464.024 124.094C463.889 123.418 464.005 122.743 464.373 122.184C464.547 121.914 464.469 121.567 464.198 121.374C463.928 121.2 463.579 121.278 463.386 121.548C462.844 122.377 462.651 123.361 462.863 124.344C463.076 125.309 463.657 126.138 464.489 126.678L466.481 127.932C467.1 128.298 467.797 128.491 468.474 128.491Z" fill="#9A3B82"/>
<path d="M475.555 132.811C476.716 132.811 477.857 132.271 478.573 131.249L483.854 123.823C484.048 123.553 483.97 123.206 483.719 123.013C483.467 122.82 483.1 122.898 482.906 123.148L477.625 130.574C476.832 131.674 475.342 131.963 474.22 131.249L474.181 131.23L472.343 130.208C471.763 129.841 471.376 129.282 471.221 128.626C471.066 127.951 471.202 127.276 471.569 126.697L480.682 113.196C480.856 112.926 480.798 112.579 480.527 112.386C480.256 112.212 479.908 112.27 479.714 112.54L470.602 126.042C470.041 126.89 469.867 127.893 470.08 128.858C470.292 129.822 470.873 130.651 471.724 131.172L471.743 131.191L473.581 132.214C474.22 132.638 474.897 132.811 475.555 132.811Z" fill="#9A3B82"/>
<path d="M445.723 115.086L450.346 107.931C451.875 105.558 455.067 104.903 457.408 106.484L468.88 114.238C468.88 114.238 465.553 120.198 457.466 115.472L454.757 119.773C460.291 123.265 461.877 130.613 458.279 136.072L445.723 115.086Z" fill="#E57281"/>
<path d="M458.279 136.651C458.472 136.651 458.646 136.555 458.762 136.381C460.581 133.604 461.219 130.286 460.503 127.046C459.846 123.999 458.085 121.376 455.551 119.601L457.659 116.245C460.445 117.769 462.98 118.212 465.224 117.614C468.068 116.843 469.345 114.606 469.403 114.528L469.654 114.065L458.356 106.196C457.079 105.347 455.57 105.039 454.08 105.347C452.591 105.656 451.314 106.524 450.482 107.816L445.858 114.972C445.684 115.242 445.761 115.589 446.032 115.763C446.303 115.936 446.651 115.859 446.825 115.589L451.449 108.433C452.107 107.411 453.113 106.717 454.313 106.485C455.493 106.235 456.712 106.485 457.698 107.16L468.087 114.393C467.623 114.991 466.578 116.071 464.914 116.515C462.864 117.074 460.465 116.554 457.776 114.991L457.292 114.702L453.984 119.968L454.467 120.276C457.002 121.877 458.762 124.384 459.401 127.316C460.039 130.248 459.478 133.257 457.814 135.764C457.64 136.034 457.718 136.381 457.988 136.574C458.066 136.613 458.162 136.651 458.279 136.651Z" fill="#9A3B82"/>
<path d="M452.068 141.801C457.156 145.137 462.399 147.51 466.346 148.436L470.738 142.264C468.281 139.062 463.889 135.204 458.685 131.79C453.113 128.126 447.619 125.58 443.807 124.789C441.602 124.345 439.957 124.48 439.164 125.329L438.971 125.56C438.951 125.599 438.932 125.618 438.913 125.657C438.893 125.676 438.893 125.695 438.874 125.734C438.855 125.773 438.835 125.792 438.816 125.83C437.5 128.782 443.285 136.014 452.068 141.801Z" fill="#9A3B82"/>
<path d="M315.599 116.918V133.872C315.599 138.79 322.448 142.764 330.863 142.764C339.298 142.764 346.128 138.79 346.128 133.872V116.918H315.599Z" fill="#E57281"/>
<path d="M341.659 140.16C344.425 138.559 346.147 136.321 346.147 133.872V116.918H315.599V121.624C315.599 126.504 318.578 130.882 323.105 132.715L341.659 140.16Z" fill="#9A3B82"/>
<path d="M307.086 115.916V116.205C307.086 119.137 309.466 121.509 312.407 121.509H315.908C317.089 126.254 321.383 129.784 326.53 129.784H335.197C340.324 129.784 344.638 126.273 345.799 121.509H349.3C352.241 121.509 354.621 119.137 354.621 116.205V115.916C354.621 112.984 352.241 110.612 349.3 110.612H346.128V106.426C346.128 101.951 342.819 98.2481 338.505 97.6309C337.557 99.2125 334.694 102.993 328.851 102.781C326.104 102.684 323.55 102.163 321.441 101.546C318.907 100.813 316.373 102.356 315.734 104.767C315.638 105.307 315.58 105.847 315.58 106.407V110.592H312.407C309.485 110.592 307.086 112.984 307.086 115.916Z" fill="#E57281"/>
<path d="M313.161 110.592H315.599V105.944C315.599 105.539 315.657 105.134 315.754 104.768C316.392 102.357 318.927 100.814 321.461 101.546C323.57 102.164 326.104 102.684 328.871 102.781C334.713 102.993 337.577 99.2127 338.525 97.6311C342.839 98.2483 346.147 101.952 346.147 106.426V110.612H349.184C349.184 110.612 352.667 98.0554 350.055 94.5064C347.482 91.0154 344.387 92.5391 344.387 92.5391C344.387 92.5391 346.244 82.0851 335.874 82.278C325.524 82.4709 312.059 94.4486 311.072 96.6474C309.524 100.023 313.161 110.592 313.161 110.592Z" fill="#9A3B82"/>
<path d="M314.419 117.382C314.69 117.382 314.902 117.17 314.902 116.9C314.902 114.586 313.006 112.695 310.685 112.695C310.414 112.695 310.201 112.907 310.201 113.178C310.201 113.448 310.414 113.66 310.685 113.66C312.484 113.66 313.935 115.106 313.935 116.9C313.935 117.17 314.148 117.382 314.419 117.382Z" fill="#9A3B82"/>
<path d="M347.269 117.382C347.54 117.382 347.753 117.17 347.753 116.9C347.753 115.106 349.204 113.66 351.003 113.66C351.274 113.66 351.487 113.448 351.487 113.178C351.487 112.907 351.274 112.695 351.003 112.695C348.681 112.695 346.785 114.586 346.785 116.9C346.785 117.17 346.998 117.382 347.269 117.382Z" fill="#9A3B82"/>
<path d="M320.474 106.909C320.571 106.909 320.667 106.87 320.764 106.812C320.861 106.735 323.357 104.98 326.549 106.311C326.8 106.407 327.071 106.291 327.187 106.041C327.284 105.79 327.168 105.52 326.916 105.404C323.202 103.88 320.319 105.925 320.203 106.021C319.99 106.176 319.932 106.484 320.106 106.697C320.184 106.832 320.319 106.909 320.474 106.909Z" fill="#9A3B82"/>
<path d="M341.446 106.909C341.6 106.909 341.736 106.832 341.833 106.716C341.987 106.504 341.949 106.195 341.736 106.041C341.62 105.945 338.718 103.9 335.023 105.424C334.771 105.52 334.655 105.81 334.752 106.06C334.848 106.311 335.139 106.427 335.39 106.33C338.602 104.999 341.136 106.812 341.175 106.832C341.252 106.87 341.349 106.909 341.446 106.909Z" fill="#9A3B82"/>
<path d="M329.644 123.149C330.399 123.149 331.269 122.995 332.256 122.628C332.508 122.532 332.643 122.262 332.546 122.011C332.45 121.76 332.179 121.625 331.927 121.722C327.864 123.226 326.529 120.564 326.471 120.449C326.355 120.217 326.065 120.102 325.833 120.217C325.601 120.333 325.485 120.622 325.601 120.854C325.62 120.892 326.723 123.149 329.644 123.149Z" fill="#9A3B82"/>
<path d="M331.018 119.524C331.463 119.524 331.947 119.524 332.353 119.485C332.624 119.466 332.817 119.234 332.798 118.964C332.779 118.694 332.546 118.502 332.276 118.521C331.134 118.598 329.374 118.521 329.354 118.521C329.083 118.502 328.871 118.714 328.851 118.984C328.832 119.254 329.045 119.466 329.316 119.485C329.354 119.485 330.147 119.524 331.018 119.524Z" fill="#9A3B82"/>
<path d="M323.589 114.469C323.055 114.469 322.622 113.743 322.622 112.849C322.622 111.954 323.055 111.229 323.589 111.229C324.123 111.229 324.556 111.954 324.556 112.849C324.556 113.743 324.123 114.469 323.589 114.469Z" fill="#9A3B82"/>
<path d="M337.46 114.469C336.926 114.469 336.493 113.743 336.493 112.849C336.493 111.954 336.926 111.229 337.46 111.229C337.995 111.229 338.428 111.954 338.428 112.849C338.428 113.743 337.995 114.469 337.46 114.469Z" fill="#9A3B82"/>
<path d="M335.158 118.789H341.252C342.684 118.789 343.864 117.613 343.864 116.185V110.11C343.864 108.682 342.684 107.506 341.252 107.506H335.158C333.726 107.506 332.546 108.682 332.546 110.11V116.185C332.527 116.86 332.798 117.516 333.281 117.998C333.784 118.519 334.442 118.789 335.158 118.789ZM341.252 108.47C342.162 108.47 342.897 109.203 342.897 110.11V116.185C342.897 117.092 342.162 117.825 341.252 117.825H335.158C334.713 117.825 334.287 117.651 333.978 117.323C333.668 117.015 333.514 116.61 333.514 116.185V110.11C333.514 109.203 334.249 108.47 335.158 108.47H341.252Z" fill="white"/>
<path d="M320.242 118.789H326.336C327.768 118.789 328.948 117.613 328.948 116.185V110.11C328.948 108.682 327.768 107.506 326.336 107.506H320.242C318.811 107.506 317.631 108.682 317.631 110.11V116.185C317.631 117.613 318.811 118.789 320.242 118.789ZM326.336 108.47C327.246 108.47 327.981 109.203 327.981 110.11V116.185C327.981 117.092 327.246 117.825 326.336 117.825H320.242C319.333 117.825 318.598 117.092 318.598 116.185V110.11C318.598 109.203 319.333 108.47 320.242 108.47H326.336Z" fill="white"/>
<path d="M328.464 111.518H333.011V112.482H328.464V111.518Z" fill="white"/>
<path d="M339.782 196.848H318.636C316.392 196.848 314.573 195.035 314.573 192.798V181.591C314.573 179.354 316.392 177.541 318.636 177.541H339.782C342.026 177.541 343.844 179.354 343.844 181.591V192.798C343.844 195.035 342.026 196.848 339.782 196.848ZM318.636 178.698C317.03 178.698 315.734 179.991 315.734 181.591V192.798C315.734 194.398 317.03 195.691 318.636 195.691H339.782C341.387 195.691 342.684 194.398 342.684 192.798V181.591C342.684 179.991 341.387 178.698 339.782 178.698H318.636Z" fill="#66B0F0"/>
<path d="M329.741 191.756H322.583C321.441 191.756 320.512 190.83 320.512 189.692V184.697C320.512 183.559 321.441 182.633 322.583 182.633H329.741C330.882 182.633 331.811 183.559 331.811 184.697V189.692C331.811 190.83 330.882 191.756 329.741 191.756Z" fill="#66B0F0"/>
<path d="M336.706 191.62L334.5 190.154C333.9 189.749 333.533 189.055 333.533 188.303V186.104C333.533 185.352 333.9 184.657 334.5 184.252L336.706 182.787C337.228 182.439 337.905 182.825 337.905 183.481V190.945C337.924 191.582 337.228 191.968 336.706 191.62Z" fill="#66B0F0"/>
<path d="M35.8296 259.978H549.42C549.748 259.978 550 259.727 550 259.399C550 259.071 549.748 258.82 549.42 258.82H35.8296C35.5007 258.82 35.2492 259.071 35.2492 259.399C35.2492 259.727 35.5007 259.978 35.8296 259.978Z" fill="#3FB1B5"/>
<path d="M384.065 262.773V500.9H397.55V455.574C397.55 451.35 400.993 447.916 405.23 447.916H501.75C505.987 447.916 509.43 451.35 509.43 455.574V500.9H522.915V262.773H384.065Z" fill="white"/>
<path d="M383.485 501.479H398.13V455.574C398.13 451.678 401.322 448.496 405.23 448.496H501.75C505.658 448.496 508.85 451.678 508.85 455.574V501.479H523.495V262.195H383.485V501.479ZM396.969 500.322H384.646V263.353H522.334V500.322H510.011V455.574C510.011 451.042 506.296 447.338 501.75 447.338H405.23C400.684 447.338 396.969 451.042 396.969 455.574V500.322Z" fill="#3FB1B5"/>
<path d="M383.659 262.773V325.96L522.915 440.278L522.895 262.773H383.659Z" fill="#D0F0E4"/>
<path d="M404.824 331.921H502.137C506.47 331.921 509.991 328.411 509.991 324.09V280.905C509.991 276.585 506.47 273.074 502.137 273.074H404.824C400.49 273.074 396.969 276.585 396.969 280.905V324.09C396.969 328.411 400.49 331.921 404.824 331.921ZM502.137 274.231C505.832 274.231 508.83 277.221 508.83 280.905V324.09C508.83 327.774 505.832 330.764 502.137 330.764H404.824C401.129 330.764 398.13 327.774 398.13 324.09V280.905C398.13 277.221 401.129 274.231 404.824 274.231H502.137Z" fill="#3FB1B5"/>
<path d="M428.737 364.054H476.638L478.631 350.379H430.71L428.737 364.054Z" fill="#FFCF2D"/>
<path d="M403.18 342.49C409.158 342.49 413.994 347.312 413.994 353.272V364.054H454.757V353.272C454.757 347.312 449.921 342.49 443.943 342.49H403.18Z" fill="white"/>
<path d="M413.414 364.633H455.338V353.273C455.338 347.004 450.23 341.912 443.943 341.912H403.18V343.069C408.829 343.069 413.414 347.641 413.414 353.273V364.633ZM454.177 363.476H414.575V353.273C414.575 348.798 411.963 344.921 408.19 343.069H443.943C449.592 343.069 454.177 347.641 454.177 353.273V363.476Z" fill="#3FB1B5"/>
<path d="M393.022 350.379H433.785C435.043 345.827 439.241 342.49 444.213 342.49H403.45C398.478 342.49 394.299 345.827 393.022 350.379Z" fill="white"/>
<path d="M392.249 350.958H434.211L434.327 350.534C435.546 346.136 439.609 343.069 444.194 343.069V341.912H403.431C398.343 341.912 393.816 345.326 392.442 350.225L392.249 350.958ZM433.36 349.801H393.816C395.267 345.808 399.136 343.069 403.45 343.069H439.203C436.475 344.4 434.308 346.811 433.36 349.801Z" fill="#3FB1B5"/>
<path d="M404.824 422.321H502.137C506.47 422.321 509.991 418.811 509.991 414.491V371.305C509.991 366.985 506.47 363.475 502.137 363.475H404.824C400.49 363.475 396.969 366.985 396.969 371.305V414.491C396.969 418.811 400.49 422.321 404.824 422.321ZM502.137 364.632C505.832 364.632 508.83 367.621 508.83 371.305V414.491C508.83 418.175 505.832 421.164 502.137 421.164H404.824C401.129 421.164 398.13 418.175 398.13 414.491V371.305C398.13 367.621 401.129 364.632 404.824 364.632H502.137Z" fill="#3FB1B5"/>
<path d="M433.535 302.217C433.863 302.217 434.115 301.967 434.115 301.639C434.115 298.514 436.649 295.987 439.783 295.987H467.159C470.293 295.987 472.827 298.514 472.827 301.639C472.827 301.967 473.079 302.217 473.408 302.217C473.737 302.217 473.988 301.967 473.988 301.639C473.988 297.878 470.931 294.83 467.159 294.83H439.783C436.011 294.83 432.954 297.878 432.954 301.639C432.954 301.967 433.206 302.217 433.535 302.217Z" fill="#3FB1B5"/>
<path d="M433.535 392.62C433.863 392.62 434.115 392.369 434.115 392.041C434.115 388.916 436.649 386.39 439.783 386.39H467.159C470.293 386.39 472.827 388.916 472.827 392.041C472.827 392.369 473.079 392.62 473.408 392.62C473.737 392.62 473.988 392.369 473.988 392.041C473.988 388.28 470.931 385.232 467.159 385.232H439.783C436.011 385.232 432.954 388.28 432.954 392.041C432.954 392.369 433.206 392.62 433.535 392.62Z" fill="#3FB1B5"/>
<path d="M56.2791 262.773H70.6536V501.421H56.2791V262.773Z" fill="white"/>
<path d="M55.6987 502H71.2339V262.195H55.6987V502ZM70.0731 500.843H56.8595V263.353H70.0731V500.843Z" fill="#3FB1B5"/>
<path d="M0.580322 502.001H300.566C300.895 502.001 301.147 501.75 301.147 501.422C301.147 501.094 300.895 500.844 300.566 500.844H0.580322C0.251434 500.844 -6.10352e-05 501.094 -6.10352e-05 501.422C-6.10352e-05 501.75 0.251434 502.001 0.580322 502.001Z" fill="#3FB1B5"/>
<path d="M482.094 226.666H490.78C490.78 226.666 503.181 175.149 514.073 173.47C524.965 171.792 525.526 191.62 525.526 191.62C525.526 191.62 525.333 161.474 498.112 165.601C470.873 169.729 482.094 226.666 482.094 226.666Z" fill="white"/>
<path d="M481.611 227.245H491.226L491.342 226.802C491.381 226.667 494.496 213.782 498.888 200.879C506.162 179.527 511.211 174.493 514.152 174.05C516.164 173.741 517.944 174.204 519.414 175.438C524.541 179.682 524.928 191.524 524.928 191.64L526.089 191.621C526.089 191.466 526.05 187.937 524.908 183.423C523.844 179.238 521.6 173.394 516.899 169.382C512.12 165.312 505.775 163.846 497.998 165.042C492.968 165.794 488.885 168.379 485.848 172.68C480.973 179.605 478.748 190.811 479.27 206.029C479.657 217.312 481.476 226.686 481.495 226.782L481.611 227.245ZM490.317 226.088H482.559C482.192 224.063 480.76 215.73 480.431 205.971C480.083 195.69 480.915 181.707 486.796 173.355C489.64 169.305 493.471 166.894 498.172 166.2C505.581 165.081 511.637 166.45 516.145 170.289C517.499 171.446 518.66 172.777 519.627 174.185C517.982 173.027 516.087 172.622 513.958 172.95C509.219 173.683 503.763 182.98 497.765 200.57C493.838 212.124 490.917 223.696 490.317 226.088Z" fill="#3FB1B5"/>
<path d="M485.905 226.473C486.215 226.473 486.486 226.222 486.486 225.894C487.124 187.492 495.288 173.933 502.021 169.343C507.128 165.852 511.597 167.433 511.636 167.453C511.945 167.568 512.274 167.414 512.39 167.105C512.506 166.797 512.352 166.469 512.042 166.353C511.829 166.276 506.973 164.559 501.363 168.378C497.029 171.349 493.489 176.788 490.858 184.58C487.472 194.61 485.615 208.497 485.325 225.875C485.325 226.203 485.576 226.473 485.905 226.473Z" fill="#3FB1B5"/>
<path d="M458.433 225.895H499.235V259.012H458.433V225.895Z" fill="#FE5244"/>
<path d="M449.843 242.463C452.435 243.582 455.531 243.447 458.413 242.193C460.542 241.267 462.554 239.743 464.179 237.66C466.423 234.767 467.932 230.813 467.932 225.895C467.932 213.975 477.45 206.491 481.358 222.269C481.629 223.368 481.881 224.564 482.094 225.895V225.856V225.779C482.094 225.741 482.093 225.683 482.074 225.625V225.548C481.997 224.564 481.707 221.652 480.817 218.141C480.159 215.537 479.172 212.644 477.702 209.963C476.967 208.632 476.115 207.359 475.109 206.221C472.517 203.251 468.957 201.168 464.101 201.168C455.163 201.168 448.624 211.661 446.128 222.114C443.942 231.199 444.832 240.284 449.843 242.463Z" fill="white"/>
<path d="M453.654 243.794C455.299 243.794 457.021 243.428 458.646 242.714C460.948 241.711 463.018 240.091 464.643 238.008C467.178 234.748 468.512 230.544 468.512 225.895C468.512 220.456 470.911 214.323 474.49 213.898C477.083 213.59 479.366 216.695 480.797 222.404C481.088 223.6 481.32 224.757 481.533 225.992L482.693 225.895V225.78C482.693 225.741 482.693 225.645 482.674 225.548V225.49C482.597 224.41 482.287 221.517 481.397 217.987C480.604 214.863 479.54 212.066 478.224 209.674C477.392 208.189 476.522 206.916 475.555 205.836C472.517 202.345 468.667 200.59 464.101 200.59C454.815 200.59 448.102 211.333 445.568 221.98C444.445 226.667 444.136 231.277 444.716 234.961C445.355 239.107 447.057 241.866 449.611 242.984C450.849 243.524 452.223 243.794 453.654 243.794ZM474.839 212.722C474.665 212.722 474.51 212.741 474.355 212.76C470.486 213.223 467.352 219.125 467.352 225.915C467.352 230.312 466.094 234.266 463.715 237.333C462.205 239.262 460.29 240.766 458.181 241.692C455.415 242.888 452.455 242.984 450.075 241.962C445.742 240.072 444.368 231.99 446.69 222.289C447.986 216.83 450.288 211.796 453.151 208.112C456.382 203.965 460.155 201.786 464.101 201.786C468.3 201.786 471.859 203.425 474.665 206.646C475.574 207.688 476.406 208.864 477.18 210.292C478.147 212.066 478.979 214.053 479.656 216.251C479.327 215.711 478.998 215.229 478.65 214.805C477.276 213.127 475.883 212.722 474.839 212.722Z" fill="#3FB1B5"/>
<path d="M451.913 243.408C452.204 243.408 452.455 243.196 452.494 242.887C455.318 216.444 461.761 208.266 466.655 206.067C471.028 204.099 474.723 206.665 474.762 206.684C475.013 206.877 475.381 206.8 475.574 206.549C475.768 206.298 475.69 205.932 475.439 205.739C475.265 205.623 471.163 202.769 466.191 205.006C462.902 206.491 460.039 209.847 457.698 215.016C454.757 221.478 452.629 230.813 451.352 242.752C451.314 243.061 451.546 243.35 451.875 243.389C451.875 243.408 451.894 243.408 451.913 243.408Z" fill="#3FB1B5"/>
<path d="M526.107 191.62C526.107 194.803 526.475 206.974 514.828 207.533C503.182 208.092 502.021 190.56 502.021 190.56C502.021 190.56 507.747 175.052 514.074 173.471C524.772 170.79 526.107 191.62 526.107 191.62Z" fill="#3FB1B5"/>
<path d="M467.932 225.896H482.094C478.824 205.47 467.932 213.147 467.932 225.896Z" fill="#3FB1B5"/>
<path opacity="0.4" d="M227.437 75.8749V203.193C227.437 210.04 233.008 215.576 239.857 215.576H386.019C395.19 228.171 414.091 228.229 423.339 215.576L423.358 215.557C427.034 215.306 430.284 213.435 432.374 210.677L429.007 207.784L343.109 133.873L261.312 63.4922H239.857C233.008 63.4922 227.437 69.0471 227.437 75.8749Z" fill="white"/>
<path opacity="0.4" d="M449.843 243.042C452.417 244.2 455.531 244.026 458.414 242.772V259.013H488.536L464.16 238.047L458.395 233.09L454.003 229.31L445.51 222.115C443.034 232.646 444.407 240.554 449.843 243.042Z" fill="white"/>
<path d="M193.329 328.738V436.094H218.209L234.053 391.983L256.747 328.738H193.329Z" fill="#A0505A"/>
<path d="M256.747 328.738H193.329V363.205L249.202 349.743L256.747 328.738Z" fill="#73325A"/>
<path d="M192.749 436.672H218.615L235.117 390.729L233.763 391.461C233.724 391.481 230.513 393.197 223.974 394.046C217.938 394.837 207.723 395.01 193.464 391.404L192.749 391.23V436.672ZM217.802 435.515H193.909V392.715C208.032 396.206 218.17 395.994 224.225 395.203C228.617 394.625 231.519 393.68 233.047 393.062L217.802 435.515Z" fill="white"/>
<path d="M221.11 402.918C222.987 402.918 224.515 401.394 224.515 399.524C224.515 397.653 222.987 396.129 221.11 396.129C219.234 396.129 217.705 397.653 217.705 399.524C217.705 401.394 219.234 402.918 221.11 402.918ZM221.11 397.286C222.349 397.286 223.355 398.289 223.355 399.524C223.355 400.758 222.349 401.761 221.11 401.761C219.872 401.761 218.866 400.758 218.866 399.524C218.866 398.289 219.872 397.286 221.11 397.286Z" fill="white"/>
<path d="M207.645 412.002C209.522 412.002 211.05 410.479 211.05 408.608C211.05 406.737 209.522 405.213 207.645 405.213C205.768 405.213 204.24 406.737 204.24 408.608C204.24 410.479 205.768 412.002 207.645 412.002ZM207.645 406.37C208.883 406.37 209.889 407.373 209.889 408.608C209.889 409.842 208.883 410.845 207.645 410.845C206.407 410.845 205.401 409.842 205.401 408.608C205.401 407.373 206.407 406.37 207.645 406.37Z" fill="white"/>
<path d="M197.624 401.916C199.501 401.916 201.029 400.393 201.029 398.522C201.029 396.651 199.501 395.127 197.624 395.127C195.747 395.127 194.219 396.651 194.219 398.522C194.219 400.393 195.747 401.916 197.624 401.916ZM197.624 396.284C198.862 396.284 199.868 397.287 199.868 398.522C199.868 399.756 198.862 400.759 197.624 400.759C196.386 400.759 195.38 399.756 195.38 398.522C195.38 397.287 196.386 396.284 197.624 396.284Z" fill="white"/>
<path d="M201.59 422.573C203.466 422.573 204.995 421.049 204.995 419.178C204.995 417.307 203.466 415.783 201.59 415.783C199.713 415.783 198.185 417.307 198.185 419.178C198.185 421.049 199.713 422.573 201.59 422.573ZM201.59 416.94C202.828 416.94 203.834 417.943 203.834 419.178C203.834 420.412 202.828 421.415 201.59 421.415C200.352 421.415 199.346 420.412 199.346 419.178C199.346 417.943 200.352 416.94 201.59 416.94Z" fill="white"/>
<path d="M218.286 417.442C220.162 417.442 221.691 415.918 221.691 414.047C221.691 412.176 220.162 410.652 218.286 410.652C216.409 410.652 214.881 412.176 214.881 414.047C214.881 415.918 216.409 417.442 218.286 417.442ZM218.286 411.81C219.524 411.81 220.53 412.813 220.53 414.047C220.53 415.281 219.524 416.284 218.286 416.284C217.047 416.284 216.041 415.281 216.041 414.047C216.041 412.813 217.047 411.81 218.286 411.81Z" fill="white"/>
<path d="M213.681 432.871C215.558 432.871 217.086 431.348 217.086 429.477C217.086 427.606 215.558 426.082 213.681 426.082C211.805 426.082 210.276 427.606 210.276 429.477C210.276 431.348 211.805 432.871 213.681 432.871ZM213.681 427.239C214.919 427.239 215.925 428.242 215.925 429.477C215.925 430.711 214.919 431.714 213.681 431.714C212.443 431.714 211.437 430.711 211.437 429.477C211.437 428.242 212.443 427.239 213.681 427.239Z" fill="white"/>
<path d="M181.567 456.114L198.63 491.43C201.049 497.12 206.64 500.823 212.85 500.823H234.615C240.186 500.823 243.572 495.191 241.444 490.06L219.563 437.443C218.344 434.242 216.197 431.58 213.508 429.709C210.799 427.838 207.549 426.777 204.125 426.777C199.365 426.777 194.645 429.998 191.511 433.567L183.927 441.725C180.425 445.699 179.516 451.273 181.567 456.114Z" fill="#66B0F0"/>
<path d="M181.566 456.113L198.63 491.429C201.048 497.119 206.639 500.822 212.85 500.822H235.988C238.135 500.822 239.354 499.491 240.07 497.659H234.924C228.714 497.659 223.123 493.956 220.704 488.266L201.029 447.356C199.191 443.537 195.302 441.088 191.046 441.088C185.494 441.088 181.276 445.138 180.502 450.269C180.425 452.236 180.773 454.223 181.566 456.113Z" fill="white"/>
<path d="M212.85 501.401H235.988C238.136 501.401 239.703 500.205 240.612 497.871C240.689 497.698 240.651 497.486 240.554 497.331C240.438 497.177 240.264 497.081 240.07 497.081H234.924C228.946 497.081 223.568 493.532 221.246 488.035C221.246 488.035 221.246 488.015 221.227 488.015L201.551 447.106C199.617 443.094 195.496 440.51 191.046 440.51C185.455 440.51 180.773 444.579 179.922 450.192C179.922 450.211 179.922 450.231 179.922 450.25C179.845 452.333 180.212 454.397 181.025 456.345C181.025 456.345 181.025 456.364 181.044 456.364L198.108 491.661C200.623 497.582 206.407 501.401 212.85 501.401ZM239.161 498.238C238.426 499.607 237.4 500.244 235.988 500.244H212.85C206.872 500.244 201.493 496.695 199.172 491.198C199.172 491.198 199.172 491.179 199.152 491.179L182.089 455.882C181.354 454.108 181.005 452.237 181.083 450.327C181.857 445.312 186.036 441.667 191.046 441.667C195.051 441.667 198.766 444.001 200.507 447.608L220.182 488.498C222.697 494.419 228.482 498.238 234.924 498.238H239.161Z" fill="#66B0F0"/>
<path d="M185.494 440.027C187.545 438.909 190.021 438.099 192.188 438.099C196.348 438.099 200.197 440.51 201.997 444.251L222.368 486.607C224.961 492.722 230.958 496.676 237.633 496.676H241.386C241.58 496.309 241.715 495.923 241.85 495.518H237.633C231.423 495.518 225.851 491.834 223.433 486.145L223.413 486.125L203.022 443.75C201.029 439.603 196.773 436.941 192.169 436.941C190.698 436.941 188.938 437.424 187.429 437.944L185.494 440.027Z" fill="white"/>
<path d="M256.747 328.738L261.603 391.982L263.77 420.316C263.77 420.316 277.912 436.016 294.008 426.334L301.457 392.002L318.501 313.443C323.105 292.207 308.557 271.55 286.947 268.676L256.747 328.738Z" fill="#A0505A"/>
<path d="M283.116 430.827C286.579 430.827 290.39 429.959 294.298 427.606L294.511 427.471L302.211 391.172L301.282 391.461C282.961 396.939 261.951 391.5 261.738 391.442L260.945 391.23L263.189 421.338L263.325 421.492C263.479 421.646 267 425.523 272.592 428.262C275.397 429.612 279.034 430.827 283.116 430.827ZM293.486 426.738C287.063 430.519 280.214 430.673 273.133 427.221C268.335 424.868 265.008 421.55 264.331 420.836L262.241 392.734C264.002 393.139 268.568 394.123 274.468 394.663C281.259 395.299 291.222 395.454 300.702 392.831L293.486 426.738Z" fill="white"/>
<path d="M283.832 410.055C285.709 410.055 287.237 408.531 287.237 406.66C287.237 404.789 285.709 403.266 283.832 403.266C281.956 403.266 280.427 404.789 280.427 406.66C280.427 408.531 281.956 410.055 283.832 410.055ZM283.832 404.423C285.07 404.423 286.077 405.426 286.077 406.66C286.077 407.895 285.07 408.898 283.832 408.898C282.594 408.898 281.588 407.895 281.588 406.66C281.588 405.426 282.594 404.423 283.832 404.423Z" fill="white"/>
<path d="M265.878 405.735C267.755 405.735 269.283 404.211 269.283 402.34C269.283 400.469 267.755 398.945 265.878 398.945C264.002 398.945 262.473 400.469 262.473 402.34C262.473 404.211 264.002 405.735 265.878 405.735ZM265.878 400.103C267.117 400.103 268.123 401.106 268.123 402.34C268.123 403.574 267.117 404.577 265.878 404.577C264.64 404.577 263.634 403.574 263.634 402.34C263.634 401.106 264.64 400.103 265.878 400.103Z" fill="white"/>
<path d="M294.666 401.914C296.542 401.914 298.071 400.391 298.071 398.52C298.071 396.649 296.542 395.125 294.666 395.125C292.789 395.125 291.261 396.649 291.261 398.52C291.261 400.391 292.789 401.914 294.666 401.914ZM294.666 396.282C295.904 396.282 296.91 397.285 296.91 398.52C296.91 399.754 295.904 400.757 294.666 400.757C293.428 400.757 292.422 399.754 292.422 398.52C292.422 397.285 293.428 396.282 294.666 396.282Z" fill="white"/>
<path d="M286.656 425.389C288.533 425.389 290.061 423.865 290.061 421.994C290.061 420.123 288.533 418.6 286.656 418.6C284.78 418.6 283.251 420.123 283.251 421.994C283.251 423.865 284.78 425.389 286.656 425.389ZM286.656 419.757C287.894 419.757 288.9 420.76 288.9 421.994C288.9 423.229 287.894 424.232 286.656 424.232C285.418 424.232 284.412 423.229 284.412 421.994C284.412 420.76 285.418 419.757 286.656 419.757Z" fill="white"/>
<path d="M273.482 419.756C275.358 419.756 276.887 418.232 276.887 416.361C276.887 414.491 275.358 412.967 273.482 412.967C271.605 412.967 270.077 414.491 270.077 416.361C270.077 418.232 271.605 419.756 273.482 419.756ZM273.482 414.124C274.72 414.124 275.726 415.127 275.726 416.361C275.726 417.596 274.72 418.599 273.482 418.599C272.244 418.599 271.238 417.596 271.238 416.361C271.238 415.127 272.244 414.124 273.482 414.124Z" fill="white"/>
<path d="M245.12 427.067L263.77 501.421H269.651C269.922 501.421 270.173 501.402 270.444 501.383C274.894 500.978 278.647 497.236 279.595 492.819L294.028 426.295C277.931 435.997 263.77 420.297 263.77 420.297L245.12 427.067Z" fill="#66B0F0"/>
<path d="M244.172 465.218C240.245 444.542 239.161 428.745 245.933 427.472C252.704 426.199 264.757 439.913 268.684 460.589C272.611 481.266 270.56 499.551 263.789 500.824C257.018 502.116 248.099 485.914 244.172 465.218Z" fill="white"/>
<path d="M263.015 501.478C263.306 501.478 263.615 501.459 263.905 501.401C267.426 500.745 269.883 496.001 270.831 488.054C271.741 480.397 271.18 470.599 269.264 460.492C267.446 450.944 263.751 442.053 258.856 435.456C254.368 429.419 249.492 426.218 245.836 426.912C242.315 427.568 240.574 431.541 240.477 439.063C240.399 445.197 241.425 453.78 243.611 465.333C245.159 473.473 247.5 481.13 250.382 487.475C253.226 493.744 256.341 498.142 259.378 500.205C260.616 501.035 261.835 501.478 263.015 501.478ZM246.842 427.973C249.937 427.973 254.097 431.02 257.908 436.151C262.706 442.612 266.324 451.33 268.123 460.704C270.019 470.714 270.58 480.378 269.69 487.919C268.819 495.21 266.633 499.704 263.693 500.263C262.57 500.475 261.332 500.128 260.017 499.241C254.077 495.21 247.79 481.188 244.752 465.121C242.566 453.664 241.56 445.139 241.638 439.083C241.715 432.293 243.205 428.59 246.049 428.05C246.3 427.992 246.571 427.973 246.842 427.973Z" fill="#66B0F0"/>
<path d="M271.393 460.262C273.424 470.986 274.024 481.343 273.056 489.444C272.36 495.269 270.89 499.416 268.877 501.422H269.651C269.922 501.422 270.174 501.402 270.445 501.383C272.263 498.991 273.559 494.98 274.217 489.579C275.204 481.382 274.604 470.889 272.534 460.05C270.58 449.788 266.633 440.164 261.39 432.931C258.256 428.61 254.967 425.582 251.969 424.213L250.228 424.792C257.134 426.836 267.62 440.415 271.393 460.262Z" fill="white"/>
<path d="M286.946 268.657L198.688 259.592L110.468 284.261L111.223 295.949C112.422 314.388 128.364 328.738 146.897 328.738H256.727L286.946 268.657Z" fill="#FE5244"/>
<path d="M150.786 321.219H260.616C260.945 321.219 261.196 320.968 261.196 320.64C261.196 320.312 260.945 320.061 260.616 320.061H150.786C142.39 320.061 133.587 315.644 126.622 307.91C120.025 300.581 116.079 291.419 116.079 283.415C116.079 283.087 115.827 282.836 115.498 282.836C115.169 282.836 114.918 283.087 114.918 283.415C114.918 291.708 118.981 301.159 125.752 308.701C132.949 316.647 142.061 321.219 150.786 321.219Z" fill="white"/>
<path d="M159.434 311.574H265.066C265.394 311.574 265.646 311.323 265.646 310.995C265.646 310.667 265.394 310.416 265.066 310.416H159.434C152.102 310.416 144.518 306.983 138.114 300.734C132.097 294.87 127.88 287.31 126.545 279.98C126.487 279.672 126.177 279.459 125.868 279.517C125.558 279.575 125.346 279.884 125.404 280.192C128.131 295.025 142.777 311.574 159.434 311.574Z" fill="white"/>
<path d="M168.74 301.737H270.676C271.005 301.737 271.257 301.486 271.257 301.158C271.257 300.83 271.005 300.579 270.676 300.579H168.74C154.81 300.579 142.719 288.081 138.405 276.335C138.289 276.026 137.96 275.872 137.669 275.988C137.36 276.103 137.205 276.431 137.321 276.721C139.72 283.259 144.054 289.412 149.548 294.041C155.526 299.075 162.162 301.737 168.74 301.737Z" fill="white"/>
<path d="M173.77 291.129H275.706C276.035 291.129 276.287 290.878 276.287 290.55C276.287 290.222 276.035 289.971 275.706 289.971H173.77C164.174 289.971 154.114 283.741 147.497 273.731C147.323 273.461 146.956 273.384 146.685 273.558C146.414 273.731 146.337 274.098 146.511 274.368C153.359 284.706 163.787 291.129 173.77 291.129Z" fill="white"/>
<path d="M178.606 281.484H280.543C280.872 281.484 281.123 281.233 281.123 280.905C281.123 280.577 280.872 280.326 280.543 280.326H178.606C171.216 280.326 163.768 276.932 157.635 270.779C157.403 270.548 157.035 270.548 156.822 270.779C156.59 271.011 156.59 271.377 156.822 271.589C163.168 277.973 170.907 281.484 178.606 281.484Z" fill="white"/>
<path d="M183.83 271.648H285.766C286.095 271.648 286.347 271.397 286.347 271.069C286.347 270.741 286.095 270.49 285.766 270.49H183.83C179.477 270.49 175.105 269.256 170.81 266.845C170.539 266.691 170.171 266.787 170.016 267.057C169.862 267.327 169.958 267.694 170.229 267.848C174.698 270.375 179.283 271.648 183.83 271.648Z" fill="white"/>
<path d="M256.94 329.317C257.153 329.317 257.365 329.202 257.462 328.99L287.662 268.908C287.797 268.619 287.681 268.272 287.41 268.137C287.12 268.002 286.772 268.117 286.637 268.387L256.437 328.469C256.301 328.758 256.417 329.105 256.688 329.24C256.766 329.298 256.843 329.317 256.94 329.317Z" fill="white"/>
<path d="M105.632 203.753C113.95 206.106 122.134 205.412 123.005 202.885C123.817 200.474 120.141 196.347 112.693 193.608C112.325 193.473 111.938 193.338 111.552 193.203C109.307 192.451 107.063 191.968 104.954 191.718C98.7055 190.927 93.6174 192.046 92.979 193.936C92.1084 196.463 96.8289 201.265 105.632 203.753Z" fill="white"/>
<path d="M115.537 205.779C119.755 205.779 122.947 204.834 123.566 203.079C124.611 199.993 120.025 195.692 112.906 193.069C112.538 192.934 112.152 192.799 111.765 192.664H111.745C109.559 191.931 107.296 191.429 105.032 191.159C98.6284 190.349 93.2114 191.468 92.4375 193.763C92.1667 194.515 92.3021 195.441 92.8051 196.405C94.4302 199.491 99.4022 202.616 105.477 204.333C108.979 205.297 112.519 205.779 115.537 205.779ZM100.989 192.046C102.169 192.046 103.465 192.123 104.877 192.297C107.063 192.567 109.25 193.049 111.358 193.763C111.745 193.898 112.132 194.033 112.48 194.168C115.847 195.402 118.71 197.042 120.528 198.797C122.057 200.263 122.773 201.729 122.444 202.712C121.805 204.583 114.357 205.625 105.787 203.214C101.047 201.883 95.5136 199.086 93.8304 195.865C93.4822 195.19 93.3662 194.592 93.5209 194.129C93.8692 193.107 96.6163 192.046 100.989 192.046Z" fill="#3FB1B5"/>
<path d="M110.894 259.997H114.086L122.463 203.619V203.581L122.676 202.173C122.27 199.607 118.246 195.981 111.146 193.628C107.605 192.452 104.084 191.931 101.086 191.873L98.0289 200.225L97.7387 201.015L88.0655 227.459C82.2616 243.256 94.0048 259.997 110.894 259.997Z" fill="#A0505A"/>
<path d="M97.8354 200.823C99.8668 202.096 102.498 203.272 105.632 204.159C112.829 206.185 120.123 205.355 122.463 203.619V203.581L122.676 202.173C122.27 199.607 118.246 195.981 111.146 193.628C107.605 192.452 104.084 191.931 101.086 191.873L97.8354 200.823Z" fill="#73325A"/>
<path d="M214.514 213.61L224.67 238.8C229.681 251.241 241.792 259.4 255.257 259.4H391.785V246.94C391.785 243.931 389.928 241.23 387.103 240.17L373.077 234.866C371.8 234.383 370.465 234.133 369.111 234.133H353.189L263.073 225.067L247.519 189.559L214.514 213.61Z" fill="#A0505A"/>
<path d="M391.205 252.205C391.533 252.205 391.785 251.954 391.785 251.626C391.785 249.099 390.257 246.881 387.877 245.975L377.294 241.982C377.004 241.866 376.656 242.021 376.54 242.31C376.424 242.599 376.579 242.946 376.869 243.062L387.451 247.055C389.367 247.788 390.624 249.581 390.624 251.626C390.624 251.954 390.876 252.205 391.205 252.205Z" fill="#73325A"/>
<path d="M391.205 258.57C391.533 258.57 391.785 258.319 391.785 257.991C391.785 255.464 390.257 253.246 387.877 252.34L377.294 248.347C377.004 248.232 376.656 248.386 376.54 248.675C376.424 248.964 376.579 249.312 376.869 249.427L387.451 253.42C389.367 254.153 390.624 255.947 390.624 257.991C390.624 258.319 390.876 258.57 391.205 258.57Z" fill="#73325A"/>
<path d="M387.664 259.4C387.897 259.4 388.129 259.246 388.206 259.014C388.322 258.706 388.167 258.378 387.858 258.282L377.275 254.482C376.966 254.366 376.637 254.52 376.54 254.829C376.424 255.138 376.579 255.465 376.888 255.562L387.471 259.362C387.529 259.381 387.606 259.4 387.664 259.4Z" fill="#73325A"/>
<path d="M378.184 237.007C378.184 237.007 368.279 211.798 365.106 212.222C361.933 212.646 373.889 235.387 373.889 235.387L378.184 237.007Z" fill="#FE5244"/>
<path d="M247.519 189.578L249.802 194.767L220.569 228.617L214.514 213.611L247.519 189.578Z" fill="#73325A"/>
<path d="M122.463 203.639L110.468 284.262L198.669 259.593L214.513 213.592L255.412 183.792L241.057 166.742C228.249 151.524 209.348 142.729 189.421 142.729H161.079C136.431 142.729 113.738 156.153 101.917 177.716L92.7276 193.571C92.7276 193.571 95.4942 189.521 110.41 193.59C123.547 197.197 122.463 203.639 122.463 203.639Z" fill="#3FB1B5"/>
<path d="M214.513 213.803C214.552 213.803 214.61 213.803 214.649 213.784C214.958 213.707 215.152 213.398 215.074 213.09L210.489 193.262C210.412 192.953 210.102 192.76 209.793 192.837C209.483 192.914 209.29 193.223 209.367 193.532L213.952 213.36C214.01 213.63 214.243 213.803 214.513 213.803Z" fill="white"/>
<path d="M112.693 266.016C112.964 266.016 113.216 265.823 113.274 265.533L128.19 173.087C128.248 172.779 128.035 172.47 127.706 172.431C127.397 172.374 127.087 172.586 127.049 172.914L112.132 265.36C112.074 265.668 112.287 265.977 112.616 266.016C112.635 266.016 112.655 266.016 112.693 266.016Z" fill="white"/>
<path d="M110.662 284.84C110.72 284.84 110.758 284.84 110.816 284.821L198.843 259.785C199.152 259.689 199.326 259.38 199.249 259.072C199.152 258.763 198.843 258.59 198.533 258.667L110.507 283.702C110.197 283.799 110.023 284.107 110.101 284.416C110.178 284.667 110.41 284.84 110.662 284.84Z" fill="white"/>
<path d="M193.929 129.843V142.804L170.984 142.612V119.736L193.929 129.843Z" fill="#A0505A"/>
<path d="M169.127 115.745V116.092C169.127 119.564 171.758 122.38 175.24 122.38H176.594C177.465 125.813 185.204 129.825 190.698 129.825H197.102C204.105 129.825 209.464 123.556 208.323 116.651L208.013 114.78L209.909 113.72C210.992 113.102 211.302 111.694 210.547 110.691L206.446 105.291L205.556 99.9674C204.84 95.589 201.958 92.0208 198.127 90.2656C196.618 107.22 181.605 109.225 177.639 109.457H175.434C171.951 109.457 169.127 112.273 169.127 115.745Z" fill="#A0505A"/>
<path d="M179.284 117.983C179.613 117.983 179.864 117.733 179.864 117.405C179.864 114.357 177.368 111.869 174.311 111.869C173.983 111.869 173.731 112.12 173.731 112.448C173.731 112.776 173.983 113.026 174.311 113.026C176.73 113.026 178.703 114.994 178.703 117.405C178.703 117.733 178.955 117.983 179.284 117.983Z" fill="#73325A"/>
<path d="M200.255 109.63C199.71 109.63 199.268 108.611 199.268 107.354C199.268 106.097 199.71 105.078 200.255 105.078C200.8 105.078 201.242 106.097 201.242 107.354C201.242 108.611 200.8 109.63 200.255 109.63Z" fill="#73325A"/>
<path d="M196.231 104.48C196.405 104.48 196.579 104.403 196.696 104.248C199.269 100.699 201.668 100.892 201.706 100.892C202.035 100.931 202.306 100.699 202.345 100.371C202.383 100.063 202.151 99.7735 201.822 99.7349C201.706 99.7156 198.727 99.4842 195.767 103.554C195.573 103.805 195.631 104.171 195.902 104.364C195.999 104.441 196.115 104.48 196.231 104.48Z" fill="#73325A"/>
<path d="M177.639 109.457H175.433C171.951 109.457 169.127 112.273 169.127 115.745V116.092C169.127 119.563 171.758 122.38 175.24 122.38L176.73 123.421C182.998 127.433 191.665 143.21 189.537 154.378C187.138 166.934 176.169 169.731 166.031 167.802C155.894 165.873 148.503 159.991 150.902 147.415C151.173 145.93 151.618 144.445 152.179 142.979C152.005 143.037 151.85 143.095 151.676 143.152C139.488 146.47 125.171 146.856 121.225 137.366C117.278 127.876 118.168 118.483 130.027 113.584C136.915 110.73 146.278 110.749 153.533 112.716C149.877 100.044 156.377 85.9449 168.314 84.5369C187.061 82.3189 197.817 90.034 198.107 90.2461C198.127 92.4835 196.599 108.357 177.639 109.457Z" fill="#73325A"/>
<path d="M151.676 143.751C151.947 143.751 152.198 143.558 152.237 143.288C154.288 132.583 163.071 126.681 163.168 126.624C163.323 126.527 163.419 126.334 163.419 126.141C163.419 125.949 163.323 125.775 163.168 125.659C157.17 121.435 154.578 115.34 153.572 112.1C153.475 111.791 153.146 111.618 152.856 111.714C152.547 111.811 152.373 112.138 152.469 112.428C153.475 115.707 156.029 121.724 161.852 126.122C159.666 127.762 152.914 133.509 151.096 143.057C151.038 143.365 151.25 143.674 151.56 143.732C151.599 143.751 151.637 143.751 151.676 143.751Z" fill="white"/>
<path d="M147.787 112.426H152.913C153.242 112.426 153.494 112.175 153.494 111.848V106.736C153.494 103.747 151.056 101.316 148.057 101.316H147.787C144.788 101.316 142.35 103.747 142.35 106.736V107.006C142.331 108.434 142.892 109.803 143.917 110.825C144.943 111.848 146.316 112.426 147.787 112.426ZM152.333 111.269H147.787C146.626 111.269 145.562 110.825 144.749 109.996C143.956 109.186 143.511 108.125 143.511 107.006V106.736C143.511 104.383 145.426 102.474 147.787 102.474H148.057C150.418 102.474 152.333 104.383 152.333 106.736V111.269Z" fill="#FE5244"/>
<path d="M144.924 120.258C146.994 120.258 148.987 119.255 150.167 117.403L153.456 112.196C153.63 111.925 153.553 111.559 153.282 111.405L148.058 108.126C146.665 107.258 145.001 106.969 143.396 107.335C141.79 107.701 140.416 108.666 139.526 110.055L139.217 110.537C138.327 111.925 138.056 113.584 138.424 115.185C138.791 116.786 139.759 118.155 141.152 119.043L141.635 119.351C142.641 119.949 143.783 120.258 144.924 120.258ZM152.16 112.061L149.18 116.786C147.71 119.101 144.595 119.795 142.235 118.329L141.751 118.02C140.61 117.307 139.836 116.207 139.546 114.896C139.256 113.584 139.488 112.253 140.204 111.115L140.513 110.633C141.229 109.495 142.332 108.724 143.647 108.434C144.963 108.145 146.298 108.377 147.439 109.09L152.16 112.061Z" fill="#FE5244"/>
<path d="M176.614 135.689C176.749 135.689 176.885 135.689 177.02 135.669C178.471 135.554 179.787 134.898 180.735 133.798L180.909 133.586C181.857 132.506 182.321 131.117 182.224 129.69C182.128 128.244 181.47 126.913 180.367 125.968L176.73 122.496C176.614 122.38 176.459 122.322 176.304 122.342C176.149 122.342 175.995 122.419 175.898 122.534L172.319 126.566C171.371 127.665 170.887 129.073 171.003 130.52C171.119 131.966 171.777 133.278 172.88 134.223L173.112 134.396C174.06 135.226 175.298 135.689 176.614 135.689ZM176.343 123.73L179.554 126.797L179.574 126.816C180.444 127.569 180.967 128.61 181.044 129.767C181.121 130.905 180.754 131.985 180.019 132.834C180.019 132.834 180.019 132.853 179.999 132.853L179.825 133.066C179.09 133.914 178.065 134.435 176.923 134.531C175.782 134.609 174.679 134.242 173.809 133.509L173.576 133.316C172.725 132.583 172.203 131.561 172.106 130.423C172.029 129.285 172.396 128.186 173.131 127.318L176.343 123.73Z" fill="#FE5244"/>
<path d="M169.204 133.567C171.912 133.567 174.408 131.773 175.182 129.053L176.826 123.132C176.904 122.823 176.73 122.515 176.42 122.418L170.481 120.779C168.894 120.335 167.231 120.547 165.799 121.338C164.367 122.148 163.323 123.46 162.878 125.042L162.723 125.601C162.278 127.182 162.491 128.841 163.284 130.268C164.096 131.696 165.412 132.737 166.998 133.181L167.56 133.335C168.121 133.509 168.662 133.567 169.204 133.567ZM174.06 128.745C173.305 131.387 170.539 132.969 167.888 132.236L167.327 132.082C166.031 131.715 164.967 130.886 164.309 129.728C163.652 128.571 163.497 127.221 163.845 125.929L164 125.369C164.367 124.077 165.199 123.016 166.36 122.361C167.521 121.705 168.875 121.55 170.171 121.898L175.55 123.383L174.06 128.745Z" fill="#FE5244"/>
<path d="M261.12 501.403C261.158 501.403 261.197 501.403 261.236 501.384C261.545 501.326 261.758 501.017 261.681 500.689L227.979 343.436C227.921 343.127 227.611 342.915 227.283 342.992C226.973 343.05 226.76 343.359 226.838 343.687L260.558 500.94C260.616 501.21 260.849 501.403 261.12 501.403Z" fill="#FFCF2D"/>
<path d="M107.47 501.403C107.741 501.403 107.973 501.21 108.031 500.94L141.733 343.687C141.791 343.378 141.597 343.07 141.288 342.993C140.978 342.935 140.669 343.128 140.591 343.436L106.89 500.689C106.832 500.998 107.025 501.306 107.335 501.384C107.393 501.403 107.431 501.403 107.47 501.403Z" fill="#FFCF2D"/>
<path d="M115.402 466.491H253.651C253.98 466.491 254.232 466.241 254.232 465.913C254.232 465.585 253.98 465.334 253.651 465.334H115.402C115.073 465.334 114.821 465.585 114.821 465.913C114.821 466.241 115.073 466.491 115.402 466.491Z" fill="#FFCF2D"/>
<path d="M114.648 343.571H253.962C255.722 343.571 257.154 342.143 257.154 340.388V331.921C257.154 330.166 255.722 328.738 253.962 328.738H114.648C112.887 328.738 111.456 330.166 111.456 331.921V340.388C111.456 342.143 112.887 343.571 114.648 343.571Z" fill="white"/>
<path d="M114.648 344.15H253.962C256.051 344.15 257.734 342.472 257.734 340.389V331.921C257.734 329.838 256.051 328.16 253.962 328.16H114.648C112.558 328.16 110.875 329.838 110.875 331.921V340.389C110.875 342.472 112.558 344.15 114.648 344.15ZM253.962 329.317C255.393 329.317 256.573 330.494 256.573 331.921V340.389C256.573 341.816 255.393 342.993 253.962 342.993H114.648C113.216 342.993 112.036 341.816 112.036 340.389V331.921C112.036 330.494 113.216 329.317 114.648 329.317H253.962Z" fill="#66B0F0"/>
</svg>
